<svg width="58" height="42" viewBox="0 0 58 42" fill="none" xmlns="http://www.w3.org/2000/svg">
<g clip-path="url(#clip0_435_3535)">
<path d="M56.8028 16.0047C55.4966 15.0966 52.5035 14.7561 50.1636 15.2101C49.8917 12.9399 48.64 10.9536 46.4631 9.19414L45.2116 8.28603L44.3407 9.59144C43.2525 11.2941 42.7083 13.6779 42.8715 15.9482C42.9258 16.7426 43.1979 18.1615 44.0142 19.4101C43.2525 19.8642 41.6743 20.4318 39.6065 20.4318H0.261618L0.152868 20.8858C-0.22821 23.1558 -0.22821 30.2502 4.23416 35.6986C7.60813 39.8417 12.6147 41.9417 19.1993 41.9417C33.4569 41.9417 44.0142 35.0741 48.9664 22.645C50.9255 22.7018 55.1158 22.645 57.2382 18.3883C57.2926 18.2748 57.4014 18.0477 57.7822 17.1966L57.9999 16.7426L56.8028 16.0047ZM31.7155 0H25.7297V5.67545H31.7155V0ZM31.7155 6.81058H25.7297V12.486H31.7155V6.81058ZM24.6411 6.81058H18.6553V12.486H24.6411V6.81058ZM17.5667 6.81058H11.5807V12.486H17.5667V6.81058ZM10.4923 13.6212H4.50627V19.2966H10.492L10.4923 13.6212ZM17.5667 13.6212H11.5807V19.2966H17.5667V13.6212ZM24.6411 13.6212H18.6553V19.2966H24.6411V13.6212ZM31.7157 13.6212H25.7295V19.2966H31.7157V13.6212ZM38.7902 13.6212H32.8039V19.2966H38.7902V13.6212Z" fill="#1891EC"/>
</g>
<defs>
<clipPath id="clip0_435_3535">
<rect width="58" height="42" fill="white"/>
</clipPath>
</defs>
</svg>
