<svg width="45" height="56" viewBox="0 0 45 56" fill="none" xmlns="http://www.w3.org/2000/svg">
<g clip-path="url(#clip0_435_3501)">
<path d="M14.0938 54.3129C16.4589 55.2544 19.0244 55.8134 21.7184 55.9064C25.237 56.0307 28.7357 55.333 31.931 53.8699C28.2141 52.4252 24.848 50.3125 21.9751 47.6855C20.1129 50.6356 17.3584 52.9656 14.0938 54.3129Z" fill="#FF9100"/>
<path d="M21.975 47.6852C15.4172 41.6845 11.4389 32.9993 11.7751 23.4733C11.786 23.1638 11.8026 22.8547 11.8219 22.5457C8.90945 21.7986 5.84869 21.8303 2.95268 22.6375C1.20207 25.6714 0.145628 29.1525 0.0139678 32.881C-0.325642 42.5043 5.56039 50.9125 14.0939 54.3125C17.3585 52.9652 20.1126 50.6377 21.975 47.6852Z" fill="#FFC400"/>
<path d="M21.9735 47.6864C23.4983 45.2724 24.4227 42.4422 24.5303 39.393C24.8133 31.3721 19.3634 24.4723 11.8202 22.5469C11.8009 22.8559 11.7846 23.1651 11.7737 23.4745C11.4374 33.0006 15.4157 41.6857 21.9735 47.6864Z" fill="#FF9100"/>
<path d="M23.6903 0C19.3942 3.40522 16.002 7.89496 13.9496 13.0671C12.747 16.099 12.0286 19.2976 11.8203 22.548C19.3634 24.4732 24.8135 31.3732 24.5304 39.3941C24.4228 42.4431 23.4955 45.2706 21.9736 47.6875C24.8744 50.3438 28.2508 52.4412 31.9293 53.8718C39.3897 50.46 44.6828 43.1183 44.9894 34.4346C45.1878 28.8083 43.003 23.7939 39.9156 19.5614C36.6552 15.0849 23.6901 0 23.6901 0" fill="#DD2C00"/>
</g>
<defs>
<clipPath id="clip0_435_3501">
<rect width="45" height="56" fill="white"/>
</clipPath>
</defs>
</svg>
