<svg width="56" height="56" viewBox="0 0 56 56" fill="none" xmlns="http://www.w3.org/2000/svg">
<g clip-path="url(#clip0_435_3522)">
<path d="M54.5729 25.5406L30.4597 1.42819C29.0719 0.0395625 26.8197 0.0395625 25.4297 1.42819L20.423 6.43581L26.7746 12.7874C28.2512 12.2891 29.9434 12.6234 31.1199 13.7998C32.3024 14.9837 32.6341 16.6904 32.1235 18.1718L38.245 24.2937C39.7259 23.7831 41.4352 24.113 42.6174 25.2978C44.2711 26.9502 44.2711 29.629 42.6174 31.2823C42.2244 31.6755 41.7578 31.9874 41.2442 32.2002C40.7306 32.413 40.1801 32.5225 39.6242 32.5225C39.0683 32.5225 38.5178 32.413 38.0042 32.2002C37.4907 31.9874 37.0241 31.6755 36.6311 31.2823C36.0408 30.6914 35.6384 29.9391 35.4745 29.1201C35.3106 28.3011 35.3926 27.4519 35.7101 26.6794L30.0016 20.9709L30.0007 35.9951C30.4149 36.199 30.7931 36.4691 31.1203 36.7948C32.7732 38.4472 32.7732 41.1252 31.1203 42.7811C29.467 44.4336 26.7873 44.4336 25.1357 42.7811C23.4829 41.1256 23.4829 38.4477 25.1357 36.7948C25.5321 36.3986 26.003 36.0849 26.5213 35.8717V20.7084C26.0024 20.4961 25.5313 20.1821 25.1357 19.7848C23.8836 18.5336 23.5822 16.6961 24.2244 15.1578L17.9625 8.89588L1.42849 25.429C0.761445 26.0963 0.386719 27.0011 0.386719 27.9446C0.386719 28.8881 0.761445 29.793 1.42849 30.4603L25.5422 54.5726C26.9308 55.9613 29.1822 55.9613 30.573 54.5726L54.5734 30.5722C55.2403 29.9048 55.6149 28.9999 55.6148 28.0563C55.6147 27.1128 55.24 26.2079 54.5729 25.5406Z" fill="#F34F29"/>
</g>
<defs>
<clipPath id="clip0_435_3522">
<rect width="56" height="56" fill="white"/>
</clipPath>
</defs>
</svg>
