<svg width="56" height="56" viewBox="0 0 56 56" fill="none" xmlns="http://www.w3.org/2000/svg">
<path d="M28.0013 4.66602C24.9371 4.66602 21.903 5.26955 19.072 6.44216C16.2411 7.61477 13.6688 9.33349 11.5021 11.5002C7.1263 15.876 4.66797 21.811 4.66797 27.9993C4.66797 38.3127 11.3646 47.0627 20.628 50.166C21.7946 50.3527 22.168 49.6293 22.168 48.9993V45.056C15.7046 46.456 14.328 41.9293 14.328 41.9293C13.2546 39.2227 11.738 38.4993 11.738 38.4993C9.61464 37.0527 11.9013 37.0993 11.9013 37.0993C14.2346 37.2627 15.4713 39.5027 15.4713 39.5027C17.5013 43.0493 20.9313 41.9993 22.2613 41.4393C22.4713 39.9227 23.078 38.896 23.7313 38.3127C18.5513 37.7293 13.1146 35.7227 13.1146 26.8327C13.1146 24.2427 14.0013 22.166 15.518 20.5093C15.2846 19.926 14.468 17.4993 15.7513 14.3493C15.7513 14.3493 17.7113 13.7193 22.168 16.7293C24.0113 16.216 26.018 15.9593 28.0013 15.9593C29.9846 15.9593 31.9913 16.216 33.8346 16.7293C38.2913 13.7193 40.2513 14.3493 40.2513 14.3493C41.5346 17.4993 40.718 19.926 40.4846 20.5093C42.0013 22.166 42.888 24.2427 42.888 26.8327C42.888 35.746 37.428 37.706 32.2246 38.2893C33.0646 39.0127 33.8346 40.436 33.8346 42.606V48.9993C33.8346 49.6293 34.208 50.376 35.398 50.166C44.6613 47.0393 51.3346 38.3127 51.3346 27.9993C51.3346 24.9352 50.7311 21.901 49.5585 19.0701C48.3859 16.2391 46.6672 13.6669 44.5005 11.5002C42.3338 9.33349 39.7615 7.61477 36.9306 6.44216C34.0997 5.26955 31.0655 4.66602 28.0013 4.66602Z" fill="black"/>
</svg>
