<svg width="46" height="52" viewBox="0 0 46 52" fill="none" xmlns="http://www.w3.org/2000/svg">
<path d="M22.9996 52C22.2856 52 21.6189 51.809 20.9997 51.4746L14.6666 47.7008C13.714 47.175 14.1903 46.9841 14.4762 46.8886C15.7617 46.4587 15.9998 46.3628 17.3331 45.599C17.4761 45.5031 17.6669 45.551 17.8094 45.6465L22.6667 48.5606C22.857 48.6561 23.0952 48.6561 23.2377 48.5606L42.2379 37.5251C42.4282 37.4297 42.5238 37.2383 42.5238 36.9998V14.9769C42.5238 14.7375 42.4282 14.547 42.2379 14.4511L23.2377 3.46361C23.0474 3.36771 22.8092 3.36771 22.6667 3.46361L3.66654 14.4511C3.47618 14.5466 3.3806 14.7855 3.3806 14.9765V36.9994C3.3806 37.1908 3.47618 37.4293 3.66654 37.5251L8.85712 40.5347C11.6667 41.9677 13.4284 40.2958 13.4284 38.6238V16.8873C13.4284 16.6009 13.6666 16.314 13.9999 16.314H16.4283C16.7143 16.314 16.9998 16.5529 16.9998 16.8873V38.6238C16.9998 42.3976 14.9521 44.5954 11.3807 44.5954C10.2856 44.5954 9.42859 44.5954 6.99975 43.4008L1.99993 40.5347C0.76182 39.8184 0 38.4804 0 37.0473V15.0244C0 13.5913 0.76182 12.2533 1.99993 11.537L20.9997 0.501592C22.1904 -0.167197 23.8096 -0.167197 24.9999 0.501592L43.9997 11.537C45.2378 12.2533 46 13.5913 46 15.0244V37.0473C46 38.4804 45.2378 39.8184 43.9997 40.5347L24.9999 51.5701C24.3807 51.857 23.6662 52 22.9996 52ZM28.8572 36.8564C20.5242 36.8564 18.8098 33.0346 18.8098 29.7861C18.8098 29.4993 19.0479 29.2128 19.3813 29.2128H21.8575C22.143 29.2128 22.3812 29.4038 22.3812 29.6906C22.7623 32.2224 23.8574 33.4645 28.905 33.4645C32.9049 33.4645 34.6197 32.5568 34.6197 30.407C34.6197 29.1649 34.143 28.2576 27.9051 27.6363C22.7145 27.1106 19.4764 25.9643 19.4764 21.8082C19.4764 17.9385 22.7149 15.6452 28.1432 15.6452C34.2382 15.6452 37.2385 17.7475 37.6196 22.3331C37.6196 22.4767 37.5719 22.6201 37.4766 22.7634C37.381 22.8589 37.2385 22.9544 37.0955 22.9544H34.6193C34.3811 22.9544 34.143 22.7634 34.0956 22.5245C33.5241 19.8973 32.0479 19.0371 28.1432 19.0371C23.7622 19.0371 23.2381 20.5661 23.2381 21.7123C23.2381 23.0978 23.8574 23.5277 29.762 24.292C35.6193 25.0566 38.3814 26.1553 38.3814 30.2635C38.3336 34.4676 34.9052 36.8564 28.8572 36.8564Z" fill="#539E43"/>
</svg>
