<svg width="64" height="64" viewBox="0 0 64 64" fill="none" xmlns="http://www.w3.org/2000/svg">
<g clip-path="url(#clip0_435_3475)">
<path d="M32.0039 12.8008C23.4704 12.8008 18.1389 17.0658 16.0039 25.5993C19.2029 21.3338 22.9374 19.7343 27.2029 20.8008C29.6384 21.4078 31.3789 23.1738 33.3064 25.1308C36.4434 28.3143 40.0744 31.9998 48.0039 31.9998C56.5369 31.9998 61.8689 27.7343 64.0039 19.1988C60.8039 23.4664 57.0707 25.0668 52.8044 23.9998C50.3694 23.3923 48.6309 21.6268 46.7009 19.6698C43.5659 16.4863 39.9359 12.8008 32.0039 12.8008ZM16.0039 31.9998C7.47091 31.9998 2.13891 36.2653 0.00390625 44.8008C3.20357 40.5331 6.93657 38.9328 11.2029 39.9998C13.6384 40.6073 15.3789 42.3728 17.3064 44.3298C20.4434 47.5133 24.0744 51.1988 32.0039 51.1988C40.5369 51.1988 45.8689 46.9338 48.0039 38.4003C44.8039 42.666 41.0707 44.2655 36.8044 43.1988C34.3694 42.5918 32.6309 40.8258 30.7009 38.8688C27.5659 35.6853 23.9359 31.9998 16.0039 31.9998Z" fill="#38BDF8"/>
</g>
<defs>
<clipPath id="clip0_435_3475">
<rect width="64" height="64" fill="white"/>
</clipPath>
</defs>
</svg>
