<svg width="56" height="56" viewBox="0 0 56 56" fill="none" xmlns="http://www.w3.org/2000/svg">
<path d="M6.96484 35.1032L19.6926 10.8499L32.2138 4.13867L35.9378 6.01817L23.4918 13.0497L36.3508 51.7037L32.2138 49.2974L22.5888 27.1127L9.95384 36.7009L6.96484 35.1032Z" fill="white"/>
<path d="M44.1692 28.823C46.7653 28.823 48.8697 26.8619 48.8697 24.4428C48.8697 22.0236 46.7653 20.0625 44.1692 20.0625C41.5732 20.0625 39.4688 22.0236 39.4688 24.4428C39.4688 26.8619 41.5732 28.823 44.1692 28.823Z" fill="white"/>
<path d="M47.6 22.487C47.1773 21.8868 46.6065 21.4062 45.9431 21.0919C45.2798 20.7775 44.5464 20.6401 43.8142 20.6929C43.082 20.7458 42.376 20.9871 41.7646 21.3934C41.1533 21.7998 40.6574 22.3573 40.3252 23.012C39.9989 23.7165 39.8943 24.5036 40.0253 25.2689C40.1562 26.0342 40.5165 26.7417 41.0585 27.2977C42.5451 27.4163 44.0246 26.9952 45.226 26.1117C46.4274 25.2282 47.2702 23.9413 47.6 22.487ZM34.958 5.94946L32.2508 4.46371L20.4628 11.0245L21.4025 11.532L23.1893 12.4717L26.425 10.6745L34.9597 5.91796L34.958 5.94946ZM36.0483 5.49796C36.1184 5.51509 36.183 5.55001 36.2357 5.59936C36.2884 5.64872 36.3275 5.71083 36.3492 5.77971L40.2972 17.4295C40.3377 17.5219 40.3407 17.6263 40.3058 17.7209C40.2709 17.8155 40.2007 17.893 40.11 17.937C38.6029 18.7634 37.4189 20.0745 36.75 21.6579C36.0811 23.2412 35.9664 25.004 36.4245 26.6607C36.9712 28.4633 38.1313 30.0178 39.7039 31.0546C41.2765 32.0915 43.1623 32.5454 45.0345 32.3377C45.1373 32.3312 45.2395 32.3566 45.3272 32.4105C45.415 32.4644 45.4839 32.5441 45.5245 32.6387L49.6037 44.5965C49.6294 44.6928 49.625 44.7947 49.5913 44.8885C49.5575 44.9823 49.4959 45.0636 49.4147 45.1215L36.876 52.4522C36.8159 52.4766 36.7518 52.4897 36.687 52.4907C36.5713 52.5103 36.4524 52.4906 36.3492 52.4347L31.9498 49.6697C31.8695 49.6281 31.8041 49.5627 31.7625 49.4825L23.17 29.725L10.0853 37.1695C10.007 37.2088 9.92114 37.2308 9.83359 37.2342C9.74604 37.2375 9.6588 37.222 9.57775 37.1887L6.60275 35.4965C6.50547 35.4442 6.43187 35.3567 6.39705 35.252C6.36224 35.1472 6.36884 35.033 6.4155 34.933L19.1275 10.811C19.175 10.7285 19.2473 10.663 19.334 10.6237L32.0058 3.55546C32.075 3.51779 32.1526 3.49805 32.2315 3.49805C32.3104 3.49805 32.388 3.51779 32.4573 3.55546L36.0483 5.49796ZM20.3315 11.9765L19.7103 11.658L7.46025 34.989L9.69675 36.249L20.2633 22.424C20.3156 22.3609 20.3819 22.311 20.457 22.2782C20.532 22.2454 20.6137 22.2306 20.6955 22.235C20.7758 22.2495 20.8516 22.2825 20.9169 22.3314C20.9822 22.3803 21.0352 22.4437 21.0718 22.5167L32.578 49.0257L35.6527 50.9245L23.3013 14.8167L22.7763 13.3117L20.314 11.959L20.3315 11.9765ZM39.2822 25.889C39.0018 24.8484 39.0813 23.7436 39.508 22.754C39.9346 21.7644 40.6833 20.9481 41.6325 20.4377C42.5959 19.8988 43.706 19.6813 44.8016 19.8166C45.8971 19.9519 46.9209 20.4331 47.7242 21.1902C48.6333 22.0644 49.1583 23.2637 49.1839 24.5246C49.2095 25.7855 48.7336 27.0051 47.8607 27.9155L47.7242 28.052C47.0942 28.6552 46.3208 29.0879 45.4771 29.3091C44.6334 29.5303 43.7472 29.5328 42.9022 29.3163C42.0572 29.0998 41.2814 28.6715 40.648 28.0718C40.0146 27.4721 39.5446 26.7208 39.2822 25.889Z" fill="black"/>
</svg>
