<svg width="35" height="52" viewBox="0 0 35 52" fill="none" xmlns="http://www.w3.org/2000/svg">
<g clip-path="url(#clip0_435_3439)">
<path d="M8.75 51.9993C13.58 51.9993 17.5 48.1167 17.5 43.3327V34.666H8.75C3.92 34.666 0 38.5487 0 43.3327C0 48.1167 3.92 51.9993 8.75 51.9993Z" fill="#0ACF83"/>
<path d="M0 26.0007C0 21.2167 3.92 17.334 8.75 17.334H17.5V34.6673H8.75C3.92 34.6673 0 30.7847 0 26.0007Z" fill="#A259FF"/>
<path d="M0 8.66667C0 3.88267 3.92 0 8.75 0H17.5V17.3333H8.75C3.92 17.3333 0 13.4507 0 8.66667Z" fill="#F24E1E"/>
<path d="M17.5 0H26.25C31.08 0 35 3.88267 35 8.66667C35 13.4507 31.08 17.3333 26.25 17.3333H17.5V0Z" fill="#FF7262"/>
<path d="M35 26.0007C35 30.7847 31.08 34.6673 26.25 34.6673C21.42 34.6673 17.5 30.7847 17.5 26.0007C17.5 21.2167 21.42 17.334 26.25 17.334C31.08 17.334 35 21.2167 35 26.0007Z" fill="#1ABCFE"/>
</g>
<defs>
<clipPath id="clip0_435_3439">
<rect width="35" height="52" fill="white"/>
</clipPath>
</defs>
</svg>
