<svg width="56" height="56" viewBox="0 0 56 56" fill="none" xmlns="http://www.w3.org/2000/svg">
<g clip-path="url(#clip0_438_3721)">
<path d="M49.4888 11.4029C40.3236 -0.465593 23.2712 -2.65659 11.4023 6.51034C-0.46491 15.6773 -2.65372 32.7297 6.51321 44.5969C15.6819 56.4637 32.7357 58.6512 44.6011 49.4825C56.4635 40.3155 58.6527 23.2683 49.4888 11.4029Z" fill="#F37036"/>
<path d="M39.8485 10.5716C38.9138 10.6464 38.0275 11.0183 37.3193 11.633C36.4906 12.3527 35.9617 13.3569 35.837 14.4474C35.7123 15.538 36.0008 16.6357 36.6456 17.5239C37.2898 18.4124 38.2436 19.0271 39.3188 19.247C40.394 19.4669 41.5125 19.2759 42.4538 18.7117H42.4547L42.523 18.78C42.833 18.6024 43.1215 18.3895 43.3827 18.1456C44.1885 17.2933 44.6317 16.1614 44.619 14.9886C44.6063 13.8158 44.1385 12.6937 43.3144 11.8592V11.8583L39.4452 15.7035L39.3769 15.6357L43.2462 11.7887C42.7983 11.357 42.2638 11.0253 41.678 10.8156C41.0923 10.6059 40.4687 10.523 39.8485 10.5725V10.5716ZM34.7543 16.8659C32.8993 16.8629 29.8705 18.9655 22.475 26.361L22.5117 26.3986C22.4715 26.3846 22.4308 26.3833 22.4308 26.3833L19.6465 29.143C19.575 29.2111 19.5277 29.3006 19.5118 29.3979C19.4958 29.4953 19.5121 29.5952 19.5582 29.6825C19.6042 29.7698 19.6775 29.8396 19.7669 29.8814C19.8563 29.9232 19.9569 29.9346 20.0534 29.9139L24.8283 28.8954C24.8495 28.8758 24.8637 28.8496 24.8685 28.821L24.9744 28.9304L23.3469 30.5448H23.2682L13.6055 40.2836L16.7057 43.2691C16.7922 43.3474 16.9016 43.3961 17.0178 43.4078C17.134 43.4195 17.2509 43.3938 17.3514 43.3342C17.4527 43.2753 17.5339 43.1871 17.5842 43.0812C17.6346 42.9754 17.6518 42.8568 17.6336 42.741L17.1808 40.7722C17.1523 40.7328 17.137 40.6853 17.137 40.6366C17.137 40.5879 17.1523 40.5405 17.1808 40.501C21.4132 38.4832 25.3491 35.895 28.8787 32.8084L26.8946 30.8235L26.9322 30.8174L25.7553 29.6409L25.8306 29.5648L25.9102 29.6462L25.8691 29.686L28.9915 32.8767V32.8754C34.9765 27.208 39.2247 22.6523 38.12 19.5863C38.0696 19.2197 37.8993 18.88 37.6357 18.6203V18.6221C37.5685 18.5724 37.4979 18.5277 37.4243 18.4882C37.388 18.4497 37.3561 18.4103 37.3176 18.3727L37.2887 18.4016C37.2074 18.3524 37.1223 18.31 37.0341 18.2747L37.1605 18.1469C36.3748 17.4469 35.7255 16.8677 34.7543 16.8651V16.8659ZM13.5382 40.3417L11.2758 42.6045V42.6062C11.1947 42.6565 11.1316 42.7313 11.0956 42.8197C11.0597 42.9082 11.0528 43.0058 11.0759 43.0984C11.0982 43.191 11.1492 43.2742 11.2215 43.3362C11.2939 43.3982 11.3839 43.4358 11.4788 43.4436L17.0228 43.8264L13.5382 40.3417Z" fill="white"/>
<path d="M40.2283 10.1973C38.9585 10.1958 37.7392 10.694 36.8337 11.5841C36.1896 12.2435 35.7485 13.0741 35.5631 13.9771C35.3778 14.88 35.4558 15.8173 35.7881 16.6771C33.7139 15.789 30.9078 17.3377 22.1792 26.0645C22.1731 26.0779 22.1677 26.0917 22.163 26.1056C22.1451 26.1135 22.1277 26.1226 22.111 26.1328L19.3508 28.917C19.2185 29.0469 19.1316 29.2159 19.103 29.3991C19.0743 29.5822 19.1056 29.7698 19.192 29.9338C19.269 30.0636 19.3782 30.1714 19.509 30.2468C19.6398 30.3222 19.7878 30.3627 19.9388 30.3643L20.0757 30.2755L23.7612 29.4893L21.9981 31.2686C21.9881 31.2921 21.9802 31.3164 21.9745 31.3412L13.3338 40.0033C13.2994 40.0323 13.2709 40.0676 13.2498 40.1074L11.0247 42.3343C10.9139 42.4514 10.8382 42.5973 10.8062 42.7553C10.7742 42.9133 10.7872 43.0771 10.8436 43.2281C10.9018 43.378 11.0002 43.509 11.128 43.6066C11.2559 43.7043 11.4081 43.7648 11.5681 43.7815L17.0884 44.1665C17.1828 44.1337 17.2631 44.0697 17.3159 43.985C17.3632 43.9189 17.3885 43.8397 17.3885 43.7586C17.3885 43.6774 17.3632 43.5982 17.3159 43.5321L17.3046 43.5212C17.424 43.4591 17.5291 43.3727 17.613 43.2675C17.7016 43.1524 17.7635 43.019 17.7942 42.8771C17.8249 42.7351 17.8237 42.5881 17.7906 42.4467L17.3601 40.6149C21.4904 38.6412 25.3602 36.1634 28.8813 33.2382C28.9152 33.258 28.9517 33.2732 28.9898 33.2833C29.1009 33.275 29.205 33.2273 29.2838 33.1485C35.2119 27.5354 38.6966 23.6889 38.6966 20.6351C38.7097 20.2115 38.6458 19.7891 38.508 19.3883C39.0424 19.6094 39.6122 19.7324 40.1902 19.7514L40.1836 19.7531C40.9798 19.7291 41.7581 19.5114 42.4512 19.1188L42.453 19.1192C42.5427 19.1459 42.6393 19.1373 42.7229 19.0951C43.0574 18.8982 43.3623 18.6548 43.6285 18.3724C44.0797 17.9298 44.4382 17.4016 44.6829 16.8188C44.9277 16.2361 45.0538 15.6103 45.0539 14.9783C45.0538 14.3462 44.9278 13.7205 44.6831 13.1377C44.4385 12.555 44.0801 12.0268 43.629 11.5841C43.6128 11.5696 43.5955 11.5563 43.5773 11.5443C42.6766 10.6798 41.4763 10.1972 40.2278 10.1977L40.2283 10.1973ZM40.1902 10.9725C41.0743 10.9778 41.9325 11.2718 42.6341 11.8099L39.1043 15.3611C39.0924 15.3747 39.0813 15.389 39.0711 15.404C39.0075 15.4683 38.9702 15.5541 38.9665 15.6446C38.9665 15.6992 38.9788 15.7532 39.0025 15.8024C39.0262 15.8517 39.0607 15.8949 39.1035 15.929H39.1043L41.7731 18.5977C41.0426 18.9165 40.2329 19.0072 39.45 18.8578C38.6671 18.7085 37.9476 18.3261 37.3858 17.7608C36.2545 16.6233 35.9263 14.9153 36.5314 13.4335C37.1365 11.9503 38.5789 10.9813 40.1902 10.9725ZM43.3052 12.474C43.8823 13.1723 44.197 14.0505 44.1946 14.9564C44.193 16.0177 43.77 17.0349 43.0186 17.7844C42.868 17.9261 42.7074 18.057 42.5383 18.176L40.3845 16.0554L39.9631 15.6341L40.0791 15.5181L43.3048 12.4731L43.3052 12.474ZM43.1451 14.3085C43.0659 14.2836 42.9803 14.2884 42.9045 14.322C42.8294 14.3608 42.7727 14.4279 42.747 14.5084C42.7343 14.5486 42.7297 14.5909 42.7334 14.6329C42.7372 14.6748 42.7492 14.7157 42.7688 14.753C42.8464 14.9165 42.8769 15.0983 42.8571 15.2782C42.8372 15.458 42.7677 15.6288 42.6564 15.7715C42.6279 15.799 42.6055 15.8322 42.5908 15.869C42.5761 15.9059 42.5694 15.9454 42.5711 15.985C42.5728 16.0655 42.6017 16.1425 42.6564 16.2002C42.7147 16.2225 42.7792 16.2225 42.8375 16.2002C42.8901 16.2133 42.9453 16.2118 42.9971 16.1959C43.0489 16.1799 43.0954 16.1501 43.1315 16.1096C43.3178 15.8814 43.4358 15.6052 43.4718 15.3128C43.5078 15.0204 43.4603 14.7238 43.335 14.4572V14.459C43.2922 14.3873 43.2246 14.3337 43.1451 14.3085ZM34.7114 17.2498C35.2393 17.2678 35.7472 17.4559 36.1595 17.7861C35.7156 17.8502 35.3042 18.0558 34.9866 18.3724L25.0085 28.3058L23.0503 26.3476C28.225 21.1973 31.389 18.5071 33.356 17.6256C33.7613 17.3704 34.2325 17.24 34.7114 17.2498ZM36.4461 18.5448C36.7811 18.545 37.1024 18.6778 37.3399 18.914C37.4659 19.0327 37.5654 19.1768 37.6317 19.3368C37.6979 19.4967 37.7296 19.6689 37.7245 19.842C37.7187 20.0144 37.6775 20.1838 37.6033 20.3397C37.5292 20.4955 37.4237 20.6343 37.2935 20.7476L26.6841 29.9815L25.5392 28.8365L35.5523 18.914C35.7898 18.6779 36.1111 18.5449 36.4461 18.5448ZM37.756 21.4751C37.0166 24.4073 33.0979 28.3802 29.0116 32.2407L27.3592 30.59L37.756 21.4751ZM22.4732 26.926L22.5931 27.0441L24.13 28.581L19.9169 29.4823L22.4732 26.926ZM25.0076 29.481L25.0094 29.4827L25.5204 30.0055L25.5283 30.0423L25.5624 30.0475L25.6709 30.1586L26.0296 30.5261L23.6737 30.8149L25.0076 29.481ZM26.6995 31.2642L28.2648 32.8287C24.8034 35.707 21.0051 38.1539 16.9533 40.1157C16.8217 40.1784 16.7159 40.2847 16.654 40.4165C16.592 40.5484 16.5776 40.6976 16.6133 40.8389L17.0661 42.8076C17.0828 42.8308 17.0918 42.8585 17.0918 42.8871C17.0918 42.9156 17.0828 42.9433 17.0661 42.9665C17.0413 42.9888 17.009 43.0011 16.9756 43.0011C16.9421 43.0011 16.9099 42.9888 16.885 42.9665L14.2154 40.275L22.4439 31.9257L26.6995 31.2642ZM13.6038 40.863L13.9839 41.2191L15.9492 43.1843L11.5672 42.9008L13.6038 40.863Z" fill="#F37036"/>
</g>
<defs>
<clipPath id="clip0_438_3721">
<rect width="56" height="56" fill="white"/>
</clipPath>
</defs>
</svg>
