<svg width="56" height="56" viewBox="0 0 56 56" fill="none" xmlns="http://www.w3.org/2000/svg">
<path d="M54.5841 8.53934L29.4532 53.4785C28.9339 54.4064 27.6008 54.4117 27.0745 53.489L1.44488 8.54459C0.870446 7.53747 1.73013 6.31903 2.87157 6.52247L28.0296 11.0187C28.1901 11.0479 28.3546 11.0479 28.5152 11.0187L53.1465 6.52947C54.2831 6.32253 55.148 7.53091 54.5841 8.53934Z" fill="url(#paint0_linear_435_3516)"/>
<path d="M40.0155 0.626444L21.4191 4.26994C21.2707 4.29895 21.1361 4.37643 21.0365 4.49022C20.9369 4.60401 20.8779 4.74767 20.8687 4.89863L19.7238 24.2221C19.7177 24.3281 19.7363 24.434 19.7781 24.5316C19.82 24.6291 19.884 24.7156 19.9651 24.7841C20.0462 24.8526 20.1421 24.9013 20.2453 24.9263C20.3484 24.9513 20.456 24.952 20.5594 24.9283L25.7377 23.7317C25.8492 23.7061 25.9654 23.7089 26.0755 23.7398C26.1857 23.7707 26.2863 23.8289 26.3682 23.9088C26.4501 23.9888 26.5105 24.088 26.5441 24.1974C26.5776 24.3068 26.5832 24.4228 26.5602 24.5349L25.0215 32.0683C24.998 32.1842 25.005 32.3043 25.0418 32.4167C25.0786 32.5291 25.144 32.6301 25.2315 32.7097C25.319 32.7893 25.4257 32.8448 25.5411 32.8708C25.6565 32.8968 25.7767 32.8923 25.8899 32.8579L29.0872 31.8854C29.5829 31.7349 30.0597 32.1706 29.9556 32.6781L27.51 44.5112C27.3577 45.2514 28.3421 45.6548 28.7525 45.0204L29.0259 44.5969L44.1809 14.3526C44.4356 13.8451 43.9967 13.2676 43.4416 13.3752L38.1106 14.4042C37.9959 14.4265 37.8774 14.4189 37.7665 14.3822C37.6555 14.3455 37.5559 14.2808 37.4771 14.1945C37.3983 14.1082 37.3431 14.0031 37.3167 13.8892C37.2902 13.7754 37.2935 13.6567 37.3262 13.5445L40.8043 1.48613C40.837 1.37354 40.8401 1.25442 40.8134 1.14026C40.7867 1.0261 40.731 0.920746 40.6518 0.834356C40.5725 0.747966 40.4723 0.683454 40.3609 0.647037C40.2494 0.610621 40.1305 0.603529 40.0155 0.626444Z" fill="url(#paint1_linear_435_3516)"/>
<defs>
<linearGradient id="paint0_linear_435_3516" x1="0.818471" y1="4.91667" x2="32.097" y2="47.3954" gradientUnits="userSpaceOnUse">
<stop stop-color="#41D1FF"/>
<stop offset="1" stop-color="#BD34FE"/>
</linearGradient>
<linearGradient id="paint1_linear_435_3516" x1="26.5886" y1="1.61519" x2="32.2468" y2="40.4294" gradientUnits="userSpaceOnUse">
<stop stop-color="#FFEA83"/>
<stop offset="0.083" stop-color="#FFDD35"/>
<stop offset="1" stop-color="#FFA800"/>
</linearGradient>
</defs>
</svg>
