<svg width="60" height="60" viewBox="0 0 60 60" fill="none" xmlns="http://www.w3.org/2000/svg">
<path d="M8.55 30C8.55 26.9 9.225 23.95 10.4 21.25L20.65 49.3C17.0205 47.5487 13.9593 44.8081 11.8187 41.3937C9.67805 37.9793 8.54502 34.0299 8.55 30ZM44.475 28.925C44.475 30.75 43.75 32.875 42.85 35.85L40.7 43L32.95 20L35.4 19.75C36.575 19.6 36.425 17.9 35.275 17.975C35.275 17.975 31.8 18.25 29.55 18.25L23.9 17.975C22.75 17.9 22.625 19.675 23.75 19.75L26.025 20L29.375 29.1L24.675 43.175L16.85 20L19.325 19.75C20.475 19.6 20.325 17.9 19.175 17.975C19.175 17.975 15.7 18.25 13.45 18.25L12.075 18.225C15.925 12.4 22.5 8.55 30 8.55C35.575 8.55 40.675 10.7 44.475 14.175H44.2C42.1 14.175 40.6 16 40.6 17.975C40.6 19.75 41.625 21.25 42.7 23C43.525 24.425 44.475 26.25 44.475 28.925ZM30.375 31.875L36.975 49.925L37.125 50.225C34.9 51.025 32.5 51.45 30 51.45C27.9 51.45 25.875 51.15 23.95 50.575L30.375 31.875ZM48.825 19.7C50.5533 22.8575 51.4562 26.4004 51.45 30C51.45 37.9 47.15 44.825 40.775 48.525L47.325 29.6C48.55 26.55 48.975 24.1 48.975 21.925L48.825 19.7ZM30 5C33.283 5 36.5339 5.64664 39.5671 6.90301C42.6002 8.15938 45.3562 10.0009 47.6777 12.3223C49.9991 14.6438 51.8406 17.3998 53.097 20.4329C54.3534 23.4661 55 26.717 55 30C55 36.6304 52.3661 42.9893 47.6777 47.6777C42.9893 52.3661 36.6304 55 30 55C26.717 55 23.4661 54.3534 20.4329 53.097C17.3998 51.8406 14.6438 49.9991 12.3223 47.6777C7.63392 42.9893 5 36.6304 5 30C5 23.3696 7.63392 17.0107 12.3223 12.3223C17.0107 7.63392 23.3696 5 30 5ZM30 53.85C43.15 53.85 53.85 43.15 53.85 30C53.85 16.85 43.15 6.15 30 6.15C16.85 6.15 6.15 16.85 6.15 30C6.15 43.15 16.85 53.85 30 53.85Z" fill="#0073AA"/>
</svg>
