<svg width="72" height="72" viewBox="0 0 72 72" fill="none" xmlns="http://www.w3.org/2000/svg">
<path d="M51.1495 60.84C48.2095 63.69 44.9995 63.24 41.9095 61.89C38.6395 60.51 35.6395 60.45 32.1895 61.89C27.8695 63.75 25.5895 63.21 23.0095 60.84C8.36952 45.75 10.5295 22.77 27.1495 21.93C31.1995 22.14 34.0195 24.15 36.3895 24.33C39.9295 23.61 43.3195 21.54 47.0995 21.81C51.6295 22.17 55.0495 23.97 57.2995 27.21C47.9395 32.82 50.1595 45.15 58.7395 48.6C57.0295 53.1 54.8095 57.57 51.1195 60.87L51.1495 60.84ZM36.0895 21.75C35.6395 15.06 41.0695 9.54 47.3095 9C48.1795 16.74 40.2895 22.5 36.0895 21.75Z" fill="black"/>
</svg>
