<svg width="52" height="52" viewBox="0 0 52 52" fill="none" xmlns="http://www.w3.org/2000/svg">
<g clip-path="url(#clip0_395_30767)">
<path d="M9.20847 0.650391H42.7915C47.8835 0.650391 52 4.76692 52 9.85886V42.1419C52 47.2339 47.8835 51.3504 42.7915 51.3504H9.20847C4.11653 51.3504 0 47.2339 0 42.1419V9.85886C0 4.76692 4.11653 0.650391 9.20847 0.650391Z" fill="#001E36"/>
<path d="M18.6327 13.541C17.9827 13.541 17.3327 13.541 16.6612 13.563C15.9892 13.5845 15.3608 13.5845 14.7758 13.6064C14.1908 13.628 13.6492 13.628 13.1292 13.6495C12.6308 13.671 12.2842 13.671 11.9158 13.671C11.7642 13.671 11.6992 13.7575 11.6992 13.9095V36.2045C11.6992 36.3995 11.7858 36.4864 11.9592 36.4864H16.1627C16.3142 36.4645 16.4227 36.3345 16.4008 36.183V29.228C16.8123 29.228 17.1158 29.228 17.3327 29.2495C17.5492 29.271 17.8958 29.271 18.4158 29.271C20.1927 29.271 21.8177 29.076 23.2908 28.5345C24.6992 28.0145 25.9127 27.1045 26.7792 25.891C27.6459 24.6777 28.0792 23.1393 28.0792 21.276C28.0792 20.301 27.9062 19.3695 27.5812 18.4595C27.2368 17.5324 26.6973 16.6901 25.9992 15.9895C25.1753 15.189 24.1835 14.582 23.0958 14.2125C21.8823 13.7575 20.4092 13.541 18.6327 13.541ZM19.1161 17.8087C19.888 17.8233 20.6396 17.9582 21.3408 18.2425C21.9692 18.481 22.4892 18.9145 22.8577 19.4775C23.2033 20.0603 23.3761 20.7292 23.3562 21.4064C23.3562 22.3595 23.1392 23.0964 22.6842 23.638C22.2073 24.1795 21.6007 24.5914 20.9077 24.7864C20.1057 25.0464 19.2608 25.176 18.4158 25.176H17.2673C17.0073 25.176 16.7262 25.1545 16.4227 25.133V17.853C16.5742 17.831 16.8777 17.8095 17.3112 17.8314C17.7227 17.8095 18.2208 17.8095 18.7842 17.8095C18.8953 17.8068 19.0059 17.8065 19.1161 17.8087ZM37.2877 18.9149C35.7492 18.9149 34.4708 19.153 33.4527 19.673C32.5212 20.1064 31.7192 20.7995 31.1777 21.666C30.7012 22.468 30.4407 23.356 30.4407 24.288C30.4222 25.0544 30.5935 25.8136 30.9392 26.498C31.3444 27.2266 31.9071 27.8557 32.5862 28.3395C33.5393 28.9914 34.5736 29.5158 35.6627 29.8995C36.7242 30.311 37.4392 30.636 37.7862 30.9175C38.1327 31.1995 38.3062 31.481 38.3062 31.7845C38.3062 32.1745 38.0677 32.543 37.7212 32.6945C37.3312 32.8895 36.7462 32.998 35.9227 32.998C35.0562 32.998 34.1892 32.8895 33.3658 32.673C32.4202 32.4618 31.5137 32.1036 30.6792 31.6114C30.6142 31.568 30.5492 31.5464 30.4842 31.5899C30.4192 31.633 30.3977 31.7195 30.3977 31.7845V35.5545C30.3762 35.728 30.4842 35.8795 30.6362 35.966C31.3388 36.2943 32.082 36.5275 32.8462 36.6595C33.8212 36.8545 34.7958 36.941 35.7923 36.941C37.3523 36.941 38.6527 36.703 39.7142 36.248C40.6892 35.858 41.5342 35.1864 42.1407 34.3195C42.7088 33.4672 43.0036 32.462 42.9858 31.438C43.0071 30.6643 42.836 29.8975 42.4877 29.2064C42.0758 28.4695 41.4907 27.863 40.7757 27.408C39.7298 26.7511 38.6098 26.2201 37.4392 25.826C36.9165 25.6097 36.4032 25.3711 35.9008 25.111C35.6192 24.9595 35.3592 24.7645 35.1642 24.526C35.0342 24.3525 34.9477 24.158 34.9477 23.963C34.9477 23.768 35.0127 23.5514 35.1208 23.378C35.2727 23.1614 35.5108 23.0095 35.7923 22.9445C36.2042 22.8364 36.6592 22.771 37.0923 22.7925C37.9158 22.7925 38.7173 22.901 39.5192 23.0745C40.2562 23.226 40.9492 23.4645 41.5992 23.8114C41.6858 23.8545 41.7942 23.8545 41.9892 23.8114C42.0231 23.7863 42.0505 23.7536 42.0694 23.7159C42.0882 23.6782 42.0979 23.6366 42.0977 23.5945V20.063C42.0977 19.976 42.0758 19.8895 42.0542 19.803C42.0108 19.7164 41.9242 19.6295 41.8377 19.608C41.2401 19.3637 40.6139 19.1962 39.9742 19.1095C39.0846 18.9799 38.1867 18.9152 37.2877 18.9149Z" fill="#31A8FF"/>
</g>
<defs>
<clipPath id="clip0_395_30767">
<rect width="52" height="52" fill="white"/>
</clipPath>
</defs>
</svg>
