<svg width="380" height="257" viewBox="0 0 380 257" fill="none" xmlns="http://www.w3.org/2000/svg">
<rect x="33.25" y="200.08" width="156" height="50" rx="25" transform="rotate(-9 33.25 200.08)" fill="#EBEBEB"/>
<path d="M74.4022 225.961L72.1267 211.595L77.3879 210.762C78.4074 210.6 79.2781 210.635 80.0002 210.866C80.7216 211.092 81.2934 211.464 81.7158 211.982C82.1375 212.495 82.4046 213.107 82.5172 213.818C82.612 214.417 82.5821 214.939 82.4275 215.385C82.2721 215.827 82.0293 216.201 81.6992 216.507C81.3729 216.808 80.9989 217.05 80.577 217.232L80.5993 217.372C81.08 217.32 81.5697 217.4 82.0685 217.614C82.5713 217.822 83.0134 218.162 83.3949 218.633C83.7765 219.105 84.0261 219.713 84.1439 220.456C84.2602 221.191 84.1916 221.877 83.9381 222.517C83.6885 223.151 83.233 223.695 82.5716 224.15C81.9094 224.6 81.0218 224.913 79.9088 225.089L74.4022 225.961ZM76.2753 223.759L79.4039 223.264C80.4421 223.099 81.1538 222.78 81.5391 222.307C81.9243 221.834 82.0692 221.295 81.9736 220.692C81.9018 220.239 81.7213 219.841 81.4322 219.498C81.143 219.156 80.7679 218.906 80.3068 218.749C79.8503 218.591 79.3321 218.558 78.7522 218.65L75.5465 219.157L76.2753 223.759ZM75.2787 217.467L78.1828 217.007C78.6692 216.93 79.0917 216.767 79.4502 216.519C79.8134 216.269 80.0829 215.958 80.2587 215.585C80.4385 215.207 80.4917 214.786 80.4184 214.323C80.3243 213.729 80.0373 213.264 79.5574 212.928C79.0775 212.591 78.4073 212.491 77.5468 212.628L74.5865 213.097L75.2787 217.467ZM87.1586 223.941L85.4521 213.166L87.4794 212.845L87.7504 214.557L87.8627 214.539C87.9673 213.928 88.2411 213.417 88.6842 213.007C89.1313 212.591 89.6705 212.333 90.3018 212.233C90.4328 212.212 90.5878 212.192 90.767 212.173C90.9509 212.154 91.0954 212.143 91.2005 212.141L91.5182 214.147C91.4304 214.137 91.2766 214.135 91.0571 214.141C90.8368 214.142 90.6191 214.16 90.4039 214.194C89.9082 214.272 89.4829 214.448 89.1281 214.72C88.7772 214.986 88.5188 215.322 88.3529 215.727C88.1862 216.127 88.1398 216.561 88.2139 217.029L89.2561 223.609L87.1586 223.941ZM97.8169 222.497C97.1341 222.606 96.4968 222.577 95.9049 222.412C95.3124 222.242 94.8162 221.94 94.4165 221.504C94.0215 221.068 93.768 220.497 93.6562 219.791C93.5599 219.183 93.5976 218.664 93.7692 218.234C93.9408 217.804 94.2072 217.443 94.5684 217.151C94.9296 216.859 95.3465 216.616 95.819 216.421C96.2915 216.226 96.7778 216.058 97.278 215.917C97.9115 215.74 98.4256 215.596 98.8204 215.486C99.2144 215.37 99.4938 215.242 99.6584 215.101C99.823 214.96 99.8853 214.763 99.8453 214.511L99.8375 214.462C99.7405 213.849 99.4923 213.402 99.0929 213.12C98.6981 212.837 98.1617 212.75 97.4836 212.857C96.7775 212.969 96.2458 213.214 95.8885 213.591C95.5352 213.964 95.3114 214.352 95.2171 214.755L93.1748 214.618C93.305 213.926 93.5627 213.344 93.9479 212.87C94.3371 212.392 94.8119 212.015 95.3722 211.739C95.9318 211.458 96.5367 211.267 97.1867 211.164C97.6169 211.096 98.0811 211.075 98.579 211.101C99.081 211.123 99.5635 211.233 100.027 211.433C100.494 211.632 100.903 211.958 101.253 212.411C101.602 212.859 101.839 213.476 101.963 214.262L103.096 221.417L101.048 221.741L100.815 220.268L100.73 220.281C100.638 220.574 100.477 220.873 100.247 221.178C100.017 221.483 99.7031 221.755 99.305 221.996C98.9068 222.236 98.4108 222.403 97.8169 222.497ZM98.0062 220.742C98.5861 220.65 99.0636 220.457 99.4389 220.162C99.8188 219.867 100.087 219.518 100.244 219.114C100.404 218.705 100.451 218.288 100.383 217.863L100.163 216.474C100.1 216.56 99.9666 216.654 99.7618 216.753C99.561 216.847 99.3287 216.939 99.0648 217.029C98.8003 217.114 98.5423 217.196 98.291 217.274C98.039 217.347 97.8283 217.409 97.659 217.46C97.2603 217.576 96.9022 217.721 96.5848 217.896C96.272 218.07 96.0332 218.288 95.8684 218.549C95.7075 218.805 95.6567 219.119 95.716 219.494C95.7982 220.013 96.0522 220.375 96.4779 220.581C96.9028 220.782 97.4122 220.836 98.0062 220.742ZM106.974 214.244L107.987 220.642L105.89 220.974L104.183 210.199L106.197 209.881L106.474 211.634L106.608 211.613C106.765 211.003 107.081 210.484 107.554 210.054C108.033 209.623 108.676 209.344 109.485 209.216C110.22 209.1 110.887 209.152 111.488 209.373C112.088 209.59 112.588 209.976 112.987 210.531C113.387 211.086 113.657 211.808 113.798 212.696L114.883 219.55L112.786 219.882L111.74 213.281C111.616 212.5 111.316 211.922 110.84 211.547C110.363 211.167 109.769 211.033 109.058 211.146C108.571 211.223 108.155 211.397 107.81 211.667C107.469 211.937 107.221 212.293 107.066 212.734C106.914 213.171 106.884 213.674 106.974 214.244ZM121.763 218.676C120.893 218.814 120.081 218.715 119.328 218.378C118.579 218.037 117.945 217.483 117.426 216.717C116.91 215.945 116.56 214.977 116.376 213.812C116.192 212.648 116.228 211.621 116.485 210.732C116.747 209.842 117.184 209.123 117.797 208.575C118.41 208.028 119.15 207.685 120.015 207.548C120.683 207.442 121.239 207.469 121.681 207.629C122.128 207.784 122.487 207.991 122.758 208.25C123.034 208.508 123.252 208.74 123.414 208.944L123.54 208.924L122.695 203.586L124.792 203.254L127.068 217.62L125.019 217.944L124.754 216.268L124.579 216.296C124.489 216.545 124.348 216.836 124.156 217.168C123.969 217.5 123.687 217.808 123.31 218.093C122.933 218.378 122.418 218.572 121.763 218.676ZM121.942 216.814C122.546 216.718 123.03 216.479 123.396 216.095C123.766 215.705 124.013 215.208 124.138 214.604C124.267 213.998 124.272 213.317 124.152 212.559C124.034 211.811 123.822 211.173 123.518 210.646C123.214 210.119 122.829 209.732 122.364 209.484C121.898 209.237 121.359 209.162 120.746 209.259C120.115 209.359 119.614 209.606 119.245 210C118.876 210.394 118.629 210.891 118.504 211.491C118.383 212.09 118.379 212.745 118.491 213.456C118.605 214.176 118.815 214.807 119.122 215.348C119.428 215.889 119.818 216.295 120.292 216.565C120.77 216.829 121.32 216.912 121.942 216.814ZM130.061 217.146L128.355 206.371L130.452 206.039L132.159 216.814L130.061 217.146ZM129.151 204.541C128.786 204.599 128.453 204.527 128.153 204.325C127.856 204.118 127.681 203.844 127.627 203.502C127.572 203.156 127.654 202.841 127.873 202.557C128.096 202.268 128.389 202.094 128.754 202.036C129.119 201.979 129.449 202.053 129.746 202.261C130.046 202.462 130.224 202.736 130.279 203.082C130.333 203.424 130.249 203.739 130.026 204.028C129.807 204.312 129.515 204.483 129.151 204.541ZM136.065 209.637L137.078 216.035L134.98 216.367L133.274 205.592L135.287 205.273L135.565 207.027L135.698 207.006C135.856 206.396 136.171 205.876 136.645 205.446C137.123 205.016 137.767 204.737 138.576 204.608C139.31 204.492 139.978 204.545 140.578 204.766C141.178 204.982 141.678 205.368 142.078 205.923C142.477 206.479 142.747 207.2 142.888 208.089L143.974 214.942L141.876 215.275L140.831 208.674C140.707 207.893 140.407 207.315 139.93 206.939C139.453 206.56 138.859 206.426 138.148 206.539C137.662 206.616 137.246 206.789 136.9 207.06C136.56 207.329 136.312 207.685 136.156 208.127C136.005 208.563 135.974 209.066 136.065 209.637ZM151.98 218.046C151.124 218.182 150.369 218.186 149.717 218.06C149.068 217.932 148.521 217.714 148.074 217.407C147.628 217.099 147.274 216.74 147.012 216.331L148.697 215.302C148.856 215.487 149.059 215.678 149.306 215.874C149.558 216.074 149.879 216.227 150.27 216.332C150.665 216.438 151.153 216.444 151.733 216.352C152.528 216.227 153.154 215.928 153.612 215.458C154.07 214.992 154.233 214.339 154.099 213.497L153.764 211.378L153.63 211.399C153.541 211.649 153.399 211.932 153.204 212.251C153.015 212.568 152.731 212.863 152.352 213.134C151.973 213.405 151.454 213.592 150.794 213.697C149.943 213.831 149.145 213.754 148.399 213.465C147.657 213.17 147.026 212.664 146.505 211.946C145.987 211.222 145.638 210.288 145.457 209.142C145.275 207.996 145.314 206.983 145.572 206.103C145.835 205.223 146.274 204.511 146.888 203.968C147.501 203.42 148.24 203.078 149.105 202.941C149.774 202.835 150.332 202.861 150.779 203.021C151.225 203.175 151.586 203.382 151.862 203.64C152.143 203.898 152.364 204.129 152.526 204.333L152.68 204.309L152.403 202.562L154.459 202.237L156.203 213.25C156.35 214.176 156.255 214.97 155.919 215.632C155.583 216.294 155.07 216.826 154.381 217.227C153.697 217.628 152.896 217.901 151.98 218.046ZM150.982 211.884C151.585 211.788 152.073 211.567 152.444 211.221C152.82 210.869 153.074 210.411 153.205 209.849C153.34 209.281 153.349 208.625 153.232 207.882C153.117 207.157 152.908 206.535 152.606 206.018C152.303 205.5 151.919 205.12 151.454 204.877C150.988 204.63 150.449 204.554 149.836 204.651C149.205 204.751 148.705 204.998 148.336 205.392C147.966 205.782 147.718 206.272 147.591 206.862C147.468 207.452 147.462 208.091 147.571 208.778C147.682 209.484 147.888 210.087 148.188 210.586C148.487 211.085 148.871 211.451 149.339 211.684C149.812 211.915 150.36 211.982 150.982 211.884Z" fill="#333333"/>
<rect y="176.195" width="188.437" height="50" rx="25" transform="rotate(-43.6641 0 176.195)" fill="#EBEBEB"/>
<path d="M23.9042 177.508L25.8309 175.669L36.9873 180.651L37.1106 180.533L32.6539 169.157L34.5805 167.318L44.6232 177.84L43.1126 179.282L35.8455 171.668L35.7479 171.761L39.8971 182.321L38.6435 183.518L28.2829 178.876L28.1853 178.969L35.4573 186.588L33.9468 188.03L23.9042 177.508ZM50.2842 172.741C49.5443 173.448 48.7368 173.894 47.8618 174.082C46.9867 174.269 46.1057 174.203 45.219 173.884C44.3323 173.566 43.4999 172.999 42.7218 172.183C41.9405 171.365 41.4097 170.503 41.1294 169.599C40.8491 168.695 40.8228 167.811 41.0506 166.945C41.2784 166.08 41.7623 165.294 42.5021 164.588C43.242 163.882 44.0494 163.435 44.9245 163.248C45.7996 163.061 46.6822 163.128 47.5722 163.45C48.4622 163.772 49.2978 164.343 50.0791 165.161C50.8572 165.977 51.3847 166.834 51.6618 167.735C51.9388 168.636 51.9635 169.519 51.7356 170.384C51.5078 171.25 51.024 172.035 50.2842 172.741ZM49.0585 171.447C49.538 170.989 49.8144 170.483 49.8876 169.929C49.9608 169.375 49.8717 168.815 49.6203 168.25C49.3723 167.682 49.0065 167.144 48.5226 166.637C48.0421 166.134 47.5237 165.745 46.9675 165.471C46.4114 165.19 45.8532 165.071 45.2929 165.115C44.7326 165.159 44.2127 165.41 43.7332 165.867C43.2502 166.328 42.9721 166.839 42.8987 167.4C42.8288 167.958 42.9194 168.523 43.1706 169.094C43.422 169.66 43.788 170.194 44.2685 170.697C44.7524 171.204 45.2707 171.596 45.8235 171.874C46.3797 172.148 46.9363 172.262 47.4934 172.214C48.0538 172.164 48.5755 171.908 49.0585 171.447ZM51.6774 156.027L52.8542 157.26L48.5436 161.374L47.3668 160.141L51.6774 156.027ZM46.7182 157.147L48.2544 155.681L55.3794 163.146C55.6638 163.444 55.9225 163.626 56.1553 163.692C56.385 163.754 56.5962 163.746 56.7889 163.666C56.9818 163.58 57.1622 163.457 57.33 163.297C57.4533 163.18 57.553 163.068 57.6291 162.963C57.7053 162.857 57.7641 162.775 57.8057 162.716L59.2943 163.72C59.238 163.839 59.1439 163.994 59.0122 164.185C58.8838 164.38 58.6979 164.597 58.4545 164.836C58.0569 165.228 57.6115 165.516 57.1183 165.699C56.6251 165.881 56.1202 165.918 55.6036 165.809C55.0871 165.7 54.6016 165.407 54.1472 164.931L46.7182 157.147ZM60.9086 162.297L53.3767 154.405L54.9129 152.939L62.4448 160.831L60.9086 162.297ZM52.9903 152.447C52.7232 152.702 52.4087 152.832 52.0469 152.837C51.6852 152.835 51.3851 152.709 51.1465 152.459C50.9045 152.206 50.7928 151.9 50.8112 151.542C50.8297 151.178 50.9726 150.868 51.2398 150.613C51.5069 150.358 51.8213 150.231 52.183 150.233C52.5448 150.228 52.8466 150.352 53.0885 150.606C53.3272 150.856 53.4372 151.163 53.4187 151.528C53.4003 151.886 53.2575 152.192 52.9903 152.447ZM67.9877 155.845C67.2478 156.551 66.4404 156.998 65.5653 157.185C64.6902 157.372 63.8093 157.306 62.9225 156.988C62.0358 156.669 61.2034 156.102 60.4254 155.287C59.6441 154.468 59.1132 153.607 58.8329 152.703C58.5526 151.799 58.5263 150.914 58.7542 150.048C58.982 149.183 59.4658 148.397 60.2056 147.691C60.9455 146.985 61.7529 146.538 62.628 146.351C63.5031 146.164 64.3857 146.231 65.2757 146.554C66.1657 146.876 67.0014 147.446 67.7827 148.265C68.5607 149.08 69.0883 149.938 69.3653 150.838C69.6424 151.739 69.667 152.622 69.4392 153.488C69.2113 154.353 68.7275 155.139 67.9877 155.845ZM66.762 154.55C67.2415 154.093 67.5179 153.587 67.5911 153.033C67.6643 152.478 67.5752 151.919 67.3238 151.353C67.0759 150.785 66.71 150.247 66.2262 149.74C65.7456 149.237 65.2272 148.848 64.671 148.574C64.1149 148.293 63.5567 148.175 62.9964 148.218C62.4361 148.262 61.9162 148.513 61.4367 148.971C60.9537 149.432 60.6756 149.943 60.6022 150.504C60.5323 151.061 60.6229 151.626 60.8742 152.198C61.1255 152.763 61.4915 153.297 61.9721 153.801C62.4559 154.308 62.9742 154.7 63.527 154.977C64.0832 155.251 64.6399 155.365 65.1969 155.318C65.7574 155.267 66.2791 155.011 66.762 154.55ZM70.2932 144.386L74.7653 149.072L73.2291 150.538L65.6971 142.646L67.1716 141.239L68.3975 142.523L68.4952 142.43C68.2779 141.839 68.2418 141.232 68.3869 140.609C68.5355 139.983 68.906 139.387 69.4986 138.822C70.0364 138.309 70.6152 137.972 71.2351 137.812C71.8518 137.649 72.4823 137.682 73.1267 137.912C73.771 138.141 74.4037 138.581 75.0249 139.232L79.8157 144.252L78.2795 145.718L73.6652 140.883C73.1193 140.311 72.5436 140.006 71.9384 139.969C71.3298 139.928 70.7652 140.156 70.2446 140.653C69.8884 140.993 69.6451 141.372 69.5148 141.791C69.3879 142.207 69.3861 142.64 69.5095 143.092C69.6331 143.537 69.8943 143.968 70.2932 144.386ZM86.0792 124.519C85.6824 124.302 85.2824 124.15 84.8792 124.064C84.4761 123.971 84.0765 123.946 83.6803 123.991C83.2808 124.031 82.8896 124.146 82.5068 124.335C82.1274 124.52 81.763 124.78 81.4136 125.113C80.8211 125.679 80.4322 126.341 80.2471 127.1C80.0619 127.86 80.1118 128.666 80.3966 129.52C80.6816 130.367 81.2295 131.216 82.0402 132.065C82.8542 132.918 83.681 133.507 84.5208 133.831C85.3605 134.155 86.1673 134.239 86.9412 134.083C87.7151 133.927 88.4103 133.555 89.0269 132.966C89.5989 132.421 89.9861 131.828 90.1885 131.19C90.3944 130.549 90.4111 129.904 90.2386 129.257C90.0663 128.604 89.7039 127.987 89.1514 127.408L89.636 127.093L86.6253 129.967L85.3749 128.657L89.5108 124.709L90.6533 125.906C91.4967 126.79 92.0406 127.737 92.285 128.747C92.5295 129.751 92.4896 130.745 92.1652 131.729C91.8443 132.709 91.2591 133.605 90.4097 134.415C89.4575 135.324 88.4125 135.903 87.2748 136.151C86.1405 136.395 84.9888 136.307 83.8198 135.884C82.6476 135.458 81.5319 134.691 80.4727 133.581C79.6718 132.742 79.069 131.877 78.6645 130.987C78.2599 130.097 78.046 129.217 78.0227 128.35C77.9996 127.475 78.1563 126.641 78.4929 125.849C78.8297 125.05 79.3389 124.325 80.0205 123.674C80.5891 123.131 81.1984 122.71 81.8484 122.411C82.5018 122.108 83.1674 121.927 83.8453 121.869C84.5265 121.808 85.1966 121.869 85.8554 122.052C86.511 122.231 87.1285 122.535 87.7079 122.964L86.0792 124.519ZM96.5418 128.288L89.0098 120.396L90.4946 118.979L91.6911 120.233L91.7733 120.154C91.5118 119.592 91.4465 119.016 91.5775 118.427C91.7086 117.83 92.0054 117.311 92.4678 116.87C92.5637 116.779 92.68 116.674 92.8167 116.557C92.9568 116.436 93.0694 116.345 93.1546 116.283L94.557 117.753C94.479 117.794 94.3514 117.88 94.1743 118.01C93.9938 118.136 93.8248 118.275 93.6673 118.425C93.3042 118.772 93.0541 119.158 92.9169 119.583C92.7799 120.002 92.7583 120.425 92.8521 120.853C92.9427 121.277 93.1515 121.66 93.4784 122.002L98.0779 126.822L96.5418 128.288ZM104.487 121.038C103.987 121.516 103.447 121.855 102.866 122.056C102.282 122.253 101.702 122.286 101.125 122.156C100.553 122.022 100.019 121.696 99.5257 121.179C99.1007 120.734 98.8365 120.285 98.7332 119.834C98.6299 119.383 98.6437 118.935 98.7746 118.489C98.9056 118.043 99.11 117.606 99.3879 117.177C99.6658 116.748 99.9702 116.333 100.301 115.932C100.721 115.427 101.063 115.016 101.324 114.7C101.583 114.382 101.74 114.117 101.795 113.908C101.85 113.698 101.789 113.501 101.613 113.316L101.579 113.28C101.15 112.831 100.692 112.604 100.203 112.6C99.7176 112.592 99.2265 112.825 98.7299 113.299C98.2127 113.792 97.9146 114.296 97.8356 114.81C97.7568 115.317 97.7933 115.763 97.9451 116.149L96.1875 117.198C95.9011 116.555 95.7817 115.929 95.8294 115.321C95.8772 114.706 96.0532 114.125 96.3573 113.58C96.6581 113.031 97.0466 112.529 97.5227 112.075C97.8378 111.774 98.2077 111.493 98.6324 111.232C99.0573 110.964 99.517 110.78 100.012 110.681C100.51 110.579 101.031 110.615 101.576 110.788C102.118 110.958 102.664 111.331 103.213 111.906L108.215 117.147L106.715 118.579L105.685 117.5L105.623 117.559C105.713 117.852 105.751 118.19 105.735 118.571C105.72 118.952 105.616 119.355 105.426 119.779C105.235 120.204 104.922 120.623 104.487 121.038ZM103.644 119.487C104.069 119.081 104.352 118.651 104.493 118.195C104.638 117.737 104.66 117.297 104.559 116.876C104.458 116.448 104.259 116.078 103.962 115.767L102.991 114.749C102.989 114.857 102.931 115.009 102.82 115.208C102.708 115.399 102.569 115.607 102.403 115.831C102.234 116.051 102.068 116.265 101.906 116.472C101.741 116.676 101.603 116.847 101.492 116.985C101.23 117.307 101.018 117.63 100.857 117.955C100.699 118.276 100.626 118.591 100.639 118.899C100.652 119.201 100.789 119.489 101.051 119.763C101.414 120.143 101.829 120.297 102.296 120.224C102.76 120.148 103.209 119.902 103.644 119.487ZM113.085 118.153L102.729 107.302L104.229 105.87L105.45 107.15L105.579 107.027C105.511 106.778 105.458 106.465 105.42 106.089C105.382 105.713 105.435 105.302 105.579 104.857C105.72 104.408 106.036 103.95 106.525 103.483C107.162 102.875 107.885 102.493 108.692 102.338C109.499 102.182 110.335 102.272 111.197 102.607C112.064 102.939 112.904 103.531 113.718 104.384C114.532 105.237 115.088 106.104 115.385 106.985C115.68 107.862 115.735 108.702 115.553 109.505C115.367 110.305 114.955 111.008 114.318 111.616C113.838 112.074 113.369 112.368 112.911 112.498C112.456 112.625 112.04 112.662 111.662 112.609C111.285 112.557 110.97 112.491 110.718 112.412L110.625 112.5L114.622 116.687L113.085 118.153ZM108 109.811C108.53 110.366 109.075 110.776 109.634 111.04C110.194 111.304 110.739 111.409 111.27 111.354C111.797 111.296 112.281 111.057 112.723 110.635C113.182 110.197 113.45 109.709 113.526 109.172C113.599 108.631 113.513 108.075 113.268 107.503C113.027 106.928 112.655 106.377 112.152 105.849C111.655 105.329 111.13 104.936 110.577 104.672C110.027 104.405 109.482 104.3 108.941 104.358C108.404 104.412 107.904 104.66 107.442 105.101C106.997 105.526 106.73 106.001 106.64 106.524C106.554 107.045 106.629 107.586 106.864 108.147C107.098 108.709 107.477 109.263 108 109.811ZM116.254 100.52L120.727 105.205L119.19 106.671L109.148 96.1493L110.663 94.7027L114.4 98.6177L114.498 98.5246C114.277 97.9233 114.238 97.3162 114.379 96.7033C114.521 96.0904 114.898 95.4914 115.511 94.9062C116.053 94.3897 116.631 94.0499 117.248 93.8868C117.868 93.7204 118.5 93.7519 119.145 93.9812C119.789 94.2039 120.425 94.6441 121.053 95.3017L125.844 100.321L124.308 101.787L119.693 96.9528C119.141 96.374 118.564 96.0675 117.962 96.0333C117.356 95.9958 116.788 96.2304 116.257 96.7371C115.894 97.0836 115.642 97.4712 115.502 97.9C115.365 98.3254 115.356 98.7656 115.476 99.2205C115.596 99.6687 115.856 100.102 116.254 100.52ZM127.894 98.3648L120.362 90.4731L121.898 89.0069L129.43 96.8986L127.894 98.3648ZM119.975 88.515C119.708 88.77 119.394 88.9 119.032 88.9049C118.67 88.9032 118.37 88.7773 118.132 88.5273C117.89 88.2738 117.778 87.9681 117.796 87.6102C117.815 87.2456 117.958 86.9358 118.225 86.6808C118.492 86.4258 118.806 86.2992 119.168 86.301C119.53 86.296 119.832 86.4203 120.074 86.6737C120.312 86.9238 120.422 87.2311 120.404 87.5957C120.385 87.9536 120.243 88.26 119.975 88.515ZM134.973 91.9127C134.209 92.6417 133.386 93.0964 132.505 93.2768C131.623 93.4505 130.743 93.3713 129.863 93.0394C128.983 92.7074 128.166 92.1458 127.411 91.3546C126.646 90.5531 126.121 89.702 125.837 88.8012C125.55 87.897 125.516 87.0104 125.734 86.1414C125.952 85.2724 126.432 84.4832 127.175 83.7738C127.775 83.2017 128.415 82.803 129.097 82.5778C129.776 82.3492 130.448 82.2962 131.115 82.4189C131.786 82.5384 132.401 82.8374 132.963 83.316L131.468 84.7429C131.033 84.4515 130.54 84.3127 129.991 84.3267C129.445 84.3374 128.927 84.5765 128.437 85.044C128.009 85.4526 127.741 85.9236 127.635 86.457C127.529 86.9836 127.585 87.5392 127.802 88.1236C128.017 88.7046 128.392 89.276 128.928 89.8377C129.477 90.4132 130.038 90.8265 130.612 91.0776C131.185 91.3288 131.741 91.4171 132.278 91.3425C132.819 91.2647 133.307 91.0182 133.742 90.6031C134.034 90.3252 134.247 90.0204 134.382 89.6886C134.517 89.3502 134.568 89.0031 134.537 88.6474C134.508 88.2884 134.391 87.9357 134.185 87.5893L135.68 86.1623C136.112 86.725 136.381 87.3391 136.486 88.0046C136.591 88.6702 136.52 89.34 136.273 90.0141C136.03 90.6849 135.596 91.3178 134.973 91.9127ZM139.926 75.4823L138.769 77.0578C138.541 76.9353 138.287 76.854 138.006 76.814C137.729 76.7707 137.436 76.799 137.125 76.8989C136.815 76.9988 136.5 77.2008 136.182 77.5048C135.747 77.92 135.477 78.3642 135.372 78.8373C135.264 79.3069 135.355 79.6942 135.646 79.999C135.898 80.2628 136.198 80.382 136.547 80.3566C136.896 80.3313 137.337 80.1624 137.87 79.85L139.398 78.9412C140.285 78.416 141.073 78.1581 141.762 78.1675C142.452 78.1769 143.063 78.4607 143.596 79.019C144.047 79.4917 144.312 80.0437 144.391 80.6752C144.471 81.2999 144.367 81.9489 144.08 82.622C143.796 83.2919 143.336 83.9309 142.699 84.5389C141.815 85.3823 140.914 85.8821 139.996 86.0382C139.075 86.1909 138.218 85.9783 137.424 85.4005L138.693 83.7573C139.155 84.0561 139.625 84.1675 140.102 84.0916C140.576 84.0122 141.044 83.7518 141.507 83.3105C142.01 82.83 142.313 82.3414 142.415 81.8448C142.514 81.3447 142.418 80.9423 142.127 80.6374C141.891 80.3908 141.601 80.2719 141.256 80.2806C140.914 80.286 140.514 80.4257 140.056 80.6997L138.44 81.6817C137.544 82.2168 136.744 82.4694 136.041 82.4396C135.342 82.4066 134.725 82.1092 134.189 81.5474C133.744 81.0816 133.485 80.5498 133.412 79.952C133.339 79.3541 133.439 78.7386 133.711 78.1053C133.981 77.4686 134.412 76.8674 135.004 76.3019C135.857 75.4879 136.705 75.0321 137.548 74.9346C138.387 74.8336 139.18 75.0162 139.926 75.4823Z" fill="#333333"/>
<rect x="200.629" y="132.57" width="135.386" height="50" rx="25" transform="rotate(38.9516 200.629 132.57)" fill="#EBEBEB"/>
<path d="M203.468 176.014L201.657 174.549L214.872 166.528L216.844 168.122L211.77 182.725L209.958 181.26L214.244 169.418L214.155 169.347L203.468 176.014ZM207.353 171.83L213.23 176.58L212.069 178.017L206.192 173.266L207.353 171.83ZM210.699 187.119L220.129 175.454L221.742 176.758L220.63 178.133L220.768 178.245C221.007 178.146 221.31 178.053 221.678 177.967C222.046 177.881 222.46 177.88 222.92 177.966C223.384 178.049 223.878 178.303 224.405 178.728C225.09 179.282 225.561 179.949 225.819 180.73C226.077 181.51 226.095 182.35 225.874 183.249C225.656 184.151 225.177 185.06 224.436 185.977C223.695 186.894 222.906 187.556 222.071 187.965C221.238 188.37 220.412 188.533 219.593 188.455C218.776 188.373 218.025 188.055 217.34 187.502C216.825 187.085 216.473 186.657 216.285 186.219C216.101 185.784 216.011 185.377 216.014 184.996C216.018 184.615 216.042 184.294 216.089 184.033L215.99 183.953L212.351 188.454L210.699 187.119ZM218.318 181.004C217.836 181.601 217.5 182.194 217.31 182.783C217.12 183.372 217.086 183.926 217.208 184.445C217.334 184.96 217.634 185.41 218.109 185.794C218.602 186.193 219.12 186.395 219.663 186.402C220.209 186.405 220.749 186.248 221.285 185.932C221.824 185.619 222.323 185.179 222.781 184.612C223.234 184.052 223.555 183.481 223.746 182.899C223.94 182.319 223.974 181.765 223.848 181.237C223.725 180.711 223.415 180.247 222.917 179.845C222.439 179.458 221.934 179.254 221.403 179.233C220.876 179.215 220.349 179.358 219.823 179.663C219.296 179.968 218.795 180.415 218.318 181.004ZM220.299 194.879L229.729 183.214L231.341 184.518L230.23 185.893L230.368 186.005C230.606 185.906 230.91 185.813 231.277 185.727C231.645 185.641 232.06 185.641 232.52 185.726C232.983 185.809 233.478 186.063 234.004 186.488C234.689 187.042 235.161 187.709 235.418 188.49C235.676 189.271 235.695 190.11 235.473 191.009C235.256 191.911 234.776 192.82 234.035 193.737C233.294 194.654 232.506 195.317 231.67 195.725C230.838 196.13 230.012 196.293 229.192 196.215C228.375 196.133 227.625 195.815 226.94 195.262C226.424 194.845 226.072 194.418 225.885 193.98C225.701 193.545 225.61 193.137 225.614 192.756C225.617 192.375 225.642 192.054 225.688 191.793L225.589 191.713L221.95 196.215L220.299 194.879ZM227.918 188.764C227.436 189.361 227.099 189.954 226.909 190.543C226.719 191.132 226.685 191.686 226.808 192.205C226.933 192.72 227.233 193.17 227.708 193.554C228.202 193.953 228.72 194.156 229.262 194.162C229.808 194.165 230.349 194.008 230.884 193.692C231.423 193.379 231.922 192.939 232.381 192.372C232.833 191.812 233.155 191.241 233.345 190.659C233.54 190.079 233.574 189.525 233.447 188.997C233.324 188.471 233.014 188.007 232.517 187.605C232.038 187.218 231.533 187.014 231.003 186.993C230.475 186.975 229.949 187.118 229.422 187.423C228.895 187.728 228.394 188.175 227.918 188.764ZM240.381 205.853L236.719 202.893L245.863 191.581L249.641 194.635C250.749 195.531 251.518 196.527 251.947 197.623C252.379 198.715 252.466 199.854 252.208 201.039C251.957 202.224 251.356 203.404 250.406 204.579C249.454 205.757 248.42 206.595 247.305 207.094C246.193 207.596 245.047 207.747 243.868 207.549C242.692 207.347 241.529 206.782 240.381 205.853ZM239.631 202.781L241.492 204.286C242.354 204.982 243.201 205.399 244.034 205.537C244.869 205.67 245.679 205.542 246.463 205.153C247.249 204.76 248.004 204.116 248.727 203.221C249.445 202.334 249.912 201.466 250.128 200.618C250.348 199.774 250.31 198.966 250.013 198.196C249.716 197.427 249.155 196.708 248.33 196.042L246.364 194.452L239.631 202.781ZM251.329 214.987C250.493 214.311 249.917 213.55 249.602 212.705C249.294 211.859 249.239 210.978 249.438 210.061C249.644 209.144 250.103 208.245 250.814 207.365C251.517 206.496 252.298 205.861 253.158 205.46C254.021 205.062 254.896 204.914 255.782 205.015C256.672 205.12 257.511 205.49 258.299 206.127C258.777 206.514 259.177 206.969 259.498 207.49C259.82 208.011 260.022 208.586 260.105 209.213C260.189 209.841 260.115 210.509 259.883 211.217C259.655 211.921 259.23 212.658 258.607 213.427L258.134 214.013L251.39 208.561L252.39 207.324L257.516 211.467C257.867 211.033 258.09 210.577 258.184 210.099C258.281 209.617 258.248 209.149 258.086 208.695C257.927 208.244 257.634 207.846 257.207 207.501C256.743 207.125 256.246 206.912 255.715 206.861C255.191 206.808 254.688 206.889 254.205 207.101C253.729 207.313 253.32 207.631 252.978 208.055L252.197 209.021C251.738 209.588 251.448 210.151 251.325 210.709C251.206 211.271 251.242 211.802 251.433 212.304C251.627 212.802 251.966 213.246 252.448 213.636C252.761 213.889 253.082 214.075 253.411 214.195C253.744 214.312 254.076 214.355 254.41 214.327C254.744 214.298 255.067 214.191 255.381 214.007L256.717 215.552C256.219 215.911 255.669 216.133 255.065 216.217C254.468 216.3 253.849 216.241 253.208 216.04C252.574 215.838 251.947 215.487 251.329 214.987ZM270.812 216.426L260.877 222.422L259.11 220.994L262.886 210.018L264.659 211.452L261.53 219.717L261.618 219.789L269.039 214.992L270.812 216.426Z" fill="#333333"/>
<rect x="269.336" y="120.57" width="138.229" height="50" rx="25" transform="rotate(40 269.336 120.57)" fill="#EBEBEB"/>
<path d="M272.177 164.727L278.437 150.992L280.205 152.475L275.135 162.926L275.239 163.012L284.737 156.278L286.489 157.748L281.502 168.277L281.605 168.364L291.015 161.546L292.789 163.035L280.344 171.58L278.652 170.16L283.31 159.846L283.223 159.773L273.875 166.152L272.177 164.727ZM287.479 177.854C286.656 177.163 286.094 176.392 285.795 175.542C285.502 174.69 285.463 173.808 285.679 172.895C285.902 171.981 286.377 171.091 287.104 170.224C287.822 169.368 288.615 168.748 289.482 168.363C290.352 167.981 291.23 167.849 292.114 167.966C293.002 168.087 293.834 168.473 294.61 169.124C295.081 169.52 295.473 169.981 295.785 170.508C296.096 171.036 296.288 171.614 296.36 172.243C296.432 172.872 296.345 173.538 296.101 174.242C295.86 174.942 295.421 175.671 294.785 176.429L294.301 177.005L287.658 171.431L288.681 170.212L293.73 174.449C294.089 174.021 294.32 173.569 294.423 173.093C294.529 172.613 294.504 172.145 294.35 171.688C294.2 171.234 293.914 170.83 293.493 170.477C293.036 170.094 292.543 169.871 292.013 169.81C291.49 169.748 290.986 169.819 290.499 170.023C290.02 170.226 289.605 170.537 289.255 170.954L288.456 171.906C287.987 172.464 287.686 173.022 287.554 173.578C287.424 174.137 287.451 174.669 287.633 175.174C287.818 175.675 288.148 176.125 288.623 176.524C288.931 176.783 289.249 176.975 289.576 177.101C289.906 177.224 290.238 177.273 290.572 177.251C290.906 177.228 291.232 177.128 291.549 176.949L292.856 178.518C292.352 178.868 291.797 179.08 291.192 179.153C290.593 179.225 289.976 179.155 289.339 178.942C288.708 178.728 288.088 178.366 287.479 177.854ZM293.141 182.318L302.491 171.176L304.118 172.541L300.644 176.681L300.742 176.763C300.982 176.668 301.287 176.581 301.656 176.502C302.026 176.422 302.44 176.43 302.899 176.524C303.36 176.615 303.85 176.878 304.369 177.313C305.044 177.879 305.503 178.555 305.746 179.34C305.99 180.125 305.993 180.965 305.755 181.86C305.521 182.758 305.025 183.658 304.267 184.561C303.509 185.464 302.709 186.112 301.866 186.505C301.026 186.895 300.198 187.043 299.379 186.95C298.564 186.853 297.819 186.522 297.145 185.956C296.637 185.529 296.293 185.096 296.114 184.654C295.937 184.216 295.854 183.807 295.865 183.426C295.875 183.045 295.906 182.725 295.957 182.465L295.821 182.351L294.73 183.651L293.141 182.318ZM298.242 179.477C297.749 180.065 297.402 180.652 297.201 181.237C297 181.823 296.956 182.376 297.069 182.897C297.185 183.415 297.477 183.87 297.944 184.262C298.431 184.67 298.945 184.882 299.487 184.899C300.033 184.911 300.576 184.765 301.117 184.459C301.662 184.156 302.169 183.725 302.638 183.166C303.1 182.615 303.432 182.05 303.634 181.471C303.839 180.895 303.883 180.342 303.766 179.811C303.652 179.283 303.351 178.814 302.861 178.403C302.39 178.007 301.889 177.794 301.358 177.763C300.832 177.735 300.302 177.869 299.77 178.164C299.238 178.459 298.729 178.897 298.242 179.477ZM310.394 196.795L306.787 193.768L316.136 182.625L319.858 185.748C320.949 186.664 321.7 187.674 322.109 188.777C322.521 189.877 322.587 191.018 322.307 192.198C322.034 193.378 321.412 194.547 320.441 195.704C319.467 196.865 318.418 197.684 317.294 198.162C316.173 198.643 315.025 198.774 313.85 198.554C312.677 198.331 311.525 197.744 310.394 196.795ZM309.7 193.71L311.534 195.248C312.383 195.96 313.222 196.393 314.052 196.545C314.885 196.694 315.697 196.581 316.488 196.206C317.281 195.827 318.048 195.197 318.787 194.316C319.521 193.442 320.004 192.583 320.236 191.739C320.471 190.899 320.448 190.091 320.165 189.316C319.882 188.54 319.334 187.812 318.522 187.13L316.585 185.505L309.7 193.71ZM321.173 206.127C320.35 205.436 319.788 204.665 319.489 203.814C319.196 202.963 319.157 202.08 319.373 201.168C319.596 200.254 320.07 199.364 320.798 198.497C321.516 197.641 322.309 197.02 323.176 196.635C324.046 196.253 324.924 196.121 325.808 196.239C326.696 196.359 327.528 196.745 328.304 197.397C328.775 197.792 329.167 198.254 329.479 198.781C329.79 199.308 329.982 199.886 330.054 200.515C330.126 201.144 330.039 201.811 329.795 202.514C329.554 203.214 329.115 203.943 328.479 204.701L327.995 205.278L321.352 199.704L322.375 198.485L327.424 202.722C327.783 202.294 328.014 201.842 328.117 201.365C328.223 200.886 328.198 200.417 328.044 199.96C327.894 199.506 327.608 199.103 327.187 198.75C326.73 198.366 326.237 198.144 325.707 198.083C325.184 198.021 324.68 198.092 324.193 198.296C323.714 198.499 323.299 198.809 322.949 199.226L322.15 200.178C321.681 200.737 321.38 201.294 321.248 201.85C321.118 202.41 321.145 202.942 321.327 203.447C321.512 203.948 321.842 204.398 322.317 204.797C322.625 205.055 322.943 205.248 323.27 205.374C323.6 205.496 323.932 205.546 324.266 205.524C324.6 205.501 324.926 205.4 325.243 205.221L326.55 206.791C326.046 207.141 325.491 207.352 324.886 207.425C324.287 207.498 323.67 207.428 323.033 207.214C322.402 207.001 321.782 206.638 321.173 206.127ZM340.627 207.922L330.584 213.736L328.843 212.275L332.819 201.371L334.566 202.837L331.286 211.043L331.373 211.116L338.88 206.457L340.627 207.922Z" fill="#333333"/>
<rect x="277.023" y="7.57031" width="156" height="50" rx="25" transform="rotate(49.1619 277.023 7.57031)" fill="#EBEBEB"/>
<path d="M269.315 47.8896C268.677 47.1517 268.234 46.3826 267.987 45.5825C267.743 44.7859 267.701 44.0242 267.861 43.2974C268.028 42.571 268.4 41.9367 268.976 41.3946L270.435 43.0818C270.127 43.3851 269.939 43.7389 269.869 44.1434C269.806 44.5483 269.849 44.9677 269.999 45.4016C270.149 45.8355 270.394 46.2494 270.735 46.6435C271.109 47.0769 271.516 47.3952 271.954 47.5983C272.396 47.805 272.833 47.8871 273.266 47.8448C273.702 47.7993 274.097 47.6233 274.452 47.3168C274.821 46.9979 275.063 46.6228 275.178 46.1914C275.3 45.7605 275.286 45.2945 275.134 44.7934C274.986 44.2958 274.692 43.7927 274.252 43.284L273.448 42.3545L274.803 41.1841L275.606 42.1137C275.959 42.522 276.342 42.8168 276.755 42.9979C277.171 43.1826 277.586 43.2497 277.999 43.1992C278.416 43.1456 278.802 42.9656 279.157 42.659C279.497 42.3649 279.726 42.0324 279.843 41.6617C279.968 41.2914 279.981 40.9046 279.883 40.5014C279.787 40.1017 279.577 39.7138 279.252 39.3376C278.943 38.9794 278.587 38.7018 278.185 38.5047C277.79 38.3081 277.387 38.2183 276.976 38.2354C276.569 38.2494 276.191 38.3948 275.841 38.6715L274.453 37.0649C275.063 36.5688 275.738 36.2923 276.477 36.2353C277.219 36.1819 277.956 36.3211 278.687 36.653C279.418 36.9848 280.075 37.4874 280.657 38.1609C281.267 38.8666 281.656 39.5948 281.822 40.3454C281.996 41.0966 281.976 41.8085 281.763 42.4811C281.552 43.1573 281.175 43.7274 280.631 44.1913C280.018 44.7275 279.347 45.0076 278.616 45.0317C277.889 45.0593 277.205 44.85 276.562 44.4038L276.476 44.4781C276.997 45.3049 277.196 46.1217 277.073 46.9285C276.954 47.7389 276.545 48.4426 275.847 49.0397C275.245 49.5666 274.557 49.8673 273.783 49.9419C273.012 50.02 272.236 49.8864 271.455 49.5409C270.678 49.1923 269.965 48.6419 269.315 47.8896ZM277.792 57.3939L274.713 53.8314L285.718 44.3198L288.894 47.9951C289.826 49.0734 290.406 50.1898 290.635 51.3444C290.866 52.4959 290.75 53.6321 290.286 54.7531C289.828 55.8746 289.028 56.9292 287.885 57.9169C286.739 58.9076 285.573 59.5495 284.387 59.8426C283.204 60.1392 282.049 60.0854 280.924 59.6812C279.802 59.274 278.758 58.5115 277.792 57.3939ZM277.599 54.2378L279.164 56.0486C279.889 56.8868 280.648 57.4473 281.444 57.7301C282.242 58.0098 283.062 58.0274 283.902 57.7831C284.746 57.5357 285.603 57.0358 286.473 56.2834C287.337 55.5372 287.95 54.7661 288.314 53.9701C288.68 53.1777 288.785 52.3763 288.629 51.566C288.474 50.7558 288.049 49.9494 287.355 49.147L285.702 47.2341L277.599 54.2378ZM301.578 69.6964C301.814 69.3108 301.985 68.9187 302.091 68.5203C302.204 68.1223 302.248 67.7243 302.224 67.3264C302.202 66.9254 302.107 66.5291 301.937 66.1374C301.771 65.7493 301.53 65.3726 301.214 65.0072C300.678 64.3875 300.036 63.9664 299.287 63.7441C298.538 63.5217 297.73 63.5317 296.863 63.7741C296.002 64.017 295.128 64.5224 294.24 65.2902C293.348 66.0612 292.719 66.858 292.354 67.6808C291.988 68.5035 291.865 69.3051 291.982 70.0858C292.1 70.8665 292.438 71.5792 292.995 72.224C293.512 72.8222 294.084 73.2381 294.712 73.4718C295.342 73.709 295.985 73.7575 296.64 73.6171C297.301 73.4773 297.935 73.1457 298.54 72.6224L298.831 73.122L296.109 69.9732L297.48 68.7889L301.218 73.1144L299.966 74.1965C299.042 74.9954 298.069 75.4919 297.048 75.6862C296.034 75.8809 295.043 75.792 294.077 75.4196C293.113 75.0507 292.248 74.4221 291.48 73.5337C290.619 72.5378 290.093 71.4656 289.901 70.317C289.712 69.172 289.858 68.0262 290.337 66.8794C290.821 65.7296 291.642 64.6531 292.803 63.6499C293.681 62.8914 294.574 62.332 295.483 61.9718C296.392 61.6116 297.281 61.4413 298.149 61.4608C299.024 61.4808 299.848 61.6785 300.623 62.0538C301.405 62.4296 302.104 62.9739 302.72 63.6868C303.234 64.2814 303.625 64.9107 303.892 65.5747C304.162 66.2422 304.31 66.9159 304.334 67.5958C304.361 68.2793 304.268 68.9455 304.053 69.5945C303.841 70.2404 303.507 70.8422 303.05 71.3997L301.578 69.6964ZM297.297 79.9604L305.551 72.8267L306.893 74.3796L305.582 75.5128L305.656 75.5988C306.23 75.3653 306.809 75.3285 307.391 75.4884C307.981 75.6487 308.484 75.9707 308.902 76.4543C308.989 76.5546 309.087 76.6759 309.198 76.8182C309.312 76.9641 309.397 77.0811 309.454 77.1692L307.918 78.4975C307.88 78.4176 307.8 78.2859 307.679 78.1025C307.562 77.9161 307.432 77.7405 307.29 77.5757C306.962 77.196 306.588 76.9271 306.17 76.7691C305.759 76.6116 305.337 76.5692 304.906 76.6419C304.478 76.7114 304.084 76.901 303.726 77.2106L298.686 81.567L297.297 79.9604ZM304.146 88.2535C303.694 87.7305 303.382 87.174 303.21 86.5841C303.042 85.9912 303.037 85.4101 303.196 84.8409C303.358 84.2753 303.71 83.7587 304.251 83.2912C304.716 82.8887 305.177 82.6469 305.633 82.566C306.088 82.485 306.536 82.5209 306.974 82.6737C307.413 82.8264 307.84 83.0522 308.254 83.3509C308.669 83.6496 309.068 83.9741 309.452 84.3243C309.937 84.7691 310.33 85.1301 310.632 85.4072C310.938 85.6812 311.194 85.8509 311.401 85.9163C311.608 85.9817 311.808 85.9308 312.001 85.7636L312.039 85.7311C312.508 85.3255 312.757 84.8787 312.786 84.3907C312.818 83.9062 312.609 83.4043 312.16 82.8849C311.693 82.344 311.204 82.0214 310.695 81.9172C310.192 81.8135 309.745 81.8279 309.352 81.9605L308.391 80.1534C309.048 79.899 309.678 79.8106 310.284 79.8882C310.896 79.9664 311.467 80.1707 311.996 80.5013C312.53 80.8288 313.012 81.2415 313.442 81.7395C313.727 82.069 313.989 82.4523 314.23 82.8894C314.476 83.327 314.637 83.7952 314.711 84.2941C314.789 84.7966 314.728 85.3158 314.528 85.8518C314.331 86.3846 313.932 86.9111 313.33 87.4313L307.849 92.1685L306.493 90.5995L307.622 89.6242L307.566 89.5597C307.268 89.6354 306.929 89.6561 306.549 89.6217C306.169 89.5873 305.772 89.4644 305.357 89.253C304.943 89.0416 304.539 88.7084 304.146 88.2535ZM305.738 87.4881C306.122 87.9323 306.538 88.2362 306.986 88.3997C307.437 88.5668 307.875 88.6104 308.3 88.5306C308.732 88.4513 309.111 88.2707 309.437 87.989L310.501 87.0694C310.395 87.0616 310.245 86.997 310.052 86.8756C309.866 86.7546 309.666 86.6057 309.45 86.4289C309.238 86.249 309.033 86.073 308.834 85.9007C308.639 85.7254 308.475 85.5792 308.342 85.4621C308.034 85.1845 307.721 84.957 307.405 84.7796C307.092 84.6057 306.781 84.5177 306.473 84.5154C306.171 84.5135 305.876 84.6365 305.59 84.8841C305.192 85.2278 305.018 85.6348 305.068 86.105C305.121 86.5721 305.344 87.0332 305.738 87.4881ZM306.604 96.9836L317.952 87.1747L319.308 88.7438L317.971 89.9002L318.087 90.0345C318.339 89.979 318.654 89.9415 319.031 89.922C319.409 89.9025 319.816 89.9758 320.254 90.1419C320.695 90.3049 321.137 90.6426 321.58 91.1548C322.156 91.8211 322.502 92.5613 322.617 93.3753C322.732 94.1894 322.601 95.0191 322.224 95.8644C321.85 96.7134 321.217 97.5233 320.326 98.2943C319.434 99.0652 318.54 99.5776 317.646 99.8314C316.755 100.082 315.913 100.096 315.12 99.8742C314.331 99.6489 313.648 99.2032 313.072 98.5369C312.639 98.0354 312.368 97.5524 312.261 97.0881C312.157 96.6273 312.14 96.2099 312.211 95.8357C312.282 95.4615 312.363 95.1502 312.455 94.9018L312.372 94.8051L307.993 98.5902L306.604 96.9836ZM315.186 92.316C314.606 92.8176 314.17 93.3414 313.879 93.8875C313.587 94.4336 313.456 94.9729 313.484 95.5054C313.516 96.0347 313.732 96.5305 314.131 96.9926C314.546 97.4726 315.02 97.7639 315.553 97.8664C316.09 97.9659 316.649 97.9076 317.232 97.6915C317.818 97.4791 318.387 97.1344 318.939 96.6576C319.484 96.187 319.901 95.682 320.192 95.1425C320.486 94.6067 320.618 94.0674 320.587 93.5247C320.559 92.9856 320.336 92.4742 319.918 91.9906C319.516 91.5249 319.055 91.2346 318.536 91.1196C318.021 91.0083 317.477 91.056 316.905 91.2627C316.332 91.4695 315.76 91.8206 315.186 92.316ZM324.06 101.018L319.159 105.254L317.771 103.647L328.775 94.1356L330.145 95.7208L326.051 99.2598L326.139 99.3618C326.751 99.1714 327.359 99.1619 327.964 99.3335C328.569 99.5051 329.149 99.9115 329.703 100.553C330.192 101.119 330.503 101.714 330.636 102.338C330.771 102.965 330.709 103.595 330.448 104.227C330.194 104.86 329.723 105.474 329.035 106.068L323.785 110.606L322.397 108.999L327.453 104.629C328.058 104.105 328.393 103.544 328.457 102.944C328.524 102.342 328.318 101.763 327.838 101.208C327.51 100.828 327.135 100.557 326.714 100.396C326.295 100.238 325.856 100.207 325.396 100.305C324.942 100.403 324.497 100.64 324.06 101.018ZM325.638 112.75L333.892 105.616L335.28 107.223L327.027 114.356L325.638 112.75ZM335.866 105.327C335.625 105.047 335.511 104.727 335.524 104.365C335.543 104.004 335.684 103.71 335.945 103.484C336.21 103.255 336.521 103.159 336.878 103.195C337.241 103.231 337.543 103.389 337.785 103.669C338.026 103.948 338.137 104.268 338.118 104.629C338.105 104.991 337.966 105.286 337.701 105.515C337.439 105.741 337.127 105.836 336.764 105.8C336.407 105.764 336.108 105.606 335.866 105.327ZM331.733 120.138C331.043 119.339 330.629 118.495 330.493 117.606C330.363 116.717 330.485 115.841 330.86 114.979C331.235 114.117 331.836 113.328 332.664 112.613C333.502 111.888 334.378 111.406 335.292 111.167C336.209 110.925 337.096 110.934 337.953 111.195C338.811 111.455 339.575 111.974 340.247 112.751C340.789 113.378 341.155 114.038 341.347 114.73C341.542 115.419 341.561 116.093 341.406 116.753C341.254 117.417 340.925 118.017 340.419 118.555L339.067 116.991C339.38 116.571 339.543 116.086 339.556 115.536C339.572 114.99 339.359 114.461 338.916 113.949C338.529 113.501 338.072 113.211 337.544 113.078C337.024 112.947 336.466 112.975 335.872 113.163C335.281 113.348 334.691 113.695 334.104 114.203C333.502 114.723 333.062 115.263 332.783 115.824C332.503 116.384 332.388 116.935 332.436 117.475C332.487 118.019 332.709 118.519 333.102 118.974C333.365 119.278 333.659 119.506 333.984 119.657C334.315 119.809 334.66 119.878 335.016 119.863C335.376 119.853 335.734 119.753 336.091 119.564L337.442 121.128C336.859 121.532 336.232 121.77 335.562 121.842C334.892 121.914 334.227 121.81 333.566 121.53C332.908 121.254 332.297 120.79 331.733 120.138ZM347.9 125.895L346.383 124.662C346.517 124.44 346.611 124.19 346.664 123.912C346.721 123.638 346.707 123.343 346.623 123.028C346.538 122.713 346.352 122.389 346.064 122.056C345.671 121.601 345.241 121.309 344.773 121.181C344.31 121.05 343.918 121.123 343.599 121.398C343.324 121.637 343.19 121.931 343.198 122.28C343.206 122.63 343.353 123.079 343.639 123.627L344.471 125.198C344.952 126.109 345.171 126.909 345.127 127.597C345.084 128.285 344.77 128.882 344.186 129.387C343.692 129.814 343.128 130.051 342.493 130.099C341.865 130.148 341.222 130.012 340.564 129.692C339.909 129.376 339.293 128.885 338.717 128.218C337.919 127.294 337.464 126.37 337.353 125.445C337.246 124.518 337.501 123.672 338.117 122.908L339.696 124.256C339.374 124.703 339.24 125.166 339.292 125.647C339.348 126.124 339.585 126.605 340.003 127.088C340.458 127.615 340.931 127.941 341.422 128.068C341.917 128.191 342.324 128.115 342.642 127.839C342.9 127.616 343.033 127.332 343.042 126.987C343.053 126.645 342.933 126.239 342.682 125.768L341.781 124.106C341.291 123.184 341.078 122.373 341.142 121.673C341.21 120.976 341.537 120.374 342.125 119.866C342.612 119.445 343.156 119.212 343.757 119.169C344.357 119.125 344.967 119.255 345.586 119.559C346.209 119.859 346.788 120.319 347.324 120.939C348.095 121.831 348.508 122.7 348.564 123.547C348.624 124.39 348.402 125.173 347.9 125.895Z" fill="#333333"/>
<rect x="156.195" y="108.154" width="113" height="50" rx="25" transform="rotate(-28.3034 156.195 108.154)" fill="#EBEBEB"/>
<path d="M191.466 125.505L189.415 126.61L187.127 111.322L189.36 110.119L200.865 120.444L198.814 121.549L189.549 113.018L189.449 113.072L191.466 125.505ZM189.109 120.305L195.763 116.722L196.638 118.348L189.985 121.931L189.109 120.305ZM197.75 105.601L204.646 118.408L202.714 119.448L195.818 106.642L197.75 105.601ZM215.795 112.638C214.936 113.1 214.112 113.342 213.323 113.364C212.537 113.384 211.833 113.215 211.21 112.856C210.584 112.494 210.088 111.971 209.72 111.287C209.439 110.766 209.298 110.245 209.297 109.724C209.294 109.199 209.393 108.659 209.594 108.104C209.796 107.549 210.056 106.96 210.376 106.336L211.655 103.767C211.882 103.35 212.025 102.961 212.084 102.601C212.141 102.237 212.067 101.865 211.863 101.486C211.701 101.186 211.417 100.968 211.01 100.832C210.603 100.696 210.183 100.745 209.75 100.978C209.45 101.14 209.224 101.355 209.074 101.625C208.927 101.892 208.851 102.175 208.845 102.474C208.841 102.766 208.907 103.037 209.041 103.287C209.199 103.579 209.436 103.831 209.754 104.041C210.076 104.25 210.449 104.444 210.874 104.624C211.297 104.799 211.739 104.981 212.2 105.168L221.976 109.076L219.862 110.214L211.826 107.08C211.15 106.814 210.52 106.562 209.934 106.324C209.346 106.081 208.823 105.798 208.364 105.475C207.907 105.146 207.54 104.723 207.261 104.206C206.945 103.618 206.797 103.025 206.819 102.427C206.844 101.823 207.028 101.261 207.372 100.742C207.717 100.223 208.214 99.7885 208.864 99.4383C209.523 99.0836 210.157 98.9086 210.768 98.9134C211.38 98.9118 211.928 99.0551 212.411 99.3434C212.896 99.6252 213.273 100.016 213.543 100.517C213.87 101.125 214.008 101.745 213.955 102.376C213.904 103 213.718 103.649 213.398 104.321L211.848 107.6C211.545 108.236 211.392 108.787 211.39 109.251C211.389 109.708 211.442 110.037 211.55 110.237C211.747 110.604 212.024 110.893 212.38 111.105C212.74 111.314 213.142 111.421 213.585 111.424C214.032 111.426 214.487 111.302 214.949 111.052C215.424 110.796 215.832 110.445 216.172 109.998C216.515 109.545 216.765 109.026 216.923 108.441C217.085 107.853 217.129 107.23 217.054 106.572C216.978 105.913 216.76 105.248 216.399 104.577L218.087 103.668C218.532 104.493 218.814 105.242 218.934 105.914C219.052 106.582 219.074 107.167 219 107.669C218.928 108.165 218.829 108.576 218.704 108.902C218.664 109.009 218.629 109.114 218.599 109.216C218.568 109.319 218.533 109.424 218.494 109.531C218.296 110.202 217.945 110.808 217.44 111.349C216.939 111.887 216.391 112.317 215.795 112.638ZM221.354 92.8898L223.699 91.627L233.137 99.3864L233.287 99.3056L232.003 87.155L234.348 85.8922L241.245 98.6987L239.406 99.6887L234.416 90.4215L234.297 90.4855L235.5 101.768L233.975 102.59L225.214 95.3688L225.095 95.4328L230.089 104.706L228.251 105.696L221.354 92.8898ZM244.054 97.1859L237.157 84.3793L239.09 83.3388L245.09 94.482L250.893 91.3569L251.789 93.0203L244.054 97.1859Z" fill="#333333"/>
<rect x="145.809" y="22.3379" width="96" height="50" rx="25" transform="rotate(-5.30071 145.809 22.3379)" fill="#EBEBEB"/>
<path d="M178.242 36.8593L180.434 36.6559L181.318 46.1817C181.412 47.1954 181.258 48.1156 180.854 48.9424C180.45 49.7645 179.837 50.4395 179.016 50.9674C178.195 51.4907 177.204 51.8061 176.044 51.9137C174.889 52.0208 173.859 51.8929 172.956 51.5297C172.051 51.1619 171.325 50.6111 170.777 49.8774C170.228 49.1389 169.906 48.2629 169.812 47.2493L168.928 37.7234L171.114 37.5207L171.981 46.8697C172.042 47.5251 172.24 48.094 172.575 48.5765C172.914 49.0585 173.364 49.421 173.924 49.6639C174.483 49.902 175.128 49.9872 175.859 49.9194C176.594 49.8512 177.215 49.6485 177.721 49.3115C178.232 48.9693 178.605 48.5306 178.84 47.9951C179.081 47.4593 179.17 46.8637 179.11 46.2083L178.242 36.8593ZM185.797 36.1584L187.14 50.6416L184.955 50.8444L183.612 36.3611L185.797 36.1584ZM194.262 34.6882L191.204 52.4615L189.316 52.6367L192.374 34.8634L194.262 34.6882ZM205.605 34.3206L207.797 34.1172L208.681 43.643C208.775 44.6567 208.621 45.5769 208.217 46.4037C207.813 47.2258 207.2 47.9008 206.379 48.4287C205.557 48.9519 204.567 49.2673 203.407 49.375C202.252 49.4821 201.222 49.3541 200.318 48.991C199.414 48.6232 198.688 48.0724 198.139 47.3387C197.591 46.6002 197.269 45.7242 197.175 44.7105L196.291 35.1847L198.477 34.9819L199.344 44.331C199.405 44.9863 199.603 45.5552 199.938 46.0377C200.277 46.5198 200.727 46.8823 201.287 47.1251C201.846 47.3633 202.491 47.4485 203.222 47.3807C203.957 47.3124 204.578 47.1098 205.084 46.7728C205.595 46.4306 205.968 45.9918 206.203 45.4564C206.444 44.9205 206.533 44.325 206.473 43.6696L205.605 34.3206ZM212.495 33.6813L216.486 39.0244L216.599 39.0139L219.539 33.0278L222.07 32.7929L218.23 40.4532L223.442 47.2736L220.896 47.5098L216.899 42.2458L216.786 42.2563L213.825 48.1659L211.279 48.4021L215.225 40.732L209.963 33.9162L212.495 33.6813Z" fill="#333333"/>
<rect x="0.957031" y="90.582" width="146" height="50" rx="25" transform="rotate(-38.3465 0.957031 90.582)" fill="#EBEBEB"/>
<path d="M37.7482 102.279L28.724 90.8713L35.876 85.2135L37.0481 86.6952L31.6172 90.9914L34.3668 94.4671L39.4245 90.4661L40.5922 91.9422L35.5345 95.9432L38.2973 99.4357L43.795 95.0866L44.9671 96.5682L37.7482 102.279ZM39.7069 82.183L48.7311 93.5906L47.0656 94.9081L38.0414 83.5005L39.7069 82.183ZM54.7957 89.0738C53.9527 89.7407 53.0843 90.1349 52.1904 90.2564C51.2972 90.3713 50.4254 90.2309 49.5749 89.835C48.7253 89.4326 47.9494 88.7876 47.2473 87.9001C46.554 87.0237 46.1064 86.1221 45.9044 85.1951C45.7062 84.2653 45.7539 83.3793 46.0476 82.5372C46.3451 81.6921 46.8911 80.9552 47.6858 80.3266C48.1686 79.9447 48.6996 79.6544 49.279 79.4557C49.8583 79.257 50.4632 79.186 51.0937 79.2427C51.7241 79.2994 52.3593 79.5184 52.999 79.8998C53.6359 80.2774 54.2613 80.8543 54.8752 81.6304L55.3423 82.2208L48.5412 87.601L47.5541 86.3533L52.7232 82.2642C52.3766 81.826 51.9805 81.5085 51.5349 81.3115C51.0864 81.1109 50.6228 81.04 50.144 81.0987C49.669 81.1545 49.2161 81.3528 48.7853 81.6936C48.3174 82.0637 48 82.502 47.8331 83.0083C47.6669 83.5081 47.6346 84.0166 47.736 84.5341C47.8382 85.0449 48.0583 85.5138 48.3961 85.9408L49.1672 86.9156C49.6196 87.4875 50.1047 87.8946 50.6224 88.137C51.1439 88.3765 51.6704 88.4581 52.2017 88.3819C52.7301 88.302 53.2376 88.0696 53.724 87.6848C54.0397 87.4351 54.2922 87.1629 54.4816 86.8681C54.6681 86.5697 54.7841 86.2545 54.8296 85.9228C54.875 85.591 54.8421 85.2518 54.7309 84.9051L56.5319 83.9422C56.7729 84.5062 56.868 85.092 56.8174 85.6996C56.7675 86.3005 56.5739 86.8914 56.2364 87.4723C55.8998 88.0465 55.4195 88.5803 54.7957 89.0738ZM63.9182 81.8573C63.0901 82.5124 62.2287 82.8889 61.3342 82.9868C60.4404 83.078 59.5709 82.9176 58.7257 82.5055C57.8806 82.0935 57.1187 81.4585 56.4401 80.6007C55.7527 79.7318 55.3095 78.8357 55.1104 77.9125C54.9085 76.9856 54.9562 76.0996 55.2536 75.2545C55.5511 74.4095 56.1027 73.6682 56.9085 73.0307C57.5584 72.5167 58.2332 72.1791 58.9328 72.018C59.6296 71.8532 60.3043 71.8628 60.957 72.0468C61.6134 72.2279 62.1989 72.5827 62.7137 73.1113L61.0928 74.3935C60.6864 74.063 60.209 73.8792 59.6605 73.8422C59.1157 73.8023 58.5778 73.9923 58.0468 74.4124C57.5826 74.7796 57.2729 75.2238 57.1178 75.745C56.9634 76.2596 56.9673 76.8179 57.1297 77.42C57.2891 78.0183 57.6097 78.622 58.0914 79.231C58.585 79.8549 59.1056 80.3184 59.6534 80.6216C60.2011 80.9248 60.7461 81.0643 61.2883 81.0399C61.8341 81.0125 62.3429 80.8123 62.8145 80.4393C63.1301 80.1896 63.3705 79.9058 63.5357 79.588C63.7016 79.2635 63.7852 78.9227 63.7864 78.5656C63.7913 78.2055 63.7072 77.8434 63.5339 77.4794L65.1548 76.1971C65.5331 76.7974 65.7437 77.4338 65.7866 78.1062C65.8295 78.7786 65.6969 79.439 65.3887 80.0873C65.0842 80.7327 64.594 81.3227 63.9182 81.8573ZM66.3029 65.7802L67.3605 67.117L62.6871 70.814L61.6296 69.4772L66.3029 65.7802ZM61.2613 66.4359L62.9268 65.1184L69.3293 73.2118C69.5848 73.5349 69.8255 73.7399 70.0513 73.8269C70.2742 73.9102 70.4852 73.9214 70.6845 73.8603C70.8845 73.7927 71.0755 73.6868 71.2575 73.5429C71.3912 73.4371 71.5008 73.3353 71.5864 73.2375C71.6719 73.1396 71.7382 73.063 71.785 73.0078L73.1742 74.1457C73.107 74.2592 72.999 74.405 72.8501 74.5832C72.7042 74.765 72.499 74.9636 72.2346 75.1788C71.8023 75.5328 71.3321 75.778 70.8241 75.9142C70.3161 76.0505 69.81 76.0403 69.3058 75.8837C68.8016 75.7272 68.3453 75.3908 67.937 74.8747L61.2613 66.4359ZM74.9134 72.8785L68.1453 64.3228L69.755 63.0494L70.8302 64.4085L70.9193 64.338C70.711 63.7541 70.6994 63.1747 70.8844 62.5997C71.0703 62.018 71.4138 61.5288 71.9151 61.1323C72.0191 61.05 72.1446 60.9568 72.2916 60.8526C72.4423 60.7455 72.5629 60.6651 72.6534 60.6117L73.9136 62.2047C73.8321 62.239 73.6971 62.3126 73.5087 62.4254C73.3173 62.5346 73.1362 62.6567 72.9654 62.7918C72.5717 63.1032 72.2869 63.4644 72.1109 63.8753C71.9357 64.2796 71.8749 64.6989 71.9288 65.1333C71.9797 65.5639 72.152 65.9649 72.4457 66.3362L76.5789 71.561L74.9134 72.8785ZM84.3675 65.6804C83.5654 66.315 82.72 66.6849 81.8313 66.7902C80.9426 66.8955 80.0716 66.7484 79.2182 66.3489C78.3648 65.9493 77.5885 65.3077 76.8894 64.4239C76.1873 63.5364 75.7386 62.6295 75.5433 61.7034C75.348 60.7772 75.4038 59.8939 75.7108 59.0533C76.0179 58.2127 76.5725 57.4752 77.3745 56.8407C78.1766 56.2061 79.022 55.8362 79.9107 55.7309C80.7994 55.6256 81.6719 55.7745 82.5282 56.1778C83.3845 56.5811 84.1637 57.2264 84.8658 58.1139C85.565 58.9977 86.0107 59.9008 86.2031 60.8233C86.3955 61.7457 86.3382 62.6272 86.0312 63.4678C85.7241 64.3084 85.1695 65.0459 84.3675 65.6804ZM83.267 64.2779C83.7869 63.8667 84.109 63.3885 84.2332 62.8435C84.3575 62.2984 84.3206 61.7329 84.1227 61.1469C83.9285 60.5579 83.614 59.9887 83.1792 59.4391C82.7474 58.8932 82.2673 58.458 81.7389 58.1335C81.2112 57.8022 80.6664 57.6325 80.1045 57.6243C79.5425 57.616 79.0016 57.8175 78.4817 58.2288C77.9581 58.643 77.6338 59.1259 77.5088 59.6776C77.3875 60.2264 77.4254 60.7971 77.6225 61.3898C77.8205 61.9758 78.1353 62.5417 78.5672 63.0876C79.0019 63.6372 79.4817 64.0757 80.0064 64.4032C80.5348 64.7277 81.0785 64.8923 81.6375 64.8968C82.2003 64.8984 82.7434 64.6921 83.267 64.2779ZM87.7249 54.4847L91.7435 59.5647L90.0781 60.8822L83.3099 52.3265L84.9085 51.0619L86.0101 52.4544L86.116 52.3707C85.9544 51.7619 85.9747 51.1542 86.1769 50.5475C86.3829 49.9378 86.8071 49.3788 87.4495 48.8706C88.0325 48.4094 88.64 48.1281 89.2721 48.0265C89.9012 47.9213 90.5259 48.0127 91.1463 48.3008C91.7666 48.5888 92.3558 49.0857 92.914 49.7912L97.219 55.2332L95.5535 56.5507L91.4071 51.3092C90.9165 50.6891 90.3717 50.3323 89.7725 50.2388C89.1703 50.1416 88.587 50.3162 88.0226 50.7628C87.6364 51.0683 87.359 51.4235 87.1904 51.8286C87.0255 52.2307 86.9836 52.6623 87.0646 53.1235C87.1465 53.5779 87.3666 54.0317 87.7249 54.4847ZM99.4526 53.4663L92.6844 44.9106L94.3499 43.5931L101.118 52.1488L99.4526 53.4663ZM92.4812 42.9251C92.1915 43.1542 91.8664 43.2545 91.5057 43.2259C91.1457 43.1906 90.8586 43.0375 90.6441 42.7664C90.4267 42.4916 90.3438 42.1769 90.3953 41.8222C90.4475 41.4609 90.6185 41.1657 90.9081 40.9366C91.1978 40.7074 91.5226 40.6105 91.8825 40.6457C92.2432 40.6743 92.5322 40.826 92.7496 41.1008C92.9641 41.3719 93.0451 41.6881 92.9929 42.0494C92.9414 42.4041 92.7708 42.696 92.4812 42.9251ZM107.099 47.6981C106.271 48.3531 105.41 48.7296 104.515 48.8275C103.621 48.9188 102.752 48.7584 101.907 48.3463C101.062 47.9342 100.3 47.2993 99.6211 46.4415C98.9337 45.5725 98.4904 44.6765 98.2914 43.7533C98.0894 42.8263 98.1371 41.9403 98.4346 41.0953C98.732 40.2502 99.2837 39.509 100.089 38.8715C100.739 38.3574 101.414 38.0198 102.114 37.8588C102.811 37.694 103.485 37.7036 104.138 37.8876C104.794 38.0686 105.38 38.4235 105.895 38.952L104.274 40.2343C103.867 39.9037 103.39 39.72 102.841 39.683C102.297 39.643 101.759 39.8331 101.228 40.2531C100.764 40.6203 100.454 41.0645 100.299 41.5858C100.144 42.1003 100.148 42.6586 100.311 43.2607C100.47 43.8591 100.791 44.4628 101.272 45.0718C101.766 45.6956 102.287 46.1592 102.834 46.4624C103.382 46.7656 103.927 46.905 104.469 46.8806C105.015 46.8533 105.524 46.6531 105.995 46.28C106.311 46.0303 106.551 45.7466 106.717 45.4288C106.883 45.1043 106.966 44.7635 106.967 44.4063C106.972 44.0462 106.888 43.6842 106.715 43.3201L108.336 42.0379C108.714 42.6382 108.925 43.2745 108.968 43.947C109.01 44.6194 108.878 45.2797 108.57 45.928C108.265 46.5734 107.775 47.1634 107.099 47.6981ZM113.554 31.7974L112.256 33.2589C112.04 33.1157 111.794 33.0112 111.519 32.9454C111.247 32.8766 110.952 32.8776 110.634 32.9483C110.315 33.019 109.983 33.191 109.638 33.4642C109.166 33.8373 108.856 34.2545 108.708 34.7158C108.557 35.1735 108.612 35.5676 108.874 35.8981C109.1 36.184 109.388 36.3305 109.738 36.3376C110.087 36.3447 110.542 36.2174 111.102 35.9557L112.708 35.1925C113.639 34.7517 114.447 34.5679 115.133 34.6412C115.819 34.7144 116.401 35.0537 116.88 35.659C117.286 36.1714 117.498 36.7457 117.519 37.3817C117.539 38.0111 117.376 38.6477 117.028 39.2913C116.683 39.932 116.166 40.5256 115.475 41.072C114.517 41.8299 113.574 42.244 112.645 42.3144C111.714 42.381 110.88 42.0899 110.143 41.441L111.559 39.9225C111.992 40.2628 112.449 40.4173 112.931 40.3859C113.41 40.3508 113.901 40.135 114.402 39.7384C114.948 39.3066 115.295 38.8481 115.442 38.3631C115.587 37.8744 115.529 37.4648 115.267 37.1343C115.056 36.8669 114.778 36.7216 114.433 36.6982C114.092 36.672 113.681 36.774 113.199 37.0043L111.5 37.8324C110.557 38.2821 109.738 38.4595 109.041 38.3647C108.348 38.267 107.761 37.9137 107.279 37.3047C106.879 36.7997 106.671 36.2461 106.653 35.6441C106.636 35.0421 106.792 34.4384 107.122 33.8331C107.45 33.2241 107.935 32.6655 108.577 32.1573C109.502 31.4258 110.388 31.0506 111.236 31.0316C112.082 31.0088 112.854 31.2641 113.554 31.7974Z" fill="#333333"/>
<rect x="93.1953" y="150.658" width="74" height="46" rx="23" transform="rotate(-28.3034 93.1953 150.658)" fill="#EBEBEB"/>
<path d="M121.471 152.983L128.367 165.79L126.435 166.83L119.539 154.024L121.471 152.983ZM138.857 151.88C139.594 153.248 139.977 154.558 140.006 155.811C140.034 157.06 139.754 158.184 139.168 159.183C138.584 160.175 137.739 160.969 136.635 161.563C135.526 162.161 134.394 162.431 133.24 162.375C132.088 162.313 130.997 161.924 129.967 161.21C128.937 160.495 128.054 159.456 127.32 158.093C126.584 156.726 126.202 155.418 126.175 154.169C126.145 152.915 126.423 151.793 127.007 150.8C127.593 149.802 128.441 149.004 129.549 148.407C130.654 147.812 131.783 147.546 132.935 147.608C134.089 147.664 135.181 148.049 136.211 148.764C137.239 149.474 138.121 150.513 138.857 151.88ZM136.944 152.911C136.383 151.869 135.741 151.082 135.02 150.551C134.3 150.013 133.55 149.719 132.769 149.666C131.989 149.607 131.233 149.775 130.499 150.17C129.761 150.568 129.202 151.108 128.823 151.791C128.441 152.47 128.274 153.259 128.323 154.157C128.373 155.05 128.679 156.017 129.24 157.059C129.801 158.102 130.442 158.892 131.161 159.429C131.883 159.96 132.633 160.255 133.413 160.314C134.19 160.369 134.947 160.197 135.685 159.8C136.419 159.405 136.976 158.868 137.358 158.189C137.742 157.504 137.909 156.715 137.859 155.822C137.81 154.923 137.505 153.953 136.944 152.911ZM137.532 146.48L136.636 144.816L146.548 139.479L147.443 141.142L143.448 143.294L149.448 154.437L147.522 155.474L141.522 144.331L137.532 146.48Z" fill="#333333"/>
</svg>
