<svg width="366" height="252" viewBox="0 0 366 252" fill="none" xmlns="http://www.w3.org/2000/svg">
<mask id="mask0_433_3298" style="mask-type:alpha" maskUnits="userSpaceOnUse" x="0" y="0" width="366" height="252">
<rect width="366" height="252" fill="#D9D9D9"/>
</mask>
<g mask="url(#mask0_433_3298)">
<rect x="27.25" y="200.512" width="156" height="50" rx="25" transform="rotate(-9 27.25 200.512)" fill="#EBEBEB"/>
<path d="M49.8299 214.607L52.4604 214.19L58.8029 224.633L58.9712 224.607L61.7761 212.715L64.4067 212.298L66.6821 226.664L64.6197 226.991L62.9732 216.595L62.8399 216.616L60.2462 227.662L58.5345 227.933L52.6532 218.222L52.52 218.243L54.1676 228.646L52.1053 228.973L49.8299 214.607ZM74.2382 225.691C73.2281 225.851 72.3099 225.759 71.4836 225.415C70.6574 225.071 69.9702 224.516 69.4221 223.75C68.8741 222.983 68.5119 222.043 68.3356 220.93C68.1586 219.813 68.2119 218.802 68.4955 217.899C68.7792 216.996 69.2608 216.254 69.9404 215.671C70.62 215.089 71.4648 214.718 72.475 214.558C73.4851 214.398 74.4033 214.49 75.2296 214.834C76.0558 215.177 76.7433 215.735 77.2921 216.506C77.8409 217.277 78.2038 218.222 78.3809 219.339C78.5572 220.452 78.5031 221.458 78.2187 222.356C77.9344 223.255 77.4524 223.995 76.7728 224.577C76.0932 225.159 75.2483 225.531 74.2382 225.691ZM73.9663 223.929C74.6211 223.825 75.1361 223.566 75.5116 223.152C75.887 222.738 76.132 222.227 76.2467 221.619C76.366 221.01 76.3709 220.36 76.2613 219.668C76.1524 218.98 75.9472 218.366 75.6456 217.824C75.348 217.276 74.9563 216.862 74.4705 216.579C73.9847 216.296 73.4145 216.207 72.7598 216.311C72.1004 216.415 71.581 216.677 71.2016 217.097C70.8269 217.516 70.5803 218.032 70.4617 218.645C70.347 219.253 70.3441 219.9 70.453 220.588C70.5626 221.28 70.7659 221.897 71.0627 222.44C71.3643 222.982 71.7576 223.392 72.2427 223.67C72.7324 223.947 73.3069 224.033 73.9663 223.929ZM81.7359 224.28L79.4605 209.914L81.558 209.582L82.4035 214.92L82.5297 214.9C82.6158 214.656 82.75 214.369 82.9325 214.038C83.115 213.707 83.3923 213.399 83.7643 213.115C84.1356 212.826 84.6556 212.629 85.3244 212.523C86.1942 212.385 87.0054 212.482 87.7578 212.813C88.5102 213.145 89.146 213.694 89.6652 214.46C90.1892 215.225 90.5434 216.19 90.7278 217.355C90.9122 218.519 90.8763 219.549 90.62 220.443C90.3629 221.332 89.9309 222.055 89.3239 222.611C88.7162 223.163 87.9774 223.507 87.1075 223.645C86.4528 223.749 85.9 223.724 85.4489 223.57C85.0026 223.415 84.6392 223.209 84.3587 222.951C84.0782 222.694 83.8567 222.46 83.6941 222.251L83.5187 222.279L83.7843 223.956L81.7359 224.28ZM82.938 218.567C83.058 219.325 83.2731 219.971 83.5832 220.507C83.8934 221.043 84.2821 221.439 84.7495 221.696C85.216 221.948 85.751 222.026 86.3542 221.931C86.9809 221.831 87.4784 221.582 87.8467 221.184C88.2142 220.78 88.46 220.274 88.584 219.665C88.7127 219.055 88.72 218.39 88.606 217.669C88.4934 216.959 88.2847 216.337 87.98 215.806C87.6799 215.273 87.2912 214.877 86.8138 214.617C86.341 214.356 85.789 214.276 85.1576 214.376C84.5497 214.472 84.0601 214.71 83.6888 215.09C83.3222 215.469 83.0758 215.957 82.9496 216.552C82.8234 217.147 82.8195 217.819 82.938 218.567ZM93.933 222.348L92.2264 211.573L94.3238 211.241L96.0304 222.016L93.933 222.348ZM93.0223 209.743C92.6576 209.801 92.325 209.729 92.0246 209.527C91.7281 209.32 91.5528 209.046 91.4988 208.705C91.444 208.358 91.5259 208.043 91.7446 207.76C91.9672 207.47 92.2609 207.297 92.6257 207.239C92.9905 207.181 93.3211 207.256 93.6176 207.463C93.918 207.665 94.0956 207.939 94.1504 208.285C94.2044 208.626 94.1202 208.941 93.8975 209.231C93.6788 209.515 93.3871 209.685 93.0223 209.743ZM98.6741 206.871L100.95 221.237L98.8521 221.569L96.5767 207.203L98.6741 206.871ZM108.45 220.272C107.388 220.44 106.438 220.358 105.599 220.026C104.764 219.688 104.073 219.139 103.526 218.377C102.982 217.61 102.622 216.667 102.445 215.549C102.27 214.446 102.322 213.44 102.6 212.534C102.883 211.626 103.359 210.877 104.028 210.287C104.701 209.696 105.538 209.321 106.539 209.163C107.147 209.066 107.752 209.074 108.355 209.184C108.957 209.295 109.519 209.53 110.041 209.888C110.563 210.247 111.009 210.749 111.38 211.395C111.75 212.036 112.012 212.845 112.167 213.823L112.285 214.566L103.719 215.923L103.471 214.352L109.98 213.321C109.893 212.769 109.703 212.298 109.411 211.908C109.119 211.513 108.749 211.224 108.303 211.041C107.862 210.856 107.37 210.807 106.827 210.893C106.238 210.987 105.747 211.213 105.353 211.573C104.963 211.927 104.686 212.354 104.521 212.855C104.359 213.35 104.321 213.867 104.407 214.405L104.601 215.632C104.715 216.352 104.938 216.945 105.271 217.41C105.608 217.874 106.027 218.204 106.528 218.398C107.027 218.587 107.584 218.633 108.196 218.536C108.594 218.473 108.947 218.36 109.257 218.195C109.566 218.027 109.821 217.809 110.023 217.542C110.226 217.275 110.363 216.963 110.436 216.606L112.478 216.65C112.412 217.26 112.207 217.817 111.865 218.322C111.527 218.821 111.069 219.241 110.49 219.582C109.915 219.918 109.235 220.148 108.45 220.272ZM121.975 217.907L119.674 218.271L122.568 203.086L125.073 202.689L132.518 216.237L130.217 216.601L124.293 205.488L124.181 205.506L121.975 217.907ZM121.47 212.22L128.933 211.038L129.222 212.862L121.758 214.044L121.47 212.22ZM135.064 219.976L132.718 205.16L134.766 204.836L135.043 206.583L135.218 206.555C135.304 206.311 135.438 206.024 135.621 205.693C135.803 205.362 136.081 205.054 136.453 204.77C136.824 204.481 137.344 204.284 138.013 204.178C138.883 204.04 139.694 204.137 140.446 204.468C141.199 204.8 141.834 205.349 142.354 206.115C142.878 206.88 143.232 207.845 143.416 209.01C143.601 210.174 143.565 211.204 143.308 212.097C143.051 212.987 142.619 213.709 142.012 214.266C141.405 214.818 140.666 215.162 139.796 215.3C139.141 215.404 138.588 215.379 138.137 215.225C137.691 215.07 137.328 214.864 137.047 214.606C136.767 214.349 136.545 214.115 136.382 213.906L136.256 213.926L137.162 219.643L135.064 219.976ZM135.626 210.222C135.746 210.98 135.961 211.626 136.272 212.162C136.582 212.698 136.971 213.094 137.438 213.351C137.904 213.603 138.439 213.681 139.043 213.586C139.669 213.486 140.167 213.237 140.535 212.839C140.903 212.435 141.148 211.929 141.272 211.32C141.401 210.71 141.408 210.045 141.294 209.324C141.182 208.614 140.973 207.992 140.668 207.46C140.368 206.928 139.98 206.532 139.502 206.272C139.029 206.011 138.477 205.931 137.846 206.031C137.238 206.127 136.748 206.365 136.377 206.745C136.011 207.124 135.764 207.612 135.638 208.207C135.512 208.802 135.508 209.474 135.626 210.222ZM147.256 218.045L144.91 203.229L146.958 202.905L147.235 204.652L147.41 204.624C147.496 204.38 147.63 204.093 147.813 203.762C147.995 203.431 148.272 203.123 148.644 202.839C149.016 202.55 149.536 202.353 150.205 202.247C151.074 202.109 151.886 202.206 152.638 202.537C153.39 202.869 154.026 203.418 154.545 204.184C155.069 204.949 155.424 205.914 155.608 207.079C155.792 208.243 155.756 209.273 155.5 210.166C155.243 211.056 154.811 211.779 154.204 212.335C153.596 212.887 152.858 213.231 151.988 213.369C151.333 213.473 150.78 213.448 150.329 213.294C149.883 213.139 149.519 212.933 149.239 212.675C148.958 212.418 148.737 212.184 148.574 211.975L148.448 211.995L149.354 217.712L147.256 218.045ZM147.818 208.291C147.938 209.049 148.153 209.695 148.463 210.231C148.774 210.767 149.162 211.163 149.63 211.42C150.096 211.672 150.631 211.75 151.234 211.655C151.861 211.555 152.359 211.306 152.727 210.908C153.094 210.504 153.34 209.998 153.464 209.389C153.593 208.779 153.6 208.114 153.486 207.393C153.374 206.683 153.165 206.061 152.86 205.529C152.56 204.997 152.171 204.601 151.694 204.341C151.221 204.08 150.669 204 150.038 204.1C149.43 204.196 148.94 204.434 148.569 204.814C148.202 205.193 147.956 205.681 147.83 206.276C147.704 206.871 147.7 207.543 147.818 208.291ZM165.592 202.65L163.744 203.288C163.626 203.057 163.463 202.846 163.256 202.653C163.052 202.46 162.795 202.317 162.483 202.222C162.17 202.128 161.797 202.115 161.362 202.184C160.768 202.278 160.293 202.49 159.938 202.819C159.582 203.144 159.437 203.515 159.503 203.931C159.56 204.291 159.739 204.56 160.041 204.737C160.342 204.915 160.801 205.027 161.417 205.073L163.191 205.195C164.218 205.267 165.013 205.503 165.575 205.903C166.137 206.303 166.478 206.884 166.599 207.646C166.701 208.292 166.605 208.897 166.311 209.461C166.021 210.02 165.567 210.494 164.948 210.885C164.333 211.275 163.591 211.538 162.722 211.676C161.515 211.867 160.49 211.766 159.646 211.372C158.802 210.974 158.217 210.311 157.893 209.385L159.872 208.755C160.081 209.264 160.404 209.622 160.84 209.831C161.275 210.036 161.808 210.088 162.44 209.988C163.127 209.879 163.654 209.649 164.02 209.299C164.386 208.944 164.536 208.558 164.47 208.142C164.417 207.805 164.246 207.542 163.957 207.353C163.673 207.163 163.264 207.05 162.731 207.015L160.844 206.904C159.802 206.834 159.001 206.587 158.44 206.163C157.884 205.738 157.545 205.142 157.423 204.375C157.323 203.739 157.412 203.155 157.692 202.621C157.972 202.088 158.404 201.638 158.988 201.273C159.572 200.902 160.269 200.653 161.078 200.525C162.242 200.34 163.199 200.448 163.947 200.847C164.695 201.241 165.244 201.842 165.592 202.65Z" fill="#333333"/>
<rect x="-8" y="176.629" width="188.437" height="50" rx="25" transform="rotate(-43.6641 -8 176.629)" fill="#EBEBEB"/>
<path d="M15.9042 177.941L17.8309 176.102L28.9873 181.085L29.1106 180.967L24.6539 169.59L26.5805 167.752L36.6232 178.274L35.1126 179.715L27.8455 172.101L27.7479 172.194L31.8971 182.755L30.6435 183.951L20.2829 179.309L20.1853 179.402L27.4573 187.022L25.9468 188.463L15.9042 177.941ZM42.2842 173.175C41.5443 173.881 40.7368 174.328 39.8618 174.515C38.9867 174.702 38.1057 174.637 37.219 174.318C36.3323 173.999 35.4999 173.432 34.7218 172.617C33.9405 171.798 33.4097 170.937 33.1294 170.033C32.8491 169.129 32.8228 168.244 33.0506 167.379C33.2784 166.513 33.7623 165.728 34.5021 165.021C35.242 164.315 36.0494 163.869 36.9245 163.681C37.7996 163.494 38.6822 163.562 39.5722 163.884C40.4622 164.206 41.2978 164.776 42.0791 165.595C42.8572 166.41 43.3847 167.268 43.6618 168.169C43.9388 169.069 43.9635 169.952 43.7356 170.818C43.5078 171.683 43.024 172.469 42.2842 173.175ZM41.0585 171.881C41.538 171.423 41.8144 170.917 41.8876 170.363C41.9608 169.809 41.8717 169.249 41.6203 168.684C41.3723 168.115 41.0065 167.578 40.5226 167.071C40.0421 166.567 39.5237 166.178 38.9675 165.904C38.4114 165.623 37.8532 165.505 37.2929 165.549C36.7326 165.593 36.2127 165.843 35.7332 166.301C35.2502 166.762 34.9721 167.273 34.8987 167.834C34.8288 168.391 34.9194 168.956 35.1706 169.528C35.422 170.093 35.788 170.627 36.2685 171.131C36.7524 171.638 37.2707 172.03 37.8235 172.307C38.3797 172.582 38.9363 172.695 39.4934 172.648C40.0538 172.597 40.5755 172.342 41.0585 171.881ZM43.6774 156.461L44.8542 157.694L40.5436 161.808L39.3668 160.575L43.6774 156.461ZM38.7182 157.581L40.2544 156.115L47.3794 163.58C47.6638 163.878 47.9225 164.06 48.1553 164.125C48.385 164.188 48.5962 164.179 48.7889 164.1C48.9818 164.014 49.1622 163.891 49.33 163.731C49.4533 163.613 49.553 163.502 49.6291 163.396C49.7053 163.291 49.7641 163.208 49.8057 163.149L51.2943 164.153C51.238 164.273 51.1439 164.428 51.0122 164.619C50.8838 164.814 50.6979 165.03 50.4545 165.269C50.0569 165.662 49.6115 165.949 49.1183 166.132C48.6251 166.315 48.1202 166.352 47.6036 166.242C47.0871 166.133 46.6016 165.841 46.1472 165.365L38.7182 157.581ZM52.9086 162.73L45.3767 154.839L46.9129 153.373L54.4448 161.264L52.9086 162.73ZM44.9903 152.881C44.7232 153.136 44.4087 153.266 44.0469 153.271C43.6852 153.269 43.3851 153.143 43.1465 152.893C42.9045 152.64 42.7928 152.334 42.8112 151.976C42.8297 151.611 42.9726 151.302 43.2398 151.047C43.5069 150.792 43.8213 150.665 44.183 150.667C44.5448 150.662 44.8466 150.786 45.0885 151.039C45.3272 151.289 45.4372 151.597 45.4187 151.961C45.4003 152.319 45.2575 152.626 44.9903 152.881ZM59.9877 156.278C59.2478 156.985 58.4404 157.431 57.5653 157.618C56.6902 157.806 55.8093 157.74 54.9225 157.421C54.0358 157.102 53.2034 156.536 52.4254 155.72C51.6441 154.902 51.1132 154.04 50.8329 153.136C50.5526 152.232 50.5263 151.348 50.7542 150.482C50.982 149.617 51.4658 148.831 52.2056 148.125C52.9455 147.419 53.7529 146.972 54.628 146.785C55.5031 146.598 56.3857 146.665 57.2757 146.987C58.1657 147.309 59.0014 147.88 59.7827 148.698C60.5607 149.514 61.0883 150.371 61.3653 151.272C61.6424 152.173 61.667 153.056 61.4392 153.921C61.2113 154.787 60.7275 155.572 59.9877 156.278ZM58.762 154.984C59.2415 154.526 59.5179 154.02 59.5911 153.466C59.6643 152.912 59.5752 152.352 59.3238 151.787C59.0759 151.219 58.71 150.681 58.2262 150.174C57.7456 149.671 57.2272 149.282 56.671 149.008C56.1149 148.727 55.5567 148.608 54.9964 148.652C54.4361 148.696 53.9162 148.947 53.4367 149.404C52.9537 149.865 52.6756 150.376 52.6022 150.937C52.5323 151.495 52.6229 152.059 52.8742 152.631C53.1255 153.196 53.4915 153.731 53.9721 154.234C54.4559 154.741 54.9742 155.133 55.527 155.411C56.0832 155.685 56.6399 155.799 57.1969 155.751C57.7574 155.701 58.2791 155.445 58.762 154.984ZM62.2932 144.82L66.7653 149.505L65.2291 150.972L57.6971 143.08L59.1716 141.673L60.3975 142.957L60.4952 142.864C60.2779 142.273 60.2418 141.666 60.3869 141.043C60.5355 140.417 60.906 139.821 61.4986 139.255C62.0364 138.742 62.6152 138.406 63.2351 138.246C63.8518 138.083 64.4823 138.116 65.1267 138.345C65.771 138.575 66.4037 139.015 67.0249 139.666L71.8157 144.685L70.2795 146.151L65.6652 141.317C65.1193 140.745 64.5436 140.44 63.9384 140.402C63.3298 140.361 62.7652 140.589 62.2446 141.086C61.8884 141.426 61.6451 141.806 61.5148 142.225C61.3879 142.64 61.3861 143.074 61.5095 143.526C61.6331 143.97 61.8943 144.402 62.2932 144.82ZM78.0792 124.952C77.6824 124.735 77.2824 124.584 76.8792 124.497C76.4761 124.404 76.0765 124.38 75.6803 124.424C75.2808 124.465 74.8896 124.58 74.5068 124.768C74.1274 124.954 73.763 125.213 73.4136 125.547C72.8211 126.112 72.4322 126.775 72.2471 127.534C72.0619 128.293 72.1118 129.1 72.3966 129.954C72.6816 130.801 73.2295 131.649 74.0402 132.499C74.8542 133.352 75.681 133.94 76.5208 134.265C77.3605 134.589 78.1673 134.673 78.9412 134.517C79.7151 134.361 80.4103 133.989 81.0269 133.4C81.5989 132.854 81.9861 132.262 82.1885 131.624C82.3944 130.982 82.4111 130.338 82.2386 129.691C82.0663 129.037 81.7039 128.421 81.1514 127.842L81.636 127.527L78.6253 130.4L77.3749 129.09L81.5108 125.143L82.6533 126.34C83.4967 127.224 84.0406 128.171 84.285 129.181C84.5295 130.185 84.4896 131.178 84.1652 132.162C83.8443 133.143 83.2591 134.038 82.4097 134.849C81.4575 135.758 80.4125 136.336 79.2748 136.584C78.1405 136.829 76.9888 136.74 75.8198 136.318C74.6476 135.892 73.5319 135.124 72.4727 134.014C71.6718 133.175 71.069 132.311 70.6645 131.42C70.2599 130.53 70.046 129.651 70.0227 128.783C69.9996 127.909 70.1563 127.075 70.4929 126.282C70.8297 125.483 71.3389 124.758 72.0205 124.108C72.5891 123.565 73.1984 123.144 73.8484 122.844C74.5018 122.541 75.1674 122.361 75.8453 122.303C76.5265 122.242 77.1966 122.303 77.8554 122.486C78.511 122.665 79.1285 122.969 79.7079 123.398L78.0792 124.952ZM88.5418 128.721L81.0098 120.83L82.4946 119.413L83.6911 120.666L83.7733 120.588C83.5118 120.026 83.4465 119.45 83.5775 118.86C83.7086 118.264 84.0054 117.745 84.4678 117.304C84.5637 117.212 84.68 117.108 84.8167 116.99C84.9568 116.87 85.0694 116.778 85.1546 116.717L86.557 118.186C86.479 118.228 86.3514 118.314 86.1743 118.444C85.9938 118.57 85.8248 118.708 85.6673 118.859C85.3042 119.205 85.0541 119.591 84.9169 120.017C84.7799 120.435 84.7583 120.859 84.8521 121.286C84.9427 121.71 85.1515 122.094 85.4784 122.436L90.0779 127.255L88.5418 128.721ZM96.4871 121.472C95.987 121.949 95.4466 122.288 94.8659 122.489C94.2819 122.687 93.7018 122.72 93.1255 122.589C92.5526 122.455 92.0193 122.13 91.5257 121.613C91.1007 121.167 90.8365 120.719 90.7332 120.268C90.6299 119.817 90.6437 119.368 90.7746 118.923C90.9056 118.477 91.11 118.04 91.3879 117.611C91.6658 117.182 91.9702 116.767 92.3011 116.366C92.7214 115.86 93.0626 115.449 93.3244 115.134C93.5831 114.815 93.7399 114.551 93.795 114.341C93.8502 114.132 93.7895 113.934 93.6129 113.749L93.5786 113.713C93.1504 113.265 92.6918 113.038 92.203 113.033C91.7176 113.025 91.2265 113.258 90.7299 113.732C90.2127 114.226 89.9146 114.73 89.8356 115.244C89.7568 115.751 89.7933 116.197 89.9451 116.582L88.1875 117.631C87.9011 116.989 87.7817 116.363 87.8294 115.754C87.8772 115.139 88.0532 114.559 88.3573 114.014C88.6581 113.465 89.0466 112.963 89.5227 112.509C89.8378 112.208 90.2077 111.927 90.6324 111.665C91.0573 111.397 91.517 111.214 92.0116 111.115C92.5096 111.013 93.0312 111.048 93.5764 111.222C94.1183 111.392 94.6639 111.764 95.2131 112.34L100.215 117.58L98.7146 119.012L97.6848 117.933L97.6232 117.992C97.7134 118.286 97.7508 118.623 97.7352 119.005C97.7196 119.386 97.6164 119.789 97.4257 120.213C97.2349 120.637 96.9221 121.057 96.4871 121.472ZM95.6442 119.92C96.0689 119.515 96.3519 119.084 96.4931 118.629C96.6378 118.17 96.6597 117.73 96.559 117.309C96.4585 116.882 96.2595 116.512 95.962 116.2L94.9911 115.183C94.9886 115.29 94.9314 115.443 94.8196 115.641C94.708 115.833 94.5692 116.041 94.4032 116.264C94.234 116.485 94.0683 116.699 93.906 116.906C93.7405 117.11 93.6026 117.281 93.4922 117.419C93.2302 117.741 93.0183 118.064 92.8567 118.388C92.6985 118.71 92.6259 119.024 92.6388 119.333C92.6518 119.634 92.7891 119.922 93.0507 120.196C93.4135 120.577 93.8286 120.73 94.2958 120.657C94.7597 120.581 95.2092 120.335 95.6442 119.92ZM105.085 118.587L94.729 107.736L96.2292 106.304L97.4502 107.583L97.5786 107.461C97.5108 107.211 97.4578 106.899 97.4197 106.523C97.3816 106.147 97.4347 105.736 97.579 105.291C97.7201 104.842 98.0355 104.384 98.5253 103.916C99.1624 103.308 99.8846 102.927 100.692 102.771C101.499 102.616 102.335 102.706 103.197 103.041C104.064 103.372 104.904 103.965 105.718 104.817C106.532 105.67 107.088 106.537 107.385 107.418C107.68 108.296 107.735 109.136 107.553 109.939C107.367 110.738 106.955 111.442 106.318 112.05C105.838 112.508 105.369 112.802 104.911 112.932C104.456 113.058 104.04 113.095 103.662 113.043C103.285 112.991 102.97 112.925 102.718 112.845L102.625 112.933L106.622 117.121L105.085 118.587ZM100 110.245C100.53 110.8 101.075 111.209 101.634 111.474C102.194 111.738 102.739 111.843 103.27 111.788C103.797 111.73 104.281 111.49 104.723 111.068C105.182 110.63 105.45 110.143 105.526 109.605C105.599 109.064 105.513 108.508 105.268 107.937C105.027 107.362 104.655 106.81 104.152 106.283C103.655 105.762 103.13 105.37 102.577 105.106C102.027 104.838 101.482 104.734 100.941 104.791C100.404 104.846 99.9044 105.094 99.442 105.535C98.9968 105.96 98.7295 106.434 98.6403 106.958C98.5545 107.479 98.6289 108.019 98.8636 108.581C99.0984 109.142 99.4773 109.697 100 110.245ZM108.254 100.953L112.727 105.639L111.19 107.105L101.148 96.5829L102.663 95.1363L106.4 99.0513L106.498 98.9582C106.277 98.3569 106.238 97.7498 106.379 97.1369C106.521 96.524 106.898 95.925 107.511 95.3398C108.053 94.8233 108.631 94.4835 109.248 94.3204C109.868 94.154 110.5 94.1855 111.145 94.4148C111.789 94.6375 112.425 95.0776 113.053 95.7353L117.844 100.755L116.308 102.221L111.693 97.3864C111.141 96.8076 110.564 96.5011 109.962 96.4669C109.356 96.4294 108.788 96.664 108.257 97.1707C107.894 97.5172 107.642 97.9048 107.502 98.3336C107.365 98.759 107.356 99.1992 107.476 99.6541C107.596 100.102 107.856 100.535 108.254 100.953ZM119.894 98.7984L112.362 90.9067L113.898 89.4405L121.43 97.3322L119.894 98.7984ZM111.975 88.9486C111.708 89.2036 111.394 89.3336 111.032 89.3385C110.67 89.3368 110.37 89.2109 110.132 88.9609C109.89 88.7074 109.778 88.4017 109.796 88.0438C109.815 87.6792 109.958 87.3694 110.225 87.1144C110.492 86.8594 110.806 86.7328 111.168 86.7346C111.53 86.7296 111.832 86.8538 112.074 87.1073C112.312 87.3573 112.422 87.6647 112.404 88.0293C112.385 88.3872 112.243 88.6936 111.975 88.9486ZM126.973 92.3463C126.209 93.0753 125.386 93.53 124.505 93.7104C123.623 93.8841 122.743 93.8049 121.863 93.473C120.983 93.141 120.166 92.5794 119.411 91.7882C118.646 90.9867 118.121 90.1356 117.837 89.2348C117.55 88.3306 117.516 87.444 117.734 86.575C117.952 85.706 118.432 84.9168 119.175 84.2074C119.775 83.6353 120.415 83.2366 121.097 83.0114C121.776 82.7828 122.448 82.7298 123.115 82.8525C123.786 82.972 124.401 83.271 124.963 83.7496L123.468 85.1765C123.033 84.8851 122.54 84.7463 121.991 84.7603C121.445 84.771 120.927 85.0101 120.437 85.4776C120.009 85.8862 119.741 86.3572 119.635 86.8906C119.529 87.4172 119.585 87.9728 119.802 88.5572C120.017 89.1382 120.392 89.7096 120.928 90.2713C121.477 90.8468 122.038 91.2601 122.612 91.5112C123.185 91.7624 123.741 91.8507 124.278 91.7761C124.819 91.6983 125.307 91.4518 125.742 91.0367C126.034 90.7588 126.247 90.454 126.382 90.1222C126.517 89.7838 126.568 89.4367 126.537 89.081C126.508 88.722 126.391 88.3693 126.185 88.0229L127.68 86.5959C128.112 87.1586 128.381 87.7727 128.486 88.4382C128.591 89.1038 128.52 89.7736 128.273 90.4477C128.03 91.1185 127.596 91.7514 126.973 92.3463ZM131.926 75.9159L130.769 77.4914C130.541 77.3689 130.287 77.2876 130.006 77.2476C129.729 77.2043 129.436 77.2326 129.125 77.3325C128.815 77.4324 128.5 77.6344 128.182 77.9384C127.747 78.3536 127.477 78.7977 127.372 79.2709C127.264 79.7405 127.355 80.1278 127.646 80.4326C127.898 80.6964 128.198 80.8156 128.547 80.7902C128.896 80.7649 129.337 80.596 129.87 80.2836L131.398 79.3748C132.285 78.8496 133.073 78.5917 133.762 78.6011C134.452 78.6104 135.063 78.8943 135.596 79.4526C136.047 79.9253 136.312 80.4773 136.391 81.1088C136.471 81.7335 136.367 82.3825 136.08 83.0556C135.796 83.7255 135.336 84.3645 134.699 84.9725C133.815 85.8159 132.914 86.3157 131.996 86.4718C131.075 86.6244 130.218 86.4119 129.424 85.8341L130.693 84.1909C131.155 84.4897 131.625 84.6011 132.102 84.5252C132.576 84.4458 133.044 84.1854 133.507 83.7441C134.01 83.2636 134.313 82.775 134.415 82.2784C134.514 81.7783 134.418 81.3759 134.127 81.071C133.891 80.8244 133.601 80.7055 133.256 80.7142C132.914 80.7196 132.514 80.8593 132.056 81.1333L130.44 82.1153C129.544 82.6504 128.744 82.903 128.041 82.8732C127.342 82.8401 126.725 82.5428 126.189 81.981C125.744 81.5152 125.485 80.9834 125.412 80.3856C125.339 79.7877 125.439 79.1722 125.711 78.5389C125.981 77.9022 126.412 77.301 127.004 76.7355C127.857 75.9215 128.705 75.4657 129.548 75.3682C130.387 75.2672 131.18 75.4498 131.926 75.9159Z" fill="#333333"/>
<rect x="193.629" y="134.002" width="130" height="50" rx="25" transform="rotate(38.9516 193.629 134.002)" fill="#EBEBEB"/>
<path d="M191.865 173.722L201.009 162.41L205.151 165.759C205.954 166.408 206.511 167.078 206.824 167.768C207.139 168.456 207.246 169.129 207.144 169.79C207.045 170.447 206.77 171.055 206.317 171.615C205.936 172.086 205.528 172.414 205.093 172.598C204.661 172.778 204.221 172.849 203.772 172.809C203.33 172.768 202.9 172.652 202.483 172.46L202.393 172.571C202.754 172.893 203.022 173.311 203.198 173.824C203.38 174.337 203.424 174.893 203.329 175.492C203.234 176.091 202.95 176.683 202.477 177.269C202.01 177.847 201.454 178.256 200.809 178.496C200.171 178.735 199.462 178.762 198.681 178.575C197.904 178.385 197.077 177.935 196.2 177.227L191.865 173.722ZM194.754 173.638L197.218 175.629C198.035 176.29 198.749 176.605 199.358 176.574C199.968 176.543 200.464 176.29 200.848 175.815C201.137 175.458 201.312 175.057 201.373 174.613C201.433 174.169 201.367 173.723 201.175 173.276C200.987 172.831 200.664 172.424 200.208 172.055L197.683 170.015L194.754 173.638ZM198.759 168.684L201.046 170.532C201.429 170.842 201.833 171.046 202.258 171.146C202.686 171.249 203.097 171.24 203.492 171.121C203.894 171.001 204.242 170.759 204.536 170.394C204.914 169.927 205.068 169.402 204.996 168.821C204.924 168.239 204.549 167.674 203.872 167.127L201.541 165.243L198.759 168.684ZM201.909 181.841L208.767 173.358L210.363 174.648L209.274 175.996L209.362 176.067C209.886 175.736 210.448 175.597 211.05 175.651C211.658 175.704 212.211 175.932 212.708 176.334C212.811 176.417 212.93 176.519 213.064 176.639C213.201 176.763 213.306 176.863 213.378 176.939L212.101 178.519C212.05 178.447 211.948 178.332 211.797 178.173C211.648 178.01 211.489 177.86 211.32 177.723C210.93 177.408 210.515 177.209 210.075 177.128C209.642 177.046 209.22 177.079 208.808 177.227C208.399 177.371 208.046 177.627 207.748 177.996L203.56 183.176L201.909 181.841ZM210.119 188.789C209.581 188.355 209.176 187.862 208.902 187.312C208.631 186.758 208.524 186.187 208.579 185.599C208.638 185.014 208.893 184.443 209.342 183.887C209.729 183.408 210.14 183.089 210.574 182.928C211.008 182.768 211.454 182.724 211.913 182.796C212.372 182.869 212.832 183.015 213.293 183.236C213.754 183.456 214.205 183.705 214.645 183.982C215.2 184.333 215.652 184.619 215.998 184.838C216.347 185.054 216.63 185.175 216.845 185.203C217.06 185.231 217.248 185.145 217.408 184.946L217.44 184.908C217.83 184.425 217.995 183.941 217.937 183.456C217.883 182.974 217.589 182.517 217.055 182.085C216.499 181.635 215.961 181.405 215.441 181.392C214.928 181.379 214.49 181.473 214.127 181.673L212.861 180.065C213.462 179.698 214.067 179.499 214.677 179.468C215.293 179.437 215.891 179.537 216.471 179.768C217.054 179.996 217.601 180.317 218.113 180.73C218.452 181.004 218.778 181.335 219.092 181.723C219.412 182.109 219.653 182.542 219.815 183.02C219.981 183.5 220.012 184.022 219.91 184.585C219.811 185.144 219.512 185.733 219.012 186.352L214.457 191.986L212.845 190.682L213.782 189.522L213.716 189.469C213.437 189.596 213.107 189.676 212.727 189.71C212.346 189.743 211.934 189.693 211.488 189.558C211.043 189.423 210.587 189.167 210.119 188.789ZM211.55 187.754C212.006 188.123 212.469 188.348 212.939 188.43C213.413 188.514 213.852 188.479 214.257 188.325C214.668 188.171 215.009 187.926 215.28 187.591L216.164 186.497C216.057 186.509 215.898 186.471 215.687 186.386C215.483 186.3 215.259 186.189 215.016 186.053C214.775 185.914 214.542 185.777 214.316 185.643C214.092 185.505 213.905 185.39 213.754 185.298C213.401 185.08 213.053 184.911 212.711 184.793C212.372 184.677 212.05 184.645 211.746 184.698C211.448 184.749 211.181 184.923 210.943 185.217C210.612 185.626 210.513 186.057 210.645 186.511C210.781 186.962 211.082 187.376 211.55 187.754ZM222.381 190.062L218.309 195.099L216.657 193.764L223.515 185.28L225.1 186.562L223.984 187.942L224.089 188.027C224.647 187.736 225.245 187.622 225.881 187.686C226.521 187.753 227.16 188.044 227.797 188.559C228.375 189.026 228.783 189.557 229.021 190.151C229.262 190.742 229.31 191.371 229.166 192.04C229.021 192.708 228.666 193.392 228.1 194.092L223.738 199.488L222.087 198.153L226.288 192.956C226.785 192.341 227.013 191.731 226.973 191.126C226.935 190.517 226.637 189.986 226.077 189.534C225.694 189.224 225.286 189.032 224.854 188.956C224.426 188.884 223.995 188.938 223.563 189.118C223.138 189.298 222.744 189.612 222.381 190.062ZM228.995 204.011C228.31 203.458 227.84 202.789 227.585 202.004C227.337 201.219 227.324 200.377 227.545 199.479C227.773 198.579 228.257 197.671 228.998 196.754C229.74 195.837 230.526 195.176 231.359 194.772C232.195 194.37 233.022 194.213 233.839 194.302C234.657 194.39 235.406 194.71 236.087 195.26C236.614 195.686 236.966 196.117 237.143 196.553C237.327 196.988 237.414 197.392 237.403 197.767C237.396 198.145 237.371 198.463 237.327 198.72L237.427 198.8L240.825 194.597L242.476 195.932L233.332 207.244L231.719 205.94L232.786 204.62L232.648 204.508C232.403 204.608 232.093 204.698 231.717 204.778C231.346 204.862 230.928 204.859 230.464 204.77C230 204.681 229.51 204.428 228.995 204.011ZM230.498 202.898C230.973 203.282 231.475 203.481 232.006 203.495C232.542 203.509 233.077 203.36 233.609 203.048C234.146 202.738 234.655 202.286 235.137 201.689C235.613 201.1 235.945 200.516 236.133 199.937C236.321 199.358 236.351 198.813 236.223 198.301C236.094 197.79 235.789 197.339 235.307 196.949C234.809 196.547 234.291 196.341 233.751 196.331C233.212 196.321 232.677 196.47 232.147 196.779C231.621 197.09 231.132 197.526 230.68 198.086C230.221 198.653 229.894 199.231 229.697 199.821C229.5 200.411 229.461 200.972 229.578 201.505C229.701 202.038 230.008 202.502 230.498 202.898ZM235.689 209.149L242.547 200.665L244.199 202L237.34 210.484L235.689 209.149ZM244.439 200.03C244.152 199.798 243.983 199.503 243.931 199.145C243.887 198.786 243.973 198.472 244.19 198.203C244.41 197.931 244.699 197.781 245.057 197.753C245.42 197.725 245.746 197.826 246.033 198.059C246.32 198.291 246.486 198.586 246.531 198.945C246.583 199.303 246.498 199.619 246.278 199.891C246.061 200.16 245.77 200.309 245.406 200.337C245.049 200.365 244.727 200.263 244.439 200.03ZM245.286 208.578L241.214 213.615L239.562 212.28L246.42 203.796L248.005 205.078L246.889 206.459L246.994 206.543C247.552 206.252 248.15 206.138 248.786 206.202C249.426 206.269 250.065 206.56 250.702 207.075C251.28 207.542 251.688 208.073 251.926 208.667C252.167 209.258 252.215 209.887 252.071 210.556C251.926 211.224 251.571 211.908 251.005 212.608L246.643 218.004L244.992 216.669L249.193 211.472C249.69 210.857 249.918 210.247 249.878 209.642C249.84 209.033 249.542 208.502 248.982 208.05C248.599 207.74 248.191 207.548 247.759 207.472C247.331 207.4 246.9 207.454 246.468 207.634C246.043 207.814 245.649 208.129 245.286 208.578ZM249.7 226.028C249.026 225.483 248.518 224.926 248.175 224.357C247.835 223.79 247.63 223.238 247.56 222.7C247.489 222.162 247.518 221.659 247.647 221.19L249.54 221.752C249.508 221.995 249.503 222.273 249.522 222.588C249.543 222.909 249.645 223.25 249.828 223.611C250.014 223.975 250.336 224.341 250.793 224.71C251.419 225.216 252.06 225.482 252.715 225.507C253.368 225.535 253.962 225.218 254.498 224.555L255.847 222.887L255.742 222.802C255.496 222.902 255.191 222.987 254.824 223.056C254.462 223.128 254.053 223.114 253.598 223.014C253.143 222.914 252.656 222.655 252.136 222.235C251.466 221.693 250.989 221.048 250.704 220.301C250.426 219.553 250.379 218.744 250.564 217.877C250.754 217.008 251.214 216.122 251.944 215.22C252.673 214.318 253.451 213.668 254.277 213.271C255.108 212.877 255.93 212.726 256.744 212.818C257.562 212.906 258.311 213.226 258.992 213.777C259.519 214.202 259.873 214.634 260.054 215.073C260.238 215.508 260.326 215.915 260.319 216.292C260.316 216.673 260.292 216.992 260.249 217.249L260.37 217.347L261.482 215.972L263.101 217.28L256.091 225.952C255.501 226.681 254.848 227.142 254.131 227.336C253.415 227.53 252.676 227.506 251.917 227.263C251.161 227.023 250.422 226.612 249.7 226.028ZM253.608 221.16C254.083 221.544 254.574 221.758 255.08 221.802C255.593 221.845 256.103 221.727 256.608 221.448C257.121 221.168 257.614 220.735 258.087 220.15C258.548 219.579 258.87 219.008 259.052 218.437C259.234 217.865 259.259 217.326 259.128 216.818C258.999 216.306 258.694 215.855 258.212 215.465C257.714 215.063 257.196 214.857 256.656 214.847C256.12 214.833 255.589 214.977 255.066 215.278C254.546 215.583 254.067 216.005 253.63 216.547C253.18 217.103 252.87 217.659 252.7 218.216C252.53 218.772 252.516 219.303 252.657 219.806C252.801 220.313 253.118 220.764 253.608 221.16Z" fill="#333333"/>
<rect x="263.336" y="121.004" width="134" height="50" rx="25" transform="rotate(40 263.336 121.004)" fill="#EBEBEB"/>
<path d="M263.408 162.838L269.667 149.103L271.435 150.587L266.366 161.037L266.469 161.124L275.967 154.39L277.719 155.86L272.732 166.388L272.835 166.475L282.246 159.658L284.02 161.146L271.574 169.691L269.882 168.271L274.54 157.958L274.453 157.884L265.105 164.263L263.408 162.838ZM278.71 175.966C277.886 175.275 277.325 174.504 277.025 173.653C276.732 172.801 276.694 171.919 276.909 171.006C277.132 170.093 277.607 169.203 278.334 168.336C279.053 167.48 279.845 166.859 280.712 166.474C281.583 166.092 282.46 165.96 283.344 166.078C284.232 166.198 285.064 166.584 285.84 167.235C286.312 167.631 286.703 168.093 287.015 168.62C287.327 169.147 287.518 169.725 287.59 170.354C287.662 170.983 287.576 171.649 287.332 172.353C287.09 173.053 286.652 173.782 286.016 174.54L285.532 175.117L278.889 169.543L279.911 168.324L284.96 172.56C285.319 172.132 285.55 171.68 285.653 171.204C285.759 170.724 285.735 170.256 285.581 169.799C285.43 169.345 285.144 168.941 284.724 168.588C284.267 168.205 283.773 167.983 283.244 167.921C282.721 167.86 282.216 167.931 281.73 168.134C281.25 168.338 280.835 168.648 280.485 169.065L279.686 170.017C279.218 170.576 278.917 171.133 278.784 171.689C278.655 172.248 278.681 172.78 278.863 173.285C279.048 173.787 279.378 174.237 279.853 174.635C280.162 174.894 280.479 175.087 280.806 175.212C281.136 175.335 281.468 175.385 281.802 175.362C282.137 175.34 282.462 175.239 282.779 175.06L284.086 176.629C283.582 176.979 283.028 177.191 282.423 177.264C281.824 177.337 281.206 177.266 280.569 177.053C279.939 176.839 279.319 176.477 278.71 175.966ZM284.372 180.43L293.722 169.287L295.348 170.652L291.874 174.792L291.972 174.875C292.213 174.78 292.517 174.692 292.887 174.613C293.256 174.534 293.67 174.541 294.129 174.635C294.591 174.726 295.081 174.989 295.599 175.424C296.274 175.99 296.733 176.666 296.977 177.451C297.22 178.237 297.223 179.077 296.985 179.971C296.751 180.869 296.255 181.769 295.498 182.672C294.74 183.576 293.939 184.224 293.097 184.617C292.257 185.006 291.428 185.154 290.61 185.061C289.795 184.964 289.05 184.633 288.375 184.067C287.868 183.641 287.524 183.207 287.344 182.766C287.168 182.327 287.085 181.918 287.095 181.537C287.106 181.157 287.137 180.836 287.188 180.576L287.052 180.462L285.961 181.763L284.372 180.43ZM289.472 177.589C288.979 178.176 288.632 178.763 288.431 179.348C288.231 179.934 288.187 180.487 288.299 181.008C288.415 181.526 288.707 181.981 289.175 182.374C289.661 182.782 290.175 182.994 290.718 183.01C291.263 183.023 291.807 182.876 292.348 182.57C292.893 182.267 293.4 181.836 293.868 181.277C294.331 180.726 294.663 180.161 294.864 179.582C295.069 179.006 295.113 178.453 294.996 177.922C294.883 177.394 294.581 176.925 294.092 176.514C293.62 176.118 293.119 175.905 292.589 175.874C292.062 175.846 291.533 175.98 291.001 176.275C290.469 176.571 289.959 177.008 289.472 177.589ZM305.394 187.305L303.701 186.329C303.797 186.089 303.85 185.827 303.859 185.544C303.871 185.264 303.811 184.975 303.677 184.678C303.544 184.38 303.308 184.09 302.971 183.807C302.51 183.421 302.039 183.201 301.557 183.149C301.079 183.094 300.704 183.227 300.433 183.55C300.199 183.829 300.113 184.141 300.177 184.485C300.241 184.829 300.457 185.249 300.826 185.744L301.898 187.163C302.518 187.986 302.861 188.74 302.928 189.427C302.995 190.113 302.78 190.752 302.284 191.343C301.864 191.844 301.345 192.168 300.726 192.316C300.114 192.464 299.457 192.432 298.757 192.222C298.06 192.014 297.374 191.627 296.699 191.061C295.763 190.275 295.167 189.435 294.911 188.54C294.657 187.641 294.774 186.766 295.261 185.913L297.034 186.993C296.788 187.485 296.729 187.964 296.857 188.43C296.988 188.893 297.299 189.329 297.788 189.74C298.322 190.188 298.841 190.435 299.345 190.481C299.853 190.524 300.243 190.384 300.514 190.061C300.733 189.8 300.819 189.499 300.772 189.157C300.729 188.818 300.546 188.435 300.223 188.01L299.069 186.513C298.438 185.681 298.099 184.914 298.051 184.212C298.007 183.514 298.234 182.867 298.733 182.272C299.147 181.779 299.647 181.463 300.233 181.324C300.819 181.186 301.442 181.217 302.102 181.418C302.764 181.615 303.409 181.977 304.037 182.504C304.94 183.262 305.486 184.054 305.676 184.881C305.869 185.704 305.775 186.512 305.394 187.305ZM302.046 195.26L309.058 186.903L310.685 188.268L303.673 196.625L302.046 195.26ZM310.962 186.303C310.679 186.065 310.515 185.767 310.47 185.408C310.432 185.049 310.524 184.736 310.746 184.472C310.971 184.203 311.263 184.058 311.62 184.037C311.985 184.015 312.309 184.123 312.591 184.361C312.874 184.598 313.035 184.896 313.073 185.256C313.118 185.615 313.028 185.929 312.803 186.197C312.58 186.462 312.287 186.605 311.923 186.627C311.565 186.648 311.245 186.54 310.962 186.303ZM316.774 193.378L315.679 194.683L311.114 190.853L312.21 189.547L316.774 193.378ZM315.114 188.572L316.741 189.937L310.107 197.843C309.842 198.158 309.69 198.435 309.651 198.674C309.614 198.909 309.646 199.118 309.746 199.301C309.853 199.483 309.995 199.649 310.172 199.798C310.303 199.908 310.425 199.994 310.538 200.058C310.651 200.122 310.74 200.172 310.803 200.207L309.969 201.797C309.845 201.754 309.68 201.678 309.475 201.568C309.268 201.462 309.032 201.301 308.768 201.085C308.334 200.734 307.999 200.323 307.762 199.853C307.526 199.383 307.434 198.885 307.486 198.359C307.537 197.834 307.774 197.319 308.197 196.815L315.114 188.572ZM314.932 206.36C314.109 205.669 313.547 204.898 313.248 204.047C312.955 203.196 312.916 202.313 313.132 201.401C313.355 200.487 313.83 199.597 314.557 198.73C315.275 197.874 316.068 197.254 316.935 196.868C317.805 196.486 318.683 196.354 319.567 196.472C320.455 196.592 321.287 196.978 322.063 197.63C322.534 198.025 322.926 198.487 323.238 199.014C323.549 199.541 323.741 200.119 323.813 200.748C323.885 201.377 323.798 202.044 323.554 202.747C323.313 203.447 322.874 204.176 322.238 204.934L321.754 205.511L315.111 199.937L316.134 198.718L321.183 202.955C321.542 202.527 321.773 202.075 321.876 201.598C321.982 201.119 321.957 200.65 321.803 200.193C321.653 199.739 321.367 199.336 320.946 198.983C320.489 198.599 319.996 198.377 319.466 198.316C318.943 198.254 318.439 198.325 317.952 198.529C317.473 198.732 317.058 199.042 316.708 199.459L315.909 200.411C315.44 200.97 315.139 201.527 315.007 202.083C314.877 202.643 314.904 203.175 315.086 203.68C315.271 204.181 315.601 204.631 316.076 205.03C316.384 205.288 316.702 205.481 317.029 205.607C317.359 205.729 317.691 205.779 318.025 205.757C318.359 205.734 318.685 205.633 319.002 205.454L320.309 207.024C319.805 207.374 319.25 207.585 318.645 207.658C318.046 207.731 317.429 207.661 316.792 207.447C316.161 207.234 315.541 206.871 314.932 206.36ZM332.026 209.652L330.333 208.676C330.429 208.436 330.482 208.174 330.491 207.891C330.503 207.611 330.443 207.322 330.309 207.025C330.176 206.727 329.94 206.437 329.603 206.154C329.142 205.767 328.671 205.548 328.189 205.496C327.711 205.441 327.336 205.574 327.065 205.897C326.831 206.176 326.745 206.488 326.809 206.832C326.873 207.176 327.089 207.596 327.458 208.091L328.53 209.509C329.15 210.332 329.493 211.087 329.56 211.774C329.627 212.46 329.412 213.099 328.916 213.69C328.496 214.191 327.977 214.515 327.358 214.663C326.746 214.811 326.089 214.779 325.389 214.568C324.692 214.361 324.006 213.974 323.331 213.408C322.395 212.622 321.799 211.782 321.543 210.887C321.289 209.988 321.406 209.113 321.893 208.26L323.666 209.34C323.42 209.832 323.361 210.311 323.489 210.777C323.62 211.24 323.931 211.676 324.42 212.087C324.954 212.535 325.473 212.782 325.977 212.828C326.485 212.871 326.875 212.731 327.146 212.408C327.365 212.147 327.451 211.846 327.404 211.504C327.361 211.164 327.178 210.782 326.855 210.357L325.701 208.86C325.07 208.028 324.731 207.261 324.683 206.559C324.639 205.861 324.866 205.214 325.365 204.619C325.779 204.126 326.279 203.81 326.865 203.671C327.451 203.533 328.074 203.564 328.734 203.765C329.396 203.962 330.041 204.324 330.669 204.851C331.572 205.609 332.118 206.401 332.308 207.228C332.501 208.051 332.407 208.859 332.026 209.652Z" fill="#333333"/>
<rect x="269.023" y="8.00391" width="156" height="50" rx="25" transform="rotate(49.1619 269.023 8.00391)" fill="#EBEBEB"/>
<path d="M261.315 48.3232C260.677 47.5853 260.234 46.8162 259.987 46.0161C259.743 45.2195 259.701 44.4578 259.861 43.7309C260.028 43.0046 260.4 42.3703 260.976 41.8282L262.435 43.5154C262.127 43.8186 261.939 44.1725 261.869 44.577C261.806 44.9819 261.849 45.4013 261.999 45.8352C262.149 46.2691 262.394 46.683 262.735 47.0771C263.109 47.5105 263.516 47.8288 263.954 48.0319C264.396 48.2386 264.833 48.3207 265.266 48.2784C265.702 48.2329 266.097 48.0569 266.452 47.7504C266.821 47.4315 267.063 47.0563 267.178 46.625C267.3 46.1941 267.286 45.7281 267.134 45.227C266.986 44.7294 266.692 44.2263 266.252 43.7176L265.448 42.7881L266.803 41.6177L267.606 42.5473C267.959 42.9556 268.342 43.2504 268.755 43.4315C269.171 43.6162 269.586 43.6833 269.999 43.6328C270.416 43.5792 270.802 43.3992 271.157 43.0926C271.497 42.7985 271.726 42.466 271.843 42.0953C271.968 41.725 271.981 41.3382 271.883 40.9349C271.787 40.5353 271.577 40.1474 271.252 39.7712C270.943 39.413 270.587 39.1354 270.185 38.9383C269.79 38.7417 269.387 38.6519 268.976 38.669C268.569 38.683 268.191 38.8284 267.841 39.1051L266.453 37.4985C267.063 37.0024 267.738 36.7259 268.477 36.6689C269.219 36.6155 269.956 36.7547 270.687 37.0866C271.418 37.4184 272.075 37.921 272.657 38.5945C273.267 39.3002 273.656 40.0284 273.822 40.779C273.996 41.5302 273.976 42.2421 273.763 42.9147C273.552 43.5909 273.175 44.161 272.631 44.6249C272.018 45.1611 271.347 45.4412 270.616 45.4653C269.889 45.4929 269.205 45.2836 268.562 44.8374L268.476 44.9117C268.997 45.7385 269.196 46.5553 269.073 47.3621C268.954 48.1725 268.545 48.8762 267.847 49.4733C267.245 50.0002 266.557 50.3009 265.783 50.3755C265.012 50.4536 264.236 50.32 263.455 49.9745C262.678 49.6259 261.965 49.0755 261.315 48.3232ZM269.792 57.8275L266.713 54.265L277.718 44.7534L280.894 48.4287C281.826 49.5069 282.406 50.6234 282.635 51.778C282.866 52.9295 282.75 54.0657 282.286 55.1867C281.828 56.3082 281.028 57.3627 279.885 58.3504C278.739 59.3412 277.573 59.9831 276.387 60.2762C275.204 60.5728 274.049 60.519 272.924 60.1148C271.802 59.7076 270.758 58.9451 269.792 57.8275ZM269.599 54.6714L271.164 56.4822C271.889 57.3204 272.648 57.8809 273.444 58.1637C274.242 58.4434 275.062 58.461 275.902 58.2167C276.746 57.9693 277.603 57.4693 278.473 56.717C279.337 55.9708 279.95 55.1997 280.314 54.4037C280.68 53.6113 280.785 52.8099 280.629 51.9996C280.474 51.1893 280.049 50.383 279.355 49.5806L277.702 47.6677L269.599 54.6714ZM293.578 70.13C293.814 69.7444 293.985 69.3523 294.091 68.9539C294.204 68.5559 294.248 68.1579 294.224 67.76C294.202 67.359 294.107 66.9627 293.937 66.571C293.771 66.1829 293.53 65.8062 293.214 65.4408C292.678 64.8211 292.036 64.4 291.287 64.1777C290.538 63.9553 289.73 63.9653 288.863 64.2077C288.002 64.4506 287.128 64.956 286.24 65.7238C285.348 66.4948 284.719 67.2916 284.354 68.1143C283.988 68.9371 283.865 69.7387 283.982 70.5194C284.1 71.3 284.438 72.0128 284.995 72.6576C285.512 73.2558 286.084 73.6717 286.712 73.9054C287.342 74.1426 287.985 74.1911 288.64 74.0507C289.301 73.9109 289.935 73.5793 290.54 73.056L290.831 73.5556L288.109 70.4068L289.48 69.2225L293.218 73.548L291.966 74.6301C291.042 75.429 290.069 75.9255 289.048 76.1197C288.034 76.3145 287.043 76.2256 286.077 75.8532C285.113 75.4843 284.248 74.8557 283.48 73.9673C282.619 72.9714 282.093 71.8992 281.901 70.7506C281.712 69.6056 281.858 68.4598 282.337 67.313C282.821 66.1632 283.642 65.0867 284.803 64.0835C285.681 63.3249 286.574 62.7656 287.483 62.4054C288.392 62.0452 289.281 61.8749 290.149 61.8944C291.024 61.9144 291.848 62.1121 292.623 62.4874C293.405 62.8632 294.104 63.4075 294.72 64.1203C295.234 64.715 295.625 65.3443 295.892 66.0083C296.162 66.6758 296.31 67.3495 296.334 68.0294C296.361 68.7128 296.268 69.3791 296.053 70.0281C295.841 70.674 295.507 71.2758 295.05 71.8333L293.578 70.13ZM289.297 80.394L297.551 73.2603L298.893 74.8132L297.582 75.9464L297.656 76.0324C298.23 75.7989 298.809 75.7621 299.391 75.922C299.981 76.0823 300.484 76.4043 300.902 76.8879C300.989 76.9882 301.087 77.1095 301.198 77.2518C301.312 77.3977 301.397 77.5147 301.454 77.6028L299.918 78.9311C299.88 78.8512 299.8 78.7195 299.679 78.5361C299.562 78.3497 299.432 78.1741 299.29 78.0093C298.962 77.6296 298.588 77.3607 298.17 77.2027C297.759 77.0452 297.337 77.0028 296.906 77.0754C296.478 77.145 296.084 77.3346 295.726 77.6442L290.686 82.0006L289.297 80.394ZM296.146 88.6871C295.694 88.1641 295.382 87.6076 295.21 87.0177C295.042 86.4247 295.037 85.8437 295.196 85.2745C295.358 84.7089 295.71 84.1923 296.251 83.7248C296.716 83.3223 297.177 83.0805 297.633 82.9996C298.088 82.9186 298.536 82.9545 298.974 83.1073C299.413 83.26 299.84 83.4858 300.254 83.7845C300.669 84.0832 301.068 84.4077 301.452 84.7579C301.937 85.2027 302.33 85.5637 302.632 85.8408C302.938 86.1148 303.194 86.2845 303.401 86.3499C303.608 86.4153 303.808 86.3644 304.001 86.1972L304.039 86.1647C304.508 85.7591 304.757 85.3123 304.786 84.8242C304.818 84.3398 304.609 83.8379 304.16 83.3185C303.693 82.7776 303.204 82.455 302.695 82.3508C302.192 82.2471 301.745 82.2615 301.352 82.3941L300.391 80.587C301.048 80.3326 301.678 80.2442 302.284 80.3218C302.896 80.3999 303.467 80.6043 303.996 80.9349C304.53 81.2624 305.012 81.6751 305.442 82.1731C305.727 82.5026 305.989 82.8859 306.23 83.323C306.476 83.7606 306.637 84.2288 306.711 84.7277C306.789 85.2302 306.728 85.7494 306.528 86.2854C306.331 86.8182 305.932 87.3447 305.33 87.8649L299.849 92.6021L298.493 91.0331L299.622 90.0578L299.566 89.9933C299.268 90.069 298.929 90.0897 298.549 90.0553C298.169 90.0209 297.772 89.898 297.357 89.6866C296.943 89.4752 296.539 89.142 296.146 88.6871ZM297.738 87.9217C298.122 88.3659 298.538 88.6698 298.986 88.8333C299.437 89.0004 299.875 89.044 300.3 88.9642C300.732 88.8849 301.111 88.7043 301.437 88.4226L302.501 87.503C302.395 87.4952 302.245 87.4306 302.052 87.3092C301.866 87.1882 301.666 87.0393 301.45 86.8625C301.238 86.6826 301.033 86.5066 300.834 86.3343C300.639 86.159 300.475 86.0128 300.342 85.8957C300.034 85.6181 299.721 85.3906 299.405 85.2132C299.092 85.0393 298.781 84.9513 298.473 84.9489C298.171 84.9471 297.876 85.07 297.59 85.3177C297.192 85.6614 297.018 86.0684 297.068 86.5386C297.121 87.0057 297.344 87.4668 297.738 87.9217ZM298.604 97.4172L309.952 87.6083L311.308 89.1773L309.971 90.3338L310.087 90.4681C310.339 90.4126 310.654 90.3751 311.031 90.3556C311.409 90.3361 311.816 90.4094 312.254 90.5755C312.695 90.7385 313.137 91.0762 313.58 91.5884C314.156 92.2547 314.502 92.9949 314.617 93.8089C314.732 94.623 314.601 95.4527 314.224 96.298C313.85 97.147 313.217 97.9569 312.326 98.7279C311.434 99.4988 310.54 100.011 309.646 100.265C308.755 100.516 307.913 100.53 307.12 100.308C306.331 100.083 305.648 99.6368 305.072 98.9705C304.639 98.469 304.368 97.986 304.261 97.5217C304.157 97.0609 304.14 96.6435 304.211 96.2693C304.282 95.8951 304.363 95.5838 304.455 95.3354L304.372 95.2387L299.993 99.0238L298.604 97.4172ZM307.186 92.7496C306.606 93.2512 306.17 93.775 305.879 94.3211C305.587 94.8672 305.456 95.4065 305.484 95.939C305.516 96.4683 305.732 96.964 306.131 97.4261C306.546 97.9062 307.02 98.1975 307.553 98.3C308.09 98.3995 308.649 98.3412 309.232 98.1251C309.818 97.9127 310.387 97.568 310.939 97.0912C311.484 96.6206 311.901 96.1155 312.192 95.5761C312.486 95.0403 312.618 94.501 312.587 93.9583C312.559 93.4192 312.336 92.9078 311.918 92.4242C311.516 91.9585 311.055 91.6682 310.536 91.5532C310.021 91.4419 309.477 91.4896 308.905 91.6963C308.332 91.9031 307.76 92.2542 307.186 92.7496ZM316.06 101.452L311.159 105.687L309.771 104.081L320.775 94.5692L322.145 96.1544L318.051 99.6933L318.139 99.7954C318.751 99.6049 319.359 99.5955 319.964 99.7671C320.569 99.9387 321.149 100.345 321.703 100.986C322.192 101.552 322.503 102.147 322.636 102.771C322.771 103.399 322.709 104.029 322.448 104.661C322.194 105.294 321.723 105.907 321.035 106.502L315.785 111.039L314.397 109.433L319.453 105.062C320.058 104.539 320.393 103.978 320.457 103.378C320.524 102.775 320.318 102.196 319.838 101.641C319.51 101.261 319.135 100.991 318.714 100.829C318.295 100.671 317.856 100.641 317.396 100.738C316.942 100.836 316.497 101.074 316.06 101.452ZM317.638 113.183L325.892 106.05L327.28 107.656L319.027 114.79L317.638 113.183ZM327.866 105.76C327.625 105.481 327.511 105.16 327.524 104.799C327.543 104.438 327.684 104.144 327.945 103.918C328.21 103.689 328.521 103.592 328.878 103.628C329.241 103.665 329.543 103.823 329.785 104.102C330.026 104.382 330.137 104.702 330.118 105.063C330.105 105.425 329.966 105.72 329.701 105.949C329.439 106.175 329.127 106.27 328.764 106.233C328.407 106.197 328.108 106.04 327.866 105.76ZM323.733 120.572C323.043 119.773 322.629 118.929 322.493 118.039C322.363 117.15 322.485 116.275 322.86 115.412C323.235 114.55 323.836 113.761 324.664 113.046C325.502 112.322 326.378 111.84 327.292 111.601C328.209 111.359 329.096 111.368 329.953 111.628C330.811 111.889 331.575 112.408 332.247 113.185C332.789 113.812 333.155 114.471 333.347 115.163C333.542 115.852 333.561 116.527 333.406 117.187C333.254 117.851 332.925 118.451 332.419 118.988L331.067 117.425C331.38 117.004 331.543 116.519 331.556 115.97C331.572 115.424 331.359 114.895 330.916 114.382C330.529 113.935 330.072 113.644 329.544 113.512C329.024 113.38 328.466 113.408 327.872 113.597C327.281 113.782 326.691 114.129 326.104 114.636C325.502 115.157 325.062 115.697 324.783 116.257C324.503 116.818 324.388 117.368 324.436 117.909C324.487 118.453 324.709 118.953 325.102 119.407C325.365 119.712 325.659 119.94 325.984 120.091C326.315 120.243 326.66 120.311 327.016 120.297C327.376 120.286 327.734 120.186 328.091 119.998L329.442 121.561C328.859 121.965 328.232 122.203 327.562 122.275C326.892 122.347 326.227 122.244 325.566 121.964C324.908 121.688 324.297 121.224 323.733 120.572ZM339.9 126.329L338.383 125.096C338.517 124.874 338.611 124.624 338.664 124.346C338.721 124.071 338.707 123.777 338.623 123.462C338.538 123.147 338.352 122.823 338.064 122.489C337.671 122.035 337.241 121.743 336.773 121.615C336.31 121.484 335.918 121.556 335.599 121.832C335.324 122.07 335.19 122.364 335.198 122.714C335.206 123.064 335.353 123.512 335.639 124.06L336.471 125.631C336.952 126.543 337.171 127.342 337.127 128.031C337.084 128.719 336.77 129.316 336.186 129.82C335.692 130.247 335.128 130.485 334.493 130.533C333.865 130.581 333.222 130.445 332.564 130.126C331.909 129.809 331.293 129.318 330.717 128.652C329.919 127.728 329.464 126.803 329.353 125.879C329.246 124.951 329.501 124.105 330.117 123.341L331.696 124.69C331.374 125.136 331.24 125.6 331.292 126.08C331.348 126.558 331.585 127.038 332.003 127.522C332.458 128.048 332.931 128.375 333.422 128.501C333.917 128.625 334.324 128.548 334.642 128.273C334.9 128.05 335.033 127.766 335.042 127.421C335.053 127.079 334.933 126.673 334.682 126.201L333.781 124.539C333.291 123.617 333.078 122.806 333.142 122.106C333.21 121.409 333.537 120.807 334.125 120.299C334.612 119.878 335.156 119.646 335.757 119.602C336.357 119.559 336.967 119.689 337.586 119.992C338.209 120.293 338.788 120.753 339.324 121.373C340.095 122.265 340.508 123.134 340.564 123.981C340.624 124.824 340.402 125.607 339.9 126.329Z" fill="#333333"/>
<rect x="148.195" y="108.588" width="113" height="50" rx="25" transform="rotate(-28.3034 148.195 108.588)" fill="#EBEBEB"/>
<path d="M183.466 125.939L181.415 127.044L179.127 111.755L181.36 110.553L192.865 120.878L190.814 121.982L181.549 113.452L181.449 113.506L183.466 125.939ZM181.109 120.739L187.763 117.156L188.638 118.782L181.985 122.365L181.109 120.739ZM189.75 106.035L196.646 118.841L194.714 119.882L187.818 107.075L189.75 106.035ZM207.795 113.071C206.936 113.534 206.112 113.776 205.323 113.798C204.537 113.818 203.833 113.648 203.21 113.29C202.584 112.928 202.088 112.405 201.72 111.721C201.439 111.2 201.298 110.679 201.297 110.158C201.294 109.632 201.393 109.092 201.594 108.538C201.796 107.983 202.056 107.393 202.376 106.769L203.655 104.201C203.882 103.783 204.025 103.394 204.084 103.035C204.141 102.671 204.067 102.299 203.863 101.92C203.701 101.619 203.417 101.401 203.01 101.265C202.603 101.129 202.183 101.178 201.75 101.412C201.45 101.573 201.224 101.789 201.074 102.058C200.927 102.325 200.851 102.608 200.845 102.907C200.841 103.2 200.907 103.471 201.041 103.721C201.199 104.013 201.436 104.264 201.754 104.475C202.076 104.683 202.449 104.877 202.874 105.057C203.297 105.233 203.739 105.414 204.2 105.602L213.976 109.509L211.862 110.647L203.826 107.513C203.15 107.248 202.52 106.996 201.934 106.757C201.346 106.515 200.823 106.232 200.364 105.909C199.907 105.579 199.54 105.156 199.261 104.639C198.945 104.052 198.797 103.459 198.819 102.861C198.844 102.256 199.028 101.694 199.372 101.176C199.717 100.657 200.214 100.222 200.864 99.8719C201.523 99.5172 202.157 99.3422 202.768 99.347C203.38 99.3454 203.928 99.4887 204.411 99.777C204.896 100.059 205.273 100.45 205.543 100.95C205.87 101.559 206.008 102.179 205.955 102.809C205.904 103.434 205.718 104.082 205.398 104.755L203.848 108.034C203.545 108.67 203.392 109.22 203.39 109.684C203.389 110.142 203.442 110.471 203.55 110.671C203.747 111.038 204.024 111.327 204.38 111.539C204.74 111.748 205.142 111.854 205.585 111.858C206.032 111.859 206.487 111.735 206.949 111.486C207.424 111.23 207.832 110.879 208.172 110.432C208.515 109.979 208.765 109.46 208.923 108.874C209.085 108.287 209.129 107.664 209.054 107.005C208.978 106.346 208.76 105.682 208.399 105.01L210.087 104.101C210.532 104.927 210.814 105.675 210.934 106.348C211.052 107.015 211.074 107.601 211 108.103C210.928 108.599 210.829 109.009 210.704 109.335C210.664 109.442 210.629 109.547 210.599 109.65C210.568 109.752 210.533 109.857 210.494 109.964C210.296 110.636 209.945 111.242 209.44 111.782C208.939 112.321 208.391 112.75 207.795 113.071ZM213.354 93.3234L215.699 92.0606L225.137 99.82L225.287 99.7392L224.003 87.5885L226.348 86.3257L233.245 99.1323L231.406 100.122L226.416 90.8551L226.297 90.9191L227.5 102.201L225.975 103.023L217.214 95.8024L217.095 95.8664L222.089 105.14L220.251 106.13L213.354 93.3234ZM236.054 97.6194L229.157 84.8129L231.09 83.7724L237.09 94.9155L242.893 91.7905L243.789 93.4539L236.054 97.6194Z" fill="#333333"/>
<rect x="137.809" y="22.7695" width="96" height="50" rx="25" transform="rotate(-5.30071 137.809 22.7695)" fill="#EBEBEB"/>
<path d="M170.242 37.2909L172.434 37.0875L173.318 46.6134C173.412 47.627 173.258 48.5472 172.854 49.374C172.45 50.1961 171.837 50.8711 171.016 51.3991C170.195 51.9223 169.204 52.2377 168.044 52.3453C166.889 52.4525 165.859 52.3245 164.956 51.9614C164.051 51.5935 163.325 51.0428 162.777 50.309C162.228 49.5706 161.906 48.6945 161.812 47.6809L160.928 38.1551L163.114 37.9523L163.981 47.3014C164.042 47.9567 164.24 48.5256 164.575 49.0081C164.914 49.4902 165.364 49.8526 165.924 50.0955C166.483 50.3337 167.128 50.4188 167.859 50.351C168.594 50.2828 169.215 50.0802 169.721 49.7432C170.232 49.401 170.605 48.9622 170.84 48.4268C171.081 47.8909 171.17 47.2953 171.11 46.64L170.242 37.2909ZM177.797 36.59L179.14 51.0733L176.955 51.276L175.612 36.7928L177.797 36.59ZM186.262 35.1198L183.204 52.8932L181.316 53.0684L184.374 35.295L186.262 35.1198ZM197.605 34.7522L199.797 34.5488L200.681 44.0747C200.775 45.0883 200.621 46.0085 200.217 46.8353C199.813 47.6574 199.2 48.3324 198.379 48.8604C197.557 49.3836 196.567 49.699 195.407 49.8066C194.252 49.9138 193.222 49.7858 192.318 49.4227C191.414 49.0548 190.688 48.504 190.139 47.7703C189.591 47.0319 189.269 46.1558 189.175 45.1422L188.291 35.6163L190.477 35.4136L191.344 44.7626C191.405 45.418 191.603 45.9869 191.938 46.4694C192.277 46.9514 192.727 47.3139 193.287 47.5568C193.846 47.7949 194.491 47.8801 195.222 47.8123C195.957 47.7441 196.578 47.5415 197.084 47.2044C197.595 46.8623 197.968 46.4235 198.203 45.888C198.444 45.3522 198.533 44.7566 198.473 44.1013L197.605 34.7522ZM204.495 34.113L208.486 39.4561L208.599 39.4456L211.539 33.4595L214.07 33.2246L210.23 40.8848L215.442 47.7052L212.896 47.9414L208.899 42.6774L208.786 42.6879L205.825 48.5975L203.279 48.8337L207.225 41.1637L201.963 34.3479L204.495 34.113Z" fill="#333333"/>
<rect x="-7.04297" y="91.0156" width="146" height="50" rx="25" transform="rotate(-38.3465 -7.04297 91.0156)" fill="#EBEBEB"/>
<path d="M29.7482 102.712L20.724 91.3049L27.876 85.6471L29.0481 87.1288L23.6172 91.425L26.3668 94.9007L31.4245 90.8997L32.5922 92.3758L27.5345 96.3768L30.2973 99.8693L35.795 95.5202L36.9671 97.0018L29.7482 102.712ZM31.7069 82.6166L40.7311 94.0242L39.0656 95.3417L30.0414 83.9341L31.7069 82.6166ZM46.7957 89.5074C45.9527 90.1743 45.0843 90.5685 44.1904 90.69C43.2972 90.8049 42.4254 90.6645 41.5749 90.2686C40.7253 89.8662 39.9494 89.2212 39.2473 88.3337C38.554 87.4573 38.1064 86.5556 37.9044 85.6287C37.7062 84.6989 37.7539 83.8129 38.0476 82.9707C38.3451 82.1257 38.8911 81.3888 39.6858 80.7602C40.1686 80.3783 40.6996 80.088 41.279 79.8893C41.8583 79.6906 42.4632 79.6196 43.0937 79.6763C43.7241 79.733 44.3593 79.952 44.999 80.3334C45.6359 80.711 46.2613 81.2879 46.8752 82.064L47.3423 82.6544L40.5412 88.0346L39.5541 86.7869L44.7232 82.6978C44.3766 82.2596 43.9805 81.942 43.5349 81.7451C43.0864 81.5445 42.6228 81.4736 42.144 81.5323C41.669 81.5881 41.2161 81.7864 40.7853 82.1272C40.3174 82.4973 40 82.9356 39.8331 83.4419C39.6669 83.9417 39.6346 84.4502 39.736 84.9677C39.8382 85.4785 40.0583 85.9474 40.3961 86.3744L41.1672 87.3492C41.6196 87.9211 42.1047 88.3282 42.6224 88.5706C43.1439 88.8101 43.6704 88.8917 44.2017 88.8155C44.7301 88.7356 45.2376 88.5032 45.724 88.1184C46.0397 87.8687 46.2922 87.5965 46.4816 87.3017C46.6681 87.0033 46.7841 86.6881 46.8296 86.3564C46.875 86.0246 46.8421 85.6854 46.7309 85.3387L48.5319 84.3758C48.7729 84.9398 48.868 85.5256 48.8174 86.1332C48.7675 86.7341 48.5739 87.325 48.2364 87.9058C47.8998 88.4801 47.4195 89.0139 46.7957 89.5074ZM55.9182 82.2909C55.0901 82.946 54.2287 83.3225 53.3342 83.4204C52.4404 83.5116 51.5709 83.3512 50.7257 82.9391C49.8806 82.5271 49.1187 81.8921 48.4401 81.0343C47.7527 80.1654 47.3095 79.2693 47.1104 78.3461C46.9085 77.4192 46.9562 76.5332 47.2536 75.6881C47.5511 74.8431 48.1027 74.1018 48.9085 73.4643C49.5584 72.9503 50.2332 72.6127 50.9328 72.4516C51.6296 72.2868 52.3043 72.2964 52.957 72.4804C53.6134 72.6615 54.1989 73.0163 54.7137 73.5449L53.0928 74.8271C52.6864 74.4966 52.209 74.3128 51.6605 74.2758C51.1157 74.2358 50.5778 74.4259 50.0468 74.846C49.5826 75.2132 49.2729 75.6574 49.1178 76.1786C48.9634 76.6932 48.9673 77.2515 49.1297 77.8536C49.2891 78.4519 49.6097 79.0556 50.0914 79.6646C50.585 80.2885 51.1056 80.752 51.6534 81.0552C52.2011 81.3584 52.7461 81.4979 53.2883 81.4735C53.8341 81.4461 54.3429 81.2459 54.8145 80.8728C55.1301 80.6232 55.3705 80.3394 55.5357 80.0216C55.7016 79.6971 55.7852 79.3563 55.7864 78.9992C55.7913 78.6391 55.7072 78.277 55.5339 77.913L57.1548 76.6307C57.5331 77.231 57.7437 77.8674 57.7866 78.5398C57.8295 79.2122 57.6969 79.8726 57.3887 80.5209C57.0842 81.1663 56.594 81.7563 55.9182 82.2909ZM58.3029 66.2138L59.3605 67.5506L54.6871 71.2476L53.6296 69.9108L58.3029 66.2138ZM53.2613 66.8695L54.9268 65.552L61.3293 73.6454C61.5848 73.9685 61.8255 74.1735 62.0513 74.2605C62.2742 74.3438 62.4852 74.3549 62.6845 74.2939C62.8845 74.2262 63.0755 74.1204 63.2575 73.9765C63.3912 73.8707 63.5008 73.7689 63.5864 73.671C63.6719 73.5732 63.7382 73.4966 63.785 73.4414L65.1742 74.5793C65.107 74.6928 64.999 74.8386 64.8501 75.0168C64.7042 75.1986 64.499 75.3972 64.2346 75.6124C63.8023 75.9664 63.3321 76.2116 62.8241 76.3478C62.3161 76.4841 61.81 76.4739 61.3058 76.3173C60.8016 76.1608 60.3453 75.8244 59.937 75.3082L53.2613 66.8695ZM66.9134 73.3121L60.1453 64.7564L61.755 63.483L62.8302 64.8421L62.9193 64.7716C62.711 64.1877 62.6994 63.6083 62.8844 63.0333C63.0703 62.4516 63.4138 61.9624 63.9151 61.5659C64.0191 61.4836 64.1446 61.3904 64.2916 61.2862C64.4423 61.179 64.5629 61.0987 64.6534 61.0452L65.9136 62.6383C65.8321 62.6726 65.6971 62.7462 65.5087 62.859C65.3173 62.9682 65.1362 63.0903 64.9654 63.2254C64.5717 63.5368 64.2869 63.898 64.1109 64.3089C63.9357 64.7132 63.8749 65.1325 63.9288 65.5668C63.9797 65.9975 64.152 66.3985 64.4457 66.7698L68.5789 71.9946L66.9134 73.3121ZM76.3675 66.114C75.5654 66.7485 74.72 67.1185 73.8313 67.2238C72.9426 67.3291 72.0716 67.182 71.2182 66.7825C70.3648 66.3829 69.5885 65.7412 68.8894 64.8575C68.1873 63.9699 67.7386 63.0631 67.5433 62.137C67.348 61.2108 67.4038 60.3275 67.7108 59.4869C68.0179 58.6463 68.5725 57.9088 69.3745 57.2743C70.1766 56.6397 71.022 56.2698 71.9107 56.1645C72.7994 56.0592 73.6719 56.2081 74.5282 56.6114C75.3845 57.0147 76.1637 57.66 76.8658 58.5475C77.565 59.4313 78.0107 60.3344 78.2031 61.2569C78.3955 62.1793 78.3382 63.0608 78.0312 63.9014C77.7241 64.742 77.1695 65.4795 76.3675 66.114ZM75.267 64.7115C75.7869 64.3003 76.109 63.8221 76.2332 63.2771C76.3575 62.732 76.3206 62.1665 76.1227 61.5805C75.9285 60.9915 75.614 60.4223 75.1792 59.8727C74.7474 59.3268 74.2673 58.8916 73.7389 58.567C73.2112 58.2358 72.6664 58.0661 72.1045 58.0579C71.5425 58.0496 71.0016 58.2511 70.4817 58.6624C69.9581 59.0766 69.6338 59.5595 69.5088 60.1112C69.3875 60.66 69.4254 61.2307 69.6225 61.8234C69.8205 62.4094 70.1353 62.9753 70.5672 63.5212C71.0019 64.0707 71.4817 64.5093 72.0064 64.8368C72.5348 65.1613 73.0785 65.3259 73.6375 65.3304C74.2003 65.332 74.7434 65.1257 75.267 64.7115ZM79.7249 54.9183L83.7435 59.9983L82.0781 61.3158L75.3099 52.7601L76.9085 51.4954L78.0101 52.888L78.116 52.8043C77.9544 52.1955 77.9747 51.5878 78.1769 50.9811C78.3829 50.3714 78.8071 49.8124 79.4495 49.3042C80.0325 48.843 80.64 48.5617 81.2721 48.4601C81.9012 48.3549 82.5259 48.4463 83.1463 48.7344C83.7666 49.0224 84.3558 49.5193 84.914 50.2248L89.219 55.6668L87.5535 56.9843L83.4071 51.7428C82.9165 51.1227 82.3717 50.7659 81.7725 50.6724C81.1703 50.5752 80.587 50.7498 80.0226 51.1963C79.6364 51.5019 79.359 51.8571 79.1904 52.2622C79.0255 52.6643 78.9836 53.0959 79.0646 53.557C79.1465 54.0115 79.3666 54.4653 79.7249 54.9183ZM91.4526 53.8999L84.6844 45.3442L86.3499 44.0267L93.1181 52.5824L91.4526 53.8999ZM84.4812 43.3587C84.1915 43.5878 83.8664 43.6881 83.5057 43.6595C83.1457 43.6242 82.8586 43.4711 82.6441 43.2C82.4267 42.9252 82.3438 42.6105 82.3953 42.2558C82.4475 41.8945 82.6185 41.5993 82.9081 41.3701C83.1978 41.141 83.5226 41.0441 83.8825 41.0793C84.2432 41.1079 84.5322 41.2596 84.7496 41.5344C84.9641 41.8055 85.0451 42.1217 84.9929 42.483C84.9414 42.8377 84.7708 43.1295 84.4812 43.3587ZM99.0991 48.1317C98.271 48.7867 97.4097 49.1632 96.5151 49.2611C95.6214 49.3524 94.7519 49.1919 93.9067 48.7799C93.0615 48.3678 92.2996 47.7329 91.6211 46.8751C90.9337 46.0061 90.4904 45.1101 90.2914 44.1869C90.0894 43.2599 90.1371 42.3739 90.4346 41.5289C90.732 40.6838 91.2837 39.9425 92.0895 39.3051C92.7393 38.791 93.4141 38.4534 94.1138 38.2924C94.8105 38.1276 95.4852 38.1372 96.1379 38.3212C96.7943 38.5022 97.3799 38.8571 97.8946 39.3856L96.2737 40.6679C95.8673 40.3373 95.3899 40.1536 94.8414 40.1165C94.2967 40.0766 93.7588 40.2667 93.2277 40.6867C92.7636 41.0539 92.4539 41.4981 92.2987 42.0194C92.1443 42.5339 92.1483 43.0922 92.3106 43.6943C92.47 44.2927 92.7906 44.8964 93.2724 45.5054C93.7659 46.1292 94.2865 46.5928 94.8343 46.896C95.3821 47.1992 95.927 47.3386 96.4692 47.3142C97.0151 47.2869 97.5238 47.0867 97.9954 46.7136C98.3111 46.4639 98.5515 46.1802 98.7166 45.8623C98.8826 45.5379 98.9661 45.1971 98.9674 44.8399C98.9723 44.4798 98.8881 44.1178 98.7149 43.7537L100.336 42.4715C100.714 43.0718 100.925 43.7081 100.968 44.3806C101.01 45.053 100.878 45.7133 100.57 46.3616C100.265 47.007 99.7749 47.597 99.0991 48.1317ZM105.554 32.231L104.256 33.6925C104.04 33.5493 103.794 33.4448 103.519 33.379C103.247 33.3102 102.952 33.3112 102.634 33.3819C102.315 33.4526 101.983 33.6246 101.638 33.8978C101.166 34.2709 100.856 34.6881 100.708 35.1494C100.557 35.6071 100.612 36.0012 100.874 36.3316C101.1 36.6176 101.388 36.7641 101.738 36.7712C102.087 36.7783 102.542 36.651 103.102 36.3893L104.708 35.6261C105.639 35.1853 106.447 35.0015 107.133 35.0748C107.819 35.148 108.401 35.4873 108.88 36.0926C109.286 36.605 109.498 37.1793 109.519 37.8153C109.539 38.4447 109.376 39.0813 109.028 39.7249C108.683 40.3656 108.166 40.9592 107.475 41.5056C106.517 42.2635 105.574 42.6776 104.645 42.7479C103.714 42.8146 102.88 42.5235 102.143 41.8746L103.559 40.3561C103.992 40.6964 104.449 40.8509 104.931 40.8195C105.41 40.7844 105.901 40.5686 106.402 40.172C106.948 39.7402 107.295 39.2817 107.442 38.7967C107.587 38.308 107.529 37.8984 107.267 37.5679C107.056 37.3005 106.778 37.1552 106.433 37.1318C106.092 37.1056 105.681 37.2076 105.199 37.4379L103.5 38.266C102.557 38.7157 101.738 38.8931 101.041 38.7983C100.348 38.7006 99.7605 38.3473 99.2788 37.7383C98.8793 37.2332 98.6708 36.6797 98.6534 36.0777C98.636 35.4757 98.7923 34.872 99.1225 34.2667C99.4497 33.6577 99.9345 33.0991 100.577 32.5909C101.502 31.8594 102.388 31.4842 103.236 31.4652C104.082 31.4424 104.854 31.6977 105.554 32.231Z" fill="#333333"/>
<rect x="85.1953" y="151.092" width="74" height="46" rx="23" transform="rotate(-28.3034 85.1953 151.092)" fill="#EBEBEB"/>
<path d="M113.471 153.417L120.367 166.223L118.435 167.264L111.539 154.457L113.471 153.417ZM130.857 152.314C131.594 153.681 131.977 154.992 132.006 156.245C132.034 157.494 131.754 158.618 131.168 159.616C130.584 160.609 129.739 161.402 128.635 161.997C127.526 162.594 126.394 162.865 125.24 162.809C124.088 162.746 122.997 162.358 121.967 161.643C120.937 160.929 120.054 159.89 119.32 158.527C118.584 157.16 118.202 155.851 118.175 154.602C118.145 153.349 118.423 152.226 119.007 151.234C119.593 150.235 120.441 149.438 121.549 148.84C122.654 148.245 123.783 147.979 124.935 148.042C126.089 148.098 127.181 148.483 128.211 149.197C129.239 149.908 130.121 150.947 130.857 152.314ZM128.944 153.344C128.383 152.302 127.741 151.516 127.02 150.985C126.3 150.447 125.55 150.152 124.769 150.1C123.989 150.041 123.233 150.209 122.499 150.604C121.761 151.001 121.202 151.541 120.823 152.224C120.441 152.903 120.274 153.692 120.323 154.591C120.373 155.484 120.679 156.451 121.24 157.493C121.801 158.535 122.442 159.325 123.161 159.863C123.883 160.394 124.633 160.689 125.413 160.748C126.19 160.802 126.947 160.631 127.685 160.234C128.419 159.839 128.976 159.302 129.358 158.623C129.742 157.937 129.909 157.148 129.859 156.256C129.81 155.357 129.505 154.387 128.944 153.344ZM129.532 146.913L128.636 145.25L138.548 139.912L139.443 141.576L135.448 143.727L141.448 154.871L139.522 155.908L133.522 144.765L129.532 146.913Z" fill="#333333"/>
</g>
</svg>
