<svg width="52" height="52" viewBox="0 0 52 52" fill="none" xmlns="http://www.w3.org/2000/svg">
<g clip-path="url(#clip0_395_30770)">
<mask id="mask0_395_30770" style="mask-type:alpha" maskUnits="userSpaceOnUse" x="0" y="0" width="52" height="52">
<path fill-rule="evenodd" clip-rule="evenodd" d="M36.8742 51.6449C37.288 51.8062 37.7306 51.8806 38.1744 51.8635C38.6182 51.8465 39.0537 51.7383 39.4539 51.5458L50.1598 46.3941C50.7112 46.1287 51.1764 45.713 51.502 45.1949C51.8275 44.6768 52.0002 44.0773 52.0001 43.4654V8.53484C52.0003 7.92288 51.8276 7.32331 51.5021 6.80513C51.1765 6.28695 50.7112 5.87122 50.1598 5.60578L39.4539 0.454936C38.849 0.16386 38.1685 0.0680241 37.5067 0.180692C36.8449 0.293359 36.2345 0.608959 35.7599 1.08381L15.2646 19.7819L6.33765 13.0052C5.93489 12.6996 5.43789 12.5446 4.93281 12.567C4.42773 12.5894 3.94641 12.7878 3.5723 13.1279L0.709052 15.7324C0.485918 15.9353 0.307601 16.1826 0.185507 16.4584C0.0634128 16.7342 0.000230055 17.0325 6.2707e-07 17.3341C-0.000228801 17.6357 0.0625001 17.9341 0.184175 18.21C0.305849 18.486 0.48379 18.7336 0.706614 18.9369L8.44852 25.9999L0.707021 33.0634C0.484318 33.2667 0.306483 33.5143 0.184884 33.7902C0.0632855 34.0662 0.000597295 34.3644 0.000826699 34.666C0.0010561 34.9675 0.064198 35.2657 0.186217 35.5415C0.308235 35.8173 0.486446 36.0645 0.709458 36.2675L3.57271 38.872C3.94677 39.2121 4.42806 39.4106 4.93314 39.4331C5.43822 39.4556 5.93525 39.3006 6.33805 38.9951L15.265 32.2188L35.7603 50.9165C36.0775 51.2336 36.4565 51.4816 36.8742 51.6449ZM39.0079 14.1955L23.457 25.9999L39.0083 37.8047L39.0079 14.1955Z" fill="white"/>
</mask>
<g mask="url(#mask0_395_30770)">
<path d="M50.1604 5.61484L39.446 0.455464C38.8409 0.164015 38.1601 0.0679765 37.4979 0.180652C36.8358 0.293328 36.225 0.60914 35.7503 1.08434L0.675536 33.0639C0.452666 33.2671 0.274681 33.5147 0.152975 33.7906C0.031268 34.0666 -0.0314788 34.3649 -0.0312494 34.6665C-0.0310199 34.9681 0.0321807 35.2664 0.154307 35.5421C0.276433 35.8179 0.454794 36.0652 0.677973 36.268L3.54285 38.8725C3.91702 39.213 4.39863 39.4118 4.90408 39.4343C5.40952 39.4568 5.90688 39.3016 6.30982 38.9956L48.548 6.95262C49.965 5.87768 52.0003 6.88843 52.0003 8.667V8.54268C52.0004 7.9309 51.8277 7.33153 51.5022 6.81351C51.1767 6.2955 50.7116 5.88028 50.1604 5.61484Z" fill="#0065A9"/>
<g filter="url(#filter0_d_395_30770)">
<path d="M50.1604 46.3865L39.446 51.545C38.8409 51.8366 38.1602 51.9327 37.498 51.8202C36.8359 51.7077 36.2251 51.392 35.7503 50.917L0.675536 18.937C0.452666 18.7337 0.274681 18.4862 0.152975 18.2103C0.031268 17.9343 -0.0314788 17.636 -0.0312494 17.3344C-0.0310199 17.0328 0.0321807 16.7345 0.154307 16.4588C0.276433 16.183 0.454794 15.9357 0.677973 15.7329L3.54285 13.1284C3.91702 12.7878 4.39863 12.5891 4.90408 12.5666C5.40952 12.5441 5.90688 12.6993 6.30982 13.0053L48.548 45.0479C49.965 46.1232 52.0003 45.1125 52.0003 43.3339V43.4582C52.0004 44.07 51.8277 44.6694 51.5022 45.1874C51.1767 45.7054 50.7116 46.121 50.1604 46.3865Z" fill="#007ACC"/>
</g>
<g filter="url(#filter1_d_395_30770)">
<path d="M39.4461 51.5462C38.8407 51.8371 38.1599 51.9328 37.4978 51.8201C36.8357 51.7074 36.225 51.3918 35.75 50.917C36.9492 52.1162 39 51.2667 39 49.5706V2.4298C39 0.73371 36.9492 -0.115759 35.75 1.0839C36.225 0.609068 36.8357 0.293485 37.4978 0.180758C38.1599 0.0680309 38.8407 0.163725 39.4461 0.454616L50.1585 5.60668C50.7101 5.87195 51.1756 6.2876 51.5014 6.80579C51.8272 7.32398 52 7.92364 52 8.53574V43.4659C52 44.078 51.8272 44.6777 51.5014 45.1959C51.1756 45.7141 50.7101 46.1297 50.1585 46.395L39.4461 51.5462Z" fill="#1F9CF0"/>
</g>
<path opacity="0.25" fill-rule="evenodd" clip-rule="evenodd" d="M36.8432 51.6449C37.2569 51.8061 37.6994 51.8805 38.1431 51.8634C38.5869 51.8464 39.0223 51.7383 39.4225 51.5458L50.1284 46.3941C50.6798 46.1287 51.145 45.7129 51.4706 45.1947C51.7962 44.6766 51.9688 44.077 51.9687 43.465V8.53484C51.9688 7.92288 51.7962 7.32331 51.4706 6.80513C51.145 6.28695 50.6798 5.87122 50.1284 5.60578L39.4225 0.454936C38.8175 0.16386 38.1371 0.0680241 37.4752 0.180692C36.8134 0.293359 36.203 0.608959 35.7284 1.08381L15.2331 19.7819L6.3062 13.0056C5.90344 12.7 5.40644 12.545 4.90136 12.5674C4.39628 12.5898 3.91497 12.7882 3.54085 13.1283L0.677605 15.7328C0.454527 15.9358 0.27626 16.1831 0.154201 16.4589C0.0321432 16.7347 -0.03102 17.0329 -0.0312494 17.3345C-0.0314788 17.6361 0.0312306 17.9344 0.152869 18.2104C0.274508 18.4864 0.452398 18.734 0.675167 18.9373L8.41707 25.9999L0.675574 33.063C0.452749 33.2663 0.274808 33.5138 0.153134 33.7898C0.0314594 34.0658 -0.0312695 34.3642 -0.0310401 34.6658C-0.0308107 34.9674 0.032372 35.2657 0.154466 35.5415C0.27656 35.8173 0.454878 36.0646 0.678011 36.2675L3.54126 38.872C3.91532 39.2121 4.39661 39.4106 4.90169 39.4331C5.40678 39.4556 5.9038 39.3006 6.3066 38.9951L15.2339 32.2184L35.7293 50.9165C36.0463 51.2335 36.4256 51.4815 36.8432 51.6449ZM38.9768 14.1951L23.4256 25.9999L38.9768 37.8043V14.1951Z" fill="url(#paint0_linear_395_30770)"/>
</g>
</g>
<defs>
<filter id="filter0_d_395_30770" x="-1.073" y="11.5227" width="54.1147" height="41.3843" filterUnits="userSpaceOnUse" color-interpolation-filters="sRGB">
<feFlood flood-opacity="0" result="BackgroundImageFix"/>
<feColorMatrix in="SourceAlpha" type="matrix" values="0 0 0 0 0 0 0 0 0 0 0 0 0 0 0 0 0 0 127 0" result="hardAlpha"/>
<feOffset/>
<feGaussianBlur stdDeviation="0.520875"/>
<feColorMatrix type="matrix" values="0 0 0 0 0 0 0 0 0 0 0 0 0 0 0 0 0 0 0.25 0"/>
<feBlend mode="overlay" in2="BackgroundImageFix" result="effect1_dropShadow_395_30770"/>
<feBlend mode="normal" in="SourceGraphic" in2="effect1_dropShadow_395_30770" result="shape"/>
</filter>
<filter id="filter1_d_395_30770" x="34.7083" y="-0.906984" width="18.3335" height="53.814" filterUnits="userSpaceOnUse" color-interpolation-filters="sRGB">
<feFlood flood-opacity="0" result="BackgroundImageFix"/>
<feColorMatrix in="SourceAlpha" type="matrix" values="0 0 0 0 0 0 0 0 0 0 0 0 0 0 0 0 0 0 127 0" result="hardAlpha"/>
<feOffset/>
<feGaussianBlur stdDeviation="0.520875"/>
<feColorMatrix type="matrix" values="0 0 0 0 0 0 0 0 0 0 0 0 0 0 0 0 0 0 0.25 0"/>
<feBlend mode="overlay" in2="BackgroundImageFix" result="effect1_dropShadow_395_30770"/>
<feBlend mode="normal" in="SourceGraphic" in2="effect1_dropShadow_395_30770" result="shape"/>
</filter>
<linearGradient id="paint0_linear_395_30770" x1="25.9687" y1="0.133998" x2="25.9687" y2="51.8659" gradientUnits="userSpaceOnUse">
<stop stop-color="white"/>
<stop offset="1" stop-color="white" stop-opacity="0"/>
</linearGradient>
<clipPath id="clip0_395_30770">
<rect width="52" height="52" fill="white"/>
</clipPath>
</defs>
</svg>
