<svg width="28" height="28" viewBox="0 0 28 28" fill="none" xmlns="http://www.w3.org/2000/svg">
<path d="M15.1987 2.33398C16.5112 2.33748 17.1774 2.34448 17.7525 2.36082L17.9789 2.36898C18.2402 2.37832 18.498 2.38998 18.8095 2.40398C20.0509 2.46232 20.8979 2.65832 21.641 2.94648C22.411 3.24282 23.0597 3.64415 23.7084 4.29165C24.3018 4.87467 24.7609 5.5802 25.0535 6.35898C25.3417 7.10215 25.5377 7.94915 25.596 9.19165C25.61 9.50198 25.6217 9.75982 25.631 10.0223L25.638 10.2487C25.6555 10.8227 25.6625 11.4888 25.6649 12.8013L25.666 13.6717V15.2C25.6689 16.051 25.6599 16.9019 25.6392 17.7527L25.6322 17.979C25.6229 18.2415 25.6112 18.4993 25.5972 18.8097C25.5389 20.0522 25.3405 20.898 25.0535 21.6423C24.7609 22.4211 24.3018 23.1266 23.7084 23.7097C23.1253 24.3031 22.4198 24.7622 21.641 25.0548C20.8979 25.343 20.0509 25.539 18.8095 25.5973L17.9789 25.6323L17.7525 25.6393C17.1774 25.6557 16.5112 25.6638 15.1987 25.6662L14.3284 25.6673H12.8012C11.9498 25.6703 11.0985 25.6614 10.2474 25.6405L10.021 25.6335C9.74407 25.623 9.46718 25.6109 9.19036 25.5973C7.94903 25.539 7.10203 25.343 6.35769 25.0548C5.57933 24.762 4.87421 24.303 4.29153 23.7097C3.69763 23.1267 3.23816 22.4212 2.94519 21.6423C2.65703 20.8991 2.46103 20.0522 2.40269 18.8097L2.36769 17.979L2.36186 17.7527C2.34036 16.9019 2.33063 16.051 2.33269 15.2V12.8013C2.32947 11.9504 2.33802 11.0994 2.35836 10.2487L2.36653 10.0223C2.37586 9.75982 2.38753 9.50198 2.40153 9.19165C2.45986 7.94915 2.65586 7.10332 2.94403 6.35898C3.23767 5.57988 3.69796 4.87433 4.29269 4.29165C4.87504 3.69846 5.57975 3.2394 6.35769 2.94648C7.10203 2.65832 7.94786 2.46232 9.19036 2.40398C9.50069 2.38998 9.75969 2.37832 10.021 2.36898L10.2474 2.36198C11.0981 2.34126 11.9491 2.33231 12.8 2.33515L15.1987 2.33398ZM13.9994 8.16732C12.4523 8.16732 10.9685 8.7819 9.87457 9.87586C8.78061 10.9698 8.16603 12.4536 8.16603 14.0007C8.16603 15.5477 8.78061 17.0315 9.87457 18.1254C10.9685 19.2194 12.4523 19.834 13.9994 19.834C15.5465 19.834 17.0302 19.2194 18.1242 18.1254C19.2181 17.0315 19.8327 15.5477 19.8327 14.0007C19.8327 12.4536 19.2181 10.9698 18.1242 9.87586C17.0302 8.7819 15.5465 8.16732 13.9994 8.16732ZM13.9994 10.5007C14.459 10.5006 14.9141 10.591 15.3388 10.7668C15.7635 10.9427 16.1493 11.2004 16.4744 11.5254C16.7995 11.8503 17.0573 12.2361 17.2333 12.6607C17.4093 13.0853 17.4999 13.5404 17.4999 14.0001C17.5 14.4597 17.4096 14.9148 17.2337 15.3395C17.0579 15.7642 16.8002 16.1501 16.4752 16.4751C16.1503 16.8002 15.7645 17.058 15.3399 17.234C14.9153 17.41 14.4602 17.5006 14.0005 17.5007C13.0723 17.5007 12.182 17.1319 11.5257 16.4755C10.8693 15.8191 10.5005 14.9289 10.5005 14.0007C10.5005 13.0724 10.8693 12.1822 11.5257 11.5258C12.182 10.8694 13.0723 10.5007 14.0005 10.5007M20.1255 6.41732C19.7388 6.41732 19.3678 6.57096 19.0943 6.84445C18.8208 7.11794 18.6672 7.48888 18.6672 7.87565C18.6672 8.26242 18.8208 8.63336 19.0943 8.90685C19.3678 9.18034 19.7388 9.33398 20.1255 9.33398C20.5123 9.33398 20.8832 9.18034 21.1567 8.90685C21.4302 8.63336 21.5839 8.26242 21.5839 7.87565C21.5839 7.48888 21.4302 7.11794 21.1567 6.84445C20.8832 6.57096 20.5123 6.41732 20.1255 6.41732Z" fill="#1F1F1F"/>
</svg>
