<svg width="1112" height="233" viewBox="0 0 1112 233" fill="none" xmlns="http://www.w3.org/2000/svg">
<path d="M1068.72 228.729V65.0923H1107.29V228.729H1068.72ZM1088.11 41.8679C1082 41.8679 1076.75 39.8438 1072.34 35.7955C1067.94 31.6761 1065.74 26.7401 1065.74 20.9872C1065.74 15.1634 1067.94 10.2273 1072.34 6.17897C1076.75 2.05966 1082 0 1088.11 0C1094.29 0 1099.55 2.05966 1103.88 6.17897C1108.28 10.2273 1110.48 15.1634 1110.48 20.9872C1110.48 26.7401 1108.28 31.6761 1103.88 35.7955C1099.55 39.8438 1094.29 41.8679 1088.11 41.8679Z" fill="url(#paint0_linear_489_3649)"/>
<path d="M881.461 228.729V10.5469H920.026V92.152H921.624C923.613 88.1747 926.418 83.9489 930.04 79.4744C933.663 74.929 938.563 71.0582 944.742 67.8622C950.921 64.5952 958.805 62.9617 968.393 62.9617C981.035 62.9617 992.434 66.1932 1002.59 72.6562C1012.82 79.0483 1020.91 88.5298 1026.88 101.101C1032.92 113.601 1035.94 128.942 1035.94 147.124C1035.94 165.092 1032.99 180.362 1027.09 192.933C1021.2 205.504 1013.17 215.092 1003.02 221.697C992.86 228.303 981.354 231.605 968.499 231.605C959.124 231.605 951.347 230.043 945.168 226.918C938.989 223.793 934.018 220.028 930.254 215.625C926.56 211.151 923.684 206.925 921.624 202.947H919.387V228.729H881.461ZM919.281 146.911C919.281 157.493 920.772 166.761 923.755 174.716C926.809 182.67 931.177 188.885 936.859 193.359C942.611 197.763 949.572 199.964 957.739 199.964C966.262 199.964 973.4 197.692 979.153 193.146C984.906 188.53 989.238 182.244 992.15 174.29C995.133 166.264 996.624 157.138 996.624 146.911C996.624 136.754 995.168 127.734 992.256 119.851C989.344 111.967 985.012 105.788 979.259 101.314C973.506 96.8395 966.333 94.6023 957.739 94.6023C949.501 94.6023 942.505 96.7685 936.752 101.101C930.999 105.433 926.631 111.506 923.648 119.318C920.737 127.131 919.281 136.328 919.281 146.911Z" fill="url(#paint1_linear_489_3649)"/>
<path d="M610.52 228.728V65.0916H647.38V92.897H649.298C652.707 83.522 658.353 76.2067 666.237 70.951C674.12 65.6243 683.531 62.9609 694.468 62.9609C705.548 62.9609 714.887 65.6598 722.487 71.0575C730.157 76.3842 735.555 83.664 738.68 92.897H740.385C744.007 83.8061 750.115 76.5618 758.708 71.1641C767.373 65.6953 777.636 62.9609 789.497 62.9609C804.554 62.9609 816.841 67.7195 826.358 77.2365C835.875 86.7535 840.633 100.638 840.633 118.891V228.728H801.961V124.857C801.961 114.701 799.262 107.279 793.865 102.592C788.467 97.8331 781.862 95.4538 774.049 95.4538C764.745 95.4538 757.466 98.3658 752.21 104.19C747.025 109.942 744.433 117.435 744.433 126.668V228.728H706.613V123.259C706.613 114.808 704.056 108.06 698.943 103.018C693.9 97.9751 687.295 95.4538 679.127 95.4538C673.588 95.4538 668.545 96.8743 664 99.7152C659.454 102.485 655.832 106.427 653.133 111.54C650.434 116.583 649.085 122.478 649.085 129.225V228.728H610.52Z" fill="url(#paint2_linear_489_3649)"/>
<path d="M485.341 232.031C474.971 232.031 465.632 230.184 457.322 226.491C449.083 222.727 442.549 217.187 437.72 209.871C432.961 202.556 430.582 193.536 430.582 182.812C430.582 173.579 432.287 165.944 435.696 159.907C439.105 153.87 443.757 149.04 449.652 145.418C455.546 141.796 462.187 139.062 469.573 137.215C477.031 135.298 484.737 133.913 492.691 133.06C502.279 132.066 510.056 131.178 516.022 130.397C521.988 129.545 526.321 128.266 529.02 126.562C531.789 124.786 533.174 122.052 533.174 118.359V117.719C533.174 109.694 530.795 103.479 526.037 99.076C521.278 94.6726 514.424 92.4709 505.475 92.4709C496.029 92.4709 488.537 94.5305 482.997 98.6499C477.528 102.769 473.835 107.634 471.917 113.245L435.909 108.131C438.75 98.1882 443.437 89.8785 449.971 83.2024C456.505 76.4552 464.495 71.4126 473.941 68.0746C483.387 64.6655 493.828 62.9609 505.262 62.9609C513.146 62.9609 520.994 63.8842 528.806 65.7308C536.619 67.5774 543.757 70.6314 550.22 74.8927C556.683 79.0831 561.868 84.8004 565.774 92.0447C569.751 99.2891 571.74 108.344 571.74 119.211V228.728H534.666V206.249H533.387C531.044 210.795 527.741 215.056 523.48 219.033C519.289 222.94 513.998 226.1 507.606 228.515C501.285 230.859 493.863 232.031 485.341 232.031ZM495.355 203.692C503.096 203.692 509.808 202.165 515.49 199.111C521.172 195.986 525.539 191.867 528.593 186.754C531.718 181.64 533.281 176.065 533.281 170.028V150.745C532.074 151.739 530.014 152.663 527.102 153.515C524.261 154.367 521.065 155.113 517.514 155.752C513.963 156.391 510.447 156.96 506.967 157.457C503.487 157.954 500.468 158.38 497.912 158.735C492.159 159.516 487.01 160.795 482.464 162.57C477.919 164.346 474.332 166.832 471.704 170.028C469.076 173.153 467.762 177.201 467.762 182.173C467.762 189.275 470.355 194.637 475.539 198.259C480.724 201.881 487.329 203.692 495.355 203.692Z" fill="url(#paint3_linear_489_3649)"/>
<path d="M220.951 228.728L174.715 65.0918H214.026L242.79 180.149H244.282L273.685 65.0918H312.57L341.973 179.509H343.571L371.909 65.0918H411.327L364.985 228.728H324.821L294.14 118.146H291.902L261.221 228.728H220.951Z" fill="url(#paint4_linear_489_3649)"/>
<path d="M0 43.679V10.5469H174.077V43.679H106.641V228.729H67.4361V43.679H0Z" fill="url(#paint5_linear_489_3649)"/>
<path d="M1089.44 42.5964C1083.33 42.5964 1078.07 40.5723 1073.67 36.524C1069.27 32.4046 1067.07 27.4686 1067.07 21.7157C1067.07 15.8919 1069.27 10.9558 1073.67 6.90749C1078.07 2.78817 1083.33 0.728516 1089.44 0.728516C1095.62 0.728516 1100.87 2.78817 1105.21 6.90749C1109.61 10.9558 1111.81 15.8919 1111.81 21.7157C1111.81 27.4686 1109.61 32.4046 1105.21 36.524C1100.87 40.5723 1095.62 42.5964 1089.44 42.5964Z" fill="#F8A88B"/>
<defs>
<linearGradient id="paint0_linear_489_3649" x1="593.566" y1="59.7287" x2="593.066" y2="238.229" gradientUnits="userSpaceOnUse">
<stop stop-color="#D9D9D9"/>
<stop offset="1" stop-color="#F2F2F2" stop-opacity="0"/>
</linearGradient>
<linearGradient id="paint1_linear_489_3649" x1="593.566" y1="59.7287" x2="593.066" y2="238.229" gradientUnits="userSpaceOnUse">
<stop stop-color="#D9D9D9"/>
<stop offset="1" stop-color="#F2F2F2" stop-opacity="0"/>
</linearGradient>
<linearGradient id="paint2_linear_489_3649" x1="593.567" y1="59.728" x2="593.067" y2="238.228" gradientUnits="userSpaceOnUse">
<stop stop-color="#D9D9D9"/>
<stop offset="1" stop-color="#F2F2F2" stop-opacity="0"/>
</linearGradient>
<linearGradient id="paint3_linear_489_3649" x1="593.566" y1="59.728" x2="593.066" y2="238.228" gradientUnits="userSpaceOnUse">
<stop stop-color="#D9D9D9"/>
<stop offset="1" stop-color="#F2F2F2" stop-opacity="0"/>
</linearGradient>
<linearGradient id="paint4_linear_489_3649" x1="593.567" y1="59.7281" x2="593.067" y2="238.228" gradientUnits="userSpaceOnUse">
<stop stop-color="#D9D9D9"/>
<stop offset="1" stop-color="#F2F2F2" stop-opacity="0"/>
</linearGradient>
<linearGradient id="paint5_linear_489_3649" x1="593.568" y1="59.7287" x2="593.068" y2="238.229" gradientUnits="userSpaceOnUse">
<stop stop-color="#D9D9D9"/>
<stop offset="1" stop-color="#F2F2F2" stop-opacity="0"/>
</linearGradient>
</defs>
</svg>
