<svg width="1109" height="233" viewBox="0 0 1109 233" fill="none" xmlns="http://www.w3.org/2000/svg">
<path d="M1068.72 229V65.3633H1107.29V229H1068.72Z" fill="url(#paint0_linear_489_3649)"/>
<path d="M881.461 229V10.8184H920.026V92.4235H921.624C923.613 88.4462 926.418 84.2203 930.04 79.7459C933.663 75.2005 938.563 71.3297 944.742 68.1337C950.921 64.8667 958.805 63.2331 968.393 63.2331C981.035 63.2331 992.434 66.4647 1002.59 72.9277C1012.82 79.3198 1020.91 88.8013 1026.88 101.372C1032.92 113.872 1035.94 129.213 1035.94 147.395C1035.94 165.364 1032.99 180.634 1027.09 193.205C1021.2 205.776 1013.17 215.364 1003.02 221.969C992.86 228.574 981.354 231.877 968.499 231.877C959.124 231.877 951.347 230.314 945.168 227.189C938.989 224.064 934.018 220.3 930.254 215.896C926.56 211.422 923.684 207.196 921.624 203.219H919.387V229H881.461ZM919.281 147.182C919.281 157.764 920.772 167.033 923.755 174.987C926.809 182.942 931.177 189.156 936.859 193.631C942.611 198.034 949.572 200.236 957.739 200.236C966.262 200.236 973.4 197.963 979.153 193.418C984.906 188.801 989.238 182.516 992.15 174.561C995.133 166.536 996.624 157.409 996.624 147.182C996.624 137.026 995.168 128.006 992.256 120.122C989.344 112.239 985.012 106.06 979.259 101.585C973.506 97.111 966.333 94.8737 957.739 94.8737C949.501 94.8737 942.505 97.0399 936.752 101.372C930.999 105.705 926.631 111.777 923.648 119.59C920.737 127.402 919.281 136.6 919.281 147.182Z" fill="url(#paint1_linear_489_3649)"/>
<path d="M610.52 228.999V65.3631H647.38V93.1685H649.298C652.707 83.7935 658.353 76.4782 666.237 71.2225C674.12 65.8958 683.531 63.2324 694.468 63.2324C705.548 63.2324 714.887 65.9313 722.487 71.329C730.157 76.6557 735.555 83.9355 738.68 93.1685H740.385C744.007 84.0776 750.115 76.8333 758.708 71.4355C767.373 65.9668 777.636 63.2324 789.497 63.2324C804.554 63.2324 816.841 67.9909 826.358 77.508C835.875 87.025 840.633 100.91 840.633 119.163V228.999H801.961V125.129C801.961 114.972 799.262 107.551 793.865 102.863C788.467 98.1046 781.862 95.7253 774.049 95.7253C764.745 95.7253 757.466 98.6372 752.21 104.461C747.025 110.214 744.433 117.707 744.433 126.94V228.999H706.613V123.531C706.613 115.079 704.056 108.332 698.943 103.289C693.9 98.2466 687.295 95.7253 679.127 95.7253C673.588 95.7253 668.545 97.1458 664 99.9867C659.454 102.757 655.832 106.698 653.133 111.812C650.434 116.855 649.085 122.749 649.085 129.497V228.999H610.52Z" fill="url(#paint2_linear_489_3649)"/>
<path d="M485.341 232.302C474.971 232.302 465.632 230.455 457.322 226.762C449.083 222.998 442.549 217.458 437.72 210.143C432.961 202.828 430.582 193.808 430.582 183.083C430.582 173.85 432.287 166.215 435.696 160.178C439.105 154.142 443.757 149.312 449.652 145.69C455.546 142.068 462.187 139.333 469.573 137.487C477.031 135.569 484.737 134.184 492.691 133.332C502.279 132.338 510.056 131.45 516.022 130.668C521.988 129.816 526.321 128.538 529.02 126.833C531.789 125.058 533.174 122.323 533.174 118.63V117.991C533.174 109.965 530.795 103.751 526.037 99.3475C521.278 94.9441 514.424 92.7424 505.475 92.7424C496.029 92.7424 488.537 94.802 482.997 98.9213C477.528 103.041 473.835 107.906 471.917 113.517L435.909 108.403C438.75 98.4597 443.437 90.15 449.971 83.4739C456.505 76.7267 464.495 71.6841 473.941 68.3461C483.387 64.937 493.828 63.2324 505.262 63.2324C513.146 63.2324 520.994 64.1557 528.806 66.0023C536.619 67.8489 543.757 70.9029 550.22 75.1642C556.683 79.3546 561.868 85.0719 565.774 92.3162C569.751 99.5605 571.74 108.616 571.74 119.482V228.999H534.666V206.521H533.387C531.044 211.066 527.741 215.328 523.48 219.305C519.289 223.211 513.998 226.372 507.606 228.786C501.285 231.13 493.863 232.302 485.341 232.302ZM495.355 203.964C503.096 203.964 509.808 202.437 515.49 199.383C521.172 196.258 525.539 192.139 528.593 187.025C531.718 181.911 533.281 176.336 533.281 170.299V151.017C532.074 152.011 530.014 152.934 527.102 153.786C524.261 154.639 521.065 155.384 517.514 156.024C513.963 156.663 510.447 157.231 506.967 157.728C503.487 158.225 500.468 158.651 497.912 159.007C492.159 159.788 487.01 161.066 482.464 162.842C477.919 164.617 474.332 167.103 471.704 170.299C469.076 173.424 467.762 177.472 467.762 182.444C467.762 189.546 470.355 194.909 475.539 198.531C480.724 202.153 487.329 203.964 495.355 203.964Z" fill="url(#paint3_linear_489_3649)"/>
<path d="M220.951 229L174.715 65.3633H214.026L242.79 180.42H244.282L273.685 65.3633H312.57L341.973 179.781H343.571L371.909 65.3633H411.327L364.985 229H324.821L294.14 118.417H291.902L261.221 229H220.951Z" fill="url(#paint4_linear_489_3649)"/>
<path d="M0 43.9505V10.8184H174.077V43.9505H106.641V229H67.4361V43.9505H0Z" fill="url(#paint5_linear_489_3649)"/>
<path d="M1087.07 42C1081.33 42 1076.4 39.9695 1072.27 35.9084C1068.13 31.7761 1066.07 26.8244 1066.07 21.0534C1066.07 15.2112 1068.13 10.2595 1072.27 6.19847C1076.4 2.06616 1081.33 0 1087.07 0C1092.87 0 1097.8 2.06616 1101.87 6.19847C1106 10.2595 1108.07 15.2112 1108.07 21.0534C1108.07 26.8244 1106 31.7761 1101.87 35.9084C1097.8 39.9695 1092.87 42 1087.07 42Z" fill="#F8A88B"/>
<defs>
<linearGradient id="paint0_linear_489_3649" x1="593.566" y1="60.0002" x2="593.066" y2="238.5" gradientUnits="userSpaceOnUse">
<stop stop-color="#D9D9D9"/>
<stop offset="1" stop-color="#F2F2F2" stop-opacity="0"/>
</linearGradient>
<linearGradient id="paint1_linear_489_3649" x1="593.566" y1="60.0002" x2="593.066" y2="238.5" gradientUnits="userSpaceOnUse">
<stop stop-color="#D9D9D9"/>
<stop offset="1" stop-color="#F2F2F2" stop-opacity="0"/>
</linearGradient>
<linearGradient id="paint2_linear_489_3649" x1="593.567" y1="59.9994" x2="593.067" y2="238.499" gradientUnits="userSpaceOnUse">
<stop stop-color="#D9D9D9"/>
<stop offset="1" stop-color="#F2F2F2" stop-opacity="0"/>
</linearGradient>
<linearGradient id="paint3_linear_489_3649" x1="593.566" y1="59.9994" x2="593.066" y2="238.499" gradientUnits="userSpaceOnUse">
<stop stop-color="#D9D9D9"/>
<stop offset="1" stop-color="#F2F2F2" stop-opacity="0"/>
</linearGradient>
<linearGradient id="paint4_linear_489_3649" x1="593.567" y1="59.9996" x2="593.067" y2="238.5" gradientUnits="userSpaceOnUse">
<stop stop-color="#D9D9D9"/>
<stop offset="1" stop-color="#F2F2F2" stop-opacity="0"/>
</linearGradient>
<linearGradient id="paint5_linear_489_3649" x1="593.568" y1="60.0002" x2="593.068" y2="238.5" gradientUnits="userSpaceOnUse">
<stop stop-color="#D9D9D9"/>
<stop offset="1" stop-color="#F2F2F2" stop-opacity="0"/>
</linearGradient>
</defs>
</svg>
