<svg width="64" height="63" viewBox="0 0 64 63" fill="none" xmlns="http://www.w3.org/2000/svg">
<g clip-path="url(#clip0_440_4058)">
<path d="M53.375 0H10.625C4.75697 0 0 4.79503 0 10.71V52.1892C0 58.1042 4.75697 62.8992 10.625 62.8992H53.375C59.243 62.8992 64 58.1042 64 52.1892V10.71C64 4.79503 59.243 0 53.375 0Z" fill="#00005B"/>
<path d="M25.7107 37.6326H15.793L13.775 43.9631C13.7491 44.0716 13.6886 44.1685 13.6027 44.239C13.5168 44.3094 13.4104 44.3494 13.2997 44.3529L8.23672 44.3527C7.95006 44.3527 7.84989 44.1939 7.93622 43.8764L16.523 19.0521L16.6087 18.7913L16.6372 18.7021L16.6947 18.5156C16.7232 18.4194 16.7517 18.3173 16.7805 18.2067C16.893 17.6293 16.9505 17.0424 16.9522 16.454C16.9464 16.4129 16.9502 16.3709 16.9632 16.3315C16.9763 16.2921 16.9983 16.2563 17.0274 16.2269C17.0566 16.1975 17.0921 16.1754 17.1312 16.1622C17.1703 16.1491 17.2119 16.1453 17.2527 16.1511H24.0792C24.2792 16.1511 24.3937 16.2233 24.4227 16.3676L34.1685 43.92C34.2543 44.2086 34.1685 44.3528 33.911 44.3527H28.3295C28.2337 44.3632 28.1373 44.3383 28.0583 44.2826C27.9794 44.2269 27.9232 44.1441 27.9002 44.0498L25.7107 37.6326ZM17.3387 32.295H24.1222L24.0255 31.9732L23.8702 31.4636L23.643 30.7338L23.2067 29.3562L22.7912 28.0321L22.0182 25.5653C21.8047 24.8844 21.5996 24.2007 21.4032 23.5145L21.1837 22.7344L20.9467 21.8793L20.7302 21.0863H20.6872C20.4723 22.125 20.2107 23.1534 19.9032 24.1682L19.6132 25.1064L18.9157 27.3744L18.5622 28.5298C18.4984 28.7385 18.4346 28.9448 18.371 29.1488L18.181 29.7531L17.992 30.3432L17.804 30.9188L17.617 31.48C17.5238 31.7572 17.4311 32.0289 17.3387 32.295ZM49.9682 35.1688H41.5105C41.6139 36.0123 41.8918 36.8245 42.3262 37.553C42.8063 38.2744 43.4853 38.8385 44.2795 39.1758C45.3558 39.6456 46.5201 39.8756 47.6927 39.8502C48.6231 39.832 49.5499 39.7295 50.462 39.5438C51.2777 39.4329 52.0771 39.2228 52.8427 38.9183C52.9859 38.8032 53.0576 38.8753 53.0577 39.1345V43.2459C53.0647 43.358 53.0425 43.4699 52.993 43.5705C52.944 43.6491 52.878 43.7156 52.8 43.7653C51.9506 44.1445 51.0567 44.4129 50.14 44.5641C48.8945 44.7998 47.6287 44.9084 46.3617 44.8884C44.3927 44.8884 42.733 44.5906 41.3825 43.9951L41.2525 43.9364C39.9541 43.36 38.8074 42.4857 37.904 41.3831C37.06 40.3442 36.4321 39.1448 36.0577 37.8561C35.6873 36.5841 35.4995 35.2652 35.5 33.9395C35.4959 32.492 35.7205 31.053 36.1655 29.6767C36.5939 28.3342 37.2713 27.086 38.1617 25.9983C39.0403 24.9234 40.1386 24.0524 41.3817 23.4447C42.641 22.8248 44.1295 22.6023 45.8467 22.6023C47.271 22.5664 48.6856 22.8471 49.99 23.4246C51.0867 23.896 52.0521 24.631 52.802 25.5653C53.5056 26.4801 54.0433 27.5129 54.3905 28.6163C54.7285 29.6795 54.9023 30.7889 54.9057 31.9054C54.9057 32.5404 54.8843 33.1175 54.8415 33.6366L54.8032 34.0812L54.7632 34.503L54.7395 34.7167L54.734 34.7618C54.7228 34.8572 54.6773 34.9451 54.6062 35.0089C54.535 35.0728 54.443 35.108 54.3477 35.1081L54.23 35.1106L54.0832 35.1181L53.969 35.1265L53.702 35.1494L53.4675 35.1728C53.4036 35.1795 53.3374 35.1858 53.2687 35.1917L53.056 35.2086L52.8287 35.2237L52.5875 35.2363L52.332 35.2472L52.1987 35.2517L51.922 35.2593C51.6482 35.2661 51.3677 35.2489 51.08 35.2278L50.6435 35.1955C50.4188 35.1789 50.1935 35.17 49.9682 35.1688ZM41.5107 31.2262H47.3572L47.8552 31.223L48.1937 31.2182L48.413 31.2131L48.659 31.2046C48.8791 31.1824 49.0917 31.1114 49.2815 30.9967V30.7371C49.273 30.3986 49.2153 30.0632 49.11 29.7417C48.8784 29.0034 48.4127 28.3621 47.7844 27.9164C47.1562 27.4707 46.4002 27.2452 45.6325 27.2746C44.9099 27.2306 44.1902 27.3996 43.5613 27.7607C42.9323 28.1219 42.4212 28.6598 42.0902 29.3088C41.7959 29.9124 41.6003 30.5597 41.5107 31.2262Z" fill="#9999FF"/>
</g>
<defs>
<clipPath id="clip0_440_4058">
<rect width="64" height="63" fill="white"/>
</clipPath>
</defs>
</svg>
