<svg width="68" height="68" viewBox="0 0 68 68" fill="none" xmlns="http://www.w3.org/2000/svg">
<g clip-path="url(#clip0_440_4065)">
<mask id="mask0_440_4065" style="mask-type:luminance" maskUnits="userSpaceOnUse" x="0" y="0" width="68" height="68">
<path d="M65.3435 0H2.65653C1.18937 0 0 1.18937 0 2.65653V65.3435C0 66.8106 1.18937 68 2.65653 68H65.3435C66.8106 68 68 66.8106 68 65.3435V2.65653C68 1.18937 66.8106 0 65.3435 0Z" fill="white"/>
</mask>
<g mask="url(#mask0_440_4065)">
<path opacity="0.2" d="M25.984 67.7125C24.862 67.4473 23.9247 66.8251 22.6112 65.4787C20.4182 63.2279 18.6377 62.2918 15.5437 61.7591C12.3353 61.206 10.9084 60.0138 10.0516 57.1646C8.99306 53.6467 7.88693 51.9626 5.45593 50.1674C2.69853 48.1308 1.99132 46.3356 2.66452 43.0806C3.28786 40.066 3.04986 37.924 1.78279 35.1677C0.273191 31.881 0.459058 30.1244 2.60446 27.4304C4.57079 24.9598 5.18846 23.3278 5.48312 19.819C5.78006 16.2773 6.76606 14.8244 9.66739 13.648C12.0905 12.6665 14.1622 10.962 15.3114 9.00809C16.6397 6.74709 16.8335 6.48869 17.6563 5.87442C18.9845 4.88389 20.0589 4.60849 22.1035 4.73655C25.6565 4.95982 27.5605 4.53255 29.9461 2.97989C33.0571 0.954621 34.943 0.954621 38.054 2.97989C40.4397 4.53255 42.3437 4.95982 45.8967 4.73655C49.2559 4.52689 50.6533 5.40862 52.7012 9.03075C53.7167 10.826 55.7907 12.5724 58.0619 13.5437C61.2941 14.9275 62.2348 16.1912 62.4728 19.4733C62.7312 23.0274 63.4599 25.0153 65.3911 27.4293C67.5411 30.1187 67.7281 31.8776 66.2162 35.1677C64.9503 37.9228 64.7123 40.066 65.3356 43.0806C66.0077 46.3356 65.3016 48.1308 62.5431 50.1674C60.1132 51.9626 59.0071 53.6467 57.9485 57.1646C57.0906 60.0138 55.6649 61.206 52.4553 61.7591C49.3556 62.2918 47.5729 63.2324 45.3889 65.4855C42.967 67.9834 41.2296 68.3948 37.8443 67.2762C35.0756 66.3604 32.9427 66.357 30.1841 67.2614C28.2529 67.8961 27.2227 68.006 25.984 67.7125Z" fill="black"/>
<path d="M25.984 67.0484C24.862 66.7832 23.9247 66.161 22.6112 64.8146C20.4182 62.5638 18.6377 61.6277 15.5437 61.095C12.3353 60.542 10.9084 59.3497 10.0516 56.5005C8.99306 52.9826 7.88693 51.2985 5.45593 49.5033C2.69853 47.4667 1.99132 45.6715 2.66452 42.4166C3.28786 39.4019 3.04986 37.2599 1.78279 34.5036C0.273191 31.217 0.459058 29.4603 2.60446 26.7664C4.57079 24.2957 5.18846 22.6637 5.48312 19.1549C5.78006 15.6132 6.76606 14.1603 9.66739 12.9839C12.0905 12.0024 14.1622 10.2979 15.3114 8.34402C16.6397 6.08302 16.8335 5.82463 17.6563 5.21036C18.9845 4.21983 20.0589 3.94442 22.1035 4.07249C25.6565 4.29576 27.5605 3.86849 29.9461 2.31583C33.0571 0.290558 34.943 0.290558 38.054 2.31583C40.4397 3.86849 42.3437 4.29576 45.8967 4.07249C49.2559 3.86282 50.6533 4.74456 52.7012 8.36669C53.7167 10.1619 55.7907 11.9084 58.0619 12.8796C61.2941 14.2634 62.2348 15.5271 62.4728 18.8092C62.7312 22.3634 63.4599 24.3512 65.3911 26.7652C67.5411 29.4546 67.7281 31.2136 66.2162 34.5036C64.9503 37.2599 64.7123 39.403 65.3356 42.4166C66.0077 45.6715 65.3016 47.4667 62.5431 49.5033C60.1132 51.2985 59.0071 52.9826 57.9485 56.5005C57.0906 59.3497 55.6649 60.542 52.4553 61.095C49.3556 61.6277 47.5729 62.5684 45.3889 64.8214C42.967 67.3193 41.2296 67.7307 37.8443 66.6121C35.0756 65.6964 32.9427 65.693 30.1841 66.5974C28.2529 67.232 27.2227 67.342 25.984 67.0484Z" fill="white"/>
<path d="M49.2125 53.8439C49.2754 54.0406 49.2625 54.2537 49.1765 54.4415C49.0904 54.6292 48.9373 54.778 48.7472 54.8588C48.5571 54.9395 48.3437 54.9463 48.1488 54.8778C47.954 54.8094 47.7917 54.6706 47.6938 54.4888L45.698 50.7828C45.6171 50.6334 45.5683 50.4687 45.5547 50.2994C45.5411 50.13 45.5631 49.9597 45.6192 49.7993C45.6752 49.6389 45.7642 49.492 45.8804 49.368C45.9966 49.2441 46.1374 49.1457 46.2938 49.0794C46.4502 49.013 46.6187 48.98 46.7886 48.9826C46.9585 48.9851 47.126 49.0232 47.2803 49.0942C47.4346 49.1653 47.5724 49.2678 47.6848 49.3952C47.7972 49.5227 47.8817 49.6722 47.933 49.8342L49.2125 53.8439Z" fill="#034ECA"/>
<path d="M49.2125 53.8439C49.2754 54.0406 49.2625 54.2537 49.1765 54.4415C49.0904 54.6292 48.9373 54.778 48.7472 54.8588C48.5571 54.9395 48.3437 54.9463 48.1488 54.8778C47.954 54.8094 47.7917 54.6706 47.6938 54.4888L45.698 50.7828C45.6171 50.6334 45.5683 50.4687 45.5547 50.2994C45.5411 50.13 45.5631 49.9597 45.6192 49.7993C45.6752 49.6389 45.7642 49.492 45.8804 49.368C45.9966 49.2441 46.1374 49.1457 46.2938 49.0794C46.4502 49.013 46.6187 48.98 46.7886 48.9826C46.9585 48.9851 47.126 49.0232 47.2803 49.0942C47.4346 49.1653 47.5724 49.2678 47.6848 49.3952C47.7972 49.5227 47.8817 49.6722 47.933 49.8342L49.2125 53.8439Z" fill="url(#paint0_linear_440_4065)"/>
<mask id="mask1_440_4065" style="mask-type:alpha" maskUnits="userSpaceOnUse" x="42" y="27" width="12" height="15">
<path d="M47.6532 40.5458C48.404 40.0555 49.0541 39.4262 49.5685 38.6916C50.1078 37.9258 50.4899 37.0606 50.6928 36.1462L50.7075 36.1484L51.5462 36.3071C52.0146 36.3953 52.483 36.4833 52.9515 36.5712C53.05 36.5887 53.1513 36.5836 53.2475 36.5561C53.3438 36.5286 53.4325 36.4795 53.5068 36.4125C53.6233 36.3079 53.6975 36.1644 53.7157 36.009C53.7338 35.8535 53.6946 35.6968 53.6054 35.5682C53.5576 35.4981 53.4965 35.4381 53.4255 35.3916C53.3546 35.3451 53.2751 35.3131 53.1918 35.2973C52.9957 35.2605 52.7997 35.2239 52.6036 35.1874L51.7864 35.0332L50.9478 34.8746L50.8571 34.8587L50.8594 34.7884C50.8802 33.9265 50.7431 33.068 50.4548 32.2554L50.4298 32.1874C50.1371 31.3822 49.7005 30.6368 49.1412 29.9876C49.1605 29.965 49.1786 29.9423 49.1979 29.9219L49.751 29.2736L50.2904 28.6412L50.678 28.1868C50.7888 28.0557 50.8437 27.8864 50.831 27.7153C50.8245 27.6409 50.8058 27.5682 50.7755 27.5C50.7208 27.3781 50.6296 27.2762 50.5145 27.2084C50.3994 27.1406 50.266 27.1102 50.1329 27.1214C49.9617 27.1348 49.8028 27.2155 49.6909 27.3458L49.3033 27.8003L48.7638 28.4338L48.2108 29.081L48.2051 29.0866C47.0036 28.1252 45.5236 27.5778 43.9857 27.526C43.3652 27.5064 42.7449 27.5686 42.1406 27.7108L46.8372 41.0036C47.1171 40.8676 47.3914 40.7158 47.6532 40.5458Z" fill="white"/>
</mask>
<g mask="url(#mask1_440_4065)">
<path d="M54.8202 38.2723L49.8108 24.0762L41.8242 26.8948L46.8336 41.0898L54.8202 38.2723Z" fill="#4FAF53"/>
<g opacity="0.8" filter="url(#filter0_f_440_4065)">
<path d="M50.0571 32.9401C49.5607 34.6968 48.0545 30.7755 45.3459 30.0116C42.6372 29.2466 39.3041 31.8023 39.7993 30.0456C40.6833 28.7559 43.0543 27.771 45.7629 28.536C48.4716 29.2999 50.0809 31.5892 50.0571 32.9401Z" fill="url(#paint1_linear_440_4065)" fill-opacity="0.3"/>
</g>
<g opacity="0.7" filter="url(#filter1_f_440_4065)">
<path d="M49.7141 31.9753C48.2249 30.9179 49.5135 34.9163 47.8849 37.2113C46.2552 39.5063 42.0562 39.6095 43.5443 40.6669C45.0425 41.1145 47.5064 40.3949 49.135 38.0999C50.7636 35.8049 50.5811 33.0112 49.7141 31.9753Z" fill="url(#paint2_linear_440_4065)" fill-opacity="0.4"/>
</g>
<g opacity="0.6" filter="url(#filter2_f_440_4065)">
<path d="M43.927 26.8783C42.0366 26.9373 40.5088 27.1639 40.5156 27.3827C40.5224 27.6025 42.0615 27.7317 43.9519 27.6717C45.8423 27.6127 48.483 29.1881 48.4762 28.9682C48.4694 28.7495 45.8174 26.8183 43.927 26.8783Z" fill="#8BD8A0"/>
</g>
<g opacity="0.5" filter="url(#filter3_f_440_4065)">
<path d="M48.7188 40.4578C47.208 41.598 45.8775 42.38 45.7449 42.2055C45.6134 42.0298 46.7298 40.9645 48.2382 39.8232C49.7478 38.6831 50.8154 35.7999 50.9469 35.9744C51.0795 36.1501 50.2272 39.3177 48.7176 40.4578H48.7188Z" fill="#8BD8A0"/>
</g>
<g opacity="0.7" filter="url(#filter4_f_440_4065)">
<path d="M49.4165 27.9863C48.7251 28.8318 48.3897 29.2137 48.3149 29.1537C48.2401 29.0913 48.4554 28.6097 49.1456 27.7653C49.5706 26.7057 50.8343 27.2213 50.9091 27.2825C50.9839 27.3437 50.3005 26.7805 49.4165 27.9863Z" fill="#0D652D"/>
</g>
<g opacity="0.1" filter="url(#filter5_f_440_4065)">
<path d="M48.1825 29.083C48.2471 29.1317 48.7583 28.5719 49.3238 27.8307C49.8905 27.0906 50.2962 26.4503 50.2316 26.4015C50.167 26.3517 49.6559 26.9115 49.0903 27.6527C48.5237 28.3939 48.1179 29.0331 48.1825 29.083Z" fill="black"/>
</g>
<g opacity="0.3" filter="url(#filter6_f_440_4065)">
<path d="M50.0996 28.4958C49.3777 29.3798 49.0524 29.8014 49.1125 29.8501C49.1726 29.8988 49.5942 29.5566 50.3161 28.6714C51.3542 27.699 50.2776 26.9839 50.1778 27.1278C49.8832 27.4418 51.1355 27.325 50.0996 28.4958Z" fill="white"/>
</g>
<path opacity="0.15" d="M49.7679 26.5446C49.4551 26.769 49.4143 27.2496 49.6773 27.6179C49.9425 27.9874 50.4094 28.1052 50.7233 27.8797C51.0361 27.6553 51.0769 27.1748 50.814 26.8064C50.5488 26.4381 50.0819 26.3214 49.7679 26.5458V26.5446Z" fill="url(#paint3_radial_440_4065)" fill-opacity="0.9"/>
<path opacity="0.15" d="M52.8654 34.9997C52.5526 35.2241 52.5118 35.7046 52.7759 36.073C53.0399 36.4424 53.5069 36.5603 53.8208 36.3348C54.1336 36.1115 54.1744 35.631 53.9115 35.2615C53.6474 34.8932 53.1793 34.7753 52.8654 34.9997Z" fill="url(#paint4_radial_440_4065)" fill-opacity="0.9"/>
<g opacity="0.1" filter="url(#filter7_f_440_4065)">
<path d="M50.6175 36.1262C50.6357 36.0469 51.3882 36.1511 52.296 36.3574C53.2049 36.5637 53.928 36.796 53.9087 36.8742C53.8906 36.9535 53.1403 36.8504 52.2314 36.6441C51.3225 36.4367 50.5994 36.2055 50.6175 36.1262Z" fill="black"/>
</g>
<mask id="mask2_440_4065" style="mask-type:alpha" maskUnits="userSpaceOnUse" x="50" y="34" width="2" height="3">
<path d="M50.6403 36.2327C50.7253 35.8473 50.8091 35.0098 50.8397 34.6392L51.6637 34.5859L51.5617 36.9478C51.2194 36.8696 50.5553 36.6169 50.6403 36.2327Z" fill="black"/>
</mask>
<g mask="url(#mask2_440_4065)">
<g style="mix-blend-mode:multiply" opacity="0.3" filter="url(#filter8_f_440_4065)">
<path d="M50.8291 36.4017C50.8699 35.7557 50.8359 35.2264 50.7555 35.2207C50.6739 35.2162 50.6274 35.7137 50.5877 36.3609C50.5481 37.008 50.5311 37.5611 50.6127 37.5656C50.6931 37.5701 50.7906 37.0499 50.8303 36.4017H50.8291Z" fill="#0D652D"/>
</g>
<g style="mix-blend-mode:screen" opacity="0.3" filter="url(#filter9_f_440_4065)">
<path d="M50.8738 35.0902C50.8965 34.9066 50.8852 34.7536 50.8489 34.7502C50.8126 34.7445 50.7877 34.8862 50.7662 35.0698C50.7446 35.2545 50.7333 35.412 50.7696 35.4166C50.8058 35.42 50.8523 35.2749 50.8738 35.0902Z" fill="#81C995"/>
</g>
</g>
<mask id="mask3_440_4065" style="mask-type:alpha" maskUnits="userSpaceOnUse" x="47" y="27" width="3" height="4">
<path d="M48.016 28.9878C48.3277 29.2258 48.9317 29.8151 49.1947 30.0781L49.8577 29.5896L48.2597 27.8477C48.0489 28.1276 47.7032 28.7475 48.016 28.9878Z" fill="black"/>
</mask>
<g mask="url(#mask3_440_4065)">
<g style="mix-blend-mode:multiply" opacity="0.3" filter="url(#filter10_f_440_4065)">
<path d="M48.0499 28.737C48.4976 29.2073 48.8115 29.6323 48.7526 29.689C48.6948 29.7456 48.3378 29.3943 47.8913 28.924C47.4447 28.4536 47.0753 28.0422 47.1353 27.9867C47.1943 27.93 47.6034 28.2666 48.0499 28.737Z" fill="#0D652D"/>
</g>
<g style="mix-blend-mode:screen" opacity="0.3" filter="url(#filter11_f_440_4065)">
<path d="M48.9265 29.7127C49.0614 29.8396 49.1509 29.9643 49.126 29.9903C49.101 30.0164 48.9922 29.9246 48.8574 29.7977C48.7214 29.6707 48.6114 29.5574 48.6364 29.5302C48.6613 29.5041 48.7916 29.5869 48.9265 29.7127Z" fill="#81C995"/>
</g>
</g>
<g opacity="0.7" filter="url(#filter12_f_440_4065)">
<path d="M52.2982 36.2703C51.2249 36.0709 50.7217 35.9961 50.7036 36.0901C50.6866 36.1853 51.1614 36.4143 52.2336 36.6137C53.2422 37.1487 53.8746 35.9394 53.8928 35.8431C53.9109 35.749 53.7511 36.6217 52.2982 36.2703Z" fill="#0D652D"/>
</g>
<g opacity="0.3" filter="url(#filter13_f_440_4065)">
<path d="M52.4848 35.4111C51.3934 35.2071 50.8868 35.0971 50.9027 35.0167C50.9174 34.9373 51.4467 34.9192 52.5392 35.1221C54.3254 35.1629 54.5339 36.4197 53.6046 36.5297C53.1966 36.5013 53.991 35.6253 52.4848 35.4111Z" fill="white"/>
</g>
</g>
<path d="M46.1 30.4283C46.0116 30.6459 46.0355 30.8635 46.1567 30.9122C46.2757 30.961 46.4457 30.8238 46.5353 30.6062C46.6237 30.3875 46.5987 30.171 46.4786 30.1212C46.3596 30.0724 46.1896 30.2107 46.1 30.4283Z" fill="url(#paint5_radial_440_4065)" fill-opacity="0.7"/>
<path d="M48.1954 36.3968C47.9891 36.2835 47.8724 36.0987 47.9347 35.9854C47.9971 35.8721 48.2158 35.8721 48.4221 35.9854C48.6283 36.0987 48.7451 36.2835 48.6827 36.3968C48.6204 36.5101 48.4017 36.5101 48.1954 36.3968Z" fill="url(#paint6_radial_440_4065)" fill-opacity="0.7"/>
<g style="mix-blend-mode:multiply" opacity="0.09" filter="url(#filter14_f_440_4065)">
<path d="M45.5245 31.0618C46.0912 31.0867 46.3258 30.7671 46.3711 30.6039C46.7032 30.0644 46.1649 29.6859 45.9133 29.6054C45.6617 29.5238 45.2355 29.4275 44.8309 29.8106C44.4275 30.1936 44.8162 31.03 45.5245 31.0618Z" fill="#011B04"/>
</g>
<g style="mix-blend-mode:multiply" opacity="0.09" filter="url(#filter15_f_440_4065)">
<path d="M47.3514 36.2651C47.7741 35.8911 48.156 35.9931 48.2932 36.0906C48.887 36.3037 48.708 36.9349 48.564 37.1559C48.4201 37.3769 48.1504 37.7181 47.5973 37.6727C47.0454 37.6274 46.8232 36.7321 47.3514 36.2651Z" fill="#011B04"/>
</g>
<path d="M47.4391 37.5094C47.7564 37.7474 48.2483 37.6307 48.5362 37.2488C48.824 36.8657 48.7991 36.3625 48.4818 36.1234C48.1644 35.8854 47.6726 36.0021 47.3847 36.384C47.0968 36.7671 47.1206 37.2703 47.4391 37.5094Z" fill="black"/>
<g filter="url(#filter16_d_440_4065)">
<path d="M45.4832 30.9429C45.9479 31.0607 46.4012 30.8522 46.4964 30.4748C46.5916 30.0985 46.2924 29.6985 45.8277 29.5817C45.3631 29.4639 44.9097 29.6724 44.8145 30.0498C44.7193 30.4261 45.0185 30.8261 45.4832 30.9429Z" fill="black"/>
</g>
<g filter="url(#filter17_d_440_4065)">
<path d="M47.3971 36.3799C47.6838 35.9968 48.1689 35.8756 48.4794 36.109C48.79 36.3425 48.8081 36.8412 48.5202 37.2231C48.2324 37.6062 47.7473 37.7274 47.4367 37.4951C47.1262 37.2616 47.1092 36.7618 47.3971 36.3799Z" fill="black"/>
</g>
<mask id="mask4_440_4065" style="mask-type:alpha" maskUnits="userSpaceOnUse" x="44" y="29" width="3" height="2">
<path d="M45.4832 30.9434C45.9479 31.0613 46.4012 30.8516 46.4964 30.4753C46.5916 30.0991 46.2924 29.699 45.8277 29.5811C45.3631 29.4644 44.9097 29.6741 44.8145 30.0503C44.7193 30.4266 45.0185 30.8267 45.4832 30.9434Z" fill="#202124"/>
</mask>
<g mask="url(#mask4_440_4065)">
<g filter="url(#filter18_f_440_4065)">
<path d="M45.8792 29.6634C45.5018 29.5274 45.1505 29.6215 45.0156 29.702C45.2774 29.541 45.5642 29.464 45.9246 29.5977C46.1263 29.6828 46.2952 29.8306 46.4062 30.0193C46.4266 30.0533 46.4425 30.0805 46.4516 30.1009L46.4062 30.0193C46.3939 30.0001 46.381 29.9812 46.3677 29.9626C46.2997 29.8754 46.1716 29.7688 45.8792 29.6634Z" fill="#D8D8D8" fill-opacity="0.29"/>
</g>
<g opacity="0.8" filter="url(#filter19_f_440_4065)">
<path d="M46.1875 30.7692C46.5672 30.5232 46.4912 30.1696 46.4062 30.0234C46.5128 30.1379 46.523 30.4076 46.4414 30.5516C46.3799 30.6474 46.2916 30.7231 46.1875 30.7692Z" fill="url(#paint7_linear_440_4065)"/>
</g>
</g>
<mask id="mask5_440_4065" style="mask-type:alpha" maskUnits="userSpaceOnUse" x="47" y="35" width="2" height="3">
<path d="M47.396 36.3799C47.6838 35.9968 48.1689 35.8756 48.4794 36.109C48.79 36.3425 48.8081 36.8412 48.5202 37.2231C48.2324 37.6062 47.7473 37.7274 47.4367 37.4951C47.1262 37.2616 47.1081 36.7618 47.396 36.3799Z" fill="#202124"/>
</mask>
<g mask="url(#mask5_440_4065)">
<path d="M48.5762 36.4077C48.5321 36.2883 48.4464 36.1888 48.3348 36.1276C48.2231 36.0664 48.0932 36.0475 47.9688 36.0745C48.0591 36.0842 48.1459 36.1147 48.2224 36.1636C48.299 36.2126 48.363 36.2787 48.4096 36.3567C48.5297 36.5664 48.3767 36.9563 48.2849 37.124L48.4504 37.192C48.5403 37.0848 48.5994 36.9553 48.6214 36.8171C48.6433 36.679 48.6285 36.5375 48.5762 36.4077Z" fill="url(#paint8_linear_440_4065)"/>
<g filter="url(#filter20_f_440_4065)">
<path d="M48.5056 37.1298C48.2971 37.4732 47.965 37.6205 47.8086 37.642C48.1146 37.6024 48.3843 37.4834 48.5815 37.1536C48.6853 36.9605 48.7238 36.7391 48.6915 36.5223C48.6881 36.4918 48.6828 36.4615 48.6756 36.4316C48.679 36.4577 48.6869 36.4872 48.6915 36.5223L48.6983 36.5903C48.7005 36.7014 48.6677 36.8646 48.5056 37.1298Z" fill="#D8D8D8" fill-opacity="0.29"/>
</g>
</g>
<g opacity="0.8" filter="url(#filter21_f_440_4065)">
<path d="M46.1052 29.9388C46.027 29.8096 45.8445 29.7574 45.7629 29.7461L45.6836 29.8526C45.7445 29.8627 45.8037 29.8814 45.8593 29.9082C45.9341 29.9444 46.0236 30.0068 46.0599 30.0328L46.1052 29.9388Z" fill="#E2DCE1"/>
</g>
<g opacity="0.8" filter="url(#filter22_f_440_4065)">
<path d="M48.5068 36.7797C48.5294 36.927 48.4252 37.0789 48.3708 37.1378L48.2461 37.1038C48.2857 37.0586 48.3185 37.0078 48.3436 36.9531C48.3776 36.8794 48.4059 36.7763 48.4161 36.7344L48.5068 36.7797Z" fill="#E2DCE1"/>
</g>
<g opacity="0.8" filter="url(#filter23_f_440_4065)">
<path d="M45.5533 30.7764C45.4914 30.7198 45.4316 30.6609 45.3743 30.5996H45.2383C45.2905 30.6685 45.357 30.7254 45.4332 30.7662L45.5533 30.7764ZM46.154 30.7991C46.1861 30.7757 46.2161 30.7495 46.2435 30.7209L46.1959 30.7379C46.1613 30.7718 46.1225 30.8012 46.0803 30.8251C46.0917 30.8251 46.1234 30.8195 46.154 30.7991Z" fill="#E2DCE1"/>
</g>
<g opacity="0.8" filter="url(#filter24_f_440_4065)">
<path d="M47.5442 36.4617C47.5306 36.541 47.5193 36.6623 47.5159 36.7121L47.4105 36.7971C47.4077 36.7109 47.4236 36.6251 47.4569 36.5455L47.5442 36.4617ZM47.9975 36.0673C48.0372 36.0653 48.0771 36.0668 48.1165 36.0718L48.0701 36.0888C48.0217 36.0839 47.9729 36.0854 47.925 36.0933C47.9465 36.0785 47.9715 36.0695 47.9975 36.0673Z" fill="#E2DCE1"/>
</g>
<g opacity="0.3" filter="url(#filter25_f_440_4065)">
<path d="M48.8379 38.4745C47.1152 39.0819 49.4521 35.5913 48.516 32.937C47.5799 30.2827 43.5701 29.0315 45.2917 28.4241C46.8545 28.4037 49.0249 29.7727 49.961 32.427C50.8983 35.0801 49.9542 37.7151 48.8379 38.4745Z" fill="url(#paint9_linear_440_4065)" fill-opacity="0.4"/>
</g>
<g opacity="0.2" filter="url(#filter26_f_440_4065)">
<path d="M48.8379 38.4745C47.1152 39.0819 49.4521 35.5913 48.516 32.937C47.5799 30.2827 43.5701 29.0315 45.2917 28.4241C46.8545 28.4037 49.0249 29.7727 49.961 32.427C50.8983 35.0801 49.9542 37.7151 48.8379 38.4745Z" fill="url(#paint10_linear_440_4065)" fill-opacity="0.4"/>
</g>
<path d="M20.0792 31.2655C19.8919 30.9396 19.6392 30.6559 19.3371 30.4322C19.0351 30.2085 18.69 30.0497 18.3236 29.9656C17.551 29.787 16.7394 29.9068 16.0513 30.301C15.352 30.6977 14.8284 31.3358 14.595 32.077C14.3615 32.817 14.5009 33.7124 14.8692 34.3629L17.5643 32.9723L20.0792 31.2655Z" fill="#4386F5"/>
<path fill-rule="evenodd" clip-rule="evenodd" d="M20.0556 31.2266C23.9543 37.682 32.1188 40.4451 39.2543 37.3964L41.6365 42.969C31.6836 47.2224 20.3072 43.3657 14.8672 34.3602L20.0556 31.2266Z" fill="url(#paint11_linear_440_4065)"/>
<path d="M18.9143 53.8449C18.8515 54.0416 18.8643 54.2548 18.9504 54.4425C19.0365 54.6302 19.1896 54.779 19.3797 54.8598C19.5698 54.9405 19.7832 54.9473 19.978 54.8789C20.1729 54.8104 20.3352 54.6716 20.433 54.4898L22.4277 50.7838C22.5095 50.6344 22.5591 50.4695 22.5733 50.2997C22.5876 50.1299 22.566 49.9591 22.5102 49.7981C22.4543 49.6372 22.3654 49.4897 22.249 49.3653C22.1327 49.2408 21.9916 49.1421 21.8348 49.0755C21.678 49.0089 21.509 48.9759 21.3386 48.9787C21.1683 48.9814 21.0004 49.0198 20.8458 49.0914C20.6912 49.1629 20.5533 49.2661 20.4411 49.3942C20.3288 49.5223 20.2446 49.6725 20.1939 49.8352L18.9143 53.8449Z" fill="#034ECA"/>
<path d="M18.9143 53.8449C18.8515 54.0416 18.8643 54.2548 18.9504 54.4425C19.0365 54.6302 19.1896 54.779 19.3797 54.8598C19.5698 54.9405 19.7832 54.9473 19.978 54.8789C20.1729 54.8104 20.3352 54.6716 20.433 54.4898L22.4277 50.7838C22.5095 50.6344 22.5591 50.4695 22.5733 50.2997C22.5876 50.1299 22.566 49.9591 22.5102 49.7981C22.4543 49.6372 22.3654 49.4897 22.249 49.3653C22.1327 49.2408 21.9916 49.1421 21.8348 49.0755C21.678 49.0089 21.509 48.9759 21.3386 48.9787C21.1683 48.9814 21.0004 49.0198 20.8458 49.0914C20.6912 49.1629 20.5533 49.2661 20.4411 49.3942C20.3288 49.5223 20.2446 49.6725 20.1939 49.8352L18.9143 53.8449Z" fill="url(#paint12_linear_440_4065)"/>
<path d="M29.0967 18.9095C29.408 18.0545 30.0461 17.3582 30.8708 16.9737C31.6954 16.5892 32.6391 16.5481 33.4941 16.8593C34.349 17.1706 35.0454 17.8087 35.4299 18.6334C35.8144 19.458 35.8555 20.4016 35.5443 21.2566L25.4757 48.9213C25.3217 49.3447 25.0857 49.7337 24.7814 50.0659C24.477 50.3982 24.1102 50.6672 23.7019 50.8577C23.2936 51.0482 22.8517 51.1564 22.4016 51.1761C21.9514 51.1958 21.5018 51.1267 21.0784 50.9726C20.655 50.8186 20.266 50.5827 19.9338 50.2783C19.6015 49.974 19.3325 49.6072 19.142 49.1988C18.9515 48.7905 18.8433 48.3486 18.8236 47.8985C18.8039 47.4484 18.873 46.9987 19.0271 46.5753L29.0956 18.9106L29.0967 18.9095Z" fill="#4285F4"/>
<path d="M21.9933 51.1617C22.7503 51.2384 23.5113 51.0604 24.1558 50.6561C24.8003 50.2517 25.2916 49.644 25.552 48.929L33.7301 26.4573C33.9606 25.8244 33.9991 25.1376 33.8409 24.483C33.6826 23.8284 33.3346 23.235 32.8405 22.7773L21.9933 51.1617Z" fill="url(#paint13_linear_440_4065)"/>
<path d="M36.2231 12.6662C36.2231 12.0938 35.9957 11.5448 35.5909 11.14C35.1861 10.7352 34.6371 10.5078 34.0647 10.5078C33.4922 10.5078 32.9432 10.7352 32.5384 11.14C32.1337 11.5448 31.9063 12.0938 31.9062 12.6662V16.761C31.9063 17.3334 32.1337 17.8824 32.5384 18.2872C32.9432 18.692 33.4922 18.9194 34.0647 18.9194C34.6371 18.9194 35.1861 18.692 35.5909 18.2872C35.9957 17.8824 36.2231 17.3334 36.2231 16.761V12.6662Z" fill="#4285F4"/>
<path d="M36.2231 12.6662C36.2231 12.0938 35.9957 11.5448 35.5909 11.14C35.1861 10.7352 34.6371 10.5078 34.0647 10.5078C33.4922 10.5078 32.9432 10.7352 32.5384 11.14C32.1337 11.5448 31.9063 12.0938 31.9062 12.6662V16.761C31.9063 17.3334 32.1337 17.8824 32.5384 18.2872C32.9432 18.692 33.4922 18.9194 34.0647 18.9194C34.6371 18.9194 35.1861 18.692 35.5909 18.2872C35.9957 17.8824 36.2231 17.3334 36.2231 16.761V12.6662Z" fill="url(#paint14_linear_440_4065)"/>
<g opacity="0.5" filter="url(#filter27_f_440_4065)">
<path d="M38.341 43.9099C37.4978 43.9824 38.8578 42.9386 38.6504 40.511C38.5099 38.8745 39.0811 37.4884 39.9243 37.417C40.7675 37.3445 41.5654 38.6127 41.7059 40.2504C42.4052 42.8718 39.1854 43.8385 38.3422 43.911L38.341 43.9099Z" fill="#044FCB"/>
</g>
<path d="M32.5151 21.2261C32.2167 20.3841 32.2626 19.4584 32.6426 18.6501C33.0227 17.8417 33.7063 17.2158 34.545 16.9084C35.3837 16.601 36.3098 16.6368 37.1223 17.0081C37.9347 17.3793 38.5679 18.0561 38.8844 18.8914L49.0402 46.6082C49.1991 47.0277 49.2733 47.4745 49.2584 47.9228C49.2435 48.3711 49.1398 48.812 48.9534 49.2199C48.7669 49.6279 48.5014 49.9948 48.1723 50.2995C47.8431 50.6042 47.4567 50.8405 47.0356 50.9949C46.6144 51.1493 46.1669 51.2186 45.7188 51.1988C45.2707 51.1791 44.8309 51.0706 44.425 50.8798C44.0191 50.6889 43.655 50.4195 43.3539 50.087C43.0528 49.7546 42.8207 49.3657 42.6709 48.9429L32.5151 21.2261Z" fill="url(#paint15_linear_440_4065)"/>
<path d="M31.3549 17.8125C30.7246 17.9723 30.143 18.2839 29.6608 18.7201C29.1786 19.1563 28.8104 19.7038 28.5884 20.3149L19.0435 46.5278C18.4609 48.1258 19.0435 49.853 20.2867 50.6282L31.3549 17.8125Z" fill="url(#paint16_linear_440_4065)"/>
<path opacity="0.3" d="M32.3017 13.003C32.7845 13.4869 33.6561 13.3997 34.2488 12.8069C34.8404 12.2153 34.9288 11.3427 34.4449 10.8587C33.9609 10.3759 33.0894 10.4632 32.4967 11.0548C31.9051 11.6475 31.8178 12.5191 32.3017 13.003Z" fill="url(#paint17_radial_440_4065)" fill-opacity="0.9"/>
<path opacity="0.3" d="M27.7744 27.8309C29.2205 28.6661 31.4498 27.5135 32.7531 25.2559C34.0565 22.9983 33.9409 20.4914 32.4947 19.6573C31.0475 18.8209 28.8193 19.9746 27.516 22.2322C26.2127 24.4898 26.3283 26.9967 27.7744 27.8309Z" fill="url(#paint18_radial_440_4065)" fill-opacity="0.9"/>
<path d="M34.0105 25.0053C35.1259 25.0053 36.1957 24.5622 36.9844 23.7735C37.7732 22.9848 38.2163 21.915 38.2163 20.7996C38.2163 19.6841 37.7732 18.6143 36.9844 17.8256C36.1957 17.0369 35.1259 16.5938 34.0105 16.5938C32.895 16.5938 31.8253 17.0369 31.0365 17.8256C30.2478 18.6143 29.8047 19.6841 29.8047 20.7996C29.8047 21.915 30.2478 22.9848 31.0365 23.7735C31.8253 24.5622 32.895 25.0053 34.0105 25.0053Z" fill="white"/>
<path fill-rule="evenodd" clip-rule="evenodd" d="M34.0084 17.7011C33.1863 17.7011 32.3979 18.0277 31.8166 18.609C31.2353 19.1903 30.9087 19.9787 30.9087 20.8008C30.9087 21.6229 31.2353 22.4113 31.8166 22.9926C32.3979 23.5739 33.1863 23.9004 34.0084 23.9004C34.8305 23.9004 35.6189 23.5739 36.2002 22.9926C36.7815 22.4113 37.108 21.6229 37.108 20.8008C37.108 19.9787 36.7815 19.1903 36.2002 18.609C35.6189 18.0277 34.8305 17.7011 34.0084 17.7011ZM28.6953 20.8008C28.6953 20.1031 28.8327 19.4123 29.0997 18.7678C29.3667 18.1232 29.758 17.5376 30.2513 17.0443C30.7446 16.551 31.3303 16.1597 31.9748 15.8927C32.6194 15.6257 33.3102 15.4883 34.0078 15.4883C34.7055 15.4883 35.3963 15.6257 36.0408 15.8927C36.6854 16.1597 37.271 16.551 37.7643 17.0443C38.2576 17.5376 38.6489 18.1232 38.9159 18.7678C39.1829 19.4123 39.3203 20.1031 39.3203 20.8008C39.3203 22.2097 38.7606 23.561 37.7643 24.5573C36.768 25.5536 35.4168 26.1133 34.0078 26.1133C32.5988 26.1133 31.2476 25.5536 30.2513 24.5573C29.255 23.561 28.6953 22.2097 28.6953 20.8008Z" fill="#202124"/>
</g>
</g>
<defs>
<filter id="filter0_f_440_4065" x="39.516" y="28.0336" width="10.7766" height="5.58909" filterUnits="userSpaceOnUse" color-interpolation-filters="sRGB">
<feFlood flood-opacity="0" result="BackgroundImageFix"/>
<feBlend mode="normal" in="SourceGraphic" in2="BackgroundImageFix" result="shape"/>
<feGaussianBlur stdDeviation="0.117" result="effect1_foregroundBlur_440_4065"/>
</filter>
<filter id="filter1_f_440_4065" x="42.8785" y="31.4488" width="7.84072" height="9.69619" filterUnits="userSpaceOnUse" color-interpolation-filters="sRGB">
<feFlood flood-opacity="0" result="BackgroundImageFix"/>
<feBlend mode="normal" in="SourceGraphic" in2="BackgroundImageFix" result="shape"/>
<feGaussianBlur stdDeviation="0.176" result="effect1_foregroundBlur_440_4065"/>
</filter>
<filter id="filter2_f_440_4065" x="40.3396" y="26.701" width="8.31294" height="2.46333" filterUnits="userSpaceOnUse" color-interpolation-filters="sRGB">
<feFlood flood-opacity="0" result="BackgroundImageFix"/>
<feBlend mode="normal" in="SourceGraphic" in2="BackgroundImageFix" result="shape"/>
<feGaussianBlur stdDeviation="0.088" result="effect1_foregroundBlur_440_4065"/>
</filter>
<filter id="filter3_f_440_4065" x="45.5584" y="35.7908" width="5.57856" height="6.61567" filterUnits="userSpaceOnUse" color-interpolation-filters="sRGB">
<feFlood flood-opacity="0" result="BackgroundImageFix"/>
<feBlend mode="normal" in="SourceGraphic" in2="BackgroundImageFix" result="shape"/>
<feGaussianBlur stdDeviation="0.088" result="effect1_foregroundBlur_440_4065"/>
</filter>
<filter id="filter4_f_440_4065" x="48.0668" y="26.8695" width="3.08128" height="2.52464" filterUnits="userSpaceOnUse" color-interpolation-filters="sRGB">
<feFlood flood-opacity="0" result="BackgroundImageFix"/>
<feBlend mode="normal" in="SourceGraphic" in2="BackgroundImageFix" result="shape"/>
<feGaussianBlur stdDeviation="0.117" result="effect1_foregroundBlur_440_4065"/>
</filter>
<filter id="filter5_f_440_4065" x="48.1178" y="26.3404" width="2.1785" height="2.8035" filterUnits="userSpaceOnUse" color-interpolation-filters="sRGB">
<feFlood flood-opacity="0" result="BackgroundImageFix"/>
<feBlend mode="normal" in="SourceGraphic" in2="BackgroundImageFix" result="shape"/>
<feGaussianBlur stdDeviation="0.029" result="effect1_foregroundBlur_440_4065"/>
</filter>
<filter id="filter6_f_440_4065" x="48.9295" y="26.9334" width="2.01216" height="3.09809" filterUnits="userSpaceOnUse" color-interpolation-filters="sRGB">
<feFlood flood-opacity="0" result="BackgroundImageFix"/>
<feBlend mode="normal" in="SourceGraphic" in2="BackgroundImageFix" result="shape"/>
<feGaussianBlur stdDeviation="0.088" result="effect1_foregroundBlur_440_4065"/>
</filter>
<filter id="filter7_f_440_4065" x="50.5592" y="36.0416" width="3.40897" height="0.916781" filterUnits="userSpaceOnUse" color-interpolation-filters="sRGB">
<feFlood flood-opacity="0" result="BackgroundImageFix"/>
<feBlend mode="normal" in="SourceGraphic" in2="BackgroundImageFix" result="shape"/>
<feGaussianBlur stdDeviation="0.029" result="effect1_foregroundBlur_440_4065"/>
</filter>
<filter id="filter8_f_440_4065" x="50.4367" y="35.1027" width="0.528969" height="2.5817" filterUnits="userSpaceOnUse" color-interpolation-filters="sRGB">
<feFlood flood-opacity="0" result="BackgroundImageFix"/>
<feBlend mode="normal" in="SourceGraphic" in2="BackgroundImageFix" result="shape"/>
<feGaussianBlur stdDeviation="0.059" result="effect1_foregroundBlur_440_4065"/>
</filter>
<filter id="filter9_f_440_4065" x="50.6761" y="34.68" width="0.280625" height="0.806016" filterUnits="userSpaceOnUse" color-interpolation-filters="sRGB">
<feFlood flood-opacity="0" result="BackgroundImageFix"/>
<feBlend mode="normal" in="SourceGraphic" in2="BackgroundImageFix" result="shape"/>
<feGaussianBlur stdDeviation="0.035" result="effect1_foregroundBlur_440_4065"/>
</filter>
<filter id="filter10_f_440_4065" x="47.0109" y="27.8625" width="1.86491" height="1.95084" filterUnits="userSpaceOnUse" color-interpolation-filters="sRGB">
<feFlood flood-opacity="0" result="BackgroundImageFix"/>
<feBlend mode="normal" in="SourceGraphic" in2="BackgroundImageFix" result="shape"/>
<feGaussianBlur stdDeviation="0.059" result="effect1_foregroundBlur_440_4065"/>
</filter>
<filter id="filter11_f_440_4065" x="48.5628" y="29.4554" width="0.636094" height="0.60875" filterUnits="userSpaceOnUse" color-interpolation-filters="sRGB">
<feFlood flood-opacity="0" result="BackgroundImageFix"/>
<feBlend mode="normal" in="SourceGraphic" in2="BackgroundImageFix" result="shape"/>
<feGaussianBlur stdDeviation="0.035" result="effect1_foregroundBlur_440_4065"/>
</filter>
<filter id="filter12_f_440_4065" x="50.4691" y="35.6019" width="3.65941" height="1.38206" filterUnits="userSpaceOnUse" color-interpolation-filters="sRGB">
<feFlood flood-opacity="0" result="BackgroundImageFix"/>
<feBlend mode="normal" in="SourceGraphic" in2="BackgroundImageFix" result="shape"/>
<feGaussianBlur stdDeviation="0.117" result="effect1_foregroundBlur_440_4065"/>
</filter>
<filter id="filter13_f_440_4065" x="50.7263" y="34.7849" width="3.59809" height="1.92036" filterUnits="userSpaceOnUse" color-interpolation-filters="sRGB">
<feFlood flood-opacity="0" result="BackgroundImageFix"/>
<feBlend mode="normal" in="SourceGraphic" in2="BackgroundImageFix" result="shape"/>
<feGaussianBlur stdDeviation="0.088" result="effect1_foregroundBlur_440_4065"/>
</filter>
<filter id="filter14_f_440_4065" x="44.632" y="29.4953" width="1.88059" height="1.60325" filterUnits="userSpaceOnUse" color-interpolation-filters="sRGB">
<feFlood flood-opacity="0" result="BackgroundImageFix"/>
<feBlend mode="normal" in="SourceGraphic" in2="BackgroundImageFix" result="shape"/>
<feGaussianBlur stdDeviation="0.018" result="effect1_foregroundBlur_440_4065"/>
</filter>
<filter id="filter15_f_440_4065" x="47.0148" y="35.964" width="1.72825" height="1.74973" filterUnits="userSpaceOnUse" color-interpolation-filters="sRGB">
<feFlood flood-opacity="0" result="BackgroundImageFix"/>
<feBlend mode="normal" in="SourceGraphic" in2="BackgroundImageFix" result="shape"/>
<feGaussianBlur stdDeviation="0.018" result="effect1_foregroundBlur_440_4065"/>
</filter>
<filter id="filter16_d_440_4065" x="44.7789" y="29.5488" width="1.74275" height="1.45173" filterUnits="userSpaceOnUse" color-interpolation-filters="sRGB">
<feFlood flood-opacity="0" result="BackgroundImageFix"/>
<feColorMatrix in="SourceAlpha" type="matrix" values="0 0 0 0 0 0 0 0 0 0 0 0 0 0 0 0 0 0 127 0" result="hardAlpha"/>
<feOffset dx="-0.006" dy="0.012"/>
<feGaussianBlur stdDeviation="0.006"/>
<feComposite in2="hardAlpha" operator="out"/>
<feColorMatrix type="matrix" values="0 0 0 0 0.0156863 0 0 0 0 0.231373 0 0 0 0 0.0666667 0 0 0 0.7 0"/>
<feBlend mode="normal" in2="BackgroundImageFix" result="effect1_dropShadow_440_4065"/>
<feBlend mode="normal" in="SourceGraphic" in2="effect1_dropShadow_440_4065" result="shape"/>
</filter>
<filter id="filter17_d_440_4065" x="47.1734" y="35.9902" width="1.55916" height="1.64705" filterUnits="userSpaceOnUse" color-interpolation-filters="sRGB">
<feFlood flood-opacity="0" result="BackgroundImageFix"/>
<feColorMatrix in="SourceAlpha" type="matrix" values="0 0 0 0 0 0 0 0 0 0 0 0 0 0 0 0 0 0 127 0" result="hardAlpha"/>
<feOffset dx="-0.006" dy="0.012"/>
<feGaussianBlur stdDeviation="0.006"/>
<feComposite in2="hardAlpha" operator="out"/>
<feColorMatrix type="matrix" values="0 0 0 0 0.0156863 0 0 0 0 0.231373 0 0 0 0 0.0666667 0 0 0 0.7 0"/>
<feBlend mode="normal" in2="BackgroundImageFix" result="effect1_dropShadow_440_4065"/>
<feBlend mode="normal" in="SourceGraphic" in2="effect1_dropShadow_440_4065" result="shape"/>
</filter>
<filter id="filter18_f_440_4065" x="45.0036" y="29.5173" width="1.4615" height="0.596266" filterUnits="userSpaceOnUse" color-interpolation-filters="sRGB">
<feFlood flood-opacity="0" result="BackgroundImageFix"/>
<feBlend mode="normal" in="SourceGraphic" in2="BackgroundImageFix" result="shape"/>
<feGaussianBlur stdDeviation="0.006" result="effect1_foregroundBlur_440_4065"/>
</filter>
<filter id="filter19_f_440_4065" x="46.1855" y="30.0214" width="0.312594" height="0.750094" filterUnits="userSpaceOnUse" color-interpolation-filters="sRGB">
<feFlood flood-opacity="0" result="BackgroundImageFix"/>
<feBlend mode="normal" in="SourceGraphic" in2="BackgroundImageFix" result="shape"/>
<feGaussianBlur stdDeviation="0.001" result="effect1_foregroundBlur_440_4065"/>
</filter>
<filter id="filter20_f_440_4065" x="47.7966" y="36.4196" width="0.918531" height="1.23494" filterUnits="userSpaceOnUse" color-interpolation-filters="sRGB">
<feFlood flood-opacity="0" result="BackgroundImageFix"/>
<feBlend mode="normal" in="SourceGraphic" in2="BackgroundImageFix" result="shape"/>
<feGaussianBlur stdDeviation="0.006" result="effect1_foregroundBlur_440_4065"/>
</filter>
<filter id="filter21_f_440_4065" x="45.6716" y="29.7341" width="0.445875" height="0.311109" filterUnits="userSpaceOnUse" color-interpolation-filters="sRGB">
<feFlood flood-opacity="0" result="BackgroundImageFix"/>
<feBlend mode="normal" in="SourceGraphic" in2="BackgroundImageFix" result="shape"/>
<feGaussianBlur stdDeviation="0.006" result="effect1_foregroundBlur_440_4065"/>
</filter>
<filter id="filter22_f_440_4065" x="48.2341" y="36.7224" width="0.289625" height="0.428297" filterUnits="userSpaceOnUse" color-interpolation-filters="sRGB">
<feFlood flood-opacity="0" result="BackgroundImageFix"/>
<feBlend mode="normal" in="SourceGraphic" in2="BackgroundImageFix" result="shape"/>
<feGaussianBlur stdDeviation="0.006" result="effect1_foregroundBlur_440_4065"/>
</filter>
<filter id="filter23_f_440_4065" x="45.2323" y="30.5936" width="1.01591" height="0.236609" filterUnits="userSpaceOnUse" color-interpolation-filters="sRGB">
<feFlood flood-opacity="0" result="BackgroundImageFix"/>
<feBlend mode="normal" in="SourceGraphic" in2="BackgroundImageFix" result="shape"/>
<feGaussianBlur stdDeviation="0.003" result="effect1_foregroundBlur_440_4065"/>
</filter>
<filter id="filter24_f_440_4065" x="47.4042" y="36.0604" width="0.719031" height="0.742469" filterUnits="userSpaceOnUse" color-interpolation-filters="sRGB">
<feFlood flood-opacity="0" result="BackgroundImageFix"/>
<feBlend mode="normal" in="SourceGraphic" in2="BackgroundImageFix" result="shape"/>
<feGaussianBlur stdDeviation="0.003" result="effect1_foregroundBlur_440_4065"/>
</filter>
<filter id="filter25_f_440_4065" x="44.6332" y="28.1898" width="5.94456" height="10.5891" filterUnits="userSpaceOnUse" color-interpolation-filters="sRGB">
<feFlood flood-opacity="0" result="BackgroundImageFix"/>
<feBlend mode="normal" in="SourceGraphic" in2="BackgroundImageFix" result="shape"/>
<feGaussianBlur stdDeviation="0.117" result="effect1_foregroundBlur_440_4065"/>
</filter>
<filter id="filter26_f_440_4065" x="44.6332" y="28.1898" width="5.94456" height="10.5891" filterUnits="userSpaceOnUse" color-interpolation-filters="sRGB">
<feFlood flood-opacity="0" result="BackgroundImageFix"/>
<feBlend mode="normal" in="SourceGraphic" in2="BackgroundImageFix" result="shape"/>
<feGaussianBlur stdDeviation="0.117" result="effect1_foregroundBlur_440_4065"/>
</filter>
<filter id="filter27_f_440_4065" x="37.7705" y="37.1221" width="4.32619" height="7.084" filterUnits="userSpaceOnUse" color-interpolation-filters="sRGB">
<feFlood flood-opacity="0" result="BackgroundImageFix"/>
<feBlend mode="normal" in="SourceGraphic" in2="BackgroundImageFix" result="shape"/>
<feGaussianBlur stdDeviation="0.146" result="effect1_foregroundBlur_440_4065"/>
</filter>
<linearGradient id="paint0_linear_440_4065" x1="48.673" y1="54.7188" x2="46.488" y2="53.479" gradientUnits="userSpaceOnUse">
<stop stop-color="#4285F4"/>
<stop offset="1" stop-color="#034ECA"/>
</linearGradient>
<linearGradient id="paint1_linear_440_4065" x1="45.789" y1="28.4408" x2="45.0965" y2="30.8956" gradientUnits="userSpaceOnUse">
<stop stop-color="#A8F0B9"/>
<stop offset="1" stop-color="#ADEEBC" stop-opacity="0"/>
</linearGradient>
<linearGradient id="paint2_linear_440_4065" x1="49.2143" y1="38.1554" x2="47.1347" y2="36.6798" gradientUnits="userSpaceOnUse">
<stop stop-color="#A8F0B9"/>
<stop offset="1" stop-color="#ADEEBC" stop-opacity="0"/>
</linearGradient>
<radialGradient id="paint3_radial_440_4065" cx="0" cy="0" r="1" gradientTransform="matrix(-0.303983 -0.416908 0.302113 -0.220275 50.2462 27.2122)" gradientUnits="userSpaceOnUse">
<stop stop-color="white"/>
<stop offset="0.948" stop-color="white" stop-opacity="0"/>
</radialGradient>
<radialGradient id="paint4_radial_440_4065" cx="0" cy="0" r="1" gradientTransform="matrix(-0.303981 -0.416907 0.302108 -0.220277 53.3438 35.6687)" gradientUnits="userSpaceOnUse">
<stop stop-color="white"/>
<stop offset="0.948" stop-color="white" stop-opacity="0"/>
</radialGradient>
<radialGradient id="paint5_radial_440_4065" cx="0" cy="0" r="1" gradientUnits="userSpaceOnUse" gradientTransform="translate(46.317 30.5147) rotate(-156.205) scale(0.201291 0.366633)">
<stop stop-color="#93E19F"/>
<stop offset="1" stop-color="#93E19F" stop-opacity="0"/>
</radialGradient>
<radialGradient id="paint6_radial_440_4065" cx="0" cy="0" r="1" gradientTransform="matrix(-0.0923667 0.17876 -0.325573 -0.168232 48.3087 36.1917)" gradientUnits="userSpaceOnUse">
<stop stop-color="#93E19F"/>
<stop offset="1" stop-color="#93E19F" stop-opacity="0"/>
</radialGradient>
<linearGradient id="paint7_linear_440_4065" x1="46.5864" y1="30.0076" x2="46.0073" y2="30.241" gradientUnits="userSpaceOnUse">
<stop stop-color="#E2DDE2"/>
<stop offset="1" stop-color="#E2DDE2" stop-opacity="0"/>
</linearGradient>
<linearGradient id="paint8_linear_440_4065" x1="48.6079" y1="36.4927" x2="48.1229" y2="36.6639" gradientUnits="userSpaceOnUse">
<stop stop-color="#373637"/>
<stop offset="1" stop-color="#373637" stop-opacity="0"/>
</linearGradient>
<linearGradient id="paint9_linear_440_4065" x1="50.0539" y1="32.3941" x2="47.649" y2="33.243" gradientUnits="userSpaceOnUse">
<stop stop-color="#A8F0B9"/>
<stop offset="1" stop-color="#ADEEBC" stop-opacity="0"/>
</linearGradient>
<linearGradient id="paint10_linear_440_4065" x1="50.0539" y1="32.3941" x2="47.649" y2="33.243" gradientUnits="userSpaceOnUse">
<stop stop-color="#A8F0B9"/>
<stop offset="1" stop-color="#ADEEBC" stop-opacity="0"/>
</linearGradient>
<linearGradient id="paint11_linear_440_4065" x1="31.8536" y1="40.2796" x2="42.3675" y2="39.45" gradientUnits="userSpaceOnUse">
<stop stop-color="#4285F4"/>
<stop offset="0.703" stop-color="#044FCB"/>
</linearGradient>
<linearGradient id="paint12_linear_440_4065" x1="19.8437" y1="54.1656" x2="22.1104" y2="52.8283" gradientUnits="userSpaceOnUse">
<stop stop-color="#4285F4"/>
<stop offset="1" stop-color="#034ECA"/>
</linearGradient>
<linearGradient id="paint13_linear_440_4065" x1="30.2429" y1="35.1329" x2="29.0347" y2="34.7136" gradientUnits="userSpaceOnUse">
<stop stop-color="#73A7FF"/>
<stop offset="1" stop-color="#5893F6" stop-opacity="0"/>
</linearGradient>
<linearGradient id="paint14_linear_440_4065" x1="34.0652" y1="12.9224" x2="35.9647" y2="14.6314" gradientUnits="userSpaceOnUse">
<stop stop-color="#4285F4"/>
<stop offset="1" stop-color="#034ECA"/>
</linearGradient>
<linearGradient id="paint15_linear_440_4065" x1="36.1893" y1="24.1025" x2="41.9342" y2="36.109" gradientUnits="userSpaceOnUse">
<stop stop-color="#034DC9"/>
<stop offset="1" stop-color="#4285F4"/>
</linearGradient>
<linearGradient id="paint16_linear_440_4065" x1="22.2905" y1="33.9954" x2="25.3165" y2="35.0346" gradientUnits="userSpaceOnUse">
<stop stop-color="#9BC0FF"/>
<stop offset="1" stop-color="#5893F6" stop-opacity="0"/>
</linearGradient>
<radialGradient id="paint17_radial_440_4065" cx="0" cy="0" r="1" gradientTransform="matrix(-0.667953 0.67966 -0.473507 -0.465347 33.3727 11.9309)" gradientUnits="userSpaceOnUse">
<stop stop-color="white"/>
<stop offset="0.948" stop-color="white" stop-opacity="0"/>
</radialGradient>
<radialGradient id="paint18_radial_440_4065" cx="0" cy="0" r="1" gradientUnits="userSpaceOnUse" gradientTransform="translate(30.1354 23.7432) rotate(119.61) scale(2.96692 1.6209)">
<stop stop-color="white"/>
<stop offset="0.948" stop-color="white" stop-opacity="0"/>
</radialGradient>
<clipPath id="clip0_440_4065">
<rect width="68" height="68" fill="white"/>
</clipPath>
</defs>
</svg>
