<svg width="64" height="64" viewBox="0 0 64 64" fill="none" xmlns="http://www.w3.org/2000/svg">
<path d="M33.1641 35.0151C33.2841 32.8941 34.3276 31.0216 35.9066 29.6981C37.4536 28.3971 39.5306 27.6016 41.8111 27.6016C44.0796 27.6016 46.1561 28.3966 47.7011 29.6981C49.2826 31.0216 50.3196 32.8941 50.4436 35.0151C50.5636 37.1901 49.6821 39.2201 48.1411 40.7236C46.5621 42.2486 44.3276 43.2121 41.8111 43.2121C39.2926 43.2121 37.0481 42.2546 35.4791 40.7236C33.9321 39.2206 33.0526 37.2016 33.1761 35.0251L33.1641 35.0151Z" fill="#235785"/>
<path d="M19.6226 39.5006C19.6366 40.3306 19.9046 41.9456 20.3026 43.2026C21.1436 45.8706 22.5711 48.3391 24.5476 50.5021C26.5786 52.7346 29.0846 54.5296 31.9726 55.8071C35.0091 57.1421 38.3051 57.8256 41.7251 57.8256C45.1451 57.8211 48.4411 57.1256 51.4771 55.7746C54.3651 54.4836 56.8721 52.6906 58.9021 50.4461C60.8891 48.2591 62.3121 45.7926 63.1476 43.1226C63.566 41.7964 63.8336 40.4272 63.9451 39.0411C64.0491 37.6961 64.0051 36.3386 63.8136 34.9811C63.4393 32.3653 62.5163 29.8582 61.1051 27.6241C59.8181 25.5491 58.1471 23.7441 56.1601 22.2176L56.1661 22.2156L36.1886 6.96258C36.1706 6.94858 36.1546 6.93458 36.1366 6.92258C34.8271 5.92158 32.6146 5.92558 31.1816 6.92658C29.7246 7.94208 29.5566 9.61908 30.8536 10.6746L30.8476 10.6786L39.1886 17.4206L13.7941 17.4461H13.7601C11.6616 17.4481 9.64064 18.8156 9.24514 20.5526C8.83514 22.3131 10.2626 23.7826 12.4511 23.7826L12.4471 23.7906L25.3151 23.7666L2.29014 41.2616C2.26214 41.2836 2.23014 41.3056 2.20214 41.3276C0.0346413 42.9746 -0.664859 45.7226 0.700142 47.4496C2.08914 49.2106 5.03314 49.2226 7.22364 47.4596L19.7526 37.2546C19.7526 37.2546 19.5686 38.6336 19.5846 39.4531L19.6226 39.5006ZM51.9026 44.1101C49.3186 46.7241 45.6946 48.2151 41.7891 48.2151C37.8736 48.2211 34.2496 46.7561 31.6651 44.1441C30.4021 42.8646 29.4766 41.4076 28.9011 39.8486C28.3385 38.3145 28.1215 36.6752 28.2656 35.0476C28.4025 33.4596 28.876 31.9189 29.6546 30.5281C30.4081 29.1711 31.4496 27.9381 32.7246 26.8946C35.2411 24.8656 38.4346 23.7546 41.7746 23.7546C45.1291 23.7506 48.3231 24.8416 50.8396 26.8726C52.1146 27.9101 53.1521 29.1371 53.9096 30.4941C54.69 31.8847 55.163 33.4266 55.2966 35.0156C55.4388 36.6425 55.2219 38.2808 54.6611 39.8146C54.0876 41.3856 53.1601 42.8426 51.8946 44.1221L51.9026 44.1101Z" fill="#E87500"/>
</svg>
