<svg width="56" height="63" viewBox="0 0 56 63" fill="none" xmlns="http://www.w3.org/2000/svg">
<path d="M53.0036 24.4143C52.4601 23.6427 51.7262 23.0248 50.8733 22.6206C50.0204 22.2165 49.0775 22.0398 48.1361 22.1077C47.1948 22.1756 46.287 22.4859 45.501 23.0084C44.7149 23.5308 44.0774 24.2477 43.6503 25.0893C43.2308 25.9952 43.0963 27.0071 43.2646 27.9911C43.433 28.9751 43.8963 29.8847 44.5931 30.5996C46.5044 30.752 48.4066 30.2107 49.9513 29.0747C51.4959 27.9387 52.5795 26.2842 53.0036 24.4143ZM36.7496 3.15182L33.2688 1.24157L18.1128 9.67682L19.3211 10.3293L21.6183 11.5376L25.7786 9.22682L36.7518 3.11132L36.7496 3.15182ZM38.1513 2.57132C38.2415 2.59334 38.3245 2.63824 38.3923 2.70169C38.4601 2.76515 38.5104 2.84501 38.5383 2.93357L43.6143 17.9118C43.6663 18.0306 43.6702 18.1649 43.6253 18.2866C43.5805 18.4082 43.4902 18.5077 43.3736 18.5643C41.4358 19.6269 39.9136 21.3126 39.0536 23.3483C38.1935 25.3841 38.0461 27.6506 38.6351 29.7806C39.3379 32.0982 40.8296 34.0968 42.8515 35.4299C44.8734 36.763 47.298 37.3467 49.7051 37.0796C49.8372 37.0712 49.9687 37.1038 50.0815 37.1731C50.1943 37.2424 50.2829 37.3449 50.3351 37.4666L55.5798 52.8408C55.6128 52.9647 55.6072 53.0957 55.5638 53.2163C55.5204 53.3369 55.4412 53.4414 55.3368 53.5158L39.2156 62.9411C39.1383 62.9724 39.0559 62.9892 38.9726 62.9906C38.8238 63.0158 38.671 62.9904 38.5383 62.9186L32.8818 59.3636C32.7786 59.3101 32.6945 59.226 32.6411 59.1228L21.5936 33.7203L4.77032 43.2918C4.66966 43.3424 4.55932 43.3707 4.44676 43.375C4.3342 43.3793 4.22203 43.3594 4.11782 43.3166L0.292824 41.1408C0.167752 41.0737 0.0731239 40.9612 0.028356 40.8265C-0.0164119 40.6917 -0.00792543 40.545 0.0520742 40.4163L16.3961 9.40232C16.4572 9.29627 16.5501 9.21207 16.6616 9.16157L32.9538 0.073823C33.0429 0.0253789 33.1427 0 33.2441 0C33.3455 0 33.4453 0.0253789 33.5343 0.073823L38.1513 2.57132ZM17.9441 10.9008L17.1453 10.4913L1.39532 40.4883L4.27082 42.1083L17.8563 24.3333C17.9236 24.2523 18.0089 24.1881 18.1054 24.1459C18.2019 24.1037 18.3069 24.0847 18.4121 24.0903C18.5153 24.109 18.6128 24.1514 18.6968 24.2143C18.7807 24.2772 18.8489 24.3588 18.8958 24.4526L33.6896 58.5356L37.6428 60.9768L21.7623 14.5526L21.0873 12.6176L17.9216 10.8783L17.9441 10.9008ZM42.3093 28.7883C41.9487 27.4505 42.0509 26.03 42.5995 24.7577C43.1481 23.4853 44.1107 22.4358 45.3311 21.7796C46.5697 21.0867 47.9971 20.807 49.4056 20.981C50.8141 21.155 52.1305 21.7737 53.1633 22.7471C54.3321 23.871 55.0071 25.4129 55.04 27.0341C55.0729 28.6553 54.4611 30.2234 53.3388 31.3938L53.1633 31.5693C52.3533 32.3449 51.3589 32.9012 50.2741 33.1856C49.1893 33.4701 48.0499 33.4733 46.9635 33.1949C45.8772 32.9166 44.8797 32.3659 44.0653 31.5948C43.251 30.8238 42.6466 29.8579 42.3093 28.7883Z" fill="black"/>
</svg>
