<svg width="43" height="64" viewBox="0 0 43 64" fill="none" xmlns="http://www.w3.org/2000/svg">
<g clip-path="url(#clip0_440_4038)">
<path d="M10.75 63.9993C16.684 63.9993 21.5 59.2207 21.5 53.3327V42.666H10.75C4.816 42.666 0 47.4447 0 53.3327C0 59.2207 4.816 63.9993 10.75 63.9993Z" fill="#0ACF83"/>
<path d="M0 32.0007C0 26.1127 4.816 21.334 10.75 21.334H21.5V42.6673H10.75C4.816 42.6673 0 37.8887 0 32.0007Z" fill="#A259FF"/>
<path d="M0 10.6667C0 4.77867 4.816 0 10.75 0H21.5V21.3333H10.75C4.816 21.3333 0 16.5547 0 10.6667Z" fill="#F24E1E"/>
<path d="M21.5 0H32.25C38.184 0 43 4.77867 43 10.6667C43 16.5547 38.184 21.3333 32.25 21.3333H21.5V0Z" fill="#FF7262"/>
<path d="M43 32.0007C43 37.8887 38.184 42.6673 32.25 42.6673C26.316 42.6673 21.5 37.8887 21.5 32.0007C21.5 26.1127 26.316 21.334 32.25 21.334C38.184 21.334 43 26.1127 43 32.0007Z" fill="#1ABCFE"/>
</g>
<defs>
<clipPath id="clip0_440_4038">
<rect width="43" height="64" fill="white"/>
</clipPath>
</defs>
</svg>
