<svg width="64" height="64" viewBox="0 0 64 64" fill="none" xmlns="http://www.w3.org/2000/svg">
<g clip-path="url(#clip0_440_4044)">
<path d="M11.35 0.800781H52.7C58.95 0.800781 64.05 5.85078 64.05 12.1508V51.9008C64.05 58.1508 59 63.2508 52.7 63.2508H11.35C5.05 63.2008 0 58.1508 0 51.8508V12.1508C0 5.85078 5.05 0.800781 11.35 0.800781Z" fill="#330000"/>
<path d="M30.9505 38.1504H21.0005L19.0005 44.4004C18.9505 44.6504 18.7505 44.8004 18.5005 44.7504H13.5005C13.2005 44.7504 13.1505 44.6004 13.2005 44.2504L21.8005 19.5504C21.9005 19.3004 21.9505 19.0004 22.0505 18.6504C22.1505 18.1004 22.2005 17.5004 22.2005 16.9004C22.1505 16.7504 22.3005 16.6504 22.4005 16.6004H29.3005C29.5005 16.6004 29.6005 16.7004 29.6505 16.8004L39.4005 44.2504C39.5005 44.5504 39.4005 44.7004 39.1505 44.7004H33.5505C33.3505 44.7504 33.2005 44.6004 33.1005 44.4004L30.9505 38.1504ZM22.5505 32.7004H29.3005C29.1505 32.1504 28.9505 31.4504 28.7005 30.8004C28.4505 30.1004 28.2005 29.3004 28.0005 28.5004C27.7505 27.6504 27.5005 26.8504 27.2505 26.0504C27.0005 25.2004 26.7505 24.4504 26.5505 23.7004C26.3505 22.9504 26.1505 22.2504 25.9505 21.6004H25.9005C25.6505 22.7504 25.3505 23.9004 25.0005 25.0504C24.6005 26.3504 24.2005 27.6504 23.7505 29.0004C23.3505 30.3504 22.9505 31.6004 22.5505 32.7004ZM45.3505 21.3504C44.4505 21.4004 43.6005 21.0504 43.0005 20.4004C42.4005 19.7504 42.0505 18.8504 42.1005 17.9504C42.0505 17.0504 42.4005 16.2004 43.0505 15.6004C43.7005 15.0004 44.5505 14.6504 45.4005 14.6504C46.4505 14.6504 47.2505 14.9504 47.8505 15.6004C48.4505 16.2504 48.7505 17.1004 48.7505 17.9504C48.8005 18.8504 48.4505 19.7504 47.8005 20.4004C47.1505 21.0504 46.2505 21.4004 45.3505 21.3504ZM42.3505 44.5004V23.9504C42.3505 23.7004 42.4505 23.6004 42.7005 23.6004H48.0005C48.2505 23.6004 48.3505 23.7504 48.3505 23.9504V44.5004C48.3505 44.8004 48.2505 44.9504 48.0005 44.9504H42.7505C42.5005 44.9004 42.3505 44.7504 42.3505 44.5004Z" fill="#FF9A00"/>
</g>
<defs>
<clipPath id="clip0_440_4044">
<rect width="64" height="64" fill="white"/>
</clipPath>
</defs>
</svg>
