<svg width="64" height="64" viewBox="0 0 64 64" fill="none" xmlns="http://www.w3.org/2000/svg">
<g clip-path="url(#clip0_440_4061)">
<path d="M11.3335 0.800781H52.6665C58.9335 0.800781 64 5.86728 64 12.1343V51.8673C64 58.1343 58.9335 63.2008 52.6665 63.2008H11.3335C5.0665 63.2008 0 58.1343 0 51.8673V12.1343C0 5.86728 5.0665 0.800781 11.3335 0.800781Z" fill="#001E36"/>
<path d="M22.9319 16.666C22.1319 16.666 21.3319 16.666 20.5054 16.693C19.6784 16.7195 18.9049 16.7195 18.1849 16.7465C17.4649 16.773 16.7984 16.773 16.1584 16.7995C15.5449 16.826 15.1184 16.826 14.6649 16.826C14.4784 16.826 14.3984 16.9325 14.3984 17.1195V44.5595C14.3984 44.7995 14.5049 44.9065 14.7184 44.9065H19.8919C20.0784 44.8795 20.2119 44.7195 20.1849 44.533V35.973C20.6914 35.973 21.0649 35.973 21.3319 35.9995C21.5984 36.026 22.0249 36.026 22.6649 36.026C24.8519 36.026 26.8519 35.786 28.6649 35.1195C30.3984 34.4795 31.8919 33.3595 32.9584 31.866C34.0251 30.3727 34.5584 28.4793 34.5584 26.186C34.5584 24.986 34.3454 23.8395 33.9454 22.7195C33.5216 21.5785 32.8576 20.5418 31.9984 19.6795C30.9843 18.6943 29.7637 17.9473 28.4249 17.4925C26.9314 16.9325 25.1184 16.666 22.9319 16.666ZM23.5269 21.9185C24.4769 21.9365 25.4019 22.1025 26.2649 22.4525C27.0384 22.746 27.6784 23.2795 28.1319 23.9725C28.5573 24.6897 28.77 25.513 28.7454 26.3465C28.7454 27.5195 28.4784 28.4265 27.9184 29.093C27.3314 29.7595 26.5849 30.2665 25.7319 30.5065C24.7449 30.8265 23.7049 30.986 22.6649 30.986H21.2514C20.9314 30.986 20.5854 30.9595 20.2119 30.933V21.973C20.3984 21.946 20.7719 21.9195 21.3054 21.9465C21.8119 21.9195 22.4249 21.9195 23.1184 21.9195C23.2551 21.9162 23.3913 21.9158 23.5269 21.9185ZM45.8919 23.28C43.9984 23.28 42.4249 23.573 41.1719 24.213C40.0254 24.7465 39.0384 25.5995 38.3719 26.666C37.7854 27.653 37.4649 28.746 37.4649 29.893C37.4421 30.8364 37.6529 31.7708 38.0784 32.613C38.5772 33.5098 39.2696 34.2841 40.1054 34.8795C41.2785 35.6819 42.5515 36.3273 43.8919 36.7995C45.1984 37.306 46.0784 37.706 46.5054 38.0525C46.9319 38.3995 47.1454 38.746 47.1454 39.1195C47.1454 39.5995 46.8519 40.053 46.4254 40.2395C45.9454 40.4795 45.2254 40.613 44.2119 40.613C43.1454 40.613 42.0784 40.4795 41.0649 40.213C39.9012 39.9531 38.7855 39.5123 37.7584 38.9065C37.6784 38.853 37.5984 38.8265 37.5184 38.88C37.4384 38.933 37.4119 39.0395 37.4119 39.1195V43.7595C37.3854 43.973 37.5184 44.1595 37.7054 44.266C38.5702 44.67 39.4849 44.957 40.4254 45.1195C41.6254 45.3595 42.8249 45.466 44.0514 45.466C45.9714 45.466 47.5719 45.173 48.8784 44.613C50.0784 44.133 51.1184 43.3065 51.8649 42.2395C52.5641 41.1906 52.9269 39.9534 52.9049 38.693C52.9312 37.7409 52.7206 36.7971 52.2919 35.9465C51.7849 35.0395 51.0649 34.293 50.1849 33.733C48.8976 32.9246 47.5192 32.271 46.0784 31.786C45.4351 31.5197 44.8033 31.2261 44.1849 30.906C43.8384 30.7195 43.5184 30.4795 43.2784 30.186C43.1184 29.9725 43.0119 29.733 43.0119 29.493C43.0119 29.253 43.0919 28.9865 43.2249 28.773C43.4119 28.5065 43.7049 28.3195 44.0514 28.2395C44.5584 28.1065 45.1184 28.026 45.6514 28.0525C46.6649 28.0525 47.6514 28.186 48.6384 28.3995C49.5454 28.586 50.3984 28.8795 51.1984 29.3065C51.3049 29.3595 51.4384 29.3595 51.6784 29.3065C51.7201 29.2756 51.7539 29.2354 51.7771 29.189C51.8003 29.1426 51.8122 29.0914 51.8119 29.0395V24.693C51.8119 24.586 51.7849 24.4795 51.7584 24.373C51.7049 24.2665 51.5984 24.1595 51.4919 24.133C50.7564 23.8324 49.9858 23.6263 49.1984 23.5195C48.1035 23.3601 46.9984 23.2804 45.8919 23.28Z" fill="#31A8FF"/>
</g>
<defs>
<clipPath id="clip0_440_4061">
<rect width="64" height="64" fill="white"/>
</clipPath>
</defs>
</svg>
