<svg width="60" height="60" viewBox="0 0 60 60" fill="none" xmlns="http://www.w3.org/2000/svg">
<g clip-path="url(#clip0_440_4047)">
<mask id="mask0_440_4047" style="mask-type:alpha" maskUnits="userSpaceOnUse" x="0" y="0" width="60" height="60">
<path fill-rule="evenodd" clip-rule="evenodd" d="M42.5472 59.591C43.0247 59.7771 43.5353 59.863 44.0474 59.8433C44.5594 59.8236 45.062 59.6988 45.5238 59.4766L57.8767 53.5324C58.5129 53.2262 59.0497 52.7465 59.4253 52.1487C59.801 51.5509 60.0002 50.8592 60.0002 50.1532V9.84865C60.0003 9.14253 59.8011 8.45072 59.4255 7.85282C59.0498 7.25492 58.513 6.77524 57.8767 6.46896L45.5238 0.525677C44.8257 0.18982 44.0406 0.0792406 43.277 0.209242C42.5133 0.339243 41.809 0.703396 41.2614 1.2513L17.613 22.826L7.31267 15.0068C6.84795 14.6541 6.27449 14.4753 5.6917 14.5011C5.10892 14.527 4.55355 14.7559 4.12189 15.1483L0.818137 18.1535C0.560675 18.3877 0.354924 18.673 0.214046 18.9912C0.0731686 19.3095 0.000265448 19.6536 7.23543e-07 20.0016C-0.000264001 20.3496 0.0721155 20.6939 0.212509 21.0123C0.352903 21.3308 0.558219 21.6164 0.815324 21.851L9.74829 30.0007L0.815793 38.1508C0.558828 38.3854 0.353634 38.6711 0.213328 38.9895C0.0730217 39.3079 0.000689187 39.652 0.000953883 40C0.00121858 40.3479 0.0740747 40.692 0.214865 41.0102C0.355656 41.3283 0.561284 41.6137 0.818606 41.8479L4.12236 44.853C4.55397 45.2455 5.1093 45.4745 5.69209 45.5005C6.27487 45.5264 6.84836 45.3476 7.31314 44.9951L17.6134 37.1763L41.2619 58.7505C41.6279 59.1164 42.0652 59.4026 42.5472 59.591ZM45.0091 16.3802L27.0658 30.0007L45.0095 43.6216L45.0091 16.3802Z" fill="white"/>
</mask>
<g mask="url(#mask0_440_4047)">
<path d="M57.8783 6.47941L45.5155 0.526287C44.8173 0.19 44.0317 0.0791856 43.2677 0.209196C42.5037 0.339206 41.799 0.703605 41.2513 1.25191L0.780366 38.1514C0.523208 38.3859 0.317841 38.6715 0.177411 38.9899C0.0369799 39.3083 -0.0354203 39.6526 -0.0351555 40.0006C-0.0348908 40.3486 0.038033 40.6927 0.178948 41.0109C0.319863 41.3291 0.525664 41.6144 0.783178 41.8485L4.0888 44.8536C4.52054 45.2466 5.07625 45.4759 5.65945 45.5019C6.24266 45.5278 6.81653 45.3487 7.28146 44.9957L56.0179 8.02301C57.6529 6.78269 60.0013 7.94894 60.0013 10.0011V9.85769C60.0013 9.15179 59.8021 8.46021 59.4265 7.8625C59.051 7.26479 58.5143 6.78569 57.8783 6.47941Z" fill="#0065A9"/>
<g filter="url(#filter0_d_440_4047)">
<path d="M57.8783 53.5234L45.5155 59.4756C44.8174 59.812 44.0319 59.923 43.2679 59.7932C42.5039 59.6633 41.7991 59.2991 41.2513 58.7509L0.780366 21.8509C0.523208 21.6165 0.317841 21.3309 0.177411 21.0125C0.0369799 20.694 -0.0354203 20.3498 -0.0351555 20.0018C-0.0348908 19.6538 0.038033 19.3097 0.178948 18.9915C0.319863 18.6733 0.525664 18.388 0.783178 18.1539L4.0888 15.1488C4.52054 14.7558 5.07625 14.5265 5.65945 14.5005C6.24266 14.4746 6.81653 14.6537 7.28146 15.0067L56.0179 51.9789C57.6529 53.2197 60.0013 52.0534 60.0013 50.0013V50.1447C60.0013 50.8506 59.8021 51.5422 59.4265 52.1399C59.051 52.7376 58.5143 53.2172 57.8783 53.5234Z" fill="#007ACC"/>
</g>
<g filter="url(#filter1_d_440_4047)">
<path d="M45.5147 59.4772C44.8162 59.8128 44.0307 59.9232 43.2667 59.7932C42.5028 59.6631 41.7981 59.299 41.25 58.7511C42.6337 60.1348 45 59.1547 45 57.1976V2.80437C45 0.84734 42.6337 -0.132817 41.25 1.2514C41.7981 0.703522 42.5028 0.339388 43.2667 0.209318C44.0307 0.0792484 44.8162 0.189664 45.5147 0.525308L57.8752 6.47C58.5117 6.77607 59.0488 7.25567 59.4247 7.85359C59.8006 8.4515 60 9.14342 60 9.84968V50.1537C60 50.86 59.8006 51.5519 59.4247 52.1498C59.0488 52.7478 58.5117 53.2274 57.8752 53.5334L45.5147 59.4772Z" fill="#1F9CF0"/>
</g>
<path opacity="0.25" fill-rule="evenodd" clip-rule="evenodd" d="M42.5123 59.591C42.9897 59.777 43.5002 59.8629 44.0122 59.8432C44.5242 59.8235 45.0267 59.6987 45.4884 59.4766L57.8413 53.5324C58.4776 53.2261 59.0144 52.7464 59.3901 52.1485C59.7657 51.5506 59.9649 50.8588 59.9648 50.1527V9.84865C59.9649 9.14253 59.7657 8.45072 59.3901 7.85282C59.0144 7.25492 58.4776 6.77524 57.8413 6.46896L45.4884 0.525677C44.7904 0.18982 44.0052 0.0792406 43.2416 0.209242C42.4779 0.339243 41.7736 0.703396 41.226 1.2513L17.5776 22.826L7.27728 15.0072C6.81256 14.6546 6.2391 14.4757 5.65632 14.5016C5.07354 14.5274 4.51817 14.7564 4.0865 15.1488L0.782753 18.154C0.525356 18.3882 0.319663 18.6735 0.178826 18.9917C0.0379897 19.31 -0.0348908 19.6541 -0.0351555 20.0021C-0.0354202 20.3501 0.0369367 20.6943 0.177289 21.0128C0.317641 21.3312 0.5229 21.6169 0.779941 21.8515L9.71291 30.0007L0.780409 38.1504C0.523304 38.3849 0.317988 38.6706 0.177594 38.989C0.0372007 39.3075 -0.0351788 39.6517 -0.034914 39.9997C-0.0346493 40.3478 0.0382538 40.6919 0.179132 41.0101C0.32001 41.3284 0.52576 41.6137 0.783222 41.8479L4.08697 44.853C4.51858 45.2455 5.07392 45.4745 5.6567 45.5005C6.23949 45.5264 6.81298 45.3476 7.27775 44.9951L17.5785 37.1758L41.227 58.7505C41.5928 59.1163 42.0305 59.4025 42.5123 59.591ZM44.9742 16.3797L27.0304 30.0007L44.9742 43.6211V16.3797Z" fill="url(#paint0_linear_440_4047)"/>
</g>
</g>
<defs>
<filter id="filter0_d_440_4047" x="-1.07691" y="13.4563" width="62.1187" height="47.4312" filterUnits="userSpaceOnUse" color-interpolation-filters="sRGB">
<feFlood flood-opacity="0" result="BackgroundImageFix"/>
<feColorMatrix in="SourceAlpha" type="matrix" values="0 0 0 0 0 0 0 0 0 0 0 0 0 0 0 0 0 0 127 0" result="hardAlpha"/>
<feOffset/>
<feGaussianBlur stdDeviation="0.520875"/>
<feColorMatrix type="matrix" values="0 0 0 0 0 0 0 0 0 0 0 0 0 0 0 0 0 0 0.25 0"/>
<feBlend mode="overlay" in2="BackgroundImageFix" result="effect1_dropShadow_440_4047"/>
<feBlend mode="normal" in="SourceGraphic" in2="effect1_dropShadow_440_4047" result="shape"/>
</filter>
<filter id="filter1_d_440_4047" x="40.2083" y="-0.8855" width="20.8335" height="61.773" filterUnits="userSpaceOnUse" color-interpolation-filters="sRGB">
<feFlood flood-opacity="0" result="BackgroundImageFix"/>
<feColorMatrix in="SourceAlpha" type="matrix" values="0 0 0 0 0 0 0 0 0 0 0 0 0 0 0 0 0 0 127 0" result="hardAlpha"/>
<feOffset/>
<feGaussianBlur stdDeviation="0.520875"/>
<feColorMatrix type="matrix" values="0 0 0 0 0 0 0 0 0 0 0 0 0 0 0 0 0 0 0.25 0"/>
<feBlend mode="overlay" in2="BackgroundImageFix" result="effect1_dropShadow_440_4047"/>
<feBlend mode="normal" in="SourceGraphic" in2="effect1_dropShadow_440_4047" result="shape"/>
</filter>
<linearGradient id="paint0_linear_440_4047" x1="29.9648" y1="0.155365" x2="29.9648" y2="59.846" gradientUnits="userSpaceOnUse">
<stop stop-color="white"/>
<stop offset="1" stop-color="white" stop-opacity="0"/>
</linearGradient>
<clipPath id="clip0_440_4047">
<rect width="60" height="60" fill="white"/>
</clipPath>
</defs>
</svg>
