<svg width="1287" height="36" viewBox="0 0 1287 36" fill="none" xmlns="http://www.w3.org/2000/svg">
<g opacity="0.67">
<path d="M24.75 2.25H29.25V6.75H24.75V2.25ZM24.75 11.25V24.8962C24.747 26.05 24.2874 27.1557 23.4715 27.9715C22.6557 28.7874 21.55 29.247 20.3962 29.25H20.25V33.75H20.3962C21.5591 33.7506 22.7107 33.522 23.7851 33.0773C24.8596 32.6325 25.8359 31.9804 26.6581 31.1581C27.4804 30.3359 28.1325 29.3596 28.5773 28.2851C29.022 27.2107 29.2506 26.0591 29.25 24.8962V11.25H24.75ZM15.75 2.25H20.25V24.75H15.75V2.25Z" fill="#727272"/>
<path d="M13.3178 13.5C13.9625 13.5009 14.5807 13.7574 15.0366 14.2134C15.4926 14.6693 15.7491 15.2875 15.75 15.9323V21.5066L14.8837 21.7958C13.8623 22.1364 12.7648 22.1786 11.7203 21.9173C10.9428 21.7233 10.2527 21.2749 9.7597 20.6433C9.26673 20.0116 8.99929 19.2332 9 18.432V17.8166C9.00089 16.6719 9.45612 15.5743 10.2657 14.7649C11.0753 13.9555 12.173 13.5006 13.3178 13.5ZM13.3178 9C10.9795 9.0006 8.7372 9.92964 7.08372 11.5829C5.43023 13.2362 4.5009 15.4784 4.5 17.8166V18.432C4.49944 20.2367 5.10243 21.9898 6.21304 23.4123C7.32364 24.8348 8.87806 25.845 10.629 26.2822C12.5039 26.7511 14.4735 26.6753 16.3069 26.064L20.25 24.75V15.9323C20.2503 15.0218 20.0712 14.1202 19.7229 13.279C19.3746 12.4379 18.864 11.6735 18.2203 11.0298C17.5765 10.386 16.8121 9.87536 15.971 9.52708C15.1298 9.17881 14.2282 8.9997 13.3178 9Z" fill="#727272"/>
<path d="M49.9593 25H45.7214V11.9091H50.0936C51.3762 11.9091 52.4778 12.1712 53.3983 12.6953C54.3187 13.2152 55.024 13.9631 55.514 14.9389C56.0083 15.9105 56.2555 17.076 56.2555 18.4354C56.2555 19.799 56.0062 20.9709 55.5076 21.951C55.0133 22.9311 54.2974 23.6854 53.3599 24.2138C52.4224 24.7379 51.2889 25 49.9593 25ZM47.6966 23.2741H49.8507C50.8478 23.2741 51.6767 23.0866 52.3372 22.7116C52.9977 22.3324 53.492 21.7848 53.8201 21.0689C54.1483 20.3487 54.3123 19.4709 54.3123 18.4354C54.3123 17.4084 54.1483 16.5369 53.8201 15.821C53.4963 15.1051 53.0126 14.5618 52.3691 14.1911C51.7257 13.8203 50.9267 13.6349 49.9721 13.6349H47.6966V23.2741ZM58.5582 15.1818H60.4695V25.6392C60.4695 26.2955 60.3501 26.8494 60.1115 27.3011C59.8771 27.7528 59.5277 28.0959 59.0632 28.3303C58.603 28.5646 58.0341 28.6818 57.3565 28.6818C57.2884 28.6818 57.2244 28.6818 57.1648 28.6818C57.1009 28.6818 57.0348 28.6797 56.9666 28.6754V27.0327C57.0263 27.0327 57.0795 27.0327 57.1264 27.0327C57.169 27.0327 57.218 27.0327 57.2734 27.0327C57.7251 27.0327 58.0511 26.9112 58.2514 26.6683C58.456 26.4297 58.5582 26.0824 58.5582 25.6264V15.1818ZM59.5043 13.6669C59.1719 13.6669 58.8864 13.5561 58.6477 13.3345C58.4134 13.1087 58.2962 12.8402 58.2962 12.5291C58.2962 12.2138 58.4134 11.9453 58.6477 11.7237C58.8864 11.4979 59.1719 11.3849 59.5043 11.3849C59.8366 11.3849 60.12 11.4979 60.3544 11.7237C60.593 11.9453 60.7124 12.2138 60.7124 12.5291C60.7124 12.8402 60.593 13.1087 60.3544 13.3345C60.12 13.5561 59.8366 13.6669 59.5043 13.6669ZM65.8979 25.2173C65.2757 25.2173 64.7132 25.1023 64.2104 24.8722C63.7076 24.6378 63.3091 24.299 63.0151 23.8558C62.7253 23.4126 62.5804 22.8693 62.5804 22.2259C62.5804 21.6719 62.687 21.2159 62.9 20.858C63.1131 20.5 63.4007 20.2166 63.763 20.0078C64.1252 19.799 64.53 19.6413 64.9775 19.5348C65.4249 19.4283 65.8809 19.3473 66.3453 19.2919C66.9334 19.2237 67.4107 19.1683 67.7772 19.1257C68.1436 19.0788 68.41 19.0043 68.5762 18.902C68.7424 18.7997 68.8255 18.6335 68.8255 18.4034V18.3587C68.8255 17.8004 68.6678 17.3679 68.3525 17.0611C68.0414 16.7543 67.5769 16.6009 66.959 16.6009C66.3155 16.6009 65.8084 16.7436 65.4377 17.0291C65.0712 17.3104 64.8176 17.6236 64.677 17.9688L62.8809 17.5597C63.0939 16.9631 63.405 16.4815 63.8141 16.1151C64.2275 15.7443 64.7026 15.4759 65.2395 15.3097C65.7765 15.1392 66.3411 15.054 66.9334 15.054C67.3255 15.054 67.7409 15.1009 68.1799 15.1946C68.623 15.2841 69.0364 15.4503 69.4199 15.6932C69.8077 15.9361 70.1252 16.2834 70.3723 16.7351C70.6195 17.1825 70.7431 17.7642 70.7431 18.4801V25H68.8766V23.6577H68.7999C68.6763 23.9048 68.4909 24.1477 68.2438 24.3864C67.9966 24.625 67.6792 24.8232 67.2914 24.9808C66.9036 25.1385 66.4391 25.2173 65.8979 25.2173ZM66.3134 23.6832C66.8418 23.6832 67.2935 23.5788 67.6685 23.37C68.0478 23.1612 68.3354 22.8885 68.5314 22.5518C68.7317 22.2109 68.8319 21.8466 68.8319 21.4588V20.1932C68.7637 20.2614 68.6316 20.3253 68.4355 20.3849C68.2438 20.4403 68.0243 20.4893 67.7772 20.532C67.53 20.5703 67.2892 20.6065 67.0549 20.6406C66.8205 20.6705 66.6245 20.696 66.4668 20.7173C66.0961 20.7642 65.7573 20.843 65.4505 20.9538C65.1479 21.0646 64.905 21.2244 64.7218 21.4332C64.5428 21.6378 64.4533 21.9105 64.4533 22.2514C64.4533 22.7244 64.628 23.0824 64.9775 23.3253C65.3269 23.5639 65.7722 23.6832 66.3134 23.6832ZM75.1999 19.1705V25H73.2887V15.1818H75.1232V16.7798H75.2447C75.4705 16.2599 75.8242 15.8423 76.3058 15.527C76.7915 15.2116 77.4031 15.054 78.1403 15.054C78.8093 15.054 79.3952 15.1946 79.8981 15.4759C80.4009 15.7528 80.7908 16.1662 81.0678 16.7159C81.3448 17.2656 81.4833 17.9453 81.4833 18.755V25H79.5721V18.9851C79.5721 18.2734 79.3867 17.7173 79.016 17.3168C78.6452 16.9119 78.136 16.7095 77.4883 16.7095C77.0451 16.7095 76.6509 16.8054 76.3058 16.9972C75.9648 17.1889 75.6942 17.4702 75.494 17.8409C75.2979 18.2074 75.1999 18.6506 75.1999 19.1705ZM88.163 28.8864C87.3832 28.8864 86.712 28.7841 86.1495 28.5795C85.5913 28.375 85.1353 28.1044 84.7816 27.7678C84.4279 27.4311 84.1637 27.0625 83.989 26.6619L85.6317 25.9844C85.7468 26.1719 85.9002 26.37 86.092 26.5788C86.288 26.7919 86.5522 26.973 86.8846 27.1222C87.2212 27.2713 87.6538 27.3459 88.1822 27.3459C88.9066 27.3459 89.5053 27.169 89.9783 26.8153C90.4513 26.4659 90.6879 25.9077 90.6879 25.1406V23.2102H90.5664C90.4513 23.419 90.2852 23.6513 90.0678 23.907C89.8548 24.1626 89.5607 24.3842 89.1857 24.5717C88.8107 24.7592 88.3228 24.853 87.7219 24.853C86.9464 24.853 86.2475 24.6719 85.6254 24.3097C85.0075 23.9432 84.5174 23.4041 84.1552 22.6925C83.7972 21.9766 83.6183 21.0966 83.6183 20.0526C83.6183 19.0085 83.7951 18.1136 84.1488 17.3679C84.5067 16.6222 84.9968 16.0511 85.619 15.6548C86.2411 15.2543 86.9464 15.054 87.7347 15.054C88.3441 15.054 88.8363 15.1562 89.2113 15.3608C89.5863 15.5611 89.8782 15.7955 90.087 16.0639C90.3001 16.3324 90.4641 16.5689 90.5792 16.7734H90.7198V15.1818H92.5927V25.2173C92.5927 26.0611 92.3967 26.7536 92.0046 27.2947C91.6126 27.8359 91.082 28.2365 90.413 28.4964C89.7482 28.7564 88.9982 28.8864 88.163 28.8864ZM88.1438 23.2678C88.6935 23.2678 89.158 23.1399 89.5373 22.8842C89.9208 22.6243 90.2106 22.2536 90.4066 21.772C90.6069 21.2862 90.707 20.7045 90.707 20.027C90.707 19.3665 90.609 18.7848 90.413 18.282C90.217 17.7791 89.9293 17.3871 89.5501 17.1058C89.1708 16.8203 88.7021 16.6776 88.1438 16.6776C87.5685 16.6776 87.0891 16.8267 86.7056 17.125C86.3221 17.419 86.0323 17.8196 85.8363 18.3267C85.6445 18.8338 85.5487 19.4006 85.5487 20.027C85.5487 20.6705 85.6467 21.2351 85.8427 21.7209C86.0387 22.2067 86.3285 22.5859 86.712 22.8587C87.0998 23.1314 87.5771 23.2678 88.1438 23.2678ZM99.2915 25.1982C98.3711 25.1982 97.5678 24.9872 96.8817 24.5653C96.1957 24.1435 95.663 23.5533 95.2837 22.7947C94.9045 22.0362 94.7148 21.1499 94.7148 20.1357C94.7148 19.1172 94.9045 18.2266 95.2837 17.4638C95.663 16.701 96.1957 16.1087 96.8817 15.6868C97.5678 15.2649 98.3711 15.054 99.2915 15.054C100.212 15.054 101.015 15.2649 101.701 15.6868C102.387 16.1087 102.92 16.701 103.299 17.4638C103.679 18.2266 103.868 19.1172 103.868 20.1357C103.868 21.1499 103.679 22.0362 103.299 22.7947C102.92 23.5533 102.387 24.1435 101.701 24.5653C101.015 24.9872 100.212 25.1982 99.2915 25.1982ZM99.2979 23.5938C99.8945 23.5938 100.389 23.4361 100.781 23.1207C101.173 22.8054 101.463 22.3857 101.65 21.8615C101.842 21.3374 101.938 20.7599 101.938 20.1293C101.938 19.5028 101.842 18.9276 101.65 18.4034C101.463 17.875 101.173 17.451 100.781 17.1314C100.389 16.8118 99.8945 16.652 99.2979 16.652C98.6971 16.652 98.1985 16.8118 97.8022 17.1314C97.4102 17.451 97.1183 17.875 96.9265 18.4034C96.739 18.9276 96.6452 19.5028 96.6452 20.1293C96.6452 20.7599 96.739 21.3374 96.9265 21.8615C97.1183 22.3857 97.4102 22.8054 97.8022 23.1207C98.1985 23.4361 98.6971 23.5938 99.2979 23.5938Z" fill="#A6A6A6"/>
<g clip-path="url(#clip0_117_126)">
<path d="M183.001 21.2064C184.772 21.2064 186.207 19.771 186.207 18.0002C186.207 16.2294 184.772 14.7939 183.001 14.7939C181.23 14.7939 179.795 16.2294 179.795 18.0002C179.795 19.771 181.23 21.2064 183.001 21.2064Z" fill="#AEAEAE"/>
<path d="M195.179 12.7127C194.56 12.4877 193.913 12.2627 193.238 12.0658C193.407 11.3908 193.548 10.7158 193.66 10.0689C194.251 6.35645 193.604 3.74082 191.804 2.72832C191.27 2.41895 190.679 2.27832 190.004 2.27832C188.035 2.27832 185.532 3.74082 183.001 6.1877C180.47 3.74082 177.966 2.27832 175.998 2.27832C175.323 2.27832 174.732 2.41895 174.198 2.72832C172.398 3.76895 171.751 6.38457 172.341 10.0689C172.454 10.7158 172.595 11.3908 172.763 12.0658C172.088 12.2627 171.441 12.4596 170.823 12.7127C167.307 14.0627 165.395 15.9189 165.395 18.0002C165.395 20.0814 167.335 21.9377 170.823 23.2877C171.441 23.5127 172.088 23.7377 172.763 23.9346C172.595 24.6096 172.454 25.2846 172.341 25.9314C171.751 29.6439 172.398 32.2596 174.198 33.2721C174.732 33.5814 175.323 33.7221 175.998 33.7221C177.995 33.7221 180.498 32.2596 183.001 29.8127C185.532 32.2596 188.035 33.7221 190.004 33.7221C190.679 33.7221 191.27 33.5814 191.804 33.2721C193.604 32.2314 194.251 29.6158 193.66 25.9314C193.548 25.2846 193.407 24.6096 193.238 23.9346C193.913 23.7377 194.56 23.5408 195.179 23.2877C198.695 21.9377 200.607 20.0814 200.607 18.0002C200.607 15.9189 198.695 14.0627 195.179 12.7127ZM191.016 4.13457C192.17 4.80957 192.563 6.89082 192.085 9.84395C192.001 10.4346 191.86 11.0533 191.691 11.7002C190.229 11.3627 188.682 11.1377 187.051 10.9971C186.095 9.64707 185.11 8.4377 184.126 7.34082C186.207 5.2877 188.316 3.88145 190.032 3.88145C190.398 3.88145 190.735 3.96582 191.016 4.13457ZM187.866 20.8127C187.36 21.7127 186.77 22.6127 186.151 23.5127C185.11 23.5971 184.07 23.6252 183.001 23.6252C181.904 23.6252 180.863 23.5971 179.851 23.5127C179.232 22.6127 178.67 21.7127 178.163 20.8127C177.629 19.8846 177.123 18.9283 176.673 18.0002C177.123 17.0721 177.629 16.1158 178.163 15.1877C178.67 14.2877 179.26 13.3877 179.879 12.4877C180.92 12.4033 181.96 12.3752 183.029 12.3752C184.126 12.3752 185.166 12.4033 186.179 12.4877C186.798 13.3877 187.36 14.2877 187.866 15.1877C188.401 16.1158 188.907 17.0721 189.357 18.0002C188.879 18.9283 188.401 19.8564 187.866 20.8127ZM190.201 19.8846C190.623 20.8689 190.96 21.8252 191.27 22.7814C190.313 23.0064 189.301 23.1752 188.232 23.3158C188.57 22.7814 188.935 22.2189 189.245 21.6283C189.582 21.0377 189.891 20.4471 190.201 19.8846ZM183.001 27.5064C182.326 26.7752 181.679 25.9877 181.06 25.1721C181.707 25.2002 182.354 25.2283 183.001 25.2283C183.648 25.2283 184.295 25.2002 184.941 25.1721C184.323 25.9877 183.676 26.7752 183.001 27.5064ZM177.77 23.2877C176.701 23.1471 175.688 22.9783 174.732 22.7533C175.041 21.8252 175.379 20.8408 175.801 19.8564C176.11 20.4189 176.42 21.0096 176.757 21.5721C177.095 22.1908 177.432 22.7252 177.77 23.2877ZM175.801 16.1158C175.379 15.1314 175.041 14.1752 174.732 13.2189C175.688 12.9939 176.701 12.8252 177.77 12.6846C177.432 13.2189 177.066 13.7814 176.757 14.3721C176.42 14.9627 176.11 15.5533 175.801 16.1158ZM183.001 8.49395C183.676 9.2252 184.323 10.0127 184.941 10.8283C184.295 10.8002 183.648 10.7721 183.001 10.7721C182.354 10.7721 181.707 10.8002 181.06 10.8283C181.679 10.0127 182.326 9.2252 183.001 8.49395ZM189.245 14.4002L188.232 12.7127C189.301 12.8533 190.313 13.0221 191.27 13.2471C190.96 14.1752 190.623 15.1596 190.201 16.1439C189.891 15.5533 189.582 14.9627 189.245 14.4002ZM173.916 9.84395C173.438 6.89082 173.832 4.80957 174.985 4.13457C175.266 3.96582 175.604 3.88145 175.97 3.88145C177.657 3.88145 179.766 5.25957 181.876 7.34082C180.891 8.40957 179.907 9.64707 178.951 10.9971C177.32 11.1377 175.773 11.3908 174.31 11.7002C174.141 11.0533 174.029 10.4346 173.916 9.84395ZM166.97 18.0002C166.97 16.6783 168.573 15.2721 171.385 14.2314C171.948 14.0064 172.566 13.8096 173.185 13.6408C173.635 15.0471 174.198 16.5377 174.873 18.0283C174.198 19.5189 173.607 20.9814 173.185 22.3877C169.304 21.2627 166.97 19.5752 166.97 18.0002ZM174.985 31.8658C173.832 31.1908 173.438 29.1096 173.916 26.1564C174.001 25.5658 174.141 24.9471 174.31 24.3002C175.773 24.6377 177.32 24.8627 178.951 25.0033C179.907 26.3533 180.891 27.5627 181.876 28.6596C179.795 30.7127 177.685 32.1189 175.97 32.1189C175.604 32.1189 175.266 32.0346 174.985 31.8658ZM192.085 26.1564C192.563 29.1096 192.17 31.1908 191.016 31.8658C190.735 32.0346 190.398 32.1189 190.032 32.1189C188.345 32.1189 186.235 30.7408 184.126 28.6596C185.11 27.5908 186.095 26.3533 187.051 25.0033C188.682 24.8627 190.229 24.6096 191.691 24.3002C191.86 24.9471 191.973 25.5658 192.085 26.1564ZM194.616 21.7689C194.054 21.9939 193.435 22.1908 192.816 22.3596C192.366 20.9533 191.804 19.4627 191.129 17.9721C191.804 16.4814 192.395 15.0189 192.816 13.6127C196.698 14.7377 199.032 16.4252 199.032 18.0002C199.032 19.3221 197.401 20.7283 194.616 21.7689Z" fill="#AEAEAE"/>
</g>
<path d="M210.838 25V11.9091H215.504C216.518 11.9091 217.36 12.0838 218.029 12.4332C218.702 12.7827 219.205 13.2663 219.537 13.8842C219.87 14.4979 220.036 15.2074 220.036 16.0128C220.036 16.8139 219.867 17.5192 219.531 18.1286C219.198 18.7337 218.696 19.2045 218.022 19.5412C217.353 19.8778 216.512 20.0462 215.497 20.0462H211.963V18.3459H215.318C215.958 18.3459 216.478 18.2543 216.878 18.071C217.283 17.8878 217.579 17.6214 217.767 17.272C217.954 16.9226 218.048 16.5028 218.048 16.0128C218.048 15.5185 217.952 15.0902 217.76 14.728C217.573 14.3658 217.277 14.0888 216.872 13.897C216.471 13.701 215.945 13.603 215.293 13.603H212.813V25H210.838ZM217.3 19.0938L220.534 25H218.284L215.114 19.0938H217.3ZM226.394 25.1982C225.427 25.1982 224.594 24.9915 223.895 24.5781C223.2 24.1605 222.663 23.5746 222.284 22.8203C221.909 22.0618 221.722 21.1733 221.722 20.1548C221.722 19.1491 221.909 18.2628 222.284 17.4957C222.663 16.7287 223.192 16.13 223.869 15.6996C224.551 15.2692 225.348 15.054 226.26 15.054C226.814 15.054 227.351 15.1456 227.871 15.3288C228.391 15.5121 228.857 15.7997 229.271 16.1918C229.684 16.5838 230.01 17.093 230.249 17.7195C230.487 18.3416 230.607 19.098 230.607 19.9886V20.6662H222.802V19.2344H228.734C228.734 18.7315 228.631 18.2862 228.427 17.8984C228.222 17.5064 227.935 17.1974 227.564 16.9716C227.198 16.7457 226.767 16.6328 226.273 16.6328C225.736 16.6328 225.267 16.7649 224.867 17.0291C224.47 17.2891 224.163 17.63 223.946 18.0518C223.733 18.4695 223.627 18.9233 223.627 19.4134V20.532C223.627 21.1882 223.742 21.7464 223.972 22.2067C224.206 22.6669 224.532 23.0185 224.95 23.2614C225.367 23.5 225.855 23.6193 226.413 23.6193C226.776 23.6193 227.106 23.5682 227.404 23.4659C227.703 23.3594 227.96 23.2017 228.178 22.9929C228.395 22.7841 228.561 22.5263 228.676 22.2195L230.485 22.5455C230.34 23.0781 230.08 23.5447 229.705 23.9453C229.335 24.3416 228.868 24.6506 228.305 24.8722C227.747 25.0895 227.11 25.1982 226.394 25.1982ZM235.584 25.2173C234.962 25.2173 234.4 25.1023 233.897 24.8722C233.394 24.6378 232.996 24.299 232.702 23.8558C232.412 23.4126 232.267 22.8693 232.267 22.2259C232.267 21.6719 232.373 21.2159 232.587 20.858C232.8 20.5 233.087 20.2166 233.449 20.0078C233.812 19.799 234.217 19.6413 234.664 19.5348C235.111 19.4283 235.567 19.3473 236.032 19.2919C236.62 19.2237 237.097 19.1683 237.464 19.1257C237.83 19.0788 238.097 19.0043 238.263 18.902C238.429 18.7997 238.512 18.6335 238.512 18.4034V18.3587C238.512 17.8004 238.354 17.3679 238.039 17.0611C237.728 16.7543 237.263 16.6009 236.646 16.6009C236.002 16.6009 235.495 16.7436 235.124 17.0291C234.758 17.3104 234.504 17.6236 234.364 17.9688L232.567 17.5597C232.78 16.9631 233.092 16.4815 233.501 16.1151C233.914 15.7443 234.389 15.4759 234.926 15.3097C235.463 15.1392 236.028 15.054 236.62 15.054C237.012 15.054 237.427 15.1009 237.866 15.1946C238.31 15.2841 238.723 15.4503 239.106 15.6932C239.494 15.9361 239.812 16.2834 240.059 16.7351C240.306 17.1825 240.43 17.7642 240.43 18.4801V25H238.563V23.6577H238.486C238.363 23.9048 238.177 24.1477 237.93 24.3864C237.683 24.625 237.366 24.8232 236.978 24.9808C236.59 25.1385 236.126 25.2173 235.584 25.2173ZM236 23.6832C236.528 23.6832 236.98 23.5788 237.355 23.37C237.734 23.1612 238.022 22.8885 238.218 22.5518C238.418 22.2109 238.518 21.8466 238.518 21.4588V20.1932C238.45 20.2614 238.318 20.3253 238.122 20.3849C237.93 20.4403 237.711 20.4893 237.464 20.532C237.217 20.5703 236.976 20.6065 236.741 20.6406C236.507 20.6705 236.311 20.696 236.153 20.7173C235.783 20.7642 235.444 20.843 235.137 20.9538C234.834 21.0646 234.592 21.2244 234.408 21.4332C234.229 21.6378 234.14 21.9105 234.14 22.2514C234.14 22.7244 234.315 23.0824 234.664 23.3253C235.013 23.5639 235.459 23.6832 236 23.6832ZM247.111 25.1982C246.161 25.1982 245.342 24.983 244.656 24.5526C243.975 24.1179 243.45 23.5192 243.084 22.7564C242.717 21.9936 242.534 21.12 242.534 20.1357C242.534 19.1385 242.722 18.2585 243.097 17.4957C243.472 16.7287 244 16.13 244.682 15.6996C245.364 15.2692 246.167 15.054 247.092 15.054C247.837 15.054 248.502 15.1925 249.086 15.4695C249.67 15.7422 250.141 16.1257 250.499 16.62C250.861 17.1143 251.076 17.6918 251.144 18.3523H249.284C249.182 17.892 248.948 17.4957 248.581 17.1634C248.219 16.831 247.733 16.6648 247.124 16.6648C246.591 16.6648 246.124 16.8054 245.724 17.0866C245.328 17.3636 245.019 17.7599 244.797 18.2756C244.575 18.7869 244.465 19.392 244.465 20.0909C244.465 20.8068 244.573 21.4247 244.791 21.9446C245.008 22.4645 245.315 22.8672 245.711 23.1527C246.112 23.4382 246.582 23.581 247.124 23.581C247.486 23.581 247.814 23.5149 248.108 23.3828C248.406 23.2464 248.656 23.0526 248.856 22.8011C249.06 22.5497 249.203 22.2472 249.284 21.8935H251.144C251.076 22.5284 250.869 23.0952 250.524 23.5938C250.179 24.0923 249.717 24.4844 249.137 24.7699C248.562 25.0554 247.886 25.1982 247.111 25.1982ZM257.771 15.1818V16.7159H252.408V15.1818H257.771ZM253.847 12.8295H255.758V22.1172C255.758 22.4879 255.813 22.767 255.924 22.9545C256.035 23.1378 256.177 23.2635 256.352 23.3317C256.531 23.3956 256.725 23.4276 256.934 23.4276C257.087 23.4276 257.222 23.4169 257.337 23.3956C257.452 23.3743 257.541 23.3572 257.605 23.3445L257.95 24.9233C257.839 24.9659 257.682 25.0085 257.477 25.0511C257.273 25.098 257.017 25.1236 256.71 25.1278C256.207 25.1364 255.739 25.0469 255.304 24.8594C254.869 24.6719 254.518 24.3821 254.249 23.9901C253.981 23.598 253.847 23.1058 253.847 22.5135V12.8295Z" fill="#A6A6A6"/>
<g clip-path="url(#clip1_117_126)">
<path d="M335.013 2L319 17.9157L323.956 22.8419L344.926 2H335.013ZM334.901 16.6772L326.328 25.1989L331.302 30.2175L336.25 25.3004L344.926 16.6772H334.901Z" fill="#A1A1A1"/>
<path d="M331.303 30.2179L335.069 33.9612H344.926L336.25 25.3008L331.303 30.2179Z" fill="#4F4F4F"/>
<path d="M326.271 25.2544L331.228 20.3281L336.249 25.3005L331.302 30.2176L326.271 25.2544Z" fill="#7C7C7C"/>
</g>
<path d="M358.69 25V11.9091H366.808V13.6094H360.665V17.598H366.226V19.2919H360.665V25H358.69ZM370.995 11.9091V25H369.084V11.9091H370.995ZM379.786 20.9283V15.1818H381.703V25H379.824V23.2997H379.722C379.496 23.8239 379.134 24.2607 378.635 24.6101C378.141 24.9553 377.525 25.1278 376.788 25.1278C376.157 25.1278 375.599 24.9893 375.113 24.7124C374.631 24.4311 374.252 24.0156 373.975 23.4659C373.702 22.9162 373.566 22.2365 373.566 21.4268V15.1818H375.477V21.1967C375.477 21.8658 375.663 22.3984 376.033 22.7947C376.404 23.1911 376.886 23.3892 377.478 23.3892C377.836 23.3892 378.192 23.2997 378.545 23.1207C378.903 22.9418 379.2 22.6712 379.434 22.3089C379.673 21.9467 379.79 21.4865 379.786 20.9283ZM388.854 15.1818V16.7159H383.491V15.1818H388.854ZM384.93 12.8295H386.841V22.1172C386.841 22.4879 386.896 22.767 387.007 22.9545C387.118 23.1378 387.26 23.2635 387.435 23.3317C387.614 23.3956 387.808 23.4276 388.017 23.4276C388.17 23.4276 388.305 23.4169 388.42 23.3956C388.535 23.3743 388.624 23.3572 388.688 23.3445L389.033 24.9233C388.922 24.9659 388.765 25.0085 388.56 25.0511C388.356 25.098 388.1 25.1236 387.793 25.1278C387.29 25.1364 386.822 25.0469 386.387 24.8594C385.952 24.6719 385.601 24.3821 385.332 23.9901C385.064 23.598 384.93 23.1058 384.93 22.5135V12.8295ZM395.551 15.1818V16.7159H390.189V15.1818H395.551ZM391.627 12.8295H393.538V22.1172C393.538 22.4879 393.593 22.767 393.704 22.9545C393.815 23.1378 393.958 23.2635 394.132 23.3317C394.311 23.3956 394.505 23.4276 394.714 23.4276C394.868 23.4276 395.002 23.4169 395.117 23.3956C395.232 23.3743 395.321 23.3572 395.385 23.3445L395.73 24.9233C395.62 24.9659 395.462 25.0085 395.257 25.0511C395.053 25.098 394.797 25.1236 394.49 25.1278C393.988 25.1364 393.519 25.0469 393.084 24.8594C392.65 24.6719 392.298 24.3821 392.029 23.9901C391.761 23.598 391.627 23.1058 391.627 22.5135V12.8295ZM401.792 25.1982C400.824 25.1982 399.991 24.9915 399.292 24.5781C398.598 24.1605 398.061 23.5746 397.682 22.8203C397.307 22.0618 397.119 21.1733 397.119 20.1548C397.119 19.1491 397.307 18.2628 397.682 17.4957C398.061 16.7287 398.589 16.13 399.267 15.6996C399.949 15.2692 400.746 15.054 401.657 15.054C402.211 15.054 402.748 15.1456 403.268 15.3288C403.788 15.5121 404.255 15.7997 404.668 16.1918C405.081 16.5838 405.407 17.093 405.646 17.7195C405.885 18.3416 406.004 19.098 406.004 19.9886V20.6662H398.199V19.2344H404.131C404.131 18.7315 404.029 18.2862 403.824 17.8984C403.62 17.5064 403.332 17.1974 402.961 16.9716C402.595 16.7457 402.165 16.6328 401.67 16.6328C401.133 16.6328 400.665 16.7649 400.264 17.0291C399.868 17.2891 399.561 17.63 399.344 18.0518C399.131 18.4695 399.024 18.9233 399.024 19.4134V20.532C399.024 21.1882 399.139 21.7464 399.369 22.2067C399.604 22.6669 399.93 23.0185 400.347 23.2614C400.765 23.5 401.253 23.6193 401.811 23.6193C402.173 23.6193 402.503 23.5682 402.802 23.4659C403.1 23.3594 403.358 23.2017 403.575 22.9929C403.792 22.7841 403.959 22.5263 404.074 22.2195L405.883 22.5455C405.738 23.0781 405.478 23.5447 405.103 23.9453C404.732 24.3416 404.265 24.6506 403.703 24.8722C403.145 25.0895 402.508 25.1982 401.792 25.1982ZM408.125 25V15.1818H409.972V16.7415H410.074C410.253 16.2131 410.569 15.7976 411.02 15.495C411.476 15.1882 411.992 15.0348 412.567 15.0348C412.686 15.0348 412.827 15.0391 412.989 15.0476C413.155 15.0561 413.285 15.0668 413.379 15.0795V16.9077C413.302 16.8864 413.166 16.8629 412.97 16.8374C412.774 16.8075 412.578 16.7926 412.382 16.7926C411.93 16.7926 411.527 16.8885 411.174 17.0803C410.824 17.2678 410.547 17.5298 410.343 17.8665C410.138 18.1989 410.036 18.5781 410.036 19.0043V25H408.125Z" fill="#A6A6A6"/>
<path d="M521.936 30.9397C521.92 30.8414 521.904 30.7437 521.888 30.6466C521.472 28.1383 520.661 25.7118 519.486 23.4574C518.335 21.2484 516.85 19.2305 515.082 17.4753C513.792 16.192 512.361 15.0579 510.817 14.0944L510.844 14.0473L512.3 11.535L514.744 7.31859C514.825 7.17881 514.889 7.03503 514.936 6.88728C515.032 6.58758 515.064 6.2708 515.028 5.95803C514.992 5.64526 514.89 5.34368 514.729 5.07336C514.542 4.75871 514.278 4.49629 513.963 4.31029C513.676 4.14002 513.355 4.03661 513.023 4.00773C512.769 3.98661 512.513 4.00885 512.266 4.07352C511.985 4.1479 511.722 4.27686 511.492 4.45302C511.261 4.62917 511.068 4.84906 510.923 5.10009L509.901 6.86265L508.479 9.31651C507.994 10.1545 507.508 10.9911 507.022 11.8291L506.863 12.1042C506.79 12.0749 506.717 12.0461 506.644 12.0177C503.895 10.971 500.978 10.4364 498.037 10.4402C497.954 10.4399 497.871 10.4404 497.788 10.4416C495.165 10.4656 492.563 10.9172 490.085 11.7785C489.806 11.876 489.53 11.9788 489.255 12.0866C489.206 12.0012 489.156 11.9157 489.107 11.8298L487.651 9.31791L485.207 5.10115C484.997 4.73799 484.688 4.44227 484.316 4.24876C483.944 4.05525 483.525 3.972 483.107 4.00879C482.774 4.03695 482.453 4.14042 482.166 4.31134C481.669 4.60583 481.309 5.08388 481.161 5.64223C481.053 6.05196 481.064 6.4843 481.193 6.88798C481.241 7.03574 481.304 7.17998 481.385 7.3193C481.726 7.90681 482.067 8.49433 482.406 9.08185C482.881 9.89969 483.355 10.7176 483.829 11.5357L485.285 14.048L485.297 14.0691C483.737 15.0385 482.293 16.1818 480.991 17.477C480.021 18.4408 479.135 19.4846 478.341 20.5976C477.69 21.5092 477.104 22.4654 476.587 23.4592C475.694 25.1714 475.011 26.9849 474.551 28.8605C474.407 29.4518 474.285 30.0483 474.185 30.6487C474.169 30.7463 474.153 30.844 474.139 30.9418C474.084 31.2934 474.038 31.6463 474 32H522.07C522.031 31.6449 521.985 31.2922 521.932 30.9418L521.936 30.9397Z" fill="#B9B9B9"/>
<path d="M510.539 25.3514C511.501 24.7111 511.641 23.23 510.851 22.0427C510.062 20.8557 508.642 20.4128 507.681 21.053C506.719 21.6933 506.579 23.1744 507.369 24.3614C508.158 25.5488 509.578 25.9917 510.539 25.3514ZM488.744 24.3657C489.534 23.1787 489.394 21.6972 488.432 21.0569C487.47 20.4166 486.051 20.8599 485.261 22.0469C484.472 23.2339 484.612 24.7154 485.573 25.3557C486.535 25.9959 487.955 25.5527 488.744 24.3657Z" fill="#222222"/>
<path d="M546.152 11.9091V25H544.336L537.682 15.3991H537.561V25H535.586V11.9091H537.414L544.074 21.5227H544.196V11.9091H546.152ZM551.737 25.2173C551.115 25.2173 550.552 25.1023 550.049 24.8722C549.546 24.6378 549.148 24.299 548.854 23.8558C548.564 23.4126 548.419 22.8693 548.419 22.2259C548.419 21.6719 548.526 21.2159 548.739 20.858C548.952 20.5 549.24 20.2166 549.602 20.0078C549.964 19.799 550.369 19.6413 550.816 19.5348C551.264 19.4283 551.72 19.3473 552.184 19.2919C552.772 19.2237 553.25 19.1683 553.616 19.1257C553.983 19.0788 554.249 19.0043 554.415 18.902C554.581 18.7997 554.664 18.6335 554.664 18.4034V18.3587C554.664 17.8004 554.507 17.3679 554.191 17.0611C553.88 16.7543 553.416 16.6009 552.798 16.6009C552.154 16.6009 551.647 16.7436 551.277 17.0291C550.91 17.3104 550.657 17.6236 550.516 17.9688L548.72 17.5597C548.933 16.9631 549.244 16.4815 549.653 16.1151C550.066 15.7443 550.541 15.4759 551.078 15.3097C551.615 15.1392 552.18 15.054 552.772 15.054C553.164 15.054 553.58 15.1009 554.019 15.1946C554.462 15.2841 554.875 15.4503 555.259 15.6932C555.647 15.9361 555.964 16.2834 556.211 16.7351C556.458 17.1825 556.582 17.7642 556.582 18.4801V25H554.715V23.6577H554.639C554.515 23.9048 554.33 24.1477 554.083 24.3864C553.835 24.625 553.518 24.8232 553.13 24.9808C552.742 25.1385 552.278 25.2173 551.737 25.2173ZM552.152 23.6832C552.681 23.6832 553.132 23.5788 553.507 23.37C553.887 23.1612 554.174 22.8885 554.37 22.5518C554.571 22.2109 554.671 21.8466 554.671 21.4588V20.1932C554.603 20.2614 554.47 20.3253 554.274 20.3849C554.083 20.4403 553.863 20.4893 553.616 20.532C553.369 20.5703 553.128 20.6065 552.894 20.6406C552.659 20.6705 552.463 20.696 552.306 20.7173C551.935 20.7642 551.596 20.843 551.289 20.9538C550.987 21.0646 550.744 21.2244 550.561 21.4332C550.382 21.6378 550.292 21.9105 550.292 22.2514C550.292 22.7244 550.467 23.0824 550.816 23.3253C551.166 23.5639 551.611 23.6832 552.152 23.6832ZM563.711 15.1818V16.7159H558.348V15.1818H563.711ZM559.786 12.8295H561.697V22.1172C561.697 22.4879 561.753 22.767 561.863 22.9545C561.974 23.1378 562.117 23.2635 562.292 23.3317C562.471 23.3956 562.665 23.4276 562.873 23.4276C563.027 23.4276 563.161 23.4169 563.276 23.3956C563.391 23.3743 563.481 23.3572 563.544 23.3445L563.89 24.9233C563.779 24.9659 563.621 25.0085 563.417 25.0511C563.212 25.098 562.956 25.1236 562.65 25.1278C562.147 25.1364 561.678 25.0469 561.243 24.8594C560.809 24.6719 560.457 24.3821 560.189 23.9901C559.92 23.598 559.786 23.1058 559.786 22.5135V12.8295ZM565.825 25V15.1818H567.736V25H565.825ZM566.79 13.6669C566.458 13.6669 566.172 13.5561 565.934 13.3345C565.699 13.1087 565.582 12.8402 565.582 12.5291C565.582 12.2138 565.699 11.9453 565.934 11.7237C566.172 11.4979 566.458 11.3849 566.79 11.3849C567.122 11.3849 567.406 11.4979 567.64 11.7237C567.879 11.9453 567.998 12.2138 567.998 12.5291C567.998 12.8402 567.879 13.1087 567.64 13.3345C567.406 13.5561 567.122 13.6669 566.79 13.6669ZM578.706 15.1818L575.146 25H573.101L569.534 15.1818H571.586L574.072 22.7372H574.174L576.655 15.1818H578.706ZM584.4 25.1982C583.433 25.1982 582.6 24.9915 581.901 24.5781C581.206 24.1605 580.669 23.5746 580.29 22.8203C579.915 22.0618 579.728 21.1733 579.728 20.1548C579.728 19.1491 579.915 18.2628 580.29 17.4957C580.669 16.7287 581.198 16.13 581.875 15.6996C582.557 15.2692 583.354 15.054 584.266 15.054C584.82 15.054 585.357 15.1456 585.877 15.3288C586.397 15.5121 586.863 15.7997 587.277 16.1918C587.69 16.5838 588.016 17.093 588.255 17.7195C588.493 18.3416 588.612 19.098 588.612 19.9886V20.6662H580.808V19.2344H586.74C586.74 18.7315 586.637 18.2862 586.433 17.8984C586.228 17.5064 585.941 17.1974 585.57 16.9716C585.203 16.7457 584.773 16.6328 584.279 16.6328C583.742 16.6328 583.273 16.7649 582.872 17.0291C582.476 17.2891 582.169 17.63 581.952 18.0518C581.739 18.4695 581.632 18.9233 581.632 19.4134V20.532C581.632 21.1882 581.747 21.7464 581.978 22.2067C582.212 22.6669 582.538 23.0185 582.956 23.2614C583.373 23.5 583.861 23.6193 584.419 23.6193C584.782 23.6193 585.112 23.5682 585.41 23.4659C585.708 23.3594 585.966 23.2017 586.184 22.9929C586.401 22.7841 586.567 22.5263 586.682 22.2195L588.491 22.5455C588.346 23.0781 588.086 23.5447 587.711 23.9453C587.34 24.3416 586.874 24.6506 586.311 24.8722C585.753 25.0895 585.116 25.1982 584.4 25.1982ZM596.756 25H594.659L599.37 11.9091H601.652L606.363 25H604.267L600.566 14.2869H600.463L596.756 25ZM597.108 19.8736H603.909V21.5355H597.108V19.8736ZM610.011 19.1705V25H608.1V15.1818H609.935V16.7798H610.056C610.282 16.2599 610.636 15.8423 611.117 15.527C611.603 15.2116 612.215 15.054 612.952 15.054C613.621 15.054 614.207 15.1946 614.71 15.4759C615.212 15.7528 615.602 16.1662 615.879 16.7159C616.156 17.2656 616.295 17.9453 616.295 18.755V25H614.384V18.9851C614.384 18.2734 614.198 17.7173 613.828 17.3168C613.457 16.9119 612.948 16.7095 612.3 16.7095C611.857 16.7095 611.462 16.8054 611.117 16.9972C610.776 17.1889 610.506 17.4702 610.305 17.8409C610.109 18.2074 610.011 18.6506 610.011 19.1705ZM622.533 25.1918C621.741 25.1918 621.033 24.9893 620.411 24.5845C619.793 24.1754 619.308 23.5937 618.954 22.8395C618.604 22.081 618.43 21.1712 618.43 20.1101C618.43 19.049 618.607 18.1413 618.96 17.3871C619.318 16.6328 619.808 16.0554 620.43 15.6548C621.053 15.2543 621.758 15.054 622.546 15.054C623.156 15.054 623.646 15.1562 624.016 15.3608C624.391 15.5611 624.681 15.7955 624.886 16.0639C625.095 16.3324 625.256 16.5689 625.372 16.7734H625.487V11.9091H627.398V25H625.531V23.4723H625.372C625.256 23.6811 625.09 23.9197 624.873 24.1882C624.66 24.4567 624.366 24.6911 623.991 24.8913C623.616 25.0916 623.13 25.1918 622.533 25.1918ZM622.955 23.5618C623.505 23.5618 623.97 23.4169 624.349 23.1271C624.732 22.8331 625.022 22.4261 625.218 21.9062C625.418 21.3864 625.519 20.7812 625.519 20.0909C625.519 19.4091 625.421 18.8125 625.225 18.3011C625.028 17.7898 624.741 17.3913 624.362 17.1058C623.982 16.8203 623.514 16.6776 622.955 16.6776C622.38 16.6776 621.901 16.8267 621.517 17.125C621.134 17.4233 620.844 17.8303 620.648 18.3459C620.456 18.8615 620.36 19.4432 620.36 20.0909C620.36 20.7472 620.458 21.3374 620.654 21.8615C620.85 22.3857 621.14 22.8011 621.524 23.108C621.911 23.4105 622.389 23.5618 622.955 23.5618ZM630.126 25V15.1818H631.973V16.7415H632.075C632.254 16.2131 632.57 15.7976 633.021 15.495C633.477 15.1882 633.993 15.0348 634.568 15.0348C634.687 15.0348 634.828 15.0391 634.99 15.0476C635.156 15.0561 635.286 15.0668 635.38 15.0795V16.9077C635.303 16.8864 635.167 16.8629 634.971 16.8374C634.775 16.8075 634.579 16.7926 634.383 16.7926C633.931 16.7926 633.528 16.8885 633.175 17.0803C632.825 17.2678 632.548 17.5298 632.344 17.8665C632.139 18.1989 632.037 18.5781 632.037 19.0043V25H630.126ZM640.818 25.1982C639.897 25.1982 639.094 24.9872 638.408 24.5653C637.722 24.1435 637.189 23.5533 636.81 22.7947C636.431 22.0362 636.241 21.1499 636.241 20.1357C636.241 19.1172 636.431 18.2266 636.81 17.4638C637.189 16.701 637.722 16.1087 638.408 15.6868C639.094 15.2649 639.897 15.054 640.818 15.054C641.738 15.054 642.542 15.2649 643.228 15.6868C643.914 16.1087 644.446 16.701 644.826 17.4638C645.205 18.2266 645.395 19.1172 645.395 20.1357C645.395 21.1499 645.205 22.0362 644.826 22.7947C644.446 23.5533 643.914 24.1435 643.228 24.5653C642.542 24.9872 641.738 25.1982 640.818 25.1982ZM640.824 23.5938C641.421 23.5938 641.915 23.4361 642.307 23.1207C642.699 22.8054 642.989 22.3857 643.177 21.8615C643.368 21.3374 643.464 20.7599 643.464 20.1293C643.464 19.5028 643.368 18.9276 643.177 18.4034C642.989 17.875 642.699 17.451 642.307 17.1314C641.915 16.8118 641.421 16.652 640.824 16.652C640.223 16.652 639.725 16.8118 639.329 17.1314C638.937 17.451 638.645 17.875 638.453 18.4034C638.265 18.9276 638.172 19.5028 638.172 20.1293C638.172 20.7599 638.265 21.3374 638.453 21.8615C638.645 22.3857 638.937 22.8054 639.329 23.1207C639.725 23.4361 640.223 23.5938 640.824 23.5938ZM647.528 25V15.1818H649.439V25H647.528ZM648.493 13.6669C648.161 13.6669 647.875 13.5561 647.637 13.3345C647.402 13.1087 647.285 12.8402 647.285 12.5291C647.285 12.2138 647.402 11.9453 647.637 11.7237C647.875 11.4979 648.161 11.3849 648.493 11.3849C648.826 11.3849 649.109 11.4979 649.343 11.7237C649.582 11.9453 649.701 12.2138 649.701 12.5291C649.701 12.8402 649.582 13.1087 649.343 13.3345C649.109 13.5561 648.826 13.6669 648.493 13.6669ZM655.686 25.1918C654.893 25.1918 654.186 24.9893 653.564 24.5845C652.946 24.1754 652.46 23.5937 652.106 22.8395C651.757 22.081 651.582 21.1712 651.582 20.1101C651.582 19.049 651.759 18.1413 652.113 17.3871C652.471 16.6328 652.961 16.0554 653.583 15.6548C654.205 15.2543 654.91 15.054 655.699 15.054C656.308 15.054 656.798 15.1562 657.169 15.3608C657.544 15.5611 657.834 15.7955 658.038 16.0639C658.247 16.3324 658.409 16.5689 658.524 16.7734H658.639V11.9091H660.55V25H658.684V23.4723H658.524C658.409 23.6811 658.243 23.9197 658.025 24.1882C657.812 24.4567 657.518 24.6911 657.143 24.8913C656.768 25.0916 656.282 25.1918 655.686 25.1918ZM656.108 23.5618C656.657 23.5618 657.122 23.4169 657.501 23.1271C657.885 22.8331 658.174 22.4261 658.37 21.9062C658.571 21.3864 658.671 20.7812 658.671 20.0909C658.671 19.4091 658.573 18.8125 658.377 18.3011C658.181 17.7898 657.893 17.3913 657.514 17.1058C657.135 16.8203 656.666 16.6776 656.108 16.6776C655.532 16.6776 655.053 16.8267 654.669 17.125C654.286 17.4233 653.996 17.8303 653.8 18.3459C653.608 18.8615 653.513 19.4432 653.513 20.0909C653.513 20.7472 653.611 21.3374 653.807 21.8615C654.003 22.3857 654.292 22.8011 654.676 23.108C655.064 23.4105 655.541 23.5618 656.108 23.5618Z" fill="#A6A6A6"/>
<g clip-path="url(#clip2_117_126)">
<path d="M740.071 21.2064C741.842 21.2064 743.278 19.771 743.278 18.0002C743.278 16.2294 741.842 14.7939 740.071 14.7939C738.301 14.7939 736.865 16.2294 736.865 18.0002C736.865 19.771 738.301 21.2064 740.071 21.2064Z" fill="#AEAEAE"/>
<path d="M752.249 12.7127C751.63 12.4877 750.984 12.2627 750.309 12.0658C750.477 11.3908 750.618 10.7158 750.73 10.0689C751.321 6.35645 750.674 3.74082 748.874 2.72832C748.34 2.41895 747.749 2.27832 747.074 2.27832C745.105 2.27832 742.602 3.74082 740.071 6.1877C737.54 3.74082 735.037 2.27832 733.068 2.27832C732.393 2.27832 731.802 2.41895 731.268 2.72832C729.468 3.76895 728.821 6.38457 729.412 10.0689C729.524 10.7158 729.665 11.3908 729.834 12.0658C729.159 12.2627 728.512 12.4596 727.893 12.7127C724.377 14.0627 722.465 15.9189 722.465 18.0002C722.465 20.0814 724.405 21.9377 727.893 23.2877C728.512 23.5127 729.159 23.7377 729.834 23.9346C729.665 24.6096 729.524 25.2846 729.412 25.9314C728.821 29.6439 729.468 32.2596 731.268 33.2721C731.802 33.5814 732.393 33.7221 733.068 33.7221C735.065 33.7221 737.568 32.2596 740.071 29.8127C742.602 32.2596 745.105 33.7221 747.074 33.7221C747.749 33.7221 748.34 33.5814 748.874 33.2721C750.674 32.2314 751.321 29.6158 750.73 25.9314C750.618 25.2846 750.477 24.6096 750.309 23.9346C750.984 23.7377 751.63 23.5408 752.249 23.2877C755.765 21.9377 757.677 20.0814 757.677 18.0002C757.677 15.9189 755.765 14.0627 752.249 12.7127ZM748.087 4.13457C749.24 4.80957 749.634 6.89082 749.155 9.84395C749.071 10.4346 748.93 11.0533 748.762 11.7002C747.299 11.3627 745.752 11.1377 744.121 10.9971C743.165 9.64707 742.18 8.4377 741.196 7.34082C743.277 5.2877 745.387 3.88145 747.102 3.88145C747.468 3.88145 747.805 3.96582 748.087 4.13457ZM744.937 20.8127C744.43 21.7127 743.84 22.6127 743.221 23.5127C742.18 23.5971 741.14 23.6252 740.071 23.6252C738.974 23.6252 737.934 23.5971 736.921 23.5127C736.302 22.6127 735.74 21.7127 735.234 20.8127C734.699 19.8846 734.193 18.9283 733.743 18.0002C734.193 17.0721 734.699 16.1158 735.234 15.1877C735.74 14.2877 736.33 13.3877 736.949 12.4877C737.99 12.4033 739.03 12.3752 740.099 12.3752C741.196 12.3752 742.237 12.4033 743.249 12.4877C743.868 13.3877 744.43 14.2877 744.937 15.1877C745.471 16.1158 745.977 17.0721 746.427 18.0002C745.949 18.9283 745.471 19.8564 744.937 20.8127ZM747.271 19.8846C747.693 20.8689 748.03 21.8252 748.34 22.7814C747.384 23.0064 746.371 23.1752 745.302 23.3158C745.64 22.7814 746.005 22.2189 746.315 21.6283C746.652 21.0377 746.962 20.4471 747.271 19.8846ZM740.071 27.5064C739.396 26.7752 738.749 25.9877 738.13 25.1721C738.777 25.2002 739.424 25.2283 740.071 25.2283C740.718 25.2283 741.365 25.2002 742.012 25.1721C741.393 25.9877 740.746 26.7752 740.071 27.5064ZM734.84 23.2877C733.771 23.1471 732.759 22.9783 731.802 22.7533C732.112 21.8252 732.449 20.8408 732.871 19.8564C733.18 20.4189 733.49 21.0096 733.827 21.5721C734.165 22.1908 734.502 22.7252 734.84 23.2877ZM732.871 16.1158C732.449 15.1314 732.112 14.1752 731.802 13.2189C732.759 12.9939 733.771 12.8252 734.84 12.6846C734.502 13.2189 734.137 13.7814 733.827 14.3721C733.49 14.9627 733.18 15.5533 732.871 16.1158ZM740.071 8.49395C740.746 9.2252 741.393 10.0127 742.012 10.8283C741.365 10.8002 740.718 10.7721 740.071 10.7721C739.424 10.7721 738.777 10.8002 738.13 10.8283C738.749 10.0127 739.396 9.2252 740.071 8.49395ZM746.315 14.4002L745.302 12.7127C746.371 12.8533 747.384 13.0221 748.34 13.2471C748.03 14.1752 747.693 15.1596 747.271 16.1439C746.962 15.5533 746.652 14.9627 746.315 14.4002ZM730.987 9.84395C730.509 6.89082 730.902 4.80957 732.055 4.13457C732.337 3.96582 732.674 3.88145 733.04 3.88145C734.727 3.88145 736.837 5.25957 738.946 7.34082C737.962 8.40957 736.977 9.64707 736.021 10.9971C734.39 11.1377 732.843 11.3908 731.38 11.7002C731.212 11.0533 731.099 10.4346 730.987 9.84395ZM724.04 18.0002C724.04 16.6783 725.643 15.2721 728.455 14.2314C729.018 14.0064 729.637 13.8096 730.255 13.6408C730.705 15.0471 731.268 16.5377 731.943 18.0283C731.268 19.5189 730.677 20.9814 730.255 22.3877C726.374 21.2627 724.04 19.5752 724.04 18.0002ZM732.055 31.8658C730.902 31.1908 730.509 29.1096 730.987 26.1564C731.071 25.5658 731.212 24.9471 731.38 24.3002C732.843 24.6377 734.39 24.8627 736.021 25.0033C736.977 26.3533 737.962 27.5627 738.946 28.6596C736.865 30.7127 734.755 32.1189 733.04 32.1189C732.674 32.1189 732.337 32.0346 732.055 31.8658ZM749.155 26.1564C749.634 29.1096 749.24 31.1908 748.087 31.8658C747.805 32.0346 747.468 32.1189 747.102 32.1189C745.415 32.1189 743.305 30.7408 741.196 28.6596C742.18 27.5908 743.165 26.3533 744.121 25.0033C745.752 24.8627 747.299 24.6096 748.762 24.3002C748.93 24.9471 749.043 25.5658 749.155 26.1564ZM751.687 21.7689C751.124 21.9939 750.505 22.1908 749.887 22.3596C749.437 20.9533 748.874 19.4627 748.199 17.9721C748.874 16.4814 749.465 15.0189 749.887 13.6127C753.768 14.7377 756.102 16.4252 756.102 18.0002C756.102 19.3221 754.471 20.7283 751.687 21.7689Z" fill="#AEAEAE"/>
</g>
<path d="M767.876 25V11.9091H772.542C773.556 11.9091 774.398 12.0838 775.067 12.4332C775.74 12.7827 776.243 13.2663 776.575 13.8842C776.908 14.4979 777.074 15.2074 777.074 16.0128C777.074 16.8139 776.906 17.5192 776.569 18.1286C776.237 18.7337 775.734 19.2045 775.06 19.5412C774.391 19.8778 773.55 20.0462 772.536 20.0462H769.001V18.3459H772.357C772.996 18.3459 773.516 18.2543 773.916 18.071C774.321 17.8878 774.617 17.6214 774.805 17.272C774.992 16.9226 775.086 16.5028 775.086 16.0128C775.086 15.5185 774.99 15.0902 774.798 14.728C774.611 14.3658 774.315 14.0888 773.91 13.897C773.509 13.701 772.983 13.603 772.331 13.603H769.851V25H767.876ZM774.338 19.0938L777.572 25H775.322L772.152 19.0938H774.338ZM783.432 25.1982C782.465 25.1982 781.632 24.9915 780.933 24.5781C780.238 24.1605 779.702 23.5746 779.322 22.8203C778.947 22.0618 778.76 21.1733 778.76 20.1548C778.76 19.1491 778.947 18.2628 779.322 17.4957C779.702 16.7287 780.23 16.13 780.907 15.6996C781.589 15.2692 782.386 15.054 783.298 15.054C783.852 15.054 784.389 15.1456 784.909 15.3288C785.429 15.5121 785.895 15.7997 786.309 16.1918C786.722 16.5838 787.048 17.093 787.287 17.7195C787.525 18.3416 787.645 19.098 787.645 19.9886V20.6662H779.84V19.2344H785.772C785.772 18.7315 785.67 18.2862 785.465 17.8984C785.26 17.5064 784.973 17.1974 784.602 16.9716C784.236 16.7457 783.805 16.6328 783.311 16.6328C782.774 16.6328 782.305 16.7649 781.905 17.0291C781.508 17.2891 781.202 17.63 780.984 18.0518C780.771 18.4695 780.665 18.9233 780.665 19.4134V20.532C780.665 21.1882 780.78 21.7464 781.01 22.2067C781.244 22.6669 781.57 23.0185 781.988 23.2614C782.405 23.5 782.893 23.6193 783.452 23.6193C783.814 23.6193 784.144 23.5682 784.442 23.4659C784.741 23.3594 784.998 23.2017 785.216 22.9929C785.433 22.7841 785.599 22.5263 785.714 22.2195L787.523 22.5455C787.378 23.0781 787.118 23.5447 786.743 23.9453C786.373 24.3416 785.906 24.6506 785.344 24.8722C784.785 25.0895 784.148 25.1982 783.432 25.1982ZM792.623 25.2173C792 25.2173 791.438 25.1023 790.935 24.8722C790.432 24.6378 790.034 24.299 789.74 23.8558C789.45 23.4126 789.305 22.8693 789.305 22.2259C789.305 21.6719 789.412 21.2159 789.625 20.858C789.838 20.5 790.125 20.2166 790.488 20.0078C790.85 19.799 791.255 19.6413 791.702 19.5348C792.15 19.4283 792.605 19.3473 793.07 19.2919C793.658 19.2237 794.135 19.1683 794.502 19.1257C794.868 19.0788 795.135 19.0043 795.301 18.902C795.467 18.7997 795.55 18.6335 795.55 18.4034V18.3587C795.55 17.8004 795.392 17.3679 795.077 17.0611C794.766 16.7543 794.301 16.6009 793.684 16.6009C793.04 16.6009 792.533 16.7436 792.162 17.0291C791.796 17.3104 791.542 17.6236 791.402 17.9688L789.605 17.5597C789.819 16.9631 790.13 16.4815 790.539 16.1151C790.952 15.7443 791.427 15.4759 791.964 15.3097C792.501 15.1392 793.066 15.054 793.658 15.054C794.05 15.054 794.466 15.1009 794.904 15.1946C795.348 15.2841 795.761 15.4503 796.145 15.6932C796.532 15.9361 796.85 16.2834 797.097 16.7351C797.344 17.1825 797.468 17.7642 797.468 18.4801V25H795.601V23.6577H795.525C795.401 23.9048 795.216 24.1477 794.968 24.3864C794.721 24.625 794.404 24.8232 794.016 24.9808C793.628 25.1385 793.164 25.2173 792.623 25.2173ZM793.038 23.6832C793.566 23.6832 794.018 23.5788 794.393 23.37C794.772 23.1612 795.06 22.8885 795.256 22.5518C795.456 22.2109 795.556 21.8466 795.556 21.4588V20.1932C795.488 20.2614 795.356 20.3253 795.16 20.3849C794.968 20.4403 794.749 20.4893 794.502 20.532C794.255 20.5703 794.014 20.6065 793.779 20.6406C793.545 20.6705 793.349 20.696 793.191 20.7173C792.821 20.7642 792.482 20.843 792.175 20.9538C791.873 21.0646 791.63 21.2244 791.446 21.4332C791.267 21.6378 791.178 21.9105 791.178 22.2514C791.178 22.7244 791.353 23.0824 791.702 23.3253C792.051 23.5639 792.497 23.6832 793.038 23.6832ZM804.149 25.1982C803.199 25.1982 802.381 24.983 801.694 24.5526C801.013 24.1179 800.488 23.5192 800.122 22.7564C799.756 21.9936 799.572 21.12 799.572 20.1357C799.572 19.1385 799.76 18.2585 800.135 17.4957C800.51 16.7287 801.038 16.13 801.72 15.6996C802.402 15.2692 803.205 15.054 804.13 15.054C804.876 15.054 805.54 15.1925 806.124 15.4695C806.708 15.7422 807.179 16.1257 807.537 16.62C807.899 17.1143 808.114 17.6918 808.182 18.3523H806.322C806.22 17.892 805.986 17.4957 805.619 17.1634C805.257 16.831 804.771 16.6648 804.162 16.6648C803.629 16.6648 803.162 16.8054 802.762 17.0866C802.366 17.3636 802.057 17.7599 801.835 18.2756C801.613 18.7869 801.503 19.392 801.503 20.0909C801.503 20.8068 801.611 21.4247 801.829 21.9446C802.046 22.4645 802.353 22.8672 802.749 23.1527C803.15 23.4382 803.621 23.581 804.162 23.581C804.524 23.581 804.852 23.5149 805.146 23.3828C805.444 23.2464 805.694 23.0526 805.894 22.8011C806.099 22.5497 806.241 22.2472 806.322 21.8935H808.182C808.114 22.5284 807.907 23.0952 807.562 23.5938C807.217 24.0923 806.755 24.4844 806.175 24.7699C805.6 25.0554 804.925 25.1982 804.149 25.1982ZM814.809 15.1818V16.7159H809.446V15.1818H814.809ZM810.885 12.8295H812.796V22.1172C812.796 22.4879 812.851 22.767 812.962 22.9545C813.073 23.1378 813.216 23.2635 813.39 23.3317C813.569 23.3956 813.763 23.4276 813.972 23.4276C814.125 23.4276 814.26 23.4169 814.375 23.3956C814.49 23.3743 814.579 23.3572 814.643 23.3445L814.988 24.9233C814.877 24.9659 814.72 25.0085 814.515 25.0511C814.311 25.098 814.055 25.1236 813.748 25.1278C813.245 25.1364 812.777 25.0469 812.342 24.8594C811.907 24.6719 811.556 24.3821 811.287 23.9901C811.019 23.598 810.885 23.1058 810.885 22.5135V12.8295ZM832.407 11.9091V25H830.591L823.937 15.3991H823.816V25H821.841V11.9091H823.669L830.329 21.5227H830.451V11.9091H832.407ZM837.992 25.2173C837.369 25.2173 836.807 25.1023 836.304 24.8722C835.801 24.6378 835.403 24.299 835.109 23.8558C834.819 23.4126 834.674 22.8693 834.674 22.2259C834.674 21.6719 834.781 21.2159 834.994 20.858C835.207 20.5 835.494 20.2166 835.857 20.0078C836.219 19.799 836.624 19.6413 837.071 19.5348C837.519 19.4283 837.975 19.3473 838.439 19.2919C839.027 19.2237 839.504 19.1683 839.871 19.1257C840.237 19.0788 840.504 19.0043 840.67 18.902C840.836 18.7997 840.919 18.6335 840.919 18.4034V18.3587C840.919 17.8004 840.762 17.3679 840.446 17.0611C840.135 16.7543 839.671 16.6009 839.053 16.6009C838.409 16.6009 837.902 16.7436 837.531 17.0291C837.165 17.3104 836.911 17.6236 836.771 17.9688L834.975 17.5597C835.188 16.9631 835.499 16.4815 835.908 16.1151C836.321 15.7443 836.796 15.4759 837.333 15.3097C837.87 15.1392 838.435 15.054 839.027 15.054C839.419 15.054 839.835 15.1009 840.274 15.1946C840.717 15.2841 841.13 15.4503 841.514 15.6932C841.901 15.9361 842.219 16.2834 842.466 16.7351C842.713 17.1825 842.837 17.7642 842.837 18.4801V25H840.97V23.6577H840.894C840.77 23.9048 840.585 24.1477 840.338 24.3864C840.09 24.625 839.773 24.8232 839.385 24.9808C838.997 25.1385 838.533 25.2173 837.992 25.2173ZM838.407 23.6832C838.936 23.6832 839.387 23.5788 839.762 23.37C840.142 23.1612 840.429 22.8885 840.625 22.5518C840.825 22.2109 840.926 21.8466 840.926 21.4588V20.1932C840.857 20.2614 840.725 20.3253 840.529 20.3849C840.338 20.4403 840.118 20.4893 839.871 20.532C839.624 20.5703 839.383 20.6065 839.149 20.6406C838.914 20.6705 838.718 20.696 838.561 20.7173C838.19 20.7642 837.851 20.843 837.544 20.9538C837.242 21.0646 836.999 21.2244 836.816 21.4332C836.637 21.6378 836.547 21.9105 836.547 22.2514C836.547 22.7244 836.722 23.0824 837.071 23.3253C837.421 23.5639 837.866 23.6832 838.407 23.6832ZM849.966 15.1818V16.7159H844.603V15.1818H849.966ZM846.041 12.8295H847.952V22.1172C847.952 22.4879 848.007 22.767 848.118 22.9545C848.229 23.1378 848.372 23.2635 848.547 23.3317C848.725 23.3956 848.919 23.4276 849.128 23.4276C849.282 23.4276 849.416 23.4169 849.531 23.3956C849.646 23.3743 849.735 23.3572 849.799 23.3445L850.145 24.9233C850.034 24.9659 849.876 25.0085 849.672 25.0511C849.467 25.098 849.211 25.1236 848.904 25.1278C848.402 25.1364 847.933 25.0469 847.498 24.8594C847.064 24.6719 846.712 24.3821 846.444 23.9901C846.175 23.598 846.041 23.1058 846.041 22.5135V12.8295ZM852.08 25V15.1818H853.991V25H852.08ZM853.045 13.6669C852.713 13.6669 852.427 13.5561 852.188 13.3345C851.954 13.1087 851.837 12.8402 851.837 12.5291C851.837 12.2138 851.954 11.9453 852.188 11.7237C852.427 11.4979 852.713 11.3849 853.045 11.3849C853.377 11.3849 853.661 11.4979 853.895 11.7237C854.134 11.9453 854.253 12.2138 854.253 12.5291C854.253 12.8402 854.134 13.1087 853.895 13.3345C853.661 13.5561 853.377 13.6669 853.045 13.6669ZM864.961 15.1818L861.401 25H859.355L855.789 15.1818H857.841L860.327 22.7372H860.429L862.909 15.1818H864.961ZM870.655 25.1982C869.688 25.1982 868.855 24.9915 868.156 24.5781C867.461 24.1605 866.924 23.5746 866.545 22.8203C866.17 22.0618 865.982 21.1733 865.982 20.1548C865.982 19.1491 866.17 18.2628 866.545 17.4957C866.924 16.7287 867.453 16.13 868.13 15.6996C868.812 15.2692 869.609 15.054 870.521 15.054C871.075 15.054 871.612 15.1456 872.132 15.3288C872.651 15.5121 873.118 15.7997 873.531 16.1918C873.945 16.5838 874.271 17.093 874.509 17.7195C874.748 18.3416 874.867 19.098 874.867 19.9886V20.6662H867.063V19.2344H872.994C872.994 18.7315 872.892 18.2862 872.688 17.8984C872.483 17.5064 872.195 17.1974 871.825 16.9716C871.458 16.7457 871.028 16.6328 870.534 16.6328C869.997 16.6328 869.528 16.7649 869.127 17.0291C868.731 17.2891 868.424 17.63 868.207 18.0518C867.994 18.4695 867.887 18.9233 867.887 19.4134V20.532C867.887 21.1882 868.002 21.7464 868.232 22.2067C868.467 22.6669 868.793 23.0185 869.21 23.2614C869.628 23.5 870.116 23.6193 870.674 23.6193C871.036 23.6193 871.367 23.5682 871.665 23.4659C871.963 23.3594 872.221 23.2017 872.438 22.9929C872.656 22.7841 872.822 22.5263 872.937 22.2195L874.746 22.5455C874.601 23.0781 874.341 23.5447 873.966 23.9453C873.595 24.3416 873.129 24.6506 872.566 24.8722C872.008 25.0895 871.371 25.1982 870.655 25.1982Z" fill="#A6A6A6"/>
<g clip-path="url(#clip3_117_126)">
<path d="M967.003 2.76462C966.527 3.9071 965.917 4.98918 965.187 5.98824C961.987 2.79038 957.649 0.993743 953.125 0.993164C943.769 0.993164 936.07 8.69841 936.07 18.0644C936.07 20.3772 936.54 22.6659 937.45 24.7919C938.361 26.9178 939.694 28.8368 941.368 30.4324L941.997 30.9902C945.071 33.582 948.962 35.0046 952.983 35.007C961.878 35.007 969.355 28.037 969.989 19.1537C970.454 14.8051 969.178 9.3051 967.003 2.76462ZM943.791 30.5296C943.654 30.6983 943.481 30.8344 943.285 30.9278C943.089 31.0213 942.875 31.0698 942.657 31.0699C941.856 31.0699 941.2 30.4101 941.2 29.6084C941.2 28.8068 941.86 28.1472 942.657 28.1472C942.989 28.1472 943.317 28.2622 943.574 28.475C944.199 28.9797 944.296 29.9051 943.791 30.5296ZM966.932 25.4195C962.724 31.03 953.736 29.1391 947.973 29.4092C947.973 29.4092 946.95 29.4714 945.922 29.6395C945.922 29.6395 946.307 29.4756 946.808 29.2851C950.852 27.8771 952.766 27.6024 955.224 26.3404C959.853 23.9846 964.429 18.8301 965.382 13.4674C963.619 18.6264 958.276 23.0592 953.408 24.8614C950.073 26.0926 944.048 27.2882 944.048 27.2882L943.805 27.1596C939.703 25.1626 939.578 16.2751 947.034 13.4056C950.299 12.1478 953.421 12.8387 956.948 11.9972C960.713 11.1029 965.067 8.2774 966.839 4.59318C968.823 10.4874 971.211 19.7157 966.932 25.4195Z" fill="#808080"/>
</g>
<path d="M990.963 15.348C990.895 14.7429 990.613 14.2741 990.119 13.9418C989.625 13.6051 989.003 13.4368 988.253 13.4368C987.716 13.4368 987.251 13.522 986.859 13.6925C986.467 13.8587 986.162 14.0888 985.945 14.3828C985.732 14.6726 985.626 15.0028 985.626 15.3736C985.626 15.6847 985.698 15.9531 985.843 16.179C985.992 16.4048 986.186 16.5945 986.425 16.7479C986.667 16.897 986.927 17.0227 987.204 17.125C987.481 17.223 987.748 17.304 988.003 17.3679L989.282 17.7003C989.699 17.8026 990.128 17.9411 990.567 18.1158C991.006 18.2905 991.412 18.5206 991.787 18.8061C992.162 19.0916 992.465 19.4453 992.695 19.8672C992.93 20.2891 993.047 20.794 993.047 21.3821C993.047 22.1236 992.855 22.782 992.471 23.3572C992.092 23.9325 991.54 24.3864 990.816 24.7188C990.096 25.0511 989.224 25.2173 988.202 25.2173C987.221 25.2173 986.373 25.0618 985.657 24.7507C984.942 24.4396 984.381 23.9986 983.976 23.4276C983.572 22.8523 983.348 22.1705 983.305 21.3821H985.287C985.325 21.8551 985.479 22.2493 985.747 22.5646C986.02 22.8757 986.367 23.108 986.789 23.2614C987.215 23.4105 987.682 23.4851 988.189 23.4851C988.747 23.4851 989.243 23.3977 989.678 23.223C990.117 23.044 990.462 22.7969 990.714 22.4815C990.965 22.1619 991.091 21.7891 991.091 21.3629C991.091 20.9751 990.98 20.6577 990.758 20.4105C990.541 20.1634 990.245 19.9588 989.87 19.7969C989.499 19.6349 989.079 19.4922 988.611 19.3686L987.064 18.9467C986.015 18.6612 985.184 18.2415 984.571 17.6875C983.961 17.1335 983.657 16.4006 983.657 15.4886C983.657 14.7344 983.861 14.076 984.27 13.5135C984.68 12.951 985.233 12.5142 985.932 12.2031C986.631 11.8878 987.42 11.7301 988.297 11.7301C989.184 11.7301 989.966 11.8857 990.643 12.1967C991.325 12.5078 991.862 12.9361 992.254 13.4815C992.646 14.0227 992.851 14.6449 992.868 15.348H990.963ZM995.254 28.6818V15.1818H997.12V16.7734H997.28C997.391 16.5689 997.55 16.3324 997.759 16.0639C997.968 15.7955 998.258 15.5611 998.629 15.3608C998.999 15.1562 999.489 15.054 1000.1 15.054C1000.89 15.054 1001.6 15.2543 1002.22 15.6548C1002.84 16.0554 1003.33 16.6328 1003.68 17.3871C1004.04 18.1413 1004.22 19.049 1004.22 20.1101C1004.22 21.1712 1004.04 22.081 1003.69 22.8395C1003.34 23.5937 1002.85 24.1754 1002.23 24.5845C1001.62 24.9893 1000.91 25.1918 1000.12 25.1918C999.521 25.1918 999.033 25.0916 998.654 24.8913C998.279 24.6911 997.985 24.4567 997.772 24.1882C997.559 23.9197 997.395 23.6811 997.28 23.4723H997.165V28.6818H995.254ZM997.126 20.0909C997.126 20.7812 997.227 21.3864 997.427 21.9062C997.627 22.4261 997.917 22.8331 998.296 23.1271C998.675 23.4169 999.14 23.5618 999.69 23.5618C1000.26 23.5618 1000.74 23.4105 1001.12 23.108C1001.5 22.8011 1001.79 22.3857 1001.99 21.8615C1002.19 21.3374 1002.29 20.7472 1002.29 20.0909C1002.29 19.4432 1002.19 18.8615 1002 18.3459C1001.81 17.8303 1001.52 17.4233 1001.13 17.125C1000.74 16.8267 1000.26 16.6776 999.69 16.6776C999.136 16.6776 998.667 16.8203 998.283 17.1058C997.904 17.3913 997.616 17.7898 997.42 18.3011C997.224 18.8125 997.126 19.4091 997.126 20.0909ZM1006.36 25V15.1818H1008.21V16.7415H1008.31C1008.49 16.2131 1008.81 15.7976 1009.26 15.495C1009.71 15.1882 1010.23 15.0348 1010.81 15.0348C1010.92 15.0348 1011.07 15.0391 1011.23 15.0476C1011.39 15.0561 1011.52 15.0668 1011.62 15.0795V16.9077C1011.54 16.8864 1011.4 16.8629 1011.21 16.8374C1011.01 16.8075 1010.82 16.7926 1010.62 16.7926C1010.17 16.7926 1009.77 16.8885 1009.41 17.0803C1009.06 17.2678 1008.79 17.5298 1008.58 17.8665C1008.38 18.1989 1008.27 18.5781 1008.27 19.0043V25H1006.36ZM1013.27 25V15.1818H1015.18V25H1013.27ZM1014.24 13.6669C1013.9 13.6669 1013.62 13.5561 1013.38 13.3345C1013.15 13.1087 1013.03 12.8402 1013.03 12.5291C1013.03 12.2138 1013.15 11.9453 1013.38 11.7237C1013.62 11.4979 1013.9 11.3849 1014.24 11.3849C1014.57 11.3849 1014.85 11.4979 1015.09 11.7237C1015.33 11.9453 1015.44 12.2138 1015.44 12.5291C1015.44 12.8402 1015.33 13.1087 1015.09 13.3345C1014.85 13.5561 1014.57 13.6669 1014.24 13.6669ZM1019.66 19.1705V25H1017.75V15.1818H1019.59V16.7798H1019.71C1019.94 16.2599 1020.29 15.8423 1020.77 15.527C1021.26 15.2116 1021.87 15.054 1022.61 15.054C1023.27 15.054 1023.86 15.1946 1024.36 15.4759C1024.87 15.7528 1025.26 16.1662 1025.53 16.7159C1025.81 17.2656 1025.95 17.9453 1025.95 18.755V25H1024.04V18.9851C1024.04 18.2734 1023.85 17.7173 1023.48 17.3168C1023.11 16.9119 1022.6 16.7095 1021.95 16.7095C1021.51 16.7095 1021.12 16.8054 1020.77 16.9972C1020.43 17.1889 1020.16 17.4702 1019.96 17.8409C1019.76 18.2074 1019.66 18.6506 1019.66 19.1705ZM1032.63 28.8864C1031.85 28.8864 1031.18 28.7841 1030.61 28.5795C1030.06 28.375 1029.6 28.1044 1029.25 27.7678C1028.89 27.4311 1028.63 27.0625 1028.45 26.6619L1030.1 25.9844C1030.21 26.1719 1030.37 26.37 1030.56 26.5788C1030.75 26.7919 1031.02 26.973 1031.35 27.1222C1031.69 27.2713 1032.12 27.3459 1032.65 27.3459C1033.37 27.3459 1033.97 27.169 1034.44 26.8153C1034.92 26.4659 1035.15 25.9077 1035.15 25.1406V23.2102H1035.03C1034.92 23.419 1034.75 23.6513 1034.53 23.907C1034.32 24.1626 1034.03 24.3842 1033.65 24.5717C1033.28 24.7592 1032.79 24.853 1032.19 24.853C1031.41 24.853 1030.71 24.6719 1030.09 24.3097C1029.47 23.9432 1028.98 23.4041 1028.62 22.6925C1028.26 21.9766 1028.08 21.0966 1028.08 20.0526C1028.08 19.0085 1028.26 18.1136 1028.61 17.3679C1028.97 16.6222 1029.46 16.0511 1030.08 15.6548C1030.71 15.2543 1031.41 15.054 1032.2 15.054C1032.81 15.054 1033.3 15.1562 1033.68 15.3608C1034.05 15.5611 1034.34 15.7955 1034.55 16.0639C1034.76 16.3324 1034.93 16.5689 1035.04 16.7734H1035.18V15.1818H1037.06V25.2173C1037.06 26.0611 1036.86 26.7536 1036.47 27.2947C1036.08 27.8359 1035.55 28.2365 1034.88 28.4964C1034.21 28.7564 1033.46 28.8864 1032.63 28.8864ZM1032.61 23.2678C1033.16 23.2678 1033.62 23.1399 1034 22.8842C1034.39 22.6243 1034.68 22.2536 1034.87 21.772C1035.07 21.2862 1035.17 20.7045 1035.17 20.027C1035.17 19.3665 1035.07 18.7848 1034.88 18.282C1034.68 17.7791 1034.39 17.3871 1034.01 17.1058C1033.64 16.8203 1033.17 16.6776 1032.61 16.6776C1032.03 16.6776 1031.55 16.8267 1031.17 17.125C1030.79 17.419 1030.5 17.8196 1030.3 18.3267C1030.11 18.8338 1030.01 19.4006 1030.01 20.027C1030.01 20.6705 1030.11 21.2351 1030.31 21.7209C1030.5 22.2067 1030.79 22.5859 1031.18 22.8587C1031.56 23.1314 1032.04 23.2678 1032.61 23.2678ZM1044.54 25V11.9091H1046.45V16.7734H1046.56C1046.67 16.5689 1046.83 16.3324 1047.04 16.0639C1047.25 15.7955 1047.54 15.5611 1047.91 15.3608C1048.28 15.1562 1048.77 15.054 1049.38 15.054C1050.18 15.054 1050.88 15.2543 1051.51 15.6548C1052.13 16.0554 1052.62 16.6328 1052.97 17.3871C1053.33 18.1413 1053.51 19.049 1053.51 20.1101C1053.51 21.1712 1053.33 22.081 1052.98 22.8395C1052.62 23.5937 1052.14 24.1754 1051.52 24.5845C1050.9 24.9893 1050.19 25.1918 1049.4 25.1918C1048.81 25.1918 1048.32 25.0916 1047.94 24.8913C1047.56 24.6911 1047.27 24.4567 1047.06 24.1882C1046.84 23.9197 1046.68 23.6811 1046.56 23.4723H1046.4V25H1044.54ZM1046.41 20.0909C1046.41 20.7812 1046.51 21.3864 1046.71 21.9062C1046.91 22.4261 1047.2 22.8331 1047.58 23.1271C1047.96 23.4169 1048.42 23.5618 1048.97 23.5618C1049.54 23.5618 1050.02 23.4105 1050.41 23.108C1050.79 22.8011 1051.08 22.3857 1051.28 21.8615C1051.48 21.3374 1051.58 20.7472 1051.58 20.0909C1051.58 19.4432 1051.48 18.8615 1051.28 18.3459C1051.09 17.8303 1050.8 17.4233 1050.41 17.125C1050.03 16.8267 1049.55 16.6776 1048.97 16.6776C1048.42 16.6776 1047.95 16.8203 1047.57 17.1058C1047.19 17.3913 1046.9 17.7898 1046.7 18.3011C1046.51 18.8125 1046.41 19.4091 1046.41 20.0909ZM1059.79 25.1982C1058.87 25.1982 1058.06 24.9872 1057.38 24.5653C1056.69 24.1435 1056.16 23.5533 1055.78 22.7947C1055.4 22.0362 1055.21 21.1499 1055.21 20.1357C1055.21 19.1172 1055.4 18.2266 1055.78 17.4638C1056.16 16.701 1056.69 16.1087 1057.38 15.6868C1058.06 15.2649 1058.87 15.054 1059.79 15.054C1060.71 15.054 1061.51 15.2649 1062.2 15.6868C1062.88 16.1087 1063.42 16.701 1063.8 17.4638C1064.17 18.2266 1064.36 19.1172 1064.36 20.1357C1064.36 21.1499 1064.17 22.0362 1063.8 22.7947C1063.42 23.5533 1062.88 24.1435 1062.2 24.5653C1061.51 24.9872 1060.71 25.1982 1059.79 25.1982ZM1059.79 23.5938C1060.39 23.5938 1060.88 23.4361 1061.28 23.1207C1061.67 22.8054 1061.96 22.3857 1062.15 21.8615C1062.34 21.3374 1062.43 20.7599 1062.43 20.1293C1062.43 19.5028 1062.34 18.9276 1062.15 18.4034C1061.96 17.875 1061.67 17.451 1061.28 17.1314C1060.88 16.8118 1060.39 16.652 1059.79 16.652C1059.19 16.652 1058.69 16.8118 1058.3 17.1314C1057.91 17.451 1057.61 17.875 1057.42 18.4034C1057.24 18.9276 1057.14 19.5028 1057.14 20.1293C1057.14 20.7599 1057.24 21.3374 1057.42 21.8615C1057.61 22.3857 1057.91 22.8054 1058.3 23.1207C1058.69 23.4361 1059.19 23.5938 1059.79 23.5938ZM1070.63 25.1982C1069.71 25.1982 1068.91 24.9872 1068.22 24.5653C1067.54 24.1435 1067 23.5533 1066.63 22.7947C1066.25 22.0362 1066.06 21.1499 1066.06 20.1357C1066.06 19.1172 1066.25 18.2266 1066.63 17.4638C1067 16.701 1067.54 16.1087 1068.22 15.6868C1068.91 15.2649 1069.71 15.054 1070.63 15.054C1071.55 15.054 1072.36 15.2649 1073.04 15.6868C1073.73 16.1087 1074.26 16.701 1074.64 17.4638C1075.02 18.2266 1075.21 19.1172 1075.21 20.1357C1075.21 21.1499 1075.02 22.0362 1074.64 22.7947C1074.26 23.5533 1073.73 24.1435 1073.04 24.5653C1072.36 24.9872 1071.55 25.1982 1070.63 25.1982ZM1070.64 23.5938C1071.24 23.5938 1071.73 23.4361 1072.12 23.1207C1072.51 22.8054 1072.8 22.3857 1072.99 21.8615C1073.18 21.3374 1073.28 20.7599 1073.28 20.1293C1073.28 19.5028 1073.18 18.9276 1072.99 18.4034C1072.8 17.875 1072.51 17.451 1072.12 17.1314C1071.73 16.8118 1071.24 16.652 1070.64 16.652C1070.04 16.652 1069.54 16.8118 1069.14 17.1314C1068.75 17.451 1068.46 17.875 1068.27 18.4034C1068.08 18.9276 1067.99 19.5028 1067.99 20.1293C1067.99 20.7599 1068.08 21.3374 1068.27 21.8615C1068.46 22.3857 1068.75 22.8054 1069.14 23.1207C1069.54 23.4361 1070.04 23.5938 1070.64 23.5938ZM1081.93 15.1818V16.7159H1076.56V15.1818H1081.93ZM1078 12.8295H1079.91V22.1172C1079.91 22.4879 1079.97 22.767 1080.08 22.9545C1080.19 23.1378 1080.33 23.2635 1080.51 23.3317C1080.69 23.3956 1080.88 23.4276 1081.09 23.4276C1081.24 23.4276 1081.38 23.4169 1081.49 23.3956C1081.61 23.3743 1081.7 23.3572 1081.76 23.3445L1082.11 24.9233C1081.99 24.9659 1081.84 25.0085 1081.63 25.0511C1081.43 25.098 1081.17 25.1236 1080.87 25.1278C1080.36 25.1364 1079.89 25.0469 1079.46 24.8594C1079.02 24.6719 1078.67 24.3821 1078.4 23.9901C1078.14 23.598 1078 23.1058 1078 22.5135V12.8295Z" fill="#A6A6A6"/>
<path d="M1156.46 27.5962C1156.46 27.5962 1155.12 28.3764 1157.42 28.6396C1160.2 28.9575 1161.62 28.9119 1164.69 28.3325C1164.69 28.3325 1165.5 28.8374 1166.62 29.275C1159.75 32.2197 1151.07 29.1043 1156.46 27.5962ZM1155.62 23.7529C1155.62 23.7529 1154.12 24.8664 1156.42 25.1043C1159.39 25.4112 1161.74 25.4362 1165.8 24.6543C1165.8 24.6543 1166.36 25.2239 1167.24 25.5349C1158.93 27.9649 1149.68 25.7262 1155.62 23.7529Z" fill="#595959"/>
<path d="M1162.7 17.2323C1164.4 19.1828 1162.26 20.9363 1162.26 20.9363C1162.26 20.9363 1166.56 18.717 1164.58 15.9366C1162.74 13.3448 1161.32 12.0576 1168.98 7.61719C1168.98 7.61747 1156.96 10.6181 1162.7 17.2323Z" fill="#BFBFBF"/>
<path d="M1171.79 30.439C1171.79 30.439 1172.79 31.2574 1170.7 31.8899C1166.73 33.0914 1154.19 33.4537 1150.7 31.938C1149.45 31.393 1151.8 30.6373 1152.54 30.4778C1153.31 30.311 1153.75 30.3414 1153.75 30.3414C1152.36 29.3607 1144.75 32.2679 1149.88 33.1018C1163.9 35.3732 1175.43 32.0789 1171.79 30.439ZM1157.11 19.7698C1157.11 19.7698 1150.73 21.2854 1154.85 21.8364C1156.59 22.0693 1160.06 22.0158 1163.29 21.7447C1165.93 21.5228 1168.58 21.0489 1168.58 21.0489C1168.58 21.0489 1167.65 21.448 1166.98 21.9075C1160.5 23.6122 1147.98 22.8182 1151.58 21.0756C1154.63 19.6021 1157.11 19.7698 1157.11 19.7698ZM1168.55 26.1673C1175.14 22.7454 1172.1 19.4567 1169.97 19.8997C1169.45 20.008 1169.22 20.1022 1169.22 20.1022C1169.22 20.1022 1169.41 19.7987 1169.78 19.6682C1173.99 18.1903 1177.22 24.0284 1168.42 26.3409C1168.42 26.3403 1168.52 26.2489 1168.55 26.1673Z" fill="#595959"/>
<path d="M1164.58 0.446289C1164.58 0.446289 1168.23 4.09579 1161.12 9.70588C1155.42 14.2076 1159.82 16.7737 1161.12 19.7069C1157.79 16.7051 1155.35 14.0622 1156.99 11.6026C1159.4 7.99307 1166.06 6.24229 1164.58 0.446289Z" fill="#BFBFBF"/>
<path d="M1157.76 35.4429C1164.08 35.8471 1173.79 35.2179 1174.02 32.2266C1174.02 32.2266 1173.58 33.3606 1168.79 34.2603C1163.4 35.2762 1156.74 35.1578 1152.79 34.5061C1152.79 34.5064 1153.6 35.1758 1157.76 35.4429Z" fill="#595959"/>
<path d="M1209.45 11.9091H1211.42V21.1903C1211.42 22.0298 1211.25 22.7479 1210.92 23.3445C1210.59 23.9411 1210.13 24.397 1209.54 24.7124C1208.94 25.0234 1208.24 25.179 1207.44 25.179C1206.7 25.179 1206.04 25.0447 1205.45 24.7763C1204.87 24.5078 1204.4 24.1179 1204.06 23.6065C1203.73 23.0909 1203.56 22.4645 1203.56 21.7273H1205.52C1205.52 22.0895 1205.6 22.4027 1205.77 22.6669C1205.94 22.9311 1206.17 23.1378 1206.47 23.2869C1206.77 23.4318 1207.11 23.5043 1207.49 23.5043C1207.91 23.5043 1208.26 23.4169 1208.55 23.2422C1208.84 23.0632 1209.07 22.8011 1209.22 22.456C1209.38 22.1108 1209.45 21.6889 1209.45 21.1903V11.9091ZM1217 25.2173C1216.38 25.2173 1215.81 25.1023 1215.31 24.8722C1214.81 24.6378 1214.41 24.299 1214.12 23.8558C1213.83 23.4126 1213.68 22.8693 1213.68 22.2259C1213.68 21.6719 1213.79 21.2159 1214 20.858C1214.21 20.5 1214.5 20.2166 1214.86 20.0078C1215.23 19.799 1215.63 19.6413 1216.08 19.5348C1216.53 19.4283 1216.98 19.3473 1217.45 19.2919C1218.03 19.2237 1218.51 19.1683 1218.88 19.1257C1219.25 19.0788 1219.51 19.0043 1219.68 18.902C1219.84 18.7997 1219.93 18.6335 1219.93 18.4034V18.3587C1219.93 17.8004 1219.77 17.3679 1219.45 17.0611C1219.14 16.7543 1218.68 16.6009 1218.06 16.6009C1217.42 16.6009 1216.91 16.7436 1216.54 17.0291C1216.17 17.3104 1215.92 17.6236 1215.78 17.9688L1213.98 17.5597C1214.2 16.9631 1214.51 16.4815 1214.92 16.1151C1215.33 15.7443 1215.8 15.4759 1216.34 15.3097C1216.88 15.1392 1217.44 15.054 1218.03 15.054C1218.43 15.054 1218.84 15.1009 1219.28 15.1946C1219.72 15.2841 1220.14 15.4503 1220.52 15.6932C1220.91 15.9361 1221.23 16.2834 1221.47 16.7351C1221.72 17.1825 1221.84 17.7642 1221.84 18.4801V25H1219.98V23.6577H1219.9C1219.78 23.9048 1219.59 24.1477 1219.35 24.3864C1219.1 24.625 1218.78 24.8232 1218.39 24.9808C1218.01 25.1385 1217.54 25.2173 1217 25.2173ZM1217.41 23.6832C1217.94 23.6832 1218.4 23.5788 1218.77 23.37C1219.15 23.1612 1219.44 22.8885 1219.63 22.5518C1219.83 22.2109 1219.93 21.8466 1219.93 21.4588V20.1932C1219.87 20.2614 1219.73 20.3253 1219.54 20.3849C1219.35 20.4403 1219.13 20.4893 1218.88 20.532C1218.63 20.5703 1218.39 20.6065 1218.16 20.6406C1217.92 20.6705 1217.73 20.696 1217.57 20.7173C1217.2 20.7642 1216.86 20.843 1216.55 20.9538C1216.25 21.0646 1216.01 21.2244 1215.82 21.4332C1215.64 21.6378 1215.55 21.9105 1215.55 22.2514C1215.55 22.7244 1215.73 23.0824 1216.08 23.3253C1216.43 23.5639 1216.87 23.6832 1217.41 23.6832ZM1232.44 15.1818L1228.88 25H1226.83L1223.27 15.1818H1225.32L1227.8 22.7372H1227.91L1230.39 15.1818H1232.44ZM1236.81 25.2173C1236.19 25.2173 1235.63 25.1023 1235.12 24.8722C1234.62 24.6378 1234.22 24.299 1233.93 23.8558C1233.64 23.4126 1233.49 22.8693 1233.49 22.2259C1233.49 21.6719 1233.6 21.2159 1233.81 20.858C1234.03 20.5 1234.31 20.2166 1234.68 20.0078C1235.04 19.799 1235.44 19.6413 1235.89 19.5348C1236.34 19.4283 1236.79 19.3473 1237.26 19.2919C1237.85 19.2237 1238.32 19.1683 1238.69 19.1257C1239.06 19.0788 1239.32 19.0043 1239.49 18.902C1239.65 18.7997 1239.74 18.6335 1239.74 18.4034V18.3587C1239.74 17.8004 1239.58 17.3679 1239.26 17.0611C1238.95 16.7543 1238.49 16.6009 1237.87 16.6009C1237.23 16.6009 1236.72 16.7436 1236.35 17.0291C1235.98 17.3104 1235.73 17.6236 1235.59 17.9688L1233.79 17.5597C1234.01 16.9631 1234.32 16.4815 1234.73 16.1151C1235.14 15.7443 1235.61 15.4759 1236.15 15.3097C1236.69 15.1392 1237.25 15.054 1237.85 15.054C1238.24 15.054 1238.65 15.1009 1239.09 15.1946C1239.54 15.2841 1239.95 15.4503 1240.33 15.6932C1240.72 15.9361 1241.04 16.2834 1241.28 16.7351C1241.53 17.1825 1241.66 17.7642 1241.66 18.4801V25H1239.79V23.6577H1239.71C1239.59 23.9048 1239.4 24.1477 1239.16 24.3864C1238.91 24.625 1238.59 24.8232 1238.2 24.9808C1237.82 25.1385 1237.35 25.2173 1236.81 25.2173ZM1237.23 23.6832C1237.75 23.6832 1238.21 23.5788 1238.58 23.37C1238.96 23.1612 1239.25 22.8885 1239.44 22.5518C1239.64 22.2109 1239.74 21.8466 1239.74 21.4588V20.1932C1239.68 20.2614 1239.54 20.3253 1239.35 20.3849C1239.16 20.4403 1238.94 20.4893 1238.69 20.532C1238.44 20.5703 1238.2 20.6065 1237.97 20.6406C1237.73 20.6705 1237.54 20.696 1237.38 20.7173C1237.01 20.7642 1236.67 20.843 1236.36 20.9538C1236.06 21.0646 1235.82 21.2244 1235.63 21.4332C1235.45 21.6378 1235.37 21.9105 1235.37 22.2514C1235.37 22.7244 1235.54 23.0824 1235.89 23.3253C1236.24 23.5639 1236.68 23.6832 1237.23 23.6832ZM1249.12 25V11.9091H1257.24V13.6094H1251.09V17.598H1256.65V19.2919H1251.09V25H1249.12ZM1261.04 11.9091L1264.17 17.0291H1264.27L1267.41 11.9091H1269.69L1265.62 18.4545L1269.72 25H1267.42L1264.27 19.9503H1264.17L1261.03 25H1258.73L1262.9 18.4545L1258.75 11.9091H1261.04Z" fill="#A6A6A6"/>
</g>
<defs>
<clipPath id="clip0_117_126">
<rect width="36" height="36" fill="white" transform="translate(165)"/>
</clipPath>
<clipPath id="clip1_117_126">
<rect width="26" height="32" fill="white" transform="translate(319 2)"/>
</clipPath>
<clipPath id="clip2_117_126">
<rect width="36" height="36" fill="white" transform="translate(722.07)"/>
</clipPath>
<clipPath id="clip3_117_126">
<rect width="34" height="34" fill="white" transform="translate(936.07 1)"/>
</clipPath>
</defs>
</svg>
