<svg width="985" height="36" viewBox="0 0 985 36" fill="none" xmlns="http://www.w3.org/2000/svg">
<g opacity="0.67">
<path d="M77.8288 3.44456C76.6413 3.45018 75.5079 3.55115 74.51 3.72778C71.571 4.24697 71.0377 5.33372 71.0377 7.33818V9.98503H77.9826V10.8673H68.4311C66.4128 10.8673 64.6455 12.0803 64.0925 14.3888C63.4547 17.034 63.4265 18.6849 64.0925 21.4471C64.5861 23.5033 65.7651 24.9681 67.7837 24.9681H70.1717V21.795C70.1717 19.5025 72.1548 17.4806 74.5103 17.4806H81.4473C83.3784 17.4806 84.9197 15.8904 84.9197 13.9515V7.33847C84.9197 5.45606 83.3317 4.04222 81.4473 3.72806C80.2537 3.5295 79.0159 3.43922 77.8288 3.44456ZM74.073 5.57334C74.7902 5.57334 75.3763 6.16875 75.3763 6.90112C75.3763 7.6304 74.7904 8.22018 74.073 8.22018C73.353 8.22018 72.7699 7.6304 72.7699 6.90112C72.7697 6.16875 73.353 5.57334 74.073 5.57334Z" fill="#646464"/>
<path d="M85.785 10.8675V13.9517C85.785 16.3423 83.7578 18.3546 81.4465 18.3546H74.5094C72.6093 18.3546 71.0371 19.9811 71.0371 21.884V28.4976C71.0371 30.3795 72.6734 31.4868 74.5094 32.0265C76.7077 32.6725 78.8159 32.7895 81.4465 32.0265C83.1947 31.5199 84.9188 30.5013 84.9188 28.4976V25.8505H77.982V24.9679H88.3916C90.4099 24.9679 91.1625 23.5603 91.8645 21.447C92.5896 19.2715 92.5584 17.1793 91.8645 14.3887C91.3656 12.3792 90.413 10.8672 88.3916 10.8672L85.785 10.8675ZM81.8832 27.6151C82.6035 27.6151 83.1865 28.2048 83.1865 28.9347C83.1865 29.6665 82.6032 30.2619 81.8832 30.2619C81.166 30.2619 80.5802 29.6665 80.5802 28.9347C80.5802 28.2048 81.166 27.6151 81.8832 27.6151Z" fill="#B9B9B9"/>
<path opacity="0.444" d="M87.3679 33.6368C87.3679 34.6333 83.2009 35.4413 78.061 35.4413C72.9209 35.4413 68.7539 34.6333 68.7539 33.6368C68.7539 32.6403 72.9206 31.832 78.061 31.832C83.2009 31.832 87.3679 32.6398 87.3679 33.6368Z" fill="url(#paint0_radial_117_183)"/>
<path d="M103.682 25V10.4545H108.867C109.998 10.4545 110.936 10.6605 111.679 11.0724C112.423 11.4844 112.979 12.0478 113.348 12.7628C113.718 13.473 113.902 14.2732 113.902 15.1634C113.902 16.0582 113.715 16.8632 113.341 17.5781C112.972 18.2884 112.413 18.8518 111.665 19.2685C110.922 19.6804 109.986 19.8864 108.86 19.8864H105.294V18.0256H108.661C109.376 18.0256 109.956 17.9025 110.401 17.6562C110.846 17.4053 111.173 17.0644 111.381 16.6335C111.589 16.2027 111.693 15.7126 111.693 15.1634C111.693 14.6141 111.589 14.1264 111.381 13.7003C111.173 13.2741 110.843 12.9403 110.394 12.6989C109.949 12.4574 109.361 12.3366 108.632 12.3366H105.877V25H103.682ZM117.647 29.0909C117.33 29.0909 117.041 29.0649 116.78 29.0128C116.52 28.9654 116.326 28.9134 116.198 28.8565L116.709 27.1165C117.098 27.2206 117.443 27.2656 117.746 27.2514C118.049 27.2372 118.317 27.1236 118.549 26.9105C118.786 26.6974 118.994 26.3494 119.174 25.8665L119.437 25.142L115.445 14.0909H117.718L120.481 22.5568H120.594L123.357 14.0909H125.637L121.141 26.456C120.933 27.0241 120.668 27.5047 120.346 27.8977C120.024 28.2955 119.64 28.5938 119.195 28.7926C118.75 28.9915 118.234 29.0909 117.647 29.0909ZM132.725 14.0909V15.7955H126.766V14.0909H132.725ZM128.364 11.4773H130.488V21.7969C130.488 22.2088 130.549 22.5189 130.672 22.7273C130.796 22.9309 130.954 23.0705 131.148 23.1463C131.347 23.2173 131.563 23.2528 131.795 23.2528C131.965 23.2528 132.114 23.241 132.242 23.2173C132.37 23.1937 132.469 23.1747 132.54 23.1605L132.924 24.9148C132.801 24.9621 132.626 25.0095 132.398 25.0568C132.171 25.1089 131.887 25.1373 131.546 25.142C130.987 25.1515 130.466 25.0521 129.983 24.8438C129.501 24.6354 129.11 24.3134 128.812 23.8778C128.513 23.4422 128.364 22.8954 128.364 22.2372V11.4773ZM137.432 18.5227V25H135.308V10.4545H137.404V15.8665H137.539C137.794 15.2794 138.185 14.813 138.71 14.4673C139.236 14.1217 139.923 13.9489 140.77 13.9489C141.518 13.9489 142.172 14.1027 142.73 14.4105C143.294 14.7183 143.729 15.1776 144.037 15.7884C144.35 16.3944 144.506 17.152 144.506 18.0611V25H142.382V18.3168C142.382 17.5166 142.176 16.8963 141.764 16.456C141.352 16.0109 140.78 15.7884 140.046 15.7884C139.544 15.7884 139.094 15.8949 138.696 16.108C138.303 16.321 137.993 16.6335 137.766 17.0455C137.543 17.4527 137.432 17.9451 137.432 18.5227ZM151.935 25.2202C150.912 25.2202 150.02 24.9858 149.257 24.517C148.495 24.0483 147.903 23.3925 147.482 22.5497C147.06 21.7069 146.85 20.7221 146.85 19.5952C146.85 18.4635 147.06 17.474 147.482 16.6264C147.903 15.7789 148.495 15.1207 149.257 14.652C150.02 14.1832 150.912 13.9489 151.935 13.9489C152.958 13.9489 153.85 14.1832 154.612 14.652C155.375 15.1207 155.967 15.7789 156.388 16.6264C156.809 17.474 157.02 18.4635 157.02 19.5952C157.02 20.7221 156.809 21.7069 156.388 22.5497C155.967 23.3925 155.375 24.0483 154.612 24.517C153.85 24.9858 152.958 25.2202 151.935 25.2202ZM151.942 23.4375C152.605 23.4375 153.154 23.2623 153.59 22.9119C154.025 22.5616 154.347 22.0952 154.556 21.5128C154.769 20.9304 154.875 20.2888 154.875 19.5881C154.875 18.892 154.769 18.2528 154.556 17.6705C154.347 17.0833 154.025 16.6122 153.59 16.2571C153.154 15.902 152.605 15.7244 151.942 15.7244C151.274 15.7244 150.72 15.902 150.28 16.2571C149.844 16.6122 149.52 17.0833 149.307 17.6705C149.099 18.2528 148.994 18.892 148.994 19.5881C148.994 20.2888 149.099 20.9304 149.307 21.5128C149.52 22.0952 149.844 22.5616 150.28 22.9119C150.72 23.2623 151.274 23.4375 151.942 23.4375ZM161.514 18.5227V25H159.39V14.0909H161.429V15.8665H161.564C161.815 15.2888 162.208 14.8248 162.743 14.4744C163.282 14.1241 163.962 13.9489 164.781 13.9489C165.524 13.9489 166.175 14.1051 166.734 14.4176C167.293 14.7254 167.726 15.1847 168.034 15.7955C168.342 16.4062 168.496 17.1615 168.496 18.0611V25H166.372V18.3168C166.372 17.526 166.166 16.9081 165.754 16.4631C165.342 16.0133 164.776 15.7884 164.057 15.7884C163.564 15.7884 163.126 15.8949 162.743 16.108C162.364 16.321 162.063 16.6335 161.841 17.0455C161.623 17.4527 161.514 17.9451 161.514 18.5227Z" fill="#A6A6A6"/>
<path d="M243.393 27.5962C243.393 27.5962 242.052 28.3764 244.349 28.6396C247.131 28.9575 248.552 28.9119 251.617 28.3325C251.617 28.3325 252.425 28.8374 253.55 29.275C246.677 32.2197 237.995 29.1043 243.393 27.5962ZM242.553 23.7529C242.553 23.7529 241.049 24.8664 243.347 25.1043C246.319 25.4112 248.665 25.4362 252.728 24.6543C252.728 24.6543 253.288 25.2239 254.171 25.5349C245.862 27.9649 236.608 25.7262 242.553 23.7529Z" fill="#595959"/>
<path d="M249.631 17.2323C251.326 19.1828 249.187 20.9363 249.187 20.9363C249.187 20.9363 253.487 18.717 251.512 15.9366C249.668 13.3448 248.253 12.0576 255.91 7.61719C255.91 7.61747 243.892 10.6181 249.631 17.2323Z" fill="#BFBFBF"/>
<path d="M258.723 30.439C258.723 30.439 259.715 31.2574 257.629 31.8899C253.663 33.0914 241.118 33.4537 237.634 31.938C236.382 31.393 238.731 30.6373 239.47 30.4778C240.24 30.311 240.68 30.3414 240.68 30.3414C239.287 29.3607 231.676 32.2679 236.815 33.1018C250.827 35.3732 262.357 32.0789 258.723 30.439ZM244.039 19.7698C244.039 19.7698 237.658 21.2854 241.779 21.8364C243.52 22.0693 246.987 22.0158 250.22 21.7447C252.861 21.5228 255.511 21.0489 255.511 21.0489C255.511 21.0489 254.581 21.448 253.907 21.9075C247.426 23.6122 234.91 22.8182 238.514 21.0756C241.56 19.6021 244.039 19.7698 244.039 19.7698ZM255.485 26.1673C262.072 22.7454 259.026 19.4567 256.9 19.8997C256.38 20.008 256.147 20.1022 256.147 20.1022C256.147 20.1022 256.34 19.7987 256.709 19.6682C260.915 18.1903 264.149 24.0284 255.353 26.3409C255.353 26.3403 255.454 26.2489 255.485 26.1673Z" fill="#595959"/>
<path d="M251.514 0.446289C251.514 0.446289 255.161 4.09579 248.054 9.70588C242.354 14.2076 246.754 16.7737 248.052 19.7069C244.724 16.7051 242.284 14.0622 243.921 11.6026C246.325 7.99307 252.985 6.24229 251.514 0.446289Z" fill="#BFBFBF"/>
<path d="M244.686 35.4429C251.007 35.8471 260.717 35.2179 260.947 32.2266C260.947 32.2266 260.505 33.3606 255.722 34.2603C250.326 35.2762 243.669 35.1578 239.723 34.5061C239.723 34.5064 240.531 35.1758 244.686 35.4429Z" fill="#595959"/>
<path d="M286.035 10.4545H288.222V20.767C288.222 21.6998 288.037 22.4976 287.668 23.1605C287.304 23.8234 286.79 24.33 286.127 24.6804C285.464 25.026 284.688 25.1989 283.797 25.1989C282.978 25.1989 282.242 25.0497 281.589 24.7514C280.94 24.4531 280.426 24.0199 280.047 23.4517C279.673 22.8788 279.486 22.1828 279.486 21.3636H281.667C281.667 21.7661 281.759 22.1141 281.944 22.4077C282.133 22.7012 282.391 22.9309 282.718 23.0966C283.049 23.2576 283.428 23.3381 283.854 23.3381C284.318 23.3381 284.711 23.241 285.033 23.0469C285.36 22.848 285.608 22.5568 285.779 22.1733C285.949 21.7898 286.035 21.321 286.035 20.767V10.4545ZM294.421 25.2415C293.729 25.2415 293.104 25.1136 292.546 24.858C291.987 24.5975 291.544 24.2211 291.218 23.7287C290.896 23.2363 290.735 22.6326 290.735 21.9176C290.735 21.3021 290.853 20.7955 291.09 20.3977C291.326 20 291.646 19.6851 292.048 19.4531C292.451 19.2211 292.901 19.0459 293.398 18.9276C293.895 18.8092 294.402 18.7192 294.918 18.6577C295.571 18.5819 296.102 18.5204 296.509 18.473C296.916 18.4209 297.212 18.3381 297.396 18.2244C297.581 18.1108 297.673 17.9261 297.673 17.6705V17.6207C297.673 17.0005 297.498 16.5199 297.148 16.179C296.802 15.8381 296.286 15.6676 295.6 15.6676C294.885 15.6676 294.321 15.8262 293.909 16.1435C293.502 16.456 293.22 16.804 293.064 17.1875L291.068 16.733C291.305 16.0701 291.651 15.535 292.105 15.1278C292.565 14.7159 293.093 14.4176 293.689 14.233C294.286 14.0436 294.913 13.9489 295.571 13.9489C296.007 13.9489 296.468 14.0009 296.956 14.1051C297.449 14.2045 297.908 14.3892 298.334 14.6591C298.765 14.929 299.118 15.3149 299.392 15.8168C299.667 16.3139 299.804 16.9602 299.804 17.7557V25H297.73V23.5085H297.645C297.508 23.7831 297.302 24.053 297.027 24.3182C296.753 24.5833 296.4 24.8035 295.969 24.9787C295.538 25.1539 295.022 25.2415 294.421 25.2415ZM294.882 23.5369C295.469 23.5369 295.971 23.4209 296.388 23.1889C296.809 22.9569 297.129 22.6539 297.347 22.2798C297.569 21.901 297.681 21.4962 297.681 21.0653V19.6591C297.605 19.7348 297.458 19.8059 297.24 19.8722C297.027 19.9337 296.783 19.9882 296.509 20.0355C296.234 20.0781 295.967 20.1184 295.706 20.1562C295.446 20.1894 295.228 20.2178 295.053 20.2415C294.641 20.2936 294.264 20.3812 293.923 20.5043C293.587 20.6274 293.317 20.8049 293.114 21.0369C292.915 21.2642 292.816 21.5672 292.816 21.946C292.816 22.4716 293.01 22.8693 293.398 23.1392C293.786 23.4044 294.281 23.5369 294.882 23.5369ZM311.574 14.0909L307.618 25H305.346L301.383 14.0909H303.662L306.425 22.4858H306.539L309.295 14.0909H311.574ZM316.432 25.2415C315.741 25.2415 315.116 25.1136 314.557 24.858C313.999 24.5975 313.556 24.2211 313.229 23.7287C312.907 23.2363 312.746 22.6326 312.746 21.9176C312.746 21.3021 312.865 20.7955 313.101 20.3977C313.338 20 313.658 19.6851 314.06 19.4531C314.463 19.2211 314.912 19.0459 315.41 18.9276C315.907 18.8092 316.413 18.7192 316.93 18.6577C317.583 18.5819 318.113 18.5204 318.52 18.473C318.928 18.4209 319.224 18.3381 319.408 18.2244C319.593 18.1108 319.685 17.9261 319.685 17.6705V17.6207C319.685 17.0005 319.51 16.5199 319.16 16.179C318.814 15.8381 318.298 15.6676 317.611 15.6676C316.896 15.6676 316.333 15.8262 315.921 16.1435C315.514 16.456 315.232 16.804 315.076 17.1875L313.08 16.733C313.317 16.0701 313.662 15.535 314.117 15.1278C314.576 14.7159 315.104 14.4176 315.701 14.233C316.297 14.0436 316.925 13.9489 317.583 13.9489C318.019 13.9489 318.48 14.0009 318.968 14.1051C319.46 14.2045 319.92 14.3892 320.346 14.6591C320.777 14.929 321.129 15.3149 321.404 15.8168C321.679 16.3139 321.816 16.9602 321.816 17.7557V25H319.742V23.5085H319.657C319.519 23.7831 319.314 24.053 319.039 24.3182C318.764 24.5833 318.412 24.8035 317.981 24.9787C317.55 25.1539 317.034 25.2415 316.432 25.2415ZM316.894 23.5369C317.481 23.5369 317.983 23.4209 318.4 23.1889C318.821 22.9569 319.141 22.6539 319.358 22.2798C319.581 21.901 319.692 21.4962 319.692 21.0653V19.6591C319.617 19.7348 319.47 19.8059 319.252 19.8722C319.039 19.9337 318.795 19.9882 318.52 20.0355C318.246 20.0781 317.978 20.1184 317.718 20.1562C317.457 20.1894 317.24 20.2178 317.064 20.2415C316.653 20.2936 316.276 20.3812 315.935 20.5043C315.599 20.6274 315.329 20.8049 315.126 21.0369C314.927 21.2642 314.827 21.5672 314.827 21.946C314.827 22.4716 315.021 22.8693 315.41 23.1392C315.798 23.4044 316.293 23.5369 316.894 23.5369Z" fill="#A6A6A6"/>
<g clip-path="url(#clip0_117_183)">
<path d="M414.031 1H395.969C391.568 1 388 4.56773 388 8.96875V27.0312C388 31.4323 391.568 35 395.969 35H414.031C418.432 35 422 31.4323 422 27.0312V8.96875C422 4.56773 418.432 1 414.031 1Z" fill="#C4C4C4"/>
<path d="M396.09 28.5624L398.692 26.9878C399.194 27.8778 399.65 28.6308 400.746 28.6308C401.796 28.6308 402.458 28.2202 402.458 26.6227V15.7589H405.653V26.6679C405.653 29.9772 403.713 31.4835 400.883 31.4835C398.327 31.4835 396.843 30.1598 396.09 28.5622M407.388 28.2201L409.99 26.7138C410.675 27.8322 411.565 28.6538 413.139 28.6538C414.463 28.6538 415.308 27.9919 415.308 27.0789C415.308 25.9835 414.44 25.5954 412.98 24.9566L412.181 24.6141C409.876 23.6328 408.347 22.4003 408.347 19.7985C408.347 17.4021 410.172 15.5762 413.025 15.5762C415.057 15.5762 416.517 16.2838 417.567 18.1324L415.079 19.73C414.532 18.7487 413.938 18.3607 413.025 18.3607C412.09 18.3607 411.496 18.9541 411.496 19.73C411.496 20.6885 412.09 21.0766 413.459 21.6701L414.258 22.0124C416.974 23.1765 418.503 24.363 418.503 27.0332C418.503 29.9092 416.243 31.4838 413.208 31.4838C410.241 31.4838 408.324 30.0688 407.388 28.2201Z" fill="#323330"/>
</g>
<path d="M441.705 10.4545H443.892V20.767C443.892 21.6998 443.707 22.4976 443.338 23.1605C442.973 23.8234 442.46 24.33 441.797 24.6804C441.134 25.026 440.357 25.1989 439.467 25.1989C438.648 25.1989 437.912 25.0497 437.259 24.7514C436.61 24.4531 436.096 24.0199 435.717 23.4517C435.343 22.8788 435.156 22.1828 435.156 21.3636H437.337C437.337 21.7661 437.429 22.1141 437.614 22.4077C437.803 22.7012 438.061 22.9309 438.388 23.0966C438.719 23.2576 439.098 23.3381 439.524 23.3381C439.988 23.3381 440.381 23.241 440.703 23.0469C441.03 22.848 441.278 22.5568 441.449 22.1733C441.619 21.7898 441.705 21.321 441.705 20.767V10.4545ZM450.091 25.2415C449.399 25.2415 448.774 25.1136 448.216 24.858C447.657 24.5975 447.214 24.2211 446.887 23.7287C446.565 23.2363 446.404 22.6326 446.404 21.9176C446.404 21.3021 446.523 20.7955 446.76 20.3977C446.996 20 447.316 19.6851 447.718 19.4531C448.121 19.2211 448.571 19.0459 449.068 18.9276C449.565 18.8092 450.072 18.7192 450.588 18.6577C451.241 18.5819 451.771 18.5204 452.179 18.473C452.586 18.4209 452.882 18.3381 453.066 18.2244C453.251 18.1108 453.343 17.9261 453.343 17.6705V17.6207C453.343 17.0005 453.168 16.5199 452.818 16.179C452.472 15.8381 451.956 15.6676 451.27 15.6676C450.555 15.6676 449.991 15.8262 449.579 16.1435C449.172 16.456 448.89 16.804 448.734 17.1875L446.738 16.733C446.975 16.0701 447.321 15.535 447.775 15.1278C448.234 14.7159 448.762 14.4176 449.359 14.233C449.956 14.0436 450.583 13.9489 451.241 13.9489C451.677 13.9489 452.138 14.0009 452.626 14.1051C453.118 14.2045 453.578 14.3892 454.004 14.6591C454.435 14.929 454.788 15.3149 455.062 15.8168C455.337 16.3139 455.474 16.9602 455.474 17.7557V25H453.4V23.5085H453.315C453.178 23.7831 452.972 24.053 452.697 24.3182C452.422 24.5833 452.07 24.8035 451.639 24.9787C451.208 25.1539 450.692 25.2415 450.091 25.2415ZM450.552 23.5369C451.139 23.5369 451.641 23.4209 452.058 23.1889C452.479 22.9569 452.799 22.6539 453.017 22.2798C453.239 21.901 453.35 21.4962 453.35 21.0653V19.6591C453.275 19.7348 453.128 19.8059 452.91 19.8722C452.697 19.9337 452.453 19.9882 452.179 20.0355C451.904 20.0781 451.636 20.1184 451.376 20.1562C451.116 20.1894 450.898 20.2178 450.723 20.2415C450.311 20.2936 449.934 20.3812 449.593 20.5043C449.257 20.6274 448.987 20.8049 448.784 21.0369C448.585 21.2642 448.485 21.5672 448.485 21.946C448.485 22.4716 448.68 22.8693 449.068 23.1392C449.456 23.4044 449.951 23.5369 450.552 23.5369ZM467.244 14.0909L463.288 25H461.016L457.053 14.0909H459.332L462.095 22.4858H462.209L464.964 14.0909H467.244ZM472.102 25.2415C471.411 25.2415 470.786 25.1136 470.227 24.858C469.669 24.5975 469.226 24.2211 468.899 23.7287C468.577 23.2363 468.416 22.6326 468.416 21.9176C468.416 21.3021 468.535 20.7955 468.771 20.3977C469.008 20 469.328 19.6851 469.73 19.4531C470.133 19.2211 470.582 19.0459 471.08 18.9276C471.577 18.8092 472.083 18.7192 472.599 18.6577C473.253 18.5819 473.783 18.5204 474.19 18.473C474.598 18.4209 474.893 18.3381 475.078 18.2244C475.263 18.1108 475.355 17.9261 475.355 17.6705V17.6207C475.355 17.0005 475.18 16.5199 474.83 16.179C474.484 15.8381 473.968 15.6676 473.281 15.6676C472.566 15.6676 472.003 15.8262 471.591 16.1435C471.184 16.456 470.902 16.804 470.746 17.1875L468.75 16.733C468.987 16.0701 469.332 15.535 469.787 15.1278C470.246 14.7159 470.774 14.4176 471.371 14.233C471.967 14.0436 472.595 13.9489 473.253 13.9489C473.688 13.9489 474.15 14.0009 474.638 14.1051C475.13 14.2045 475.589 14.3892 476.016 14.6591C476.446 14.929 476.799 15.3149 477.074 15.8168C477.348 16.3139 477.486 16.9602 477.486 17.7557V25H475.412V23.5085H475.327C475.189 23.7831 474.983 24.053 474.709 24.3182C474.434 24.5833 474.081 24.8035 473.651 24.9787C473.22 25.1539 472.704 25.2415 472.102 25.2415ZM472.564 23.5369C473.151 23.5369 473.653 23.4209 474.07 23.1889C474.491 22.9569 474.811 22.6539 475.028 22.2798C475.251 21.901 475.362 21.4962 475.362 21.0653V19.6591C475.286 19.7348 475.14 19.8059 474.922 19.8722C474.709 19.9337 474.465 19.9882 474.19 20.0355C473.916 20.0781 473.648 20.1184 473.388 20.1562C473.127 20.1894 472.91 20.2178 472.734 20.2415C472.322 20.2936 471.946 20.3812 471.605 20.5043C471.269 20.6274 470.999 20.8049 470.795 21.0369C470.597 21.2642 470.497 21.5672 470.497 21.946C470.497 22.4716 470.691 22.8693 471.08 23.1392C471.468 23.4044 471.963 23.5369 472.564 23.5369ZM488.418 14.2756C488.342 13.6032 488.03 13.0824 487.48 12.7131C486.931 12.339 486.24 12.152 485.407 12.152C484.81 12.152 484.294 12.2467 483.858 12.4361C483.423 12.6207 483.084 12.8764 482.843 13.2031C482.606 13.5251 482.488 13.892 482.488 14.304C482.488 14.6496 482.568 14.9479 482.729 15.1989C482.895 15.4498 483.11 15.6605 483.375 15.831C483.645 15.9967 483.934 16.1364 484.242 16.25C484.55 16.3589 484.846 16.4489 485.13 16.5199L486.55 16.8892C487.014 17.0028 487.49 17.1567 487.978 17.3509C488.465 17.545 488.917 17.8007 489.334 18.1179C489.751 18.4351 490.087 18.8281 490.343 19.2969C490.603 19.7656 490.733 20.3267 490.733 20.9801C490.733 21.804 490.52 22.5355 490.094 23.1747C489.673 23.8139 489.06 24.3182 488.255 24.6875C487.454 25.0568 486.486 25.2415 485.35 25.2415C484.261 25.2415 483.319 25.0687 482.523 24.723C481.728 24.3774 481.105 23.8873 480.655 23.2528C480.205 22.6136 479.957 21.8561 479.909 20.9801H482.111C482.154 21.5057 482.324 21.9437 482.623 22.294C482.926 22.6397 483.311 22.8977 483.78 23.0682C484.254 23.2339 484.772 23.3168 485.336 23.3168C485.956 23.3168 486.507 23.2197 486.99 23.0256C487.478 22.8267 487.862 22.5521 488.141 22.2017C488.42 21.8466 488.56 21.4323 488.56 20.9588C488.56 20.5279 488.437 20.1752 488.191 19.9006C487.949 19.6259 487.62 19.3987 487.203 19.2188C486.792 19.0388 486.325 18.8802 485.804 18.7429L484.086 18.2741C482.921 17.9569 481.998 17.4905 481.316 16.875C480.639 16.2595 480.3 15.4451 480.3 14.4318C480.3 13.5937 480.527 12.8622 480.982 12.2372C481.436 11.6122 482.052 11.1269 482.828 10.7812C483.605 10.4309 484.481 10.2557 485.456 10.2557C486.441 10.2557 487.31 10.4285 488.063 10.7741C488.82 11.1198 489.417 11.5956 489.853 12.2017C490.288 12.803 490.516 13.4943 490.534 14.2756H488.418ZM497.781 25.2202C496.725 25.2202 495.816 24.9811 495.053 24.5028C494.296 24.0199 493.713 23.3546 493.306 22.5071C492.899 21.6596 492.695 20.6889 492.695 19.5952C492.695 18.4872 492.904 17.5095 493.32 16.6619C493.737 15.8097 494.324 15.1444 495.082 14.6662C495.839 14.188 496.732 13.9489 497.759 13.9489C498.588 13.9489 499.326 14.1027 499.975 14.4105C500.624 14.7135 501.147 15.1397 501.545 15.6889C501.947 16.2382 502.186 16.8797 502.262 17.6136H500.195C500.082 17.1023 499.821 16.6619 499.414 16.2926C499.012 15.9233 498.472 15.7386 497.795 15.7386C497.203 15.7386 496.684 15.8949 496.239 16.2074C495.799 16.5152 495.456 16.9555 495.21 17.5284C494.963 18.0966 494.84 18.7689 494.84 19.5455C494.84 20.3409 494.961 21.0275 495.202 21.6051C495.444 22.1828 495.785 22.6302 496.225 22.9474C496.67 23.2647 497.193 23.4233 497.795 23.4233C498.197 23.4233 498.562 23.3499 498.888 23.2031C499.22 23.0516 499.497 22.8362 499.719 22.5568C499.947 22.2775 500.105 21.9413 500.195 21.5483H502.262C502.186 22.2538 501.957 22.8835 501.573 23.4375C501.19 23.9915 500.676 24.4271 500.032 24.7443C499.393 25.0616 498.642 25.2202 497.781 25.2202ZM504.533 25V14.0909H506.586V15.8239H506.699C506.898 15.2367 507.248 14.7751 507.75 14.4389C508.257 14.098 508.83 13.9276 509.469 13.9276C509.602 13.9276 509.758 13.9323 509.938 13.9418C510.123 13.9512 510.267 13.9631 510.371 13.9773V16.0085C510.286 15.9848 510.134 15.9588 509.917 15.9304C509.699 15.8973 509.481 15.8807 509.263 15.8807C508.761 15.8807 508.314 15.9872 507.921 16.2003C507.533 16.4086 507.225 16.6998 506.998 17.0739C506.77 17.4432 506.657 17.8646 506.657 18.3381V25H504.533ZM512.209 25V14.0909H514.332V25H512.209ZM513.281 12.4077C512.912 12.4077 512.595 12.2846 512.33 12.0384C512.069 11.7874 511.939 11.4891 511.939 11.1435C511.939 10.7931 512.069 10.4948 512.33 10.2486C512.595 9.99763 512.912 9.87216 513.281 9.87216C513.651 9.87216 513.965 9.99763 514.226 10.2486C514.491 10.4948 514.624 10.7931 514.624 11.1435C514.624 11.4891 514.491 11.7874 514.226 12.0384C513.965 12.2846 513.651 12.4077 513.281 12.4077ZM517.189 29.0909V14.0909H519.263V15.8594H519.441C519.564 15.6321 519.741 15.3693 519.973 15.071C520.205 14.7727 520.527 14.5123 520.939 14.2898C521.351 14.0625 521.896 13.9489 522.573 13.9489C523.453 13.9489 524.239 14.1714 524.931 14.6165C525.622 15.0616 526.164 15.7031 526.557 16.5412C526.955 17.3793 527.154 18.3878 527.154 19.5668C527.154 20.7457 526.957 21.7566 526.564 22.5994C526.171 23.4375 525.632 24.0838 524.945 24.5384C524.258 24.9882 523.475 25.2131 522.594 25.2131C521.931 25.2131 521.389 25.1018 520.968 24.8793C520.551 24.6567 520.224 24.3963 519.988 24.098C519.751 23.7997 519.569 23.5346 519.441 23.3026H519.313V29.0909H517.189ZM519.27 19.5455C519.27 20.3125 519.382 20.9848 519.604 21.5625C519.827 22.1402 520.149 22.5923 520.57 22.919C520.991 23.241 521.507 23.402 522.118 23.402C522.753 23.402 523.283 23.2339 523.709 22.8977C524.135 22.5568 524.457 22.0952 524.675 21.5128C524.898 20.9304 525.009 20.2746 525.009 19.5455C525.009 18.8258 524.9 18.1795 524.682 17.6065C524.469 17.0336 524.147 16.5814 523.716 16.25C523.29 15.9186 522.757 15.7528 522.118 15.7528C521.503 15.7528 520.982 15.9115 520.556 16.2287C520.134 16.5459 519.815 16.9886 519.597 17.5568C519.379 18.125 519.27 18.7879 519.27 19.5455ZM534.625 14.0909V15.7955H528.667V14.0909H534.625ZM530.265 11.4773H532.388V21.7969C532.388 22.2088 532.45 22.5189 532.573 22.7273C532.696 22.9309 532.855 23.0705 533.049 23.1463C533.248 23.2173 533.463 23.2528 533.695 23.2528C533.865 23.2528 534.015 23.241 534.142 23.2173C534.27 23.1937 534.37 23.1747 534.441 23.1605L534.824 24.9148C534.701 24.9621 534.526 25.0095 534.299 25.0568C534.071 25.1089 533.787 25.1373 533.446 25.142C532.888 25.1515 532.367 25.0521 531.884 24.8438C531.401 24.6354 531.01 24.3134 530.712 23.8778C530.414 23.4422 530.265 22.8954 530.265 22.2372V11.4773Z" fill="#A6A6A6"/>
<path d="M614.934 2.25C614.548 2.24984 614.177 2.4023 613.903 2.67413L613.889 2.68538L604.238 8.2575L613.864 17.8763V17.8819L625.432 29.4435L627.637 25.4734L619.686 6.39338L615.974 2.68425C615.838 2.54634 615.676 2.43692 615.496 2.36237C615.317 2.28782 615.125 2.24962 614.931 2.25H614.934Z" fill="#A3A3A3"/>
<path d="M604.261 8.23535L598.687 17.871L598.676 17.8856C598.54 18.0214 598.433 18.1825 598.36 18.3598C598.287 18.5371 598.25 18.727 598.25 18.9187C598.25 19.1104 598.289 19.3002 598.362 19.4771C598.436 19.6541 598.544 19.8148 598.68 19.95L598.686 19.9556L603.305 24.576L621.377 31.6792L625.463 29.4124L625.353 29.3021L625.325 29.3044L613.995 17.9666H613.981L604.261 8.23535Z" fill="#4E4E4E"/>
<path d="M604.236 8.23926L614.083 18.0886H614.098L625.43 29.4253L629.745 28.604L629.75 15.8499L625.195 11.3893C624.06 10.376 622.637 9.74209 621.125 9.57576L621.127 9.52738L604.239 8.24038L604.236 8.23926Z" fill="#4E4E4E"/>
<path d="M604.248 8.25195L614.101 18.0957V18.1103L625.44 29.4402L624.615 33.7501H611.851L607.388 29.1961C606.375 28.0609 605.742 26.6381 605.576 25.1258L605.525 25.1303L604.248 8.25195Z" fill="#ADADAD"/>
<path d="M646.516 25H641.807V10.4545H646.665C648.09 10.4545 649.314 10.7457 650.337 11.3281C651.36 11.9058 652.143 12.7367 652.688 13.821C653.237 14.9006 653.512 16.1955 653.512 17.706C653.512 19.2211 653.235 20.5232 652.681 21.6122C652.131 22.7012 651.336 23.5393 650.294 24.1264C649.253 24.7088 647.993 25 646.516 25ZM644.002 23.0824H646.395C647.503 23.0824 648.424 22.8741 649.158 22.4574C649.892 22.036 650.441 21.4276 650.806 20.6321C651.17 19.8319 651.352 18.8565 651.352 17.706C651.352 16.5649 651.17 15.5966 650.806 14.8011C650.446 14.0057 649.908 13.402 649.193 12.9901C648.478 12.5781 647.591 12.3722 646.53 12.3722H644.002V23.0824ZM659.245 25.2415C658.554 25.2415 657.929 25.1136 657.37 24.858C656.811 24.5975 656.368 24.2211 656.042 23.7287C655.72 23.2363 655.559 22.6326 655.559 21.9176C655.559 21.3021 655.677 20.7955 655.914 20.3977C656.151 20 656.47 19.6851 656.873 19.4531C657.275 19.2211 657.725 19.0459 658.222 18.9276C658.719 18.8092 659.226 18.7192 659.742 18.6577C660.395 18.5819 660.926 18.5204 661.333 18.473C661.74 18.4209 662.036 18.3381 662.221 18.2244C662.405 18.1108 662.498 17.9261 662.498 17.6705V17.6207C662.498 17.0005 662.323 16.5199 661.972 16.179C661.626 15.8381 661.11 15.6676 660.424 15.6676C659.709 15.6676 659.145 15.8262 658.733 16.1435C658.326 16.456 658.045 16.804 657.888 17.1875L655.893 16.733C656.129 16.0701 656.475 15.535 656.93 15.1278C657.389 14.7159 657.917 14.4176 658.513 14.233C659.11 14.0436 659.737 13.9489 660.395 13.9489C660.831 13.9489 661.293 14.0009 661.78 14.1051C662.273 14.2045 662.732 14.3892 663.158 14.6591C663.589 14.929 663.942 15.3149 664.216 15.8168C664.491 16.3139 664.628 16.9602 664.628 17.7557V25H662.555V23.5085H662.469C662.332 23.7831 662.126 24.053 661.851 24.3182C661.577 24.5833 661.224 24.8035 660.793 24.9787C660.362 25.1539 659.846 25.2415 659.245 25.2415ZM659.706 23.5369C660.294 23.5369 660.796 23.4209 661.212 23.1889C661.634 22.9569 661.953 22.6539 662.171 22.2798C662.394 21.901 662.505 21.4962 662.505 21.0653V19.6591C662.429 19.7348 662.282 19.8059 662.064 19.8722C661.851 19.9337 661.608 19.9882 661.333 20.0355C661.058 20.0781 660.791 20.1184 660.53 20.1562C660.27 20.1894 660.052 20.2178 659.877 20.2415C659.465 20.2936 659.089 20.3812 658.748 20.5043C658.412 20.6274 658.142 20.8049 657.938 21.0369C657.739 21.2642 657.64 21.5672 657.64 21.946C657.64 22.4716 657.834 22.8693 658.222 23.1392C658.61 23.4044 659.105 23.5369 659.706 23.5369ZM667.457 25V14.0909H669.509V15.8239H669.623C669.822 15.2367 670.172 14.7751 670.674 14.4389C671.181 14.098 671.754 13.9276 672.393 13.9276C672.526 13.9276 672.682 13.9323 672.862 13.9418C673.046 13.9512 673.191 13.9631 673.295 13.9773V16.0085C673.21 15.9848 673.058 15.9588 672.84 15.9304C672.623 15.8973 672.405 15.8807 672.187 15.8807C671.685 15.8807 671.238 15.9872 670.845 16.2003C670.456 16.4086 670.149 16.6998 669.921 17.0739C669.694 17.4432 669.58 17.8646 669.58 18.3381V25H667.457ZM680.869 14.0909V15.7955H674.911V14.0909H680.869ZM676.509 11.4773H678.632V21.7969C678.632 22.2088 678.694 22.5189 678.817 22.7273C678.94 22.9309 679.099 23.0705 679.293 23.1463C679.492 23.2173 679.707 23.2528 679.939 23.2528C680.11 23.2528 680.259 23.241 680.387 23.2173C680.514 23.1937 680.614 23.1747 680.685 23.1605L681.068 24.9148C680.945 24.9621 680.77 25.0095 680.543 25.0568C680.316 25.1089 680.031 25.1373 679.691 25.142C679.132 25.1515 678.611 25.0521 678.128 24.8438C677.645 24.6354 677.254 24.3134 676.956 23.8778C676.658 23.4422 676.509 22.8954 676.509 22.2372V11.4773Z" fill="#A6A6A6"/>
<path d="M746.463 4.46387V31.5359H773.538V31.4909L766.821 24.7244L760.101 17.9519L766.821 11.1794L773.485 4.46387H746.463Z" fill="url(#paint1_linear_117_183)"/>
<path d="M788.037 25V10.4545H790.232V17.4006H790.41L796.51 10.4545H799.273L793.407 17.0028L799.295 25H796.653L791.951 18.5014L790.232 20.4759V25H788.037ZM804.943 25.2202C803.92 25.2202 803.027 24.9858 802.265 24.517C801.503 24.0483 800.911 23.3925 800.49 22.5497C800.068 21.7069 799.857 20.7221 799.857 19.5952C799.857 18.4635 800.068 17.474 800.49 16.6264C800.911 15.7789 801.503 15.1207 802.265 14.652C803.027 14.1832 803.92 13.9489 804.943 13.9489C805.965 13.9489 806.858 14.1832 807.62 14.652C808.383 15.1207 808.974 15.7789 809.396 16.6264C809.817 17.474 810.028 18.4635 810.028 19.5952C810.028 20.7221 809.817 21.7069 809.396 22.5497C808.974 23.3925 808.383 24.0483 807.62 24.517C806.858 24.9858 805.965 25.2202 804.943 25.2202ZM804.95 23.4375C805.613 23.4375 806.162 23.2623 806.597 22.9119C807.033 22.5616 807.355 22.0952 807.563 21.5128C807.776 20.9304 807.883 20.2888 807.883 19.5881C807.883 18.892 807.776 18.2528 807.563 17.6705C807.355 17.0833 807.033 16.6122 806.597 16.2571C806.162 15.902 805.613 15.7244 804.95 15.7244C804.282 15.7244 803.728 15.902 803.288 16.2571C802.852 16.6122 802.528 17.0833 802.315 17.6705C802.106 18.2528 802.002 18.892 802.002 19.5881C802.002 20.2888 802.106 20.9304 802.315 21.5128C802.528 22.0952 802.852 22.5616 803.288 22.9119C803.728 23.2623 804.282 23.4375 804.95 23.4375ZM817.491 14.0909V15.7955H811.532V14.0909H817.491ZM813.13 11.4773H815.253V21.7969C815.253 22.2088 815.315 22.5189 815.438 22.7273C815.561 22.9309 815.72 23.0705 815.914 23.1463C816.113 23.2173 816.328 23.2528 816.56 23.2528C816.731 23.2528 816.88 23.241 817.008 23.2173C817.135 23.1937 817.235 23.1747 817.306 23.1605L817.689 24.9148C817.566 24.9621 817.391 25.0095 817.164 25.0568C816.937 25.1089 816.653 25.1373 816.312 25.142C815.753 25.1515 815.232 25.0521 814.749 24.8438C814.266 24.6354 813.876 24.3134 813.577 23.8778C813.279 23.4422 813.13 22.8954 813.13 22.2372V11.4773ZM822.198 10.4545V25H820.074V10.4545H822.198ZM825.055 25V14.0909H827.178V25H825.055ZM826.127 12.4077C825.758 12.4077 825.44 12.2846 825.175 12.0384C824.915 11.7874 824.785 11.4891 824.785 11.1435C824.785 10.7931 824.915 10.4948 825.175 10.2486C825.44 9.99763 825.758 9.87216 826.127 9.87216C826.496 9.87216 826.811 9.99763 827.072 10.2486C827.337 10.4948 827.469 10.7931 827.469 11.1435C827.469 11.4891 827.337 11.7874 827.072 12.0384C826.811 12.2846 826.496 12.4077 826.127 12.4077ZM832.159 18.5227V25H830.035V14.0909H832.073V15.8665H832.208C832.459 15.2888 832.852 14.8248 833.387 14.4744C833.927 14.1241 834.606 13.9489 835.426 13.9489C836.169 13.9489 836.82 14.1051 837.379 14.4176C837.937 14.7254 838.371 15.1847 838.678 15.7955C838.986 16.4062 839.14 17.1615 839.14 18.0611V25H837.017V18.3168C837.017 17.526 836.811 16.9081 836.399 16.4631C835.987 16.0133 835.421 15.7884 834.701 15.7884C834.209 15.7884 833.771 15.8949 833.387 16.108C833.008 16.321 832.708 16.6335 832.485 17.0455C832.267 17.4527 832.159 17.9451 832.159 18.5227Z" fill="#A6A6A6"/>
<path fill-rule="evenodd" clip-rule="evenodd" d="M919.135 2.29514C918.796 2.08064 918.402 1.9668 918.001 1.9668C917.599 1.9668 917.206 2.08064 916.866 2.29514L904.824 9.90123C904.521 10.0926 904.271 10.3576 904.098 10.6714C903.925 10.9852 903.834 11.3377 903.834 11.6961V24.3016C903.834 25.0298 904.208 25.7084 904.824 26.098L916.866 33.7026C917.206 33.9171 917.599 34.031 918.001 34.031C918.402 34.031 918.796 33.9171 919.135 33.7026L931.177 26.098C931.48 25.9066 931.73 25.6416 931.903 25.3278C932.076 25.014 932.167 24.6615 932.167 24.3031V11.6961C932.167 11.3375 932.076 10.9847 931.903 10.6706C931.73 10.3565 931.48 10.0913 931.177 9.89981L919.135 2.29514ZM920.131 20.7331C919.562 21.4644 918.778 21.9996 917.889 22.2639C917.001 22.5283 916.052 22.5085 915.175 22.2073C914.298 21.9062 913.538 21.3388 912.999 20.5843C912.46 19.8298 912.171 18.9259 912.171 17.9989C912.171 17.0719 912.46 16.168 912.999 15.4135C913.538 14.659 914.298 14.0916 915.175 13.7905C916.052 13.4893 917.001 13.4695 917.889 13.7338C918.778 13.9981 919.562 14.5334 920.131 15.2647L924.021 13.042C922.959 11.4573 921.414 10.2561 919.617 9.61568C917.819 8.97525 915.864 8.92943 914.038 9.48498C912.213 10.0405 910.614 11.1681 909.478 12.7012C908.342 14.2344 907.729 16.0921 907.729 18.0003C907.729 19.9085 908.342 21.7662 909.478 23.2994C910.614 24.8326 912.213 25.9601 914.038 26.5156C915.864 27.0712 917.819 27.0254 919.617 26.3849C921.414 25.7445 922.959 24.5433 924.021 22.9586L920.131 20.7331ZM921.896 17.292V16.2295H923.313V17.292H924.376V18.7086H923.313V19.7711H921.896V18.7086H920.834V17.292H921.896ZM926.855 19.7711V18.7086H925.792V17.292H926.855V16.2295H928.271V17.292H929.334V18.7086H928.271V19.7711H926.855Z" fill="#7C7C7C"/>
<path d="M957.005 15.1847H954.789C954.704 14.7112 954.545 14.2945 954.313 13.9347C954.081 13.5748 953.797 13.2694 953.461 13.0185C953.125 12.7675 952.749 12.5781 952.332 12.4503C951.92 12.3224 951.482 12.2585 951.018 12.2585C950.18 12.2585 949.429 12.4692 948.767 12.8906C948.108 13.312 947.588 13.9299 947.204 14.7443C946.825 15.5587 946.636 16.553 946.636 17.7273C946.636 18.911 946.825 19.91 947.204 20.7244C947.588 21.5388 948.111 22.1544 948.774 22.571C949.436 22.9877 950.182 23.196 951.011 23.196C951.47 23.196 951.906 23.1345 952.318 23.0114C952.734 22.8835 953.111 22.6965 953.447 22.4503C953.783 22.2041 954.067 21.9034 954.299 21.5483C954.536 21.1884 954.699 20.7765 954.789 20.3125L957.005 20.3196C956.887 21.0346 956.657 21.6927 956.316 22.294C955.98 22.8906 955.547 23.4067 955.017 23.8423C954.491 24.2732 953.89 24.607 953.213 24.8438C952.535 25.0805 951.797 25.1989 950.997 25.1989C949.737 25.1989 948.615 24.9006 947.63 24.304C946.645 23.7027 945.869 22.8433 945.301 21.7259C944.737 20.6084 944.455 19.2756 944.455 17.7273C944.455 16.1742 944.74 14.8414 945.308 13.7287C945.876 12.6113 946.652 11.7543 947.637 11.1577C948.622 10.5563 949.742 10.2557 950.997 10.2557C951.768 10.2557 952.488 10.367 953.156 10.5895C953.828 10.8073 954.432 11.1293 954.967 11.5554C955.502 11.9768 955.945 12.4929 956.295 13.1037C956.645 13.7098 956.882 14.4034 957.005 15.1847ZM963.736 22.5568V12.9545H965.647V22.5568H963.736ZM959.894 18.7074V16.804H969.496V18.7074H959.894ZM977.057 22.5568V12.9545H978.967V22.5568H977.057ZM973.214 18.7074V16.804H982.817V18.7074H973.214Z" fill="#A6A6A6"/>
</g>
<defs>
<radialGradient id="paint0_radial_117_183" cx="0" cy="0" r="1" gradientUnits="userSpaceOnUse" gradientTransform="translate(78.0234 33.5851) rotate(-90) scale(1.80515 7.93515)">
<stop stop-color="#B8B8B8" stop-opacity="0.498"/>
<stop offset="1" stop-color="#7F7F7F" stop-opacity="0"/>
</radialGradient>
<linearGradient id="paint1_linear_117_183" x1="746.271" y1="32.068" x2="773.684" y2="4.34897" gradientUnits="userSpaceOnUse">
<stop offset="0.5" stop-color="#7D7D7D"/>
</linearGradient>
<clipPath id="clip0_117_183">
<rect width="34" height="34" fill="white" transform="translate(388 1)"/>
</clipPath>
</defs>
</svg>
