<svg width="130" height="180" viewBox="0 0 130 180" fill="none" xmlns="http://www.w3.org/2000/svg">
<path d="M42.9393 162.711C48.5255 165.924 37.6639 159.682 70.9184 178.962L70.9052 175.696L42.9305 159.45L42.9436 162.711H42.9393ZM71.2774 175.03C71.4306 174.943 83.1589 168.179 82.4147 168.608C85.2428 166.997 87.1166 162.413 86.044 160.251C85.361 158.889 84.1265 159.055 82.7649 159.721C82.6073 159.808 79.1619 161.809 79.3808 161.687C77.494 162.707 75.3532 163.285 73.4882 162.212H73.4751C71.6145 161.131 80.2126 166.13 55.3068 151.648C54.9128 152.011 54.5057 152.314 54.0679 152.585L43.307 158.784L71.2817 175.03H71.2774ZM75.3882 150.983C75.4276 153.294 75.2131 155.474 75.7078 156.319C75.7078 156.35 75.7209 156.363 75.7384 156.381C76.0055 156.919 76.4827 157.252 76.9467 157.348H77.0518C78.2688 157.484 78.9299 156.871 82.3578 154.896C82.9488 154.564 83.6668 154.253 84.3673 154.052C84.411 154.038 84.4592 154.038 84.4898 154.021L75.3751 148.763L75.3882 150.983ZM113.568 169.921C113.598 169.952 113.629 169.952 113.66 169.97C117.127 171.909 119.583 170.171 119.583 166.476L119.596 158.359L82.7781 137.109L69.7495 144.635L113.563 169.921H113.568ZM119.841 79.1765C119.841 75.2189 117.14 70.3726 113.537 68.188C113.506 68.188 113.476 68.1705 113.463 68.1573L7.04057 6.70054C3.77467 4.83118 1.01221 6.22773 1.01221 10.1328L0.784546 88.8779L28.2339 104.735L28.1726 84.0885L28.1902 84.071H28.1726C28.1726 84.0404 28.2033 84.0272 28.2033 83.9834C28.2339 83.8915 28.2777 83.7995 28.3697 83.7558L65.643 62.2341C65.7481 62.1728 65.9013 62.1728 66.0195 62.2341L103.035 83.7558C103.131 83.8039 103.214 83.9616 103.214 84.071L103.337 125.017C103.337 125.153 103.262 125.289 103.157 125.35L83.5398 136.671L119.618 157.497C119.631 152.441 119.552 180.494 119.846 79.1765H119.841ZM7.13249 108.482C7.13249 108.482 7.1325 108.495 7.14564 108.495L28.2733 120.696L28.2427 105.61L0.780197 89.7535L0.749542 97.4498C0.749542 101.39 3.55578 106.438 7.12814 108.482H7.13249ZM29.0482 124.807L65.3234 145.874C65.3103 141.776 65.3672 160.715 65.2008 105.807L28.9432 84.7364L29.0482 124.807ZM102.098 84.071L65.8225 63.0046L29.3065 84.0885L65.5817 105.155C69.3161 103.001 52.054 112.965 102.098 84.071ZM65.9582 105.807L66.0808 145.891L102.584 124.807L102.479 84.7364C52.4349 113.613 69.7101 103.645 65.9626 105.807H65.9582ZM43.0312 140.209C43.0443 142.428 43.7886 144.074 45.1326 144.862C47.8513 146.443 35.278 139.136 71.7327 160.325C70.6426 158.145 71.1373 156.512 70.9928 146.224L68.9965 145.073L65.8838 146.872C65.7525 146.938 65.6211 146.929 65.5073 146.872L43.0181 133.799L43.0312 140.209ZM42.2169 158.6C42.2607 158.539 42.3089 158.495 42.3658 158.451L53.6695 151.92C54.0022 151.74 54.3043 151.499 54.6064 151.241L44.7517 145.51C43.1669 144.591 42.287 142.7 42.2738 140.209L42.2607 133.362C27.8881 124.912 28.2952 125.42 28.2952 125.031V121.572L6.74288 109.148C2.90785 106.915 0.000915527 101.521 0.000915527 97.4498C0.0578281 78.6161 0.202319 29.0015 0.259232 10.1328C0.259232 7.92636 1.06037 6.36782 2.32996 5.61483C2.32996 5.61483 2.33435 5.60461 2.34311 5.58418L11.1076 0.505809L11.1252 0.488307C12.5173 -0.295335 14.3122 -0.13335 16.1728 0.956745L122.608 62.3961C126.342 64.5544 129.381 69.7991 129.363 74.0763L129.105 161.406C129.105 163.538 128.365 165.141 127.004 165.942L118.265 171.007C116.803 171.931 114.737 171.489 113.174 170.569L90.3956 157.431C91.9322 162.746 87.7382 170.561 82.7912 173.424L71.4875 179.938C71.4875 179.938 71.4875 179.956 71.47 179.956C71.3912 180.008 71.2248 180.021 71.0935 179.956V179.938C56.143 171.257 64.7718 176.256 42.3614 163.254C42.2563 163.175 42.1819 163.057 42.1819 162.921L42.1644 158.78C42.1644 158.732 42.1819 158.688 42.195 158.644C42.2082 158.626 42.2082 158.613 42.2082 158.596L42.2169 158.6Z" fill="black"/>
<path d="M112.319 99.8055C112.109 99.8055 111.943 99.6392 111.943 99.429L112.004 78.3802L93.6868 67.8075C93.5073 67.7025 93.446 67.4704 93.5511 67.2909C93.6561 67.1071 93.8882 67.0458 94.0676 67.1509L112.577 77.8373C112.696 77.903 112.766 78.0299 112.766 78.1656L112.704 99.429C112.704 99.6392 112.534 99.8055 112.328 99.8055H112.319Z" fill="black"/>
<path d="M93.354 134.551C93.4591 134.372 93.6911 134.311 93.8706 134.416L111.811 144.774L111.868 124.171C111.868 123.961 112.039 123.795 112.245 123.795C112.455 123.795 112.621 123.966 112.621 124.176L112.56 145.426C112.56 145.724 112.24 145.899 111.991 145.754L93.4853 135.068C93.3058 134.963 93.2446 134.735 93.3496 134.551H93.354Z" fill="black"/>
<path d="M72.1469 55.3742L54.215 45.0205L54.1581 65.636C54.1581 65.8417 53.9874 66.0125 53.7816 66.0125C53.5715 66.0125 53.4051 65.8417 53.4051 65.6316L53.4664 44.3682C53.4664 44.0705 53.786 43.8953 54.0311 44.0398L72.5277 54.7175C72.7072 54.8226 72.7685 55.0546 72.6634 55.2341C72.5584 55.418 72.3307 55.4749 72.1469 55.3742Z" fill="black"/>
<path d="M65.7638 73.9766L83.1484 84.0895L65.6456 94.1849L48.261 84.0895L65.7638 73.9766Z" fill="black"/>
<path d="M88.8625 117.852L90.0664 119.642C89.3747 120.667 88.5254 121.656 87.5316 122.571C85.9906 124.016 83.2632 125.964 81.1618 126.06C77.8302 126.152 77.9572 121.823 79.5682 118.942C80.2906 117.637 81.35 116.482 82.7378 115.488L79.0779 112.616V110.466L89.3003 104.561L89.309 107.253L82.4883 111.193L85.9162 113.877V116.061C85.0975 116.595 83.1975 117.388 82.0943 118.951C81.5558 119.717 81.2975 120.5 81.2975 121.297C81.3062 124.817 86.5816 121.38 88.8669 117.852H88.8625Z" fill="black"/>
<path d="M45.1684 107.313C42.1082 107.348 42.1214 111.647 43.2158 114.505C44.0914 116.756 45.755 118.769 48.0534 120.096L51.6914 122.197L51.7264 110.377C48.767 108.792 47.0902 107.334 45.1727 107.313H45.1684ZM47.9089 122.736C43.172 120 39.7266 114.698 39.7398 109.379C39.7529 103.981 43.299 102.795 47.9571 105.483L54.5195 109.269L54.4714 126.523L47.9089 122.736Z" fill="black"/>
</svg>
