<svg width="147" height="170" viewBox="0 0 147 170" fill="none" xmlns="http://www.w3.org/2000/svg">
<path d="M9.69291 115.092C8.78546 114.567 7.92285 114.494 7.25018 114.879C6.59069 115.261 6.21877 116.037 6.21877 117.066C6.21349 119.084 7.57996 121.452 9.33683 122.471C9.86178 122.766 10.3656 122.919 10.8378 122.919C11.1728 122.919 11.4894 122.84 11.7716 122.679C12.439 122.294 12.8083 121.513 12.8083 120.484V120.471C12.8083 118.458 11.4366 116.103 9.69291 115.092Z" fill="black"/>
<path d="M18.6161 120.237C17.7165 119.72 16.846 119.646 16.1813 120.029C15.5139 120.411 15.1446 121.187 15.1446 122.215C15.1367 124.194 16.5374 126.618 18.26 127.613C18.7849 127.916 19.2967 128.064 19.761 128.064C20.1039 128.064 20.4205 127.985 20.7027 127.821C21.3701 127.438 21.7394 126.666 21.7394 125.634V125.621C21.7394 123.608 20.3677 121.253 18.6161 120.237Z" fill="black"/>
<path d="M27.5366 125.388C26.6345 124.869 25.7666 124.795 25.0992 125.18C24.4344 125.562 24.0704 126.338 24.0625 127.367C24.0625 129.345 25.4553 131.767 27.1858 132.764C27.7055 133.067 28.2146 133.22 28.6868 133.22C29.0245 133.22 29.3463 133.141 29.6285 132.972C30.288 132.59 30.6574 131.814 30.6653 130.785C30.6653 128.773 29.2988 126.404 27.5366 125.388Z" fill="black"/>
<path d="M6.51312 49.3117C6.51312 50.7177 5.51068 51.9021 4.17852 52.1712C4.03607 51.2215 3.95695 50.2666 3.93057 49.3038C3.92265 49.1217 3.77492 48.974 3.5929 48.974H3.58498C3.39769 48.9793 3.24996 49.1349 3.25524 49.3249C3.28426 50.293 3.36338 51.2611 3.50583 52.2239C1.93626 52.1844 0.672687 50.8918 0.672687 49.3117C0.672687 47.7315 1.98376 46.3968 3.5929 46.3968C5.20205 46.3968 6.51312 47.7025 6.51312 49.3117ZM23.9657 20.6346C30.579 16.7832 38.3002 13.8103 46.8999 11.7843C46.9026 11.7843 46.9026 11.7843 46.9052 11.7843C49.7252 11.1196 52.5926 10.5841 55.4838 10.1462L47.81 14.6069C47.7018 14.6676 47.6412 14.781 47.6412 14.9024L47.6201 20.0174L43.22 17.4744C43.1119 17.4137 42.9826 17.4137 42.8771 17.4744L17.8272 32.0305C17.7191 32.0912 17.6584 32.2046 17.6584 32.326L17.6056 51.1978C17.6056 51.3191 17.6663 51.4326 17.7718 51.4932L22.3961 54.1575H22.3988L17.8272 56.8166H17.8246C17.7217 56.8799 17.6558 56.9907 17.6558 57.1094C17.6558 57.1094 17.6584 57.1147 17.6584 57.1173L17.6109 72.6653C10.1482 66.8645 5.55814 60.0481 4.28665 52.8386C5.93536 52.5167 7.18574 51.0632 7.18574 49.3143C7.18574 47.5653 5.85098 46.0222 4.12049 45.7742C5.30493 36.2829 12.2216 27.4563 23.9657 20.6373V20.6346ZM73.034 0.726113L93.9845 12.8211L87.9753 20.479L73.2002 29.0734L48.6516 14.8918L73.034 0.726113ZM105.731 13.5887L105.697 13.5808L94.768 12.0877C94.7257 12.0798 94.6941 12.0877 94.6519 12.093H94.6466C94.6466 12.093 94.644 12.0956 94.6413 12.0956C94.6308 12.0956 94.6229 12.1009 94.615 12.1062C94.6071 12.1088 94.6018 12.1114 94.5912 12.1141H94.586C94.5596 12.1273 94.5305 12.1405 94.5121 12.1616C94.491 12.1748 94.4699 12.1932 94.4567 12.2143H94.4514C94.4514 12.2143 94.4435 12.2275 94.4435 12.2354C94.4435 12.2354 94.4382 12.2354 94.4382 12.2407L94.4039 12.2882L90.7583 10.1831C95.9313 10.9771 100.962 12.1115 105.734 13.5887H105.731ZM123.192 16.6434L133.846 42.9173L105.903 39.1081L95.2481 12.8343L123.192 16.6434ZM140.156 38.4935C140.156 38.4935 140.159 38.4987 140.159 38.5014C141.28 40.8861 142.008 43.3182 142.346 45.7768C140.636 46.0406 139.323 47.5258 139.323 49.3117C139.323 51.0975 140.589 52.5352 142.259 52.8359C141.066 60.1114 136.471 66.9911 128.932 72.8262L128.979 57.2308C128.979 57.1094 128.913 56.996 128.811 56.9432L125.587 55.0782L134.64 43.5372C134.714 43.4422 134.735 43.313 134.688 43.2075L126.705 23.5153C132.971 27.9022 137.582 33.0145 140.156 38.4935ZM145.833 49.3117C145.833 50.8786 144.593 52.1633 143.04 52.2239C143.166 51.2611 143.235 50.293 143.248 49.3169C143.253 49.1296 143.106 48.9793 142.918 48.974H142.91C142.728 48.974 142.581 49.1217 142.575 49.3117C142.562 50.2719 142.494 51.2294 142.359 52.1765C141.019 51.9153 139.998 50.7309 139.998 49.3117C139.998 47.7025 141.309 46.3968 142.918 46.3968C144.527 46.3968 145.833 47.7025 145.833 49.3117ZM128.259 73.3354C126.497 74.657 124.579 75.9206 122.511 77.1261C116.935 80.3628 110.619 82.9269 103.885 84.8236L103.924 71.99V71.9848L128.307 57.8164L128.259 73.3354ZM128.254 75.9153L103.871 90.081L103.885 85.5174C110.749 83.6075 117.175 81.0012 122.849 77.7117C124.78 76.5879 126.592 75.4035 128.259 74.1769L128.254 75.9153ZM128.307 82.6025L128.254 100.701L103.871 114.867L103.924 96.7761V96.7708L128.307 82.6025ZM128.927 100.897L128.953 90.8487L141.62 98.1637C143.237 99.0948 144.126 100.314 144.129 101.596C144.129 102.063 144.008 102.522 143.781 102.962C143.776 102.97 143.773 102.981 143.765 102.988C143.765 102.996 143.757 103.007 143.752 103.015C143.678 103.152 143.594 103.287 143.499 103.421C143.496 103.424 143.493 103.429 143.491 103.432C143.485 103.44 143.478 103.447 143.472 103.455C143.369 103.598 143.253 103.735 143.116 103.88C143.108 103.888 143.098 103.896 143.09 103.904L142.011 104.78C141.958 104.814 141.905 104.848 141.853 104.882C141.787 104.922 141.723 104.964 141.66 105.001L94.156 132.61L86.5455 137.034L80.7315 140.408L80.0298 140.819L79.708 141.006C79.3651 141.204 78.9984 141.378 78.6211 141.537C75.1813 142.974 70.3407 142.8 67.2332 141.006L4.87755 105.009C4.67706 104.888 4.48188 104.766 4.30513 104.645C4.29194 104.635 4.28142 104.627 4.26823 104.616C4.12842 104.516 3.99652 104.413 3.8699 104.307C3.83297 104.276 3.79335 104.244 3.75642 104.212C3.63244 104.104 3.51378 103.993 3.40562 103.88C3.39507 103.867 3.38184 103.856 3.36865 103.843C3.27633 103.743 3.1972 103.64 3.11542 103.537C3.08377 103.498 3.04951 103.463 3.02049 103.421C3.00203 103.397 2.99143 103.376 2.9756 103.352C2.92021 103.273 2.87013 103.192 2.82265 103.11C2.78308 103.046 2.74346 102.981 2.71181 102.915C2.65641 102.806 2.60898 102.698 2.56677 102.587C2.55622 102.558 2.54564 102.532 2.53509 102.506C2.47705 102.347 2.44013 102.192 2.41375 102.036C2.38737 101.883 2.3715 101.73 2.3715 101.577C2.3715 100.303 3.24733 99.0949 4.838 98.1689L17.632 90.7352L17.6056 100.767C17.6056 100.889 17.6663 101.005 17.7718 101.065L36.8124 112.055L36.8389 112.074L37.5933 112.506L42.9984 115.627C43.0512 115.656 43.104 115.669 43.1646 115.669C43.22 115.669 43.2807 115.656 43.3334 115.627L48.0053 112.915L47.9921 118.312C47.9921 118.434 48.058 118.55 48.1582 118.602L73.3822 133.166C73.4376 133.201 73.4904 133.214 73.551 133.214C73.6117 133.214 73.6671 133.201 73.7199 133.174C73.741 133.166 73.7542 133.153 73.7674 133.14C73.7726 133.132 73.7858 133.127 73.7937 133.119L98.775 118.61C98.8779 118.55 98.9438 118.441 98.9438 118.32L98.957 113.2L103.365 115.743C103.42 115.777 103.473 115.79 103.534 115.79C103.587 115.79 103.634 115.777 103.682 115.756C103.689 115.756 103.695 115.748 103.703 115.748C103.716 115.743 103.729 115.735 103.737 115.722L128.758 101.187C128.858 101.126 128.927 101.018 128.927 100.897ZM93.8975 152.88L88.3789 156.082V136.746L93.8975 133.541V152.88ZM80.6102 160.598L79.65 161.158C76.2233 163.149 70.6229 163.149 67.1725 161.158L4.8248 125.166C3.21038 124.221 2.31348 122.997 2.31348 121.713L2.36101 103.656C2.3742 103.674 2.39264 103.693 2.40583 103.711C2.45068 103.78 2.50345 103.843 2.55357 103.909C2.62743 104.007 2.7039 104.102 2.78568 104.194C2.84108 104.26 2.90437 104.321 2.96504 104.384C3.05737 104.479 3.15236 104.571 3.2526 104.664C3.31591 104.719 3.38186 104.774 3.4478 104.827C3.55596 104.919 3.6694 105.009 3.79075 105.096C3.86725 105.154 3.949 105.21 4.03078 105.268C4.08618 105.302 4.13632 105.341 4.19172 105.378C4.27086 105.423 4.34997 105.473 4.43175 105.521C4.47132 105.545 4.50302 105.568 4.54259 105.592L66.8929 141.589C66.9905 141.645 67.0934 141.695 67.1936 141.748C67.2121 141.756 67.2279 141.766 67.2464 141.774C67.2517 141.787 67.2595 141.795 67.2648 141.787C67.3334 141.827 67.3993 141.861 67.4679 141.895C67.4838 141.901 67.4943 141.906 67.5075 141.911C67.5946 141.953 67.6843 141.993 67.7713 142.033C67.7792 142.035 67.7898 142.04 67.7977 142.043C67.9375 142.109 68.0826 142.167 68.2277 142.225C68.2725 142.244 68.3121 142.262 68.3569 142.281C68.568 142.36 68.7843 142.434 69.0006 142.502C69.0111 142.505 69.0191 142.505 69.027 142.507C69.1325 142.542 69.2433 142.573 69.3541 142.605C69.3726 142.61 69.391 142.618 69.4121 142.623C69.5335 142.663 69.6496 142.697 69.7683 142.724C69.8237 142.737 69.8817 142.747 69.9371 142.761C69.9714 142.769 70.0056 142.776 70.0399 142.784C70.1164 142.803 70.1956 142.821 70.2747 142.837C70.4119 142.866 70.5543 142.89 70.6968 142.916C70.7522 142.927 70.8076 142.94 70.8656 142.948C70.8946 142.953 70.9237 142.961 70.9527 142.966C71.1163 142.99 71.2877 143.011 71.4539 143.032C71.5515 143.046 71.6491 143.059 71.7467 143.069C71.7546 143.069 71.7599 143.069 71.7678 143.069C72.0368 143.104 72.3139 143.125 72.5829 143.138C72.8863 143.159 73.1817 143.164 73.4772 143.164C73.7198 143.164 73.9678 143.159 74.2105 143.146C74.2343 143.146 74.2554 143.141 74.2791 143.141C74.5957 143.125 74.9122 143.101 75.2261 143.067C75.2341 143.064 75.2446 143.064 75.2551 143.064C75.5506 143.03 75.8408 142.99 76.123 142.943C76.3367 142.908 76.553 142.861 76.7614 142.816C76.7851 142.811 76.8089 142.803 76.8353 142.798C76.9592 142.769 77.0833 142.737 77.2072 142.705C77.2336 142.7 77.26 142.695 77.2864 142.687C77.3603 142.674 77.442 142.652 77.5159 142.626C77.5422 142.618 77.5686 142.61 77.595 142.602C77.7269 142.565 77.8535 142.526 77.9801 142.486C77.9881 142.492 77.9933 142.492 78.0013 142.486C78.2017 142.426 78.397 142.352 78.5922 142.275C78.6265 142.265 78.6554 142.249 78.6897 142.236C79.1672 142.046 79.6236 141.832 80.0457 141.587L80.6102 141.257V160.596V160.598ZM18.331 82.4758L28.0439 88.0815V95.5996C28.0439 95.6893 28.0809 95.7737 28.1442 95.837L32.4414 100.134V108.758H32.4388L18.2783 100.58L18.331 82.4758ZM33.0138 99.7569L28.7166 95.4598V88.4745L42.8823 96.6495V96.6574L42.8296 114.754L37.9283 111.926L37.1765 111.488L37.1633 111.483L33.1141 109.148V99.9944C33.1141 99.9047 33.0772 99.8203 33.0138 99.7569ZM23.0688 79.334L42.9984 90.8407C43.0169 90.8513 43.038 90.8486 43.0565 90.8565C43.0908 90.8671 43.1277 90.8856 43.1646 90.8856C43.1989 90.8856 43.2279 90.8697 43.2596 90.8592C43.2859 90.8513 43.3097 90.8539 43.3334 90.8407C43.3361 90.8407 43.3361 90.8407 43.3387 90.8355L48.0053 88.1236V88.1289L47.9921 93.2914L45.4543 94.7713L43.22 96.0718L18.6608 81.8902L23.0688 79.334ZM28.0439 63.298V70.8135C28.0439 70.9032 28.0809 70.9876 28.1442 71.0509L32.4414 75.3481V81.1437H32.4388C29.5845 79.946 26.8595 78.606 24.2875 77.1261C22.127 75.8731 20.1222 74.5541 18.2836 73.1692L18.331 57.6897L28.0439 63.298ZM42.8428 85.4646V86.1795L42.8296 89.9676L33.1141 84.3541V82.154C36.2295 83.4255 39.4847 84.5281 42.8428 85.4646ZM33.1141 81.4259V75.2083C33.1141 75.1186 33.0772 75.0342 33.0138 74.9709L28.7166 70.6737V63.6884L42.8797 71.8634L42.8613 78.9594L42.8428 84.7788C39.4847 83.8212 36.2295 82.7132 33.1141 81.4259ZM42.9984 66.0547C43.0512 66.0811 43.104 66.0942 43.1646 66.0942C43.22 66.0942 43.2807 66.0811 43.3334 66.0547L48.0053 63.3429L47.9921 68.5053L43.2174 71.2804L28.4819 62.7731L18.6661 57.1068L23.0688 54.5453L42.9984 66.0547ZM28.0439 38.5093V46.0274C28.0439 46.1171 28.0809 46.2015 28.1442 46.2649L32.4414 50.562V59.1855H32.4388L18.2783 51.0052L18.331 32.9037L28.0439 38.5093ZM33.0138 50.1848L28.7166 45.8876V38.8997L42.8823 47.0773V47.0826L42.8296 65.1789L33.1141 59.568V50.4222C33.1141 50.3326 33.0772 50.2481 33.0138 50.1848ZM67.6025 32.3233L43.22 46.497L18.6687 32.3181L43.0512 18.1497L67.6025 32.3233ZM72.8652 29.659L72.8441 35.2646L68.5917 37.7337L68.6128 32.3233C68.6128 32.202 68.5443 32.0938 68.444 32.0332L48.2928 20.3972L48.3139 15.4774L72.8652 29.6511V29.659ZM97.9889 49.8683L73.6064 64.0366L49.0552 49.863L73.4376 35.6946L97.9889 49.8683ZM89.5897 44.2415L85.2133 41.7197L87.9199 40.1369L89.5897 44.2415ZM105.278 39.364L97.7515 48.9608L90.5394 44.7955L83.4591 27.3297L94.6229 13.0901L105.278 39.3561V39.364ZM122.58 57.8296L105.217 55.4607L98.9834 54.606L98.9966 49.8683C98.9966 49.7469 98.9307 49.6335 98.8304 49.5807L98.3371 49.2958L105.808 39.7729L133.744 43.5821L122.58 57.8296ZM98.9438 68.719L98.9834 55.2866L122.68 58.5233H122.727C122.828 58.5233 122.931 58.4759 122.991 58.3967L125.17 55.6163L127.972 57.2308L103.587 71.4044L98.9438 68.719ZM103.212 85.0056C101.811 85.3908 100.397 85.7469 98.965 86.0687L98.9966 74.657C98.9966 74.5699 98.9544 74.4934 98.899 74.4354C98.8753 74.409 98.8568 74.38 98.8278 74.3642L94.2061 71.6946L98.4584 69.2176L98.7222 69.3653L103.252 71.9848V71.99L103.212 85.0056ZM98.957 87.6383L98.965 86.7572C100.397 86.4327 101.817 86.0845 103.212 85.6994L103.196 90.0889L98.957 87.6383ZM49.0552 99.4351L53.4499 96.879L73.3822 108.386C73.4376 108.415 73.4904 108.428 73.551 108.428C73.6117 108.428 73.6671 108.415 73.7199 108.386L93.5334 96.8711L97.9889 99.443L73.6064 113.609L49.0552 99.4351ZM48.7175 100.021L58.4277 105.626H58.433V113.144C58.433 113.234 58.4673 113.319 58.5306 113.382L62.8278 117.679V126.3L48.6648 118.117L48.7175 100.021ZM73.2688 64.6275L73.216 82.7238L63.5032 77.1182H63.5005V67.9672C63.5005 67.8775 63.4662 67.7931 63.4029 67.7298L59.1057 63.4325V56.4447L73.2688 64.6223V64.6275ZM59.1057 87.9944V81.2333L72.2927 88.8491C67.8715 88.8095 63.4504 88.5193 59.1057 87.9944ZM48.6832 86.2323L48.7175 75.2347L54.1306 78.358L58.433 80.8429V87.9073H58.4277C55.1303 87.4906 51.8672 86.9313 48.6832 86.2323ZM58.5306 88.5932L62.8278 92.8931V101.514L48.765 93.3995C48.7307 93.3573 48.6911 93.3125 48.6648 93.265L48.6832 86.9181C51.9015 87.6172 55.1989 88.1817 58.5306 88.5932ZM63.4029 92.5158L59.6096 88.7225C64.1178 89.2474 68.6919 89.5165 73.2688 89.5218L73.216 107.512L63.5032 101.907H63.5005V92.7532C63.5005 92.6636 63.4662 92.5791 63.4029 92.5158ZM95.6912 75.9891L73.6064 88.8227L49.0552 74.6491L53.4526 72.0929L73.3822 83.5996C73.4376 83.626 73.4904 83.6391 73.551 83.6391C73.6117 83.6391 73.6671 83.626 73.7199 83.5996L93.5334 72.085L97.9889 74.6543L95.6912 75.9891ZM98.2843 86.9049L98.2711 93.3389L79.8373 104.052L73.8887 107.505L73.9414 89.5165C82.2061 89.4875 90.4655 88.6196 98.2843 86.9049ZM74.9175 88.8438L85.4244 82.7344L98.3187 75.2426L98.2923 86.2191C90.7794 87.881 82.8656 88.7541 74.9175 88.8438ZM58.5306 63.8098L62.8278 68.107V76.7278L48.6648 68.5528L48.7175 50.4486L58.4277 56.0542H58.433V63.5724C58.433 63.6594 58.4673 63.7465 58.5306 63.8098ZM48.0105 86.7625V87.3428L43.5023 89.9623L43.5102 86.9656L43.5155 85.6519C44.9954 86.0555 46.491 86.4327 48.0105 86.7625ZM48.0448 74.6543L48.0105 86.0845C46.4963 85.739 44.998 85.3696 43.5181 84.9608L43.5313 79.8062L43.555 71.8687V71.8634L48.2928 69.1094L52.7746 71.7078L48.2136 74.3589H48.211C48.1846 74.3747 48.1661 74.3932 48.145 74.4143C48.1266 74.4328 48.1055 74.4539 48.0923 74.4802C48.0685 74.5224 48.0606 74.5673 48.0527 74.6148C48.0527 74.628 48.0448 74.6359 48.0448 74.6491V74.6543ZM63.4029 117.302L59.1057 113.005V106.019L73.2688 114.194L73.216 132.299L63.5032 126.693H63.5005V117.539C63.5005 117.45 63.4662 117.365 63.4029 117.302ZM98.8304 99.145L94.2061 96.4806L98.4663 94.0036L98.7698 94.1804L103.252 96.7708V96.7761L103.196 114.875L98.957 112.424L98.9966 99.443C98.9966 99.3217 98.9307 99.2056 98.8304 99.145ZM18.2783 75.7939L18.2836 74.0028C20.0272 75.2953 21.9186 76.5325 23.9499 77.7117C26.63 79.2523 29.4685 80.6398 32.4388 81.877H32.4414V83.9715H32.4388L18.2783 75.7939ZM3.43724 45.7293C1.52737 45.8111 0 47.386 0 49.3117C0 51.2373 1.61445 52.9045 3.5929 52.9045H3.61931C4.91981 60.4279 9.74982 67.5214 17.6109 73.4989L17.6056 75.9812C17.6056 76.1025 17.6663 76.216 17.7718 76.2767L22.3961 78.9489L17.8272 81.6C17.7191 81.6607 17.6584 81.7768 17.6584 81.8981L17.6373 89.9518L4.50034 97.5859C2.72501 98.6174 1.7411 100.002 1.7068 101.493C1.7068 101.495 1.70152 101.498 1.70152 101.501C1.69625 101.522 1.69624 101.548 1.69624 101.569L1.64085 121.713C1.64085 123.253 2.65113 124.68 4.48714 125.743L20.8608 135.192H20.8714L12.1504 136C12.0897 136.005 12.0317 136.026 11.9816 136.06L6.62917 139.957C5.35505 139.587 3.79601 139.709 2.72501 140.334C2.02596 140.745 1.64085 141.305 1.64085 141.917C1.64085 142.529 2.03125 143.093 2.73821 143.505C3.41089 143.895 4.27873 144.09 5.14134 144.09C6.00395 144.09 6.86922 143.895 7.54453 143.505C8.24358 143.093 8.62611 142.534 8.62611 141.922C8.62611 141.31 8.23565 140.745 7.52341 140.334C7.47592 140.307 7.42321 140.281 7.36781 140.255L12.3034 136.659L21.887 135.775L33.6628 142.589L19.0169 150.949C18.914 151.009 18.8481 151.12 18.8481 151.242V159.527C18.0937 159.575 17.3629 159.765 16.7773 160.108C16.0756 160.517 15.6931 161.076 15.6931 161.688C15.6931 162.3 16.0836 162.867 16.7905 163.276C17.4632 163.666 18.331 163.862 19.1936 163.862C20.0563 163.862 20.9215 163.666 21.5968 163.276C22.2959 162.867 22.6784 162.308 22.6784 161.696C22.6784 161.084 22.288 160.517 21.5757 160.108C20.998 159.77 20.2699 159.575 19.5234 159.527H19.5207V151.437L34.3407 142.98H34.3434L50.5957 152.36L37.0446 160.232C36.9497 160.284 36.8889 160.385 36.8784 160.493C36.8705 160.604 36.9153 160.712 36.9997 160.78L41.442 164.439C41.5159 164.497 41.603 164.526 41.7006 164.513L47.3563 163.759L51.3396 166.433C50.8173 166.819 50.535 167.301 50.535 167.826C50.535 168.446 50.9255 169.011 51.6324 169.422C52.3051 169.805 53.173 170 54.0356 170C54.8982 170 55.7634 169.805 56.4361 169.422C57.1378 169.011 57.5203 168.452 57.5203 167.84C57.5203 167.228 57.1299 166.655 56.4176 166.251C55.191 165.539 53.3339 165.479 52.0017 166.064H51.9964L47.6254 163.128C47.5568 163.083 47.4777 163.062 47.3933 163.075L41.7559 163.827L37.8017 160.569L51.2657 152.751L66.8322 161.735C68.6497 162.793 71.0397 163.318 73.4139 163.318C75.788 163.318 78.178 162.785 79.9824 161.735L81.114 161.076L88.2127 156.958C88.2127 156.958 88.2259 156.95 88.2338 156.945L94.3987 153.357L95.3008 152.832H95.3087L108.633 160.569L104.679 163.827L99.0415 163.075C98.9623 163.062 98.8779 163.083 98.8093 163.128L94.433 166.069C93.0929 165.479 91.2279 165.539 89.996 166.251C89.3048 166.655 88.9144 167.214 88.9144 167.826C88.9144 168.438 89.3048 169.011 90.017 169.422C90.6897 169.805 91.5576 170 92.4202 170C93.2828 170 94.1507 169.805 94.8155 169.422L94.8234 169.414C95.5225 169.011 95.9049 168.446 95.9049 167.84C95.8996 167.309 95.6174 166.819 95.0872 166.441L99.0784 163.759L104.737 164.513C104.834 164.526 104.921 164.497 104.995 164.439L109.435 160.78C109.522 160.712 109.567 160.604 109.556 160.493C109.548 160.385 109.485 160.284 109.39 160.232L95.9788 152.442H95.9814L112.178 143.027L126.914 151.437V159.527C126.159 159.575 125.426 159.765 124.84 160.108C124.147 160.517 123.759 161.076 123.764 161.688C123.764 162.3 124.147 162.867 124.862 163.276C125.534 163.666 126.402 163.862 127.265 163.862C128.127 163.862 128.993 163.666 129.66 163.276C130.359 162.867 130.749 162.308 130.749 161.696C130.744 161.084 130.354 160.517 129.647 160.108C129.061 159.77 128.344 159.575 127.589 159.527V151.242C127.589 151.12 127.526 151.009 127.42 150.949L112.856 142.637L124.651 135.786L134.137 136.659L139.191 140.339C138.497 140.751 138.112 141.305 138.112 141.917C138.112 142.529 138.502 143.093 139.209 143.505C139.882 143.895 140.75 144.09 141.612 144.09C142.475 144.09 143.343 143.895 144.016 143.505C144.715 143.093 145.097 142.534 145.097 141.922C145.097 141.31 144.709 140.745 143.995 140.334C142.863 139.682 141.196 139.574 139.895 140.017L134.456 136.06C134.408 136.026 134.35 136.005 134.29 136L125.645 135.2H125.656L141.95 125.735C142.09 125.656 142.225 125.569 142.354 125.482C142.48 125.392 142.61 125.305 142.728 125.218C142.844 125.123 142.966 125.036 143.074 124.941C143.179 124.849 143.288 124.754 143.388 124.654C143.47 124.572 143.551 124.493 143.625 124.411C143.712 124.311 143.799 124.208 143.881 124.102C143.955 124.008 144.016 123.92 144.076 123.831C144.095 123.804 144.116 123.778 144.129 123.752C144.155 123.704 144.19 123.657 144.216 123.609C144.311 123.448 144.393 123.293 144.459 123.126C144.506 123.018 144.546 122.897 144.58 122.781C144.607 122.694 144.633 122.602 144.654 122.507C144.675 122.42 144.694 122.325 144.702 122.23C144.715 122.169 144.723 122.116 144.728 122.055C144.736 121.955 144.741 121.852 144.741 121.752L144.802 101.63V101.582C144.802 101.582 144.799 101.574 144.799 101.572C144.786 100.047 143.781 98.6305 141.958 97.5806L128.961 90.0757L128.979 82.0195C128.979 81.8981 128.913 81.782 128.811 81.7293L124.189 79.0571L128.758 76.398C128.858 76.3373 128.927 76.2318 128.927 76.1105L128.932 73.6651C136.867 67.6559 141.7 60.5018 142.931 52.9045C144.905 52.8966 146.506 51.2901 146.506 49.3117C146.506 47.3332 144.957 45.7847 143.026 45.7293H143.024C142.673 43.1916 141.924 40.6751 140.771 38.2112C140.768 38.2086 140.763 38.2033 140.76 38.198C138.02 32.3708 133.037 26.9604 126.246 22.3809L123.743 16.2108C123.696 16.0974 123.595 16.0235 123.474 16.0024L109.382 14.0794H109.374C103.07 11.8529 96.2479 10.2517 89.1835 9.27565H89.1782L73.2002 0.0455044C73.0946 -0.0151681 72.9654 -0.0151681 72.8573 0.0455044L57.0507 9.23347H57.0454C53.5713 9.7083 50.1262 10.3308 46.747 11.1275C46.7417 11.1301 46.739 11.1328 46.7338 11.1328C38.0761 13.1719 30.302 16.1739 23.6201 20.049C11.6729 26.9947 4.64015 36.0059 3.4478 45.7293H3.43724Z" fill="black"/>
<path d="M42.1041 25.5116C42.0461 25.5064 41.9801 25.5116 41.901 25.5354C41.8245 25.5538 41.7374 25.5881 41.6293 25.6356C41.5185 25.6805 41.3945 25.7438 41.2521 25.8282C41.1202 25.9047 41.0147 25.9733 40.9382 26.0366C40.859 26.0999 40.7983 26.1526 40.7587 26.1975C40.7218 26.245 40.7086 26.2846 40.7113 26.3189C40.7218 26.3532 40.7509 26.3848 40.7957 26.4112L51.4213 32.547C51.4688 32.5734 51.5189 32.5892 51.5769 32.5971C51.635 32.6024 51.7009 32.5971 51.7748 32.5734C51.8539 32.5523 51.9489 32.518 52.0597 32.4679C52.1678 32.423 52.2918 32.3571 52.4263 32.2806C52.5688 32.1962 52.6796 32.1249 52.7614 32.0616C52.8405 31.9983 52.8959 31.9456 52.9302 31.9034C52.9724 31.8585 52.9803 31.819 52.9698 31.7847C52.9566 31.753 52.9328 31.724 52.888 31.6976L42.2598 25.5618C42.2149 25.5354 42.1595 25.5196 42.1041 25.5116Z" fill="black"/>
<path d="M39.0898 35.2414L35.4758 30.9495L42.9201 33.015L39.0898 35.2414ZM49.6626 33.5742C49.5835 33.5268 49.4621 33.4846 49.2854 33.4397L35.3149 29.6437C35.2331 29.6174 35.1461 29.6094 35.0669 29.6094C34.9772 29.6015 34.8902 29.6174 34.7978 29.649C34.7029 29.678 34.5894 29.7229 34.4602 29.7914C34.3336 29.8521 34.1779 29.9339 33.9959 30.0394C33.8271 30.1423 33.6925 30.2293 33.5844 30.2953C33.492 30.3639 33.4102 30.4245 33.3707 30.4773C33.3153 30.5327 33.2969 30.5855 33.2969 30.625C33.2969 30.6725 33.3233 30.72 33.3628 30.7727L39.9524 38.8501C40.0315 38.9504 40.1133 39.019 40.2083 39.0796C40.2742 39.1192 40.3481 39.1324 40.4219 39.1324C40.5037 39.1324 40.6039 39.106 40.7253 39.0506C40.8466 38.9978 40.9812 38.924 41.15 38.829C41.3057 38.742 41.4323 38.6602 41.5193 38.5942C41.6064 38.5336 41.667 38.4808 41.696 38.4333C41.7224 38.3858 41.7356 38.3463 41.7224 38.3041C41.7145 38.2645 41.6961 38.2302 41.6618 38.1906L39.897 36.1304L44.4738 33.4714L48.1089 34.4764C48.1827 34.4949 48.2513 34.5081 48.3094 34.5081C48.37 34.516 48.4386 34.5081 48.5125 34.4896C48.5863 34.4685 48.6813 34.4289 48.7895 34.3735C48.9108 34.3208 49.0506 34.239 49.2247 34.1388C49.4015 34.0385 49.536 33.9515 49.631 33.8829C49.7233 33.8169 49.7787 33.7563 49.7787 33.7088C49.784 33.6613 49.7496 33.6217 49.6626 33.5742Z" fill="black"/>
</svg>
