<svg width="92" height="182" viewBox="0 0 92 182" fill="none" xmlns="http://www.w3.org/2000/svg">
<path d="M20.2912 6.74435C19.6837 6.53574 19.0707 6.43555 18.5854 6.49905C16.9432 6.76401 16.1456 8.2677 15.9767 10.1988L15.9766 10.1998L9.94173 77.3522L7.21468 107.705L5.05058 131.757C4.86991 133.754 5.37821 136.067 6.36828 138.186C7.35822 140.306 8.80711 142.182 10.456 143.331L10.4578 143.332L60.77 178.586L60.9188 178.69C62.4706 179.71 63.7861 179.843 64.7181 179.41C65.6794 178.964 66.4289 177.827 66.596 175.918L66.5961 175.917C67.777 162.757 76.2042 69.0387 77.5235 54.3443C77.6936 52.3997 77.2011 50.1031 76.2246 47.9803C75.2692 45.9034 73.8716 44.0413 72.2495 42.8595L72.2427 42.8589L72.1328 42.7816C71.8 42.5485 71.6058 42.4126 71.5075 42.3436C71.5038 42.3411 71.4999 42.3382 71.4964 42.3358C71.4772 42.3224 71.4611 42.3115 71.4493 42.3032C71.4476 42.3021 71.4462 42.2999 71.4447 42.2989C71.4405 42.2959 71.4365 42.2941 71.4336 42.292C71.4294 42.2891 71.4256 42.2868 71.4234 42.2853C71.4229 42.2849 71.4219 42.284 71.4206 42.2831C71.4203 42.2828 71.4177 42.2816 71.4151 42.2796C71.4132 42.2783 71.4079 42.2738 71.4041 42.2708L71.4041 42.2699C68.8023 40.4476 58.2958 33.0918 21.8058 7.53954L21.793 7.52959L21.7811 7.51973C21.4413 7.24827 20.8967 6.95229 20.2912 6.74435ZM66.74 178.844C66.5978 179.076 66.441 179.29 66.2667 179.481L67.022 179.127L66.8159 178.851L66.74 178.844ZM66.7411 178.843L66.816 178.85L66.7721 178.791C66.7617 178.808 66.7516 178.826 66.7411 178.843ZM79.1992 54.9898L68.3284 176.062C68.2703 176.725 68.1386 177.341 67.9667 177.877L73.5174 175.284L73.5246 175.281C74.4156 174.765 74.9526 173.724 75.2702 172.461C75.5891 171.192 75.6593 169.819 75.7094 168.808L75.7108 168.769C75.7614 167.657 77.594 147.622 86.212 51.6979L79.1992 54.9898ZM81.0074 37.7959C81.0795 38.0433 81.0044 38.2811 80.9876 38.2912C80.9684 38.3018 80.9348 38.3175 80.9322 38.3187C80.8984 38.3347 80.8336 38.3654 80.7431 38.408C80.5618 38.4933 80.2745 38.6282 79.915 38.7972C79.1953 39.1355 78.1853 39.6098 77.1547 40.0938C75.1974 41.0132 73.1595 41.9698 72.8949 42.0935C74.6629 43.4009 76.1367 45.3956 77.1336 47.5628C78.126 49.7203 78.6668 52.0943 78.5354 54.1965L86.5754 50.4239L87.0692 50.1917C87.234 48.1025 86.6996 45.6915 85.6694 43.4797C84.6265 41.2409 83.0994 39.256 81.3536 38.0399L81.3528 38.0388L81.0074 37.7959ZM30.6146 3.38424C29.054 2.30119 27.6645 2.09087 26.6697 2.55778L21.1149 5.16266C21.3088 5.25607 21.5261 5.37309 21.7786 5.52069C22.8036 6.12014 24.5043 7.27601 27.7389 9.54082C34.2051 14.0683 46.8616 23.0678 72.7084 41.0763C73.3482 40.7762 75.0652 39.9711 76.73 39.1891C77.7605 38.7051 78.7698 38.2306 79.4893 37.8924C79.5735 37.8528 79.6537 37.8148 79.7296 37.7792L30.9311 3.59916L30.9279 3.60182L30.6146 3.38424Z" stroke="black"/>
<path d="M55.7341 40.3038L42.1012 30.7569C41.3592 30.2372 40.819 29.0951 40.9025 28.1887C40.9808 27.2944 41.6565 26.983 42.3943 27.5023L56.0273 37.0492C56.7692 37.5689 57.3083 38.7235 57.2259 39.6174C57.1466 40.5242 56.4719 40.8231 55.7341 40.3038Z" fill="black"/>
<path d="M37.2016 27.3225C36.4517 26.7979 35.9196 25.6608 36.0031 24.7543C36.0813 23.8601 36.7448 23.5434 37.4948 24.0679C38.2367 24.5876 38.7757 25.7422 38.6933 26.6361C38.6139 27.5429 37.9394 27.8418 37.2016 27.3225Z" fill="black"/>
<path d="M78.0171 106.306C78.7808 105.951 79.3429 106.312 79.2729 107.161L77.4476 128.746C77.3745 129.581 76.7006 130.546 75.937 130.9C75.182 131.251 74.6221 130.865 74.6952 130.029L76.5204 108.444C76.5947 107.596 77.2664 106.657 78.0171 106.306ZM76.0205 129.897C76.4289 129.705 76.7716 129.204 76.8096 128.77C76.8477 128.335 76.5629 128.125 76.1545 128.317C75.7594 128.501 75.4126 129.001 75.3787 129.436C75.3407 129.871 75.6254 130.081 76.0251 129.893L76.0205 129.897Z" fill="black"/>
<path d="M81.4145 67.8554C82.6965 67.2559 83.6201 67.9136 83.5029 69.3014C83.38 70.7054 82.2681 72.2967 80.9861 72.8961C79.7174 73.4883 78.7791 72.8546 78.8978 71.4502C79.0191 70.0628 80.1458 68.4476 81.4145 67.8554Z" fill="black"/>
<path d="M80.5043 78.1904C81.7863 77.5909 82.7099 78.2486 82.5927 79.6363C82.4699 81.0404 81.358 82.6316 80.076 83.2311C78.8073 83.8233 77.8689 83.1896 77.9876 81.7852C78.109 80.3978 79.2356 78.7826 80.5043 78.1904Z" fill="black"/>
<path d="M26.6621 101.518L61.3893 125.863C63.1264 127.089 64.3907 129.772 64.1909 131.864C64.0066 133.97 62.4444 134.693 60.7077 133.463L25.9679 109.117C24.2298 107.904 22.9821 105.222 23.1789 103.117C23.3632 101.01 24.924 100.305 26.6621 101.518Z" fill="black"/>
<path d="M26.3365 122.144L59.6673 145.507C61.4055 146.721 62.6687 149.417 62.4688 151.509C62.2846 153.615 60.7238 154.32 58.9856 153.107L25.6548 129.743C23.9166 128.53 22.6523 125.847 22.8533 123.742C23.0361 121.653 24.5983 120.931 26.3365 122.144Z" fill="black"/>
</svg>
