<svg width="119" height="180" viewBox="0 0 119 180" fill="none" xmlns="http://www.w3.org/2000/svg">
<path d="M70.3209 174.834C74.2856 177.163 80.7672 177.163 84.7598 174.834L115.273 157.252C117.172 156.119 118.221 154.679 118.221 153.188L118.193 145.142C118.165 145.198 118.109 145.242 118.081 145.298C118.025 145.366 117.969 145.438 117.914 145.505C117.818 145.645 117.718 145.773 117.591 145.912C117.551 145.968 117.483 146.024 117.423 146.08C117.299 146.219 117.16 146.343 117.02 146.483C116.964 146.527 116.908 146.566 116.853 146.61C116.49 146.917 116.071 147.225 115.596 147.488L92.8767 160.615L85.0829 165.114C85.0111 165.154 84.9273 165.182 84.8436 165.225C80.6555 167.527 74.0064 167.499 69.8901 165.114L5.34149 127.604C4.58763 127.158 3.96142 126.655 3.45885 126.109C3.4429 126.093 3.43098 126.065 3.41503 126.053C3.29138 125.913 3.17965 125.773 3.06398 125.634C3.02409 125.562 2.96821 125.506 2.92833 125.438C2.89642 125.395 2.85655 125.355 2.84458 125.311L2.87253 133.372C2.87253 134.836 3.88965 136.248 5.77629 137.337L70.3209 174.834ZM94.0335 64.5635L87.4562 60.7822V66.5219C90.7787 68.5322 90.7947 71.771 87.5679 73.7813C92.3981 78.5876 95.8643 85.9307 95.8483 92.2009L95.8364 96.8796C97.4956 95.9303 99.478 94.7696 101.855 93.3895C101.995 93.3177 102.162 93.3337 102.274 93.4454C103.235 94.4226 103.726 95.5235 103.738 96.6562C103.754 96.6842 103.766 96.7001 103.766 96.7281L103.782 101.81C103.794 102.759 103.459 103.652 102.832 104.478C103.431 105.288 103.738 106.153 103.754 107.047C103.754 107.059 103.766 107.075 103.766 107.087L103.782 112.172C103.794 113.161 103.447 114.055 102.844 114.853C103.431 115.662 103.738 116.516 103.754 117.409C103.754 117.421 103.766 117.421 103.766 117.449L103.782 122.535C103.794 123.524 103.447 124.433 102.86 125.227C103.431 126.025 103.738 126.878 103.754 127.756C103.754 127.772 103.766 127.784 103.766 127.8L103.782 132.881C103.794 134.656 102.621 136.316 100.499 137.544C99.1429 138.326 97.4837 138.86 95.7247 139.14L95.7087 143.87C95.6967 146.399 95.1223 148.509 94.0613 150.072L102.677 145.075C104.883 143.786 106.115 141.05 106.127 137.392L106.267 85.7233C106.283 77.9574 100.794 68.4604 94.0335 64.5635ZM102.972 130.257C102.872 130.396 102.777 130.536 102.665 130.676C102.609 130.743 102.537 130.799 102.481 130.871C102.358 131.011 102.23 131.134 102.107 131.262C102.051 131.318 101.979 131.374 101.923 131.429C101.744 131.581 101.56 131.737 101.353 131.888C101.325 131.904 101.309 131.932 101.281 131.944C101.03 132.127 100.766 132.295 100.487 132.462C100.096 132.686 99.6735 132.881 99.2267 133.077C99.2028 133.093 99.1868 133.105 99.1589 133.121C98.9235 133.204 98.6683 133.288 98.417 133.372C98.1657 133.456 97.9144 133.551 97.6511 133.635C97.4557 133.691 97.2444 133.719 97.0489 133.775C96.7139 133.859 96.3948 133.942 96.0438 133.998C95.8364 134.042 95.6249 134.054 95.4175 134.082C95.0665 134.138 94.7314 134.194 94.3844 134.222C94.1451 134.237 93.8939 134.237 93.6586 134.249C93.3355 134.265 93.0123 134.277 92.6773 134.277C92.414 134.277 92.1468 134.265 91.8835 134.249C91.5764 134.237 91.2813 134.221 90.9901 134.194C90.7109 134.166 90.4317 134.11 90.1525 134.07C89.8733 134.026 89.5941 133.998 89.3149 133.942C89.0357 133.886 88.7684 133.819 88.5051 133.747C88.3097 133.691 88.0983 133.651 87.9029 133.595L87.9188 137.951C91.9234 139.207 96.9092 138.804 100.152 136.93C102.051 135.841 103.096 134.405 103.084 132.881V130.101C103.056 130.157 103 130.201 102.972 130.257ZM102.609 120.381C102.609 120.381 102.581 120.425 102.565 120.437C100.806 122.491 97.5954 123.608 94.2569 123.859C93.9099 123.887 93.5588 123.903 93.2238 123.903H93.152C92.805 123.915 92.4539 123.915 92.091 123.903C92.079 123.903 92.0631 123.903 92.0511 123.887C91.7001 123.887 91.3531 123.859 91.0021 123.831C90.9622 123.819 90.9343 123.819 90.9063 123.819C90.5434 123.775 90.1804 123.735 89.8294 123.679C89.4664 123.624 89.1313 123.552 88.7843 123.468C88.7125 123.456 88.6448 123.428 88.573 123.412C88.3497 123.356 88.1262 123.301 87.9029 123.245L87.9188 127.588C91.9234 128.845 96.9092 128.442 100.152 126.583C102.051 125.478 103.096 124.042 103.084 122.535V119.755C102.944 119.978 102.777 120.185 102.609 120.381ZM101.381 111.167C101.297 111.235 101.197 111.307 101.101 111.362C100.974 111.458 100.834 111.53 100.711 111.614C100.515 111.737 100.32 111.849 100.108 111.949C100.024 111.989 99.9406 112.033 99.8569 112.072C99.5777 112.212 99.2985 112.34 99.0073 112.451C98.9635 112.463 98.9076 112.491 98.8637 112.507C98.5287 112.631 98.1817 112.758 97.8187 112.854C97.7908 112.87 97.7749 112.87 97.747 112.882C96.9931 113.094 96.1993 113.261 95.3736 113.373C95.1223 113.413 94.8711 113.441 94.6078 113.456C94.4961 113.468 94.3686 113.484 94.2569 113.496C93.9497 113.524 93.6426 113.54 93.3235 113.54C93.2676 113.54 93.1958 113.54 93.1241 113.552C92.805 113.552 92.4699 113.552 92.1468 113.54H92.0232C91.0579 113.496 90.0967 113.385 89.1593 113.189C89.0636 113.177 88.9639 113.149 88.8682 113.133C88.6568 113.078 88.4493 113.022 88.2379 112.966C88.1263 112.938 88.0145 112.91 87.9029 112.882L87.9188 117.242C91.9234 118.498 96.9092 118.091 100.152 116.221C102.051 115.12 103.096 113.68 103.084 112.172V109.42C102.677 110.078 102.079 110.648 101.381 111.167ZM101.951 100.358C101.951 100.358 101.923 100.37 101.923 100.386C101.783 100.509 101.632 100.621 101.476 100.733C101.337 100.832 101.197 100.944 101.057 101.04C100.974 101.096 100.878 101.151 100.794 101.207C100.555 101.363 100.304 101.502 100.04 101.626C100.013 101.642 99.9846 101.654 99.9407 101.682C98.5846 102.356 96.9811 102.815 95.3058 103.026C95.234 103.038 95.1662 103.038 95.0944 103.054C94.7873 103.094 94.4682 103.122 94.161 103.15C93.9496 103.166 93.7383 103.166 93.5429 103.178C93.3634 103.178 93.1799 103.194 93.0004 103.194H92.2744C92.1189 103.178 91.9673 103.178 91.8118 103.166C91.5764 103.15 91.3251 103.138 91.0738 103.122C90.8903 103.11 90.7109 103.082 90.5274 103.054C90.2761 103.026 90.0249 102.998 89.7616 102.954C89.4386 102.899 89.1034 102.831 88.7963 102.759C88.6727 102.731 88.5451 102.691 88.4334 102.663C88.2539 102.619 88.0704 102.579 87.9029 102.524L87.9188 106.879C91.9234 108.136 96.9092 107.729 100.152 105.858C102.051 104.769 103.096 103.333 103.084 101.81V99.0574C102.789 99.5321 102.398 99.9668 101.951 100.358ZM86.3793 74.3835C86.1718 74.4793 85.9604 74.579 85.737 74.6627C85.5017 74.7465 85.2345 74.8143 84.9832 74.8861C84.7479 74.9539 84.5086 75.0377 84.2732 75.0935C84.0219 75.1374 83.7706 75.1773 83.5193 75.2212C83.2521 75.261 82.9888 75.3169 82.7096 75.3448C82.5261 75.3608 82.3467 75.3608 82.1512 75.3727C81.8162 75.4006 81.4811 75.4286 81.1421 75.4286C80.6276 75.4286 80.1091 75.4007 79.5945 75.3448C79.4669 75.3329 79.3552 75.3049 79.2435 75.289C78.8526 75.2491 78.4777 75.1773 78.0988 75.0935C77.9193 75.0656 77.7637 75.0098 77.5842 74.9699C77.2611 74.8861 76.954 74.7864 76.6469 74.6747C76.4674 74.6069 76.2839 74.5351 76.1045 74.4673C75.9768 74.4115 75.8252 74.3676 75.6976 74.2998C75.6697 74.2838 75.6417 74.2559 75.6297 74.228C75.3904 74.1163 75.1551 74.0326 74.9437 73.9089C71.5493 71.9106 71.4935 68.5322 75.0274 66.478L48.4948 51.1576C48.3951 51.2294 48.2995 51.2972 48.1878 51.353C48.1718 51.353 48.1997 51.353 48.1159 51.3969C48.0322 51.4527 47.9205 51.4806 47.8248 51.5365C47.8088 51.5365 47.8088 51.5484 47.7968 51.5484C47.741 51.5764 47.6852 51.6043 47.6293 51.6322C47.2783 51.7997 46.9034 51.9673 46.5125 52.1069C46.4686 52.1228 46.4128 52.1348 46.357 52.1507C45.9661 52.2744 45.5632 52.402 45.1284 52.4858C44.9888 52.5257 44.8492 52.5416 44.7256 52.5696C44.3746 52.6254 44.0396 52.6932 43.6766 52.7371C43.4373 52.749 43.2019 52.765 42.9626 52.7769C42.6834 52.8049 42.4201 52.8208 42.1529 52.8208C41.8617 52.8208 41.5825 52.8049 41.2874 52.7929C41.0521 52.7769 40.8127 52.777 40.5774 52.749C40.3101 52.7371 40.0469 52.6812 39.7677 52.6373C39.5164 52.5975 39.2612 52.5696 39.0099 52.5137C38.8025 52.4698 38.591 52.402 38.3836 52.3462C38.0885 52.2744 37.8092 52.2066 37.546 52.1069C37.3625 52.0391 37.2109 51.9673 37.0434 51.8994C36.7761 51.7878 36.4969 51.688 36.2457 51.5484C36.0941 51.4806 35.9545 51.3969 35.8149 51.3131C32.4485 49.3148 32.4206 46.0321 35.6873 44.0099C33.326 43.1443 31.1761 43.2002 29.4609 44.1894H29.445C29.417 44.2053 29.3891 44.2173 29.3612 44.2332L20.8853 49.1752H20.969C21.3879 49.1473 21.8067 49.1632 22.2415 49.2031C22.409 49.2191 22.5885 49.2589 22.7719 49.2869C23.0511 49.3307 23.3424 49.3866 23.6495 49.4544C23.833 49.4983 24.0124 49.5541 24.2079 49.61C24.5429 49.7216 24.894 49.8453 25.241 49.9849C25.3806 50.0407 25.5082 50.0846 25.6478 50.1404C26.1504 50.3638 26.6649 50.6151 27.1954 50.9222L47.6971 62.7486L72.1636 76.8685C79.1198 80.905 84.7598 90.6653 84.7319 98.6386L84.5922 150.336C84.5922 150.519 84.5644 150.687 84.5644 150.854C84.5524 151.217 84.5364 151.58 84.4965 151.915C84.4686 152.139 84.4407 152.334 84.4128 152.545C84.3569 152.853 84.3011 153.16 84.2293 153.467C84.1894 153.646 84.1455 153.83 84.0897 154.009C84.0059 154.332 83.8943 154.624 83.7826 154.919C83.7268 155.058 83.6869 155.198 83.631 155.322C83.4475 155.728 83.2521 156.091 83.0287 156.438C83.0168 156.454 83.0009 156.482 82.9889 156.51L91.5884 151.512C93.7702 150.224 94.9828 147.504 95.0107 143.858L95.0267 139.223C92.4978 139.514 89.8175 139.319 87.4562 138.537C87.0254 138.382 87.3046 138.146 87.2048 133.161V133.121C87.2048 133.077 87.2168 133.021 87.2328 132.981C87.2448 132.981 87.2448 132.965 87.2448 132.965C87.2607 132.925 87.3046 132.869 87.3445 132.841H87.3565L87.3724 132.825L94.0773 128.956C91.8556 129.112 89.5383 128.873 87.4562 128.175C87.3166 128.135 87.2168 127.995 87.2168 127.856L87.2048 122.77C87.2048 122.73 87.2168 122.686 87.2328 122.646C87.2448 122.603 87.2607 122.591 87.2886 122.563C87.3045 122.535 87.3166 122.507 87.3445 122.479H87.3565L87.3724 122.463C90.0967 120.915 92.2864 119.643 94.0893 118.594C91.8835 118.749 89.5662 118.526 87.4562 117.828C87.3166 117.772 87.2168 117.645 87.2168 117.493L87.2048 112.435C87.1929 112.352 87.177 112.312 87.2727 112.212C87.3046 112.184 87.3166 112.144 87.3445 112.128C87.3724 112.1 87.4003 112.1 87.4282 112.088C87.9308 111.753 89.4664 110.9 94.1052 108.247C91.8397 108.399 89.5103 108.148 87.4562 107.466C87.3166 107.422 87.2168 107.282 87.2168 107.13C87.2447 103.624 87.1769 102.496 87.2048 102.073C87.1929 102.005 87.1929 101.961 87.2448 101.893C87.2607 101.838 87.3046 101.81 87.3445 101.766C87.3724 101.754 87.4003 101.754 87.4163 101.738C87.9308 101.375 89.6499 100.453 95.1383 97.2865L95.1503 92.2009C95.1663 86.0424 91.728 78.811 86.9416 74.1442C86.7581 74.244 86.5627 74.2998 86.3793 74.3835ZM75.558 42.6816C75.6018 32.2912 67.9476 19.0688 58.8575 13.8157C55.5469 11.929 52.6152 11.4265 50.8402 12.4476C49.0932 13.4248 48.0481 16.2328 48.0481 19.9622L48.0202 37.277C48.4949 37.4884 48.9536 37.7237 49.4282 38.003L75.546 53.0721L75.558 42.6816ZM75.546 53.8818L49.0812 38.6052C48.7183 38.3938 48.3672 38.2263 48.0202 38.0468L48.0042 43.7027C48.0601 43.7306 48.104 43.7586 48.1598 43.7865L48.2835 43.8703C49.9468 44.8754 50.8562 46.1997 50.8402 47.6236C50.8282 48.7564 50.2259 49.8333 49.1211 50.7108L75.518 65.9475L75.546 53.8818ZM64.4854 4.09531C57.601 0.114623 50.5889 -0.387962 45.2122 2.71123C39.8235 5.79846 36.832 11.9011 36.7921 19.9143L36.7762 42.7894L36.7363 51.014C39.7517 52.5097 44.1911 52.5097 47.2942 51.0299L47.3501 19.9582C47.3501 15.9217 48.4948 12.9621 50.4892 11.8453C52.5154 10.6846 55.6146 11.1752 59.2044 13.2134C68.49 18.5742 76.2998 32.0638 76.256 42.6777L76.244 65.2854L76.2002 73.7653C79.2994 75.1454 83.6429 75.0337 86.5906 73.526C86.6305 73.514 86.6744 73.4861 86.7142 73.4582L86.7701 42.6936C86.814 28.2945 77.0258 11.3268 64.4854 4.09132V4.09531ZM36.0502 40.3483L31.9858 42.7255C33.2462 42.6258 34.6263 42.8651 36.0502 43.4076V40.3483ZM20.4506 49.945C20.2711 49.9729 20.0756 50.0008 19.9081 50.0407C19.8243 50.0567 19.7406 50.0846 19.6688 50.1125C19.4614 50.1684 19.25 50.2242 19.0546 50.308C18.8192 50.4037 18.5679 50.5313 18.3446 50.655H18.3166C16.1947 51.8994 14.8944 54.5399 14.8784 58.3212L14.7428 109.994C14.7149 117.772 20.1992 127.269 26.96 131.162L71.9282 157.124C75.1551 158.983 78.1705 159.302 80.4161 158.006C80.4321 158.006 80.4321 157.99 80.4321 157.99L80.46 157.978C80.5837 157.906 80.7113 157.81 80.823 157.727C80.9626 157.627 81.1022 157.543 81.2258 157.432C81.3814 157.308 81.537 157.152 81.6726 157.001C81.7604 156.917 81.8441 156.845 81.9119 156.761C82.0515 156.61 82.1791 156.426 82.3028 156.243C82.3586 156.147 82.4424 156.063 82.4982 155.964C82.5979 155.812 82.6817 155.645 82.7655 155.477C82.8333 155.338 82.9171 155.198 82.9889 155.042C83.0447 154.931 83.0726 154.819 83.1125 154.723C83.3358 154.149 83.5313 153.551 83.659 152.88C83.8105 152.083 83.8823 151.233 83.8823 150.324L84.0339 98.6386C84.0618 90.8767 78.5734 81.3916 71.8007 77.4827L54.3741 67.4154L26.8325 51.5205C26.3738 51.2573 25.911 51.018 25.4643 50.8225C25.3805 50.7826 25.3128 50.7667 25.229 50.7268C24.878 50.5712 24.5309 50.4476 24.1799 50.3359C24.0403 50.292 23.9167 50.2521 23.7891 50.2242C23.4979 50.1405 23.2027 50.0687 22.9116 50.0128C22.7839 49.9849 22.6603 49.9729 22.5207 49.945C22.2255 49.9011 21.9344 49.8892 21.6552 49.8732C21.5435 49.8732 21.4318 49.8613 21.3201 49.8732C21.1526 49.8732 20.9811 49.8892 20.8295 49.9011C20.7059 49.9011 20.5782 49.9171 20.4506 49.945ZM1.20929 151.636C2.8566 150.659 5.55291 150.643 7.25607 151.608C7.25607 151.608 7.26806 151.624 7.28401 151.624C8.31708 152.222 8.71994 153.048 8.48461 153.83L11.851 154.388L22.8278 148.046L5.42523 137.935C3.31922 136.722 2.17052 135.103 2.17052 133.372L2.13059 123.021V122.993C2.13059 121.234 3.29136 119.599 5.38541 118.386L14.32 113.233C14.1405 112.128 14.0288 111.055 14.0408 109.994L14.1804 58.3212C14.1964 54.2168 15.6921 51.3251 18.0932 49.9849L29.11 43.5911L36.0662 39.5386L36.0941 19.9183C36.134 11.6498 39.2492 5.32381 44.8772 2.11293C50.4613 -1.12586 57.7406 -0.62328 64.8325 3.49701C77.5683 10.8441 87.512 28.0592 87.4721 42.6976L87.4562 59.9565L94.3844 63.9492C101.337 67.9737 106.981 77.734 106.965 85.7233L106.841 133.161L115.664 138.286C117.718 139.487 118.863 141.094 118.879 142.825V142.853L118.919 153.172C118.919 154.931 117.746 156.594 115.624 157.85L85.1108 175.432C83.0167 176.661 80.2646 177.263 77.5283 177.263C74.7921 177.263 72.0399 176.661 69.9579 175.432L49.0254 163.271L35.6873 170.965L36.8041 174.595L44.6538 173.534C44.7376 173.534 44.8213 173.534 44.8772 173.574L48.467 175.672C50.1263 174.834 52.6431 174.846 54.2625 175.767C54.2625 175.767 54.2744 175.783 54.2904 175.783C55.9497 176.733 55.9776 178.296 54.3463 179.258C52.6989 180.235 49.9866 180.251 48.2994 179.285C48.2834 179.285 48.2715 179.273 48.2715 179.273C46.7638 178.408 46.6242 177.068 47.8088 176.091L44.6378 174.244L36.5967 175.337C36.4132 175.337 36.2736 175.253 36.2178 175.085L34.9334 170.893C34.8935 170.742 34.9494 170.574 35.089 170.49L48.3114 162.864L38.1164 156.929L28.0649 162.74C27.9931 162.768 27.9094 162.792 27.8416 162.78L18.9029 161.468L14.292 164.136C15.6083 165.098 15.5365 166.494 14.0288 167.387C12.3815 168.364 9.67322 168.38 7.98203 167.415H7.93811C6.27883 166.454 6.26293 164.902 7.89828 163.925C9.43392 163.004 11.879 162.948 13.5821 163.73L18.6517 160.81C18.7195 160.77 18.8032 160.754 18.887 160.77L27.8137 162.066L37.4184 156.526L23.5258 148.453L12.1023 155.058C12.0464 155.086 11.9746 155.098 11.9188 155.098H11.863L8.09372 154.472C7.89828 154.695 7.65891 154.919 7.33981 155.098C5.70446 156.091 2.98024 156.091 1.29303 155.142C1.27708 155.142 1.27705 155.126 1.26508 155.126C-0.398189 154.165 -0.426067 152.613 1.20929 151.636Z" fill="black"/>
<path d="M20.8013 109.017C20.7853 115.411 25.3125 123.245 30.8846 126.455L68.043 147.922C70.6994 149.442 73.1685 149.709 74.9993 148.648C76.8301 147.599 77.8352 145.366 77.8472 142.35L77.9589 99.6317C77.9868 93.2339 73.4636 85.4001 67.8915 82.1892L30.7171 60.7262C29.1536 59.8168 27.6299 59.3541 26.2737 59.3541C25.3523 59.3541 24.5147 59.5656 23.7608 60.0003C21.946 61.0454 20.9289 63.2949 20.9289 66.2984L20.8013 109.017ZM23.4139 59.398C25.48 58.2094 28.2042 58.4607 31.0641 60.1239L68.2384 81.587C74.006 84.9135 78.6848 93.0105 78.6569 99.6317L78.5452 142.35C78.5332 145.633 77.4004 148.074 75.3463 149.247C74.4967 149.749 73.5315 149.989 72.4984 149.989C71.0186 149.989 69.3872 149.498 67.696 148.521L30.5337 127.074C24.7661 123.735 20.0873 115.634 20.1033 109.017L20.2269 66.2984C20.2429 63.0277 21.3757 60.5707 23.4139 59.398Z" fill="black"/>
<path d="M42.9788 127.38C48.0763 130.324 52.6554 130.619 55.966 128.692C56.3848 128.453 56.7756 128.174 57.1506 127.867C57.2383 127.799 57.3061 127.715 57.3779 127.643C57.6571 127.392 57.9363 127.141 58.1876 126.85C58.3391 126.682 58.4668 126.487 58.6064 126.303C58.758 126.092 58.9414 125.884 59.081 125.661C59.2605 125.382 59.4161 125.075 59.5676 124.78C59.6514 124.612 59.7512 124.46 59.8349 124.277C60.0144 123.886 60.17 123.467 60.3215 123.048C60.3495 122.937 60.4053 122.841 60.4492 122.729C60.6167 122.183 60.7563 121.613 60.8799 121.026V120.998C61.1312 119.766 61.2588 118.426 61.2588 116.974C61.2708 114.768 60.9797 112.478 60.4492 110.161C58.1039 100.106 51.0638 89.7152 42.7554 84.9129C41.5668 84.2268 40.4101 83.6963 39.2773 83.2894C39.2215 83.2615 39.1656 83.2496 39.1257 83.2217C38.8306 83.122 38.5354 83.0541 38.2442 82.9704C37.9491 82.8866 37.642 82.7869 37.3508 82.7191C37.279 82.7031 37.2232 82.7031 37.1553 82.6912C34.9616 82.2285 32.9513 82.3122 31.2043 82.9424C31.1923 82.9424 31.1763 82.9424 31.1644 82.9544C30.925 83.0382 30.7017 83.1658 30.4783 83.2616C30.255 83.3613 30.0316 83.457 29.8242 83.5687C26.5416 85.4434 24.4873 89.4759 24.4754 95.3273C24.4315 107.102 32.7399 121.473 42.9788 127.38ZM29.4054 83.0103C29.4054 83.0103 29.4054 82.9983 29.4174 82.9983L36.6368 78.8102C40.2984 76.6723 45.1446 77.131 50.294 80.1065C60.7403 86.1254 69.2202 100.788 69.1764 112.798C69.1484 118.621 67.1502 122.993 63.5364 125.103L56.3129 129.291C54.8212 130.156 53.102 130.603 51.2034 130.603C48.6068 130.603 45.6871 129.765 42.6278 127.994C32.1974 121.976 23.7335 107.309 23.7773 95.3273C23.7893 89.4918 25.7877 85.1203 29.4054 83.0103Z" fill="black"/>
<path d="M44.6304 122.259C46.6846 123.443 48.655 124.069 50.3342 124.069C55.4158 124.069 55.9822 118.306 55.9901 115.829C56.0181 106.523 49.1935 94.7129 41.0925 90.0342C39.0424 88.8535 37.0759 88.2273 35.4007 88.2273C30.3152 88.2273 29.7527 94.0029 29.7447 96.4839C29.7168 105.781 36.5334 117.584 44.6304 122.259ZM35.4007 87.5293C37.1996 87.5293 39.2856 88.1874 41.4395 89.4279C49.7319 94.2183 56.7161 106.308 56.6882 115.833C56.6802 118.517 56.046 124.767 50.3342 124.767C48.5354 124.767 46.4413 124.109 44.2795 122.865C35.995 118.079 29.0188 105.997 29.0467 96.4799C29.0547 93.7915 29.685 87.5293 35.4007 87.5293Z" fill="black"/>
<path d="M51.5402 104.929C51.4145 104.564 51.0172 104.37 50.655 104.493L38.1401 108.757L36.943 105.299C36.8142 104.932 36.4174 104.743 36.0552 104.866C35.6904 104.992 35.4961 105.389 35.6218 105.754L37.0461 109.872C37.0877 109.988 37.1567 110.09 37.2437 110.167C37.4266 110.327 37.6877 110.386 37.931 110.302L51.1038 105.814C51.4687 105.689 51.663 105.291 51.5402 104.929Z" fill="black"/>
</svg>
