<svg width="140" height="179" viewBox="0 0 140 179" fill="none" xmlns="http://www.w3.org/2000/svg">
<path d="M7.03232 60.0286C7.03232 60.0286 7.06159 60.016 7.07412 59.9993C7.10335 59.9868 7.1451 59.9576 7.17433 59.9409L15.8811 54.8838C20.4495 52.2154 26.5046 52.796 32.948 56.5125L40.0804 60.6341L31.2902 45.4004C25.352 35.111 23.0302 23.6815 25.2351 15.5511C26.3292 11.5004 28.5048 8.47286 31.5198 6.74404C31.5198 6.73151 31.5324 6.7316 31.5324 6.7316C31.5616 6.71908 31.6033 6.68979 31.6326 6.67308C31.6618 6.65638 31.6743 6.64382 31.7036 6.64382L40.3644 1.5994C42.2394 0.534548 44.3565 0 46.6491 0C49.9481 0 53.5978 1.09412 57.3561 3.26976C63.6826 6.91533 69.6375 13.1875 74.1057 20.913L83.0129 36.3512L83.0421 28.0913C83.0546 20.8127 85.5518 15.3631 90.0451 12.7281C90.0743 12.7156 90.0869 12.699 90.1161 12.6864L98.9063 7.57096C103.504 4.91927 109.559 5.4955 115.986 9.19952C129.031 16.737 139.609 35.0692 139.567 50.0732L139.321 145.154C139.308 152.446 136.799 157.912 132.289 160.534L123.728 165.491C123.728 165.491 123.715 165.52 123.699 165.52C123.611 165.579 123.527 165.637 123.44 165.679C123.427 165.691 123.411 165.691 123.398 165.708C123.039 165.909 122.663 166.097 122.287 166.255C122.099 166.326 121.911 166.414 121.723 166.485C121.536 166.556 121.335 166.631 121.147 166.685C120.901 166.773 120.642 166.844 120.383 166.915C120.354 166.915 120.341 166.928 120.312 166.928C120.141 166.986 119.965 167.015 119.778 167.044C119.548 167.103 119.318 167.145 119.072 167.174C118.796 167.216 118.525 167.245 118.237 167.262C118.136 167.274 118.036 167.274 117.932 167.291C117.656 167.303 117.368 167.32 117.08 167.32C116.662 167.32 116.245 167.308 115.827 167.262C115.468 167.232 115.105 167.203 114.746 167.145C114.629 167.132 114.528 167.103 114.416 167.086C114.027 167.028 113.639 166.94 113.234 166.857C113.221 166.857 113.221 166.844 113.205 166.857C112.77 166.74 112.34 166.627 111.893 166.497C110.891 166.197 109.885 165.808 108.853 165.336C109.993 167.115 111.371 168.865 113.008 170.498C116.763 174.252 121.197 176.866 125.499 177.856C129.741 178.837 133.333 178.115 135.617 175.831C138.26 173.187 138.795 168.79 137.087 163.775C137.024 163.587 137.124 163.382 137.312 163.315C137.5 163.244 137.705 163.353 137.771 163.541C139.571 168.832 138.974 173.496 136.13 176.34C134.372 178.098 131.921 179 129.035 179C127.87 179 126.634 178.854 125.34 178.553C120.909 177.53 116.349 174.849 112.503 170.999C110.528 169.024 108.899 166.89 107.634 164.718C107.2 164.531 106.77 164.284 106.335 164.025H106.323C106.235 163.984 106.152 163.925 106.064 163.867L23.594 116.261C10.5359 108.724 -0.0416465 90.3916 0.000112477 75.3876C0.0126402 68.0964 2.52234 62.6302 7.03232 60.0244V60.0286ZM82.7707 123.172L82.9586 58.1703L82.5536 57.4646L64.6222 26.4209C60.225 18.8124 54.387 12.6404 48.1608 9.05333C44.4985 6.93614 40.9699 5.86716 37.7962 5.86716C35.6331 5.86716 33.6453 6.35568 31.8873 7.36625C31.8748 7.36625 31.8748 7.37879 31.8581 7.37879H31.8456C29.0185 9.01992 26.9723 11.9055 25.9366 15.739C23.7735 23.694 26.0661 34.9231 31.904 45.0413L85.9109 138.565C83.894 133.42 82.754 128.117 82.7707 123.172ZM106.724 163.411C106.811 163.47 106.912 163.512 106.999 163.57H107.012C105.304 160.275 104.452 156.955 104.552 154.024C102.539 151.94 101.115 148.858 101.12 146.215C101.124 144.465 101.738 143.15 102.848 142.515C103.963 141.876 105.421 142.006 106.953 142.891C109.96 144.628 112.399 148.854 112.39 152.312C112.386 154.057 111.772 155.369 110.662 156.008C110.194 156.275 109.668 156.408 109.104 156.408C108.315 156.408 107.45 156.149 106.561 155.636C106.106 155.373 105.671 155.039 105.245 154.671C105.283 157.607 106.281 160.927 108.156 164.192C108.574 164.409 108.991 164.593 109.409 164.798C109.421 164.798 109.438 164.798 109.451 164.81C109.856 164.982 110.256 165.157 110.662 165.316C111.138 165.487 111.614 165.646 112.073 165.792C112.507 165.921 112.937 166.038 113.355 166.138C113.672 166.209 113.99 166.268 114.307 166.326C114.624 166.385 114.925 166.426 115.23 166.472C115.952 166.56 116.658 166.602 117.335 166.589C119.423 166.56 121.343 166.055 123.043 165.078C123.056 165.065 123.072 165.065 123.085 165.048C124.15 164.43 125.102 163.637 125.937 162.685C126.342 162.225 126.714 161.72 127.048 161.173C127.407 160.626 127.724 160.033 128.012 159.415C128.012 159.403 128.025 159.386 128.025 159.386C128.301 158.768 128.543 158.116 128.76 157.427C128.848 157.168 128.919 156.91 128.977 156.651C129.106 156.204 129.207 155.728 129.307 155.239C129.453 154.475 129.566 153.682 129.637 152.863C129.708 152.04 129.754 151.193 129.754 150.312L130.013 55.2305V55.1428C130.013 54.1072 129.954 53.0548 129.866 51.9858C129.825 51.61 129.779 51.2509 129.75 50.875C129.691 50.5284 129.649 50.1819 129.591 49.8394C129.578 49.6807 129.549 49.522 129.52 49.3508C129.374 48.4446 129.19 47.5218 128.973 46.5989V46.5864C128.814 45.9224 128.643 45.2584 128.455 44.5987C128.313 44.0516 128.154 43.5046 127.966 42.9576C127.795 42.3813 127.591 41.8049 127.373 41.2287C127.144 40.5939 126.914 39.9592 126.651 39.3412L124.705 35.0734C124.246 34.138 123.74 33.2152 123.206 32.3048L122.4 30.9518C121.982 30.2879 121.548 29.6238 121.118 28.9765C120.671 28.3293 120.224 27.6946 119.765 27.0599V27.0473L116.854 23.4435C116.178 22.6793 115.485 21.9444 114.766 21.222C114.449 20.9213 114.148 20.6039 113.831 20.3157C113.773 20.274 113.731 20.2156 113.685 20.1696L112.862 19.4347C112.833 19.4054 112.82 19.3929 112.791 19.3637C112.491 19.0881 112.186 18.8291 111.885 18.5869C111.555 18.2988 111.221 18.0399 110.891 17.781C110.561 17.5221 110.227 17.2757 109.881 17.0335C109.822 16.9918 109.764 16.9458 109.709 16.904C108.757 16.2108 107.78 15.5761 106.782 14.9998C106.106 14.6114 105.442 14.2524 104.778 13.935C104.548 13.8181 104.302 13.7053 104.072 13.6051C104.059 13.6051 104.059 13.5926 104.059 13.5926C103.759 13.4631 103.441 13.3336 103.137 13.2167C102.836 13.0872 102.531 12.9871 102.23 12.8869C102.172 12.8576 102.101 12.8283 102.042 12.8158C101.976 12.7908 101.909 12.7783 101.842 12.7532C101.32 12.5862 100.815 12.4317 100.322 12.3147C99.9712 12.2312 99.6163 12.1477 99.2738 12.0934C99.2321 12.0809 99.1862 12.0808 99.1444 12.0641C98.8563 11.9931 98.5681 11.9473 98.28 11.9348C97.7037 11.8763 97.1274 11.8345 96.5637 11.8345C96.476 11.822 96.3757 11.8345 96.2881 11.8345C95.8955 11.8345 95.5156 11.8637 95.1355 11.8971C95.0144 11.9097 94.885 11.9055 94.7639 11.9222C94.2753 11.9807 93.7826 12.0683 93.3065 12.1978C93.0476 12.2688 92.8012 12.344 92.5423 12.4149C92.1832 12.5319 91.8365 12.6739 91.4899 12.8325C91.1433 12.9912 90.8135 13.1624 90.4794 13.3503C86.1699 15.8308 83.7771 21.0758 83.7645 28.1247L83.489 123.206C83.4472 137.963 93.8661 156.024 106.724 163.445V163.411ZM107.166 147.38C107.763 146.783 108.457 146.286 109.212 145.889C108.444 144.912 107.555 144.069 106.59 143.513C105.291 142.762 104.089 142.628 103.203 143.137C102.326 143.643 101.842 144.737 101.838 146.215C101.829 148.487 102.97 151.101 104.619 153.022C104.87 150.804 105.688 148.85 107.162 147.376L107.166 147.38ZM105.254 153.698C105.78 154.212 106.331 154.671 106.92 155.009C108.214 155.761 109.417 155.891 110.302 155.381C111.179 154.876 111.668 153.782 111.672 152.308C111.676 150.399 110.87 148.253 109.643 146.474C108.912 146.846 108.248 147.322 107.68 147.894C106.189 149.385 105.4 151.402 105.258 153.702L105.254 153.698ZM23.9531 115.631L100.485 159.82C96.3925 156.275 92.6425 151.677 89.6025 146.403L66.0211 105.558V105.546L65.9794 105.471C66.7352 107.813 67.1654 110.173 67.157 112.403C67.1319 120.709 61.2356 124.033 54.0405 119.878C46.812 115.702 40.9825 105.609 41.0075 97.3027C41.0326 88.9968 46.8955 85.652 54.124 89.8279C56.0449 90.9387 57.8656 92.4795 59.5109 94.2919L49.6808 77.2667L23.7526 62.2794C19.084 59.5859 14.645 58.5879 10.8825 59.3396C10.4065 59.4273 9.95965 59.54 9.51283 59.6987C8.7904 59.9284 8.10139 60.2457 7.43742 60.6215C7.42489 60.6341 7.40815 60.6341 7.39562 60.6508C3.11532 63.1438 0.735069 68.3762 0.722541 75.3959C0.680782 90.1703 11.0997 108.214 23.9573 115.635L23.9531 115.631Z" fill="#292929"/>
<path d="M13.2356 70.4433C15.8288 68.9525 19.2531 69.2824 22.8819 71.3703C30.1898 75.5922 36.1196 85.8607 36.0945 94.2585C36.082 98.3884 34.6538 101.479 32.0773 102.961C31.0041 103.579 29.7889 103.884 28.4777 103.884C26.6152 103.884 24.5606 103.266 22.4393 102.042C15.1314 97.8206 9.20165 87.5562 9.2267 79.1543C9.23923 75.016 10.6633 71.9216 13.2398 70.4391L13.2356 70.4433ZM22.7942 101.424C26.1767 103.379 29.3462 103.709 31.714 102.343C34.0608 100.994 35.3595 98.1212 35.3721 94.2627C35.393 86.0946 29.6302 76.1058 22.5186 72.0009C19.1236 70.0424 15.9541 69.7125 13.5947 71.0739C11.2479 72.4227 9.95334 75.2999 9.94082 79.1668C9.91994 87.3349 15.6826 97.3194 22.7942 101.428V101.424Z" fill="#292929"/>
<path d="M116.171 55.2438C115.098 55.8619 113.882 56.1667 112.571 56.1667C110.709 56.1667 108.654 55.5487 106.533 54.321C99.225 50.1033 93.2952 39.8347 93.3202 31.4328C93.3328 27.2945 94.7567 24.2001 97.3333 22.7177C99.9307 21.2269 103.351 21.5569 106.98 23.6448C114.287 27.8666 120.217 38.1351 120.192 46.5329C120.18 50.6628 118.756 53.753 116.175 55.2397L116.171 55.2438ZM106.616 24.2754C103.221 22.3169 100.056 21.9869 97.6924 23.3482C95.3456 24.6971 94.0511 27.5743 94.0385 31.4412C94.0135 39.6093 99.7804 49.598 106.892 53.7029C110.279 55.6614 113.444 55.983 115.812 54.6216C118.158 53.2686 119.457 50.3997 119.47 46.537C119.495 38.369 113.728 28.3803 106.616 24.2754Z" fill="#292929"/>
<path d="M44.8881 45.7355C37.6596 41.5596 31.8301 31.4665 31.8552 23.1606C31.8802 14.8547 37.7431 11.5099 44.9716 15.6858C52.1709 19.8408 58.0297 29.9548 58.0047 38.2607C57.9796 46.5666 52.0832 49.8906 44.8881 45.7355Z" fill="#292929"/>
<path d="M78.464 88.7288C77.3908 89.3469 76.1756 89.6517 74.8644 89.6517C73.0019 89.6517 70.9473 89.0337 68.826 87.806C61.5182 83.5883 55.5884 73.3197 55.6135 64.9178C55.626 60.7795 57.05 57.6852 59.6265 56.2028C62.2197 54.712 65.644 55.0419 69.2687 57.134C76.5765 61.3516 82.5063 71.6202 82.4812 80.0221C82.4687 84.1521 81.0447 87.2422 78.464 88.7288ZM68.9095 57.7604C66.8926 56.5953 64.955 56.0065 63.2178 56.0065C62.036 56.0065 60.9419 56.2821 59.9856 56.8333C57.6388 58.1821 56.3442 61.0593 56.3317 64.9262C56.3067 73.0942 62.0736 83.083 69.1852 87.1879C72.5718 89.1423 75.7371 89.468 78.1049 88.1066C80.4517 86.7536 81.7504 83.8848 81.763 80.0221C81.788 71.8541 76.0211 61.8653 68.9095 57.7604Z" fill="#292929"/>
<path d="M106.796 64.0676C113.995 68.2226 119.854 78.3367 119.829 86.6425C119.804 94.9484 113.907 98.2725 106.712 94.1175C99.4839 89.9416 93.6543 79.8484 93.6794 71.5425C93.7044 63.2366 99.5674 59.8917 106.796 64.0676Z" fill="#292929"/>
<path d="M97.3333 102.928C99.9307 101.437 103.351 101.767 106.98 103.855C114.287 108.077 120.217 118.345 120.192 126.743C120.18 130.873 118.756 133.963 116.175 135.45C115.102 136.068 113.887 136.373 112.575 136.373C110.713 136.373 108.658 135.754 106.537 134.527C99.2291 130.309 93.2994 120.041 93.3244 111.639C93.3369 107.5 94.7609 104.406 97.3374 102.923L97.3333 102.928ZM106.892 133.909C110.279 135.863 113.444 136.189 115.812 134.827C118.158 133.474 119.457 130.606 119.47 126.743C119.495 118.575 113.728 108.586 106.616 104.481C103.221 102.523 100.056 102.193 97.6924 103.554C95.3456 104.903 94.0511 107.78 94.0385 111.647C94.0135 119.815 99.7804 129.804 106.892 133.909Z" fill="#292929"/>
</svg>
