<svg width="154" height="170" viewBox="0 0 154 170" fill="none" xmlns="http://www.w3.org/2000/svg">
<path d="M95.726 66.6321C95.7658 66.6321 95.8057 66.61 95.8455 66.6232C97.4778 67.1585 98.9199 67.0214 100.021 66.2295C101.282 65.3183 101.981 63.5842 101.99 61.3547C101.999 56.971 99.4154 51.6981 95.704 48.5308C95.5403 48.3936 95.5226 48.1503 95.6597 47.9911C95.7968 47.8318 96.0401 47.8097 96.1994 47.9469C100.074 51.2513 102.768 56.7675 102.755 61.3592C102.751 63.8408 101.937 65.7916 100.468 66.8533C99.6852 67.4195 98.7341 67.707 97.6946 67.707C97.0665 67.707 96.4028 67.592 95.7216 67.3841V68.9898L93.9257 66.0659L95.7304 65.221V66.6365L95.726 66.6321Z" fill="black"/>
<path d="M87.4387 46.1646C88.7039 45.2489 90.3893 45.0675 92.1897 45.6205V44.0059L93.9857 46.9299L92.1809 47.7748V46.3681C92.1455 46.3681 92.1101 46.3902 92.0703 46.3769C90.438 45.8461 88.9959 45.9876 87.89 46.7839C86.6292 47.6996 85.9303 49.4203 85.9215 51.6321C85.9082 56.0203 88.496 61.2976 92.2074 64.4649C92.3711 64.6021 92.3888 64.8454 92.2517 65.009C92.1765 65.0975 92.0659 65.1462 91.9597 65.1462C91.8713 65.1462 91.7828 65.1152 91.712 65.0533C87.8369 61.7489 85.1429 56.2327 85.1562 51.6321C85.1562 49.1682 85.9745 47.2262 87.4387 46.1646Z" fill="black"/>
<path d="M93.9227 74.8045C102.701 79.857 109.545 75.7502 109.572 65.8854V65.832C109.572 55.7499 102.468 43.4409 93.6977 38.3769C84.9159 33.313 78.0635 37.4389 78.0368 47.296C78.0102 57.3934 85.1371 69.7291 93.9227 74.8045ZM94.0295 37.8087C103.002 42.9756 110.262 55.5783 110.236 65.8854C110.209 76.2306 102.846 80.7073 93.5948 75.3727C84.6223 70.1905 77.3505 57.6031 77.3772 47.296C77.4039 36.8173 84.8816 32.5198 94.0333 37.8087H94.0295Z" fill="black"/>
<path d="M2.56247 119.656L71.1049 159.485C71.1049 159.485 71.1316 159.5 71.143 159.5C71.2765 159.523 76.0926 162.264 80.84 159.511C80.84 159.511 80.8451 159.507 80.8552 159.5L80.8667 159.485L88.5503 155.061C88.4168 154.981 80.3595 150.302 80.8667 150.596C80.6493 150.47 80.6646 150.142 80.8667 150.028L105.061 136.064C105.168 135.999 105.302 135.999 105.393 136.064L113.424 140.716C113.557 140.64 121.962 135.782 121.428 136.091C123.96 134.607 124.04 132.338 121.466 130.832C108.337 123.202 66.0371 98.622 52.8815 90.9765C50.2199 89.4398 45.8462 89.4245 43.1426 90.9765L2.59677 114.401C-0.183056 115.999 0.270725 118.371 2.55865 119.663L2.56247 119.656ZM0.682535 122.317V125.738C0.682535 126.706 1.35749 127.633 2.60441 128.346C88.413 178.207 67.2764 165.925 70.6702 167.897C70.6702 167.755 70.6435 159.462 70.6435 159.988C67.2459 158.013 88.4397 170.329 2.23454 120.224C1.58248 119.862 0.995218 119.328 0.682535 118.912C0.682535 118.912 0.671084 118.912 0.671084 118.901C0.671084 119.446 0.686348 122.516 0.682535 122.321V122.317ZM84.6761 152.053L89.3015 154.741C89.3396 154.752 89.3663 154.752 89.393 154.768C89.4998 154.821 89.5646 154.939 89.5646 155.061V157.921L96.6267 153.852L90.7696 150.447L92.8783 149.227L98.7354 152.621L100.261 151.759L94.4036 148.354L95.7954 147.545L101.652 150.951L103.163 150.077L97.3054 146.672L99.4256 145.452L105.283 148.857L106.793 147.984L100.936 144.579L102.339 143.77L108.196 147.176L112.768 144.525L105.241 140.167L84.6761 152.053ZM81.3891 167.885L121.443 144.777C122.701 144.033 123.403 143.095 123.403 142.127L123.365 135.29L123.353 135.301C122.965 135.82 122.408 136.27 121.855 136.602C121.695 136.655 113.912 141.189 113.759 141.28V144.541C113.759 144.594 113.744 144.647 113.721 144.701C113.683 144.754 113.641 144.792 113.588 144.819L89.393 158.783C89.3015 158.848 89.168 158.848 89.0613 158.783C88.9697 158.73 88.9011 158.623 88.9011 158.505V155.629C88.7676 155.706 80.882 160.251 81.3624 159.977L81.3891 167.885ZM122.251 118.104L114.118 113.387C114.026 113.322 113.958 113.215 113.958 113.097L113.942 106.393C113.134 106.355 112.368 106.153 111.742 105.798C110.999 105.36 110.591 104.776 110.591 104.128L110.579 99.0681C109.664 98.5 109.176 97.7297 109.176 96.9213L109.161 89.8974L99.3836 84.2538V85.2758C99.3951 86.1109 98.8803 86.8773 97.9384 87.4607L97.9499 92.4827C97.9499 93.1462 97.538 93.7411 96.7716 94.1796C96.0432 94.6029 95.1167 94.8012 94.1862 94.8012H94.1061L94.1329 102.355C94.1329 102.63 93.8545 102.767 93.6448 102.649L47.1351 75.6169L5.18596 99.8384L9.49104 102.344C9.80753 101.932 10.1812 101.573 10.5892 101.337C11.2108 100.994 11.7942 100.952 12.2442 101.23L18.1547 104.651L42.8147 90.4083C45.7051 88.7534 50.3686 88.7534 53.2171 90.4083L111.533 124.304L122.251 118.115V118.104ZM118.846 96.8755V95.4837L109.824 90.2749L109.836 96.9137C109.836 97.5352 110.286 98.1339 111.067 98.5953C112.856 99.6287 115.784 99.6287 117.588 98.5839C118.396 98.1186 118.846 97.5123 118.846 96.8755ZM123.735 97.5505C128.101 100.067 133.016 100.818 136.429 97.1005C136.498 96.9632 138.972 94.6105 138.972 88.8869C138.999 79.0412 132.055 67.0257 123.495 62.0953C122.476 61.5004 121.493 61.0466 120.566 60.7301C120.448 60.692 120.352 60.5852 120.341 60.4518V60.4136C118.999 45.1494 105.786 31.1587 96.1195 31.1587C96.0013 31.1587 95.8831 31.1701 95.7611 31.1701C95.723 31.1701 95.681 31.1587 95.6543 31.1435H95.6276C95.6009 31.1282 95.5895 31.1282 95.5742 31.1168C95.5628 31.1053 95.5475 31.1053 95.5475 31.0901C95.5094 31.0634 95.4675 31.0252 95.456 30.9719C95.456 30.9719 95.4293 30.9604 95.4293 30.9452V30.9299C92.8745 23.2654 87.0441 15.0365 80.2185 11.1203C79.8867 10.9334 79.5702 10.7504 79.2384 10.575H79.2232C75.7798 8.81712 71.7722 7.98202 68.4242 9.9115C68.4127 9.9115 68.4128 9.92294 68.3975 9.92294C65.2974 11.7266 63.6005 15.5017 63.589 20.577C63.5776 22.7239 63.8826 25.0042 64.4623 27.3607C64.5309 27.5667 64.3326 27.8488 64.0237 27.7306C64.0059 27.7306 63.9932 27.7268 63.9856 27.7192C61.0189 26.0299 57.446 24.8822 54.22 26.049H54.1933C43.0092 30.3503 49.9149 54.9302 64.1038 63.1248L123.731 97.5505H123.735ZM148.566 90.4998C151.403 88.8564 152.967 85.3863 152.978 80.7342C153.005 70.9038 146.061 58.8845 137.5 53.9426C136.532 53.3859 135.605 52.9474 134.717 52.6461L121.454 60.345C122.728 60.8903 122.61 60.8445 123.826 61.5118C132.57 66.5605 139.659 78.8429 139.636 88.8869C139.636 91.7544 139.045 94.6829 137.344 97.0204L148.566 90.4998ZM94.2396 2.97147C89.7476 0.386114 85.5455 -0.0371542 82.4186 1.77793L71.2879 8.24513C71.4862 8.26801 75.1469 7.42148 80.5502 10.5369C87.0441 14.2853 93.0461 22.0375 95.9327 30.3312L109.355 22.5409C106.545 14.3272 100.623 6.66647 94.2358 2.97147H94.2396ZM69.5948 73.676C69.5948 74.2975 70.0334 74.8962 70.8265 75.3576C72.6149 76.391 75.532 76.391 77.3318 75.3462C78.1555 74.8809 78.6054 74.2747 78.6054 73.6493V72.2575L69.5834 67.0524L69.5986 73.676H69.5948ZM89.7209 85.2948C89.7209 85.9164 90.1595 86.515 90.9526 86.9764C92.741 88.0098 95.6581 88.0098 97.458 86.9612C98.2816 86.496 98.7163 85.8897 98.7163 85.2643V83.8611L89.6943 78.6522L89.7209 85.291V85.2948ZM2.26884 113.821L12.248 108.056L9.28134 106.321C8.83138 106.069 8.56445 105.528 8.56445 104.849C8.56445 104.17 8.77799 103.511 9.13262 102.889L4.35084 100.105C4.13349 99.9833 4.14874 99.6516 4.35084 99.5372L46.9634 74.9305C47.0702 74.8771 47.1884 74.8771 47.2952 74.9305L93.4732 101.764L93.4465 94.7401C92.783 94.6753 92.1461 94.477 91.6161 94.172C90.8725 93.7487 90.476 93.15 90.4645 92.5018L90.4531 87.4417C89.5532 86.8735 89.0613 86.1185 89.0613 85.2948L89.0346 78.2709L79.269 72.6388V73.6455C79.269 74.4806 78.7504 75.2508 77.8123 75.8304L77.8276 80.8524C77.8276 81.5159 77.4157 82.1108 76.6607 82.5493C75.9324 82.9726 75.0058 83.1861 74.0753 83.1861C73.1449 83.1861 72.2221 82.9726 71.5052 82.5493C70.7617 82.126 70.3537 81.5274 70.3537 80.8791L70.3384 75.819C69.4233 75.2508 68.9351 74.492 68.9351 73.6836L68.9085 66.6482L63.7797 63.693C49.728 55.6014 42.6583 31.826 52.7023 26.0376C52.7023 26.0376 52.7024 26.0261 52.7138 26.0261V26.0109L62.9446 20.0737C62.998 17.5417 63.4861 15.3301 64.3479 13.515C65.2097 11.6999 66.468 10.2966 68.0581 9.35478C68.0696 9.34334 68.0848 9.34333 68.0963 9.32808C68.1229 9.31664 68.1611 9.28614 68.1878 9.2747L82.0869 1.20595C85.4273 -0.742598 89.8659 -0.31933 94.5676 2.39949C101.084 6.16312 107.128 13.9802 109.992 22.354C120.185 22.2434 133.558 36.7374 134.984 52.0475C135.899 52.3525 136.837 52.8025 137.832 53.3706C146.576 58.4193 153.665 70.6902 153.638 80.7342C153.627 85.638 151.941 89.3063 148.894 91.068L134.888 99.2168C134.888 99.2168 134.873 99.2321 134.862 99.2321C133.592 99.9604 132.158 100.33 130.595 100.33C128.383 100.33 125.931 99.5867 123.399 98.1187L119.502 95.865V96.8717C119.502 97.7068 118.984 98.4771 118.045 99.0567L118.061 104.09C118.076 104.738 117.649 105.348 116.894 105.787C116.246 106.157 115.437 106.355 114.602 106.397L114.617 112.902L123.071 117.818C123.273 117.921 123.292 118.249 123.071 118.39L112.192 124.67L121.798 130.249C123.243 131.084 124.025 132.209 124.025 133.429V133.456L124.063 142.123C124.063 143.343 123.254 144.483 121.771 145.341L81.2633 168.716C81.2633 168.716 81.2365 168.743 81.2251 168.755C78.3461 170.417 73.6826 170.409 70.8494 168.766C63.9093 164.735 8.42336 132.487 2.26503 128.91C0.80838 128.075 0.0114064 126.95 0.0114064 125.73V122.287L2.14832e-06 117.051V117.025C2.14832e-06 115.793 0.80838 114.653 2.26503 113.818L2.26884 113.821Z" fill="black"/>
<path d="M4.83024 117.906L72.4842 157.22C74.3565 158.295 77.7274 158.265 79.5463 157.205L83.268 155.058L75.5843 150.592C75.3746 150.44 75.3746 150.162 75.5843 150.009L84.2632 144.998L19.8009 107.526L4.82642 116.178C4.12479 116.586 4.1858 117.551 4.82642 117.902L4.83024 117.906ZM95.4092 138.577L30.9202 101.105L20.4644 107.149L84.9381 144.621L95.4054 138.581L95.4092 138.577ZM105.083 132.998C105.175 132.933 105.308 132.933 105.415 132.998L113.43 137.65L119.234 134.299C119.859 133.944 119.913 132.991 119.234 132.575L51.5649 93.2609C49.7193 92.197 46.3217 92.2008 44.4761 93.2723L31.5837 100.72L96.0574 138.203L105.079 132.995L105.083 132.998ZM4.50231 115.614C8.55575 113.269 -10.1862 124.106 44.1482 92.6927C46.1959 91.5182 49.8452 91.4992 51.9005 92.6927L119.57 132.007C120.676 132.659 120.656 134.241 119.57 134.882L113.606 138.314C113.499 138.379 113.366 138.379 113.263 138.314L105.247 133.662C82.3375 146.897 114.658 128.228 76.427 150.303C84.2861 154.951 84.2708 154.703 84.2708 155.062C84.2708 155.18 84.206 155.287 84.0992 155.34L79.8856 157.777C77.7884 158.982 74.1658 158.97 72.1601 157.788L4.49086 118.474C3.43079 117.875 3.35453 116.289 4.50231 115.61V115.614Z" fill="black"/>
</svg>
