<svg width="135" height="175" viewBox="0 0 135 175" fill="none" xmlns="http://www.w3.org/2000/svg">
<path d="M124.569 86.8381C123.02 85.9427 15.6717 23.9735 1.13388 15.5778L0.912455 99.1524C0.902394 102.226 3.07054 105.974 5.74167 107.518L119.941 173.446C121.159 174.15 122.27 174.276 123.085 173.808C123.211 173.738 123.312 173.627 123.412 173.527C123.86 173.114 124.162 172.495 124.283 171.701C124.373 170.901 124.564 86.9286 124.564 86.8381H124.569ZM124.625 65.9016C124.64 62.8935 122.522 59.1106 119.795 57.5361L106.198 49.6837C105.771 49.4322 71.529 29.6628 71.1567 29.4465C70.7644 29.2402 70.1859 28.9535 69.7482 28.8932C68.3397 28.4706 66.7652 29.3559 66.7501 31.9516L66.725 41.2779C66.725 41.444 66.6445 41.5898 66.4936 41.6703C66.403 41.7257 66.2923 41.7357 66.1917 41.7156C66.1364 41.7156 66.0811 41.7005 66.0359 41.6703C3.75975 5.72827 5.53546 6.72425 5.15315 6.54819C5.14309 6.53813 5.12796 6.5281 5.10784 6.51804H5.08769C3.36227 5.69808 2.4921 6.39726 2.40155 6.40732C2.40155 6.40732 2.39148 6.40733 2.39148 6.41739C1.46086 6.95061 1.15894 8.17804 1.15894 9.25957C1.15894 9.35012 1.13892 14.8684 1.13892 14.5163C22.8702 27.0671 116.485 81.1236 124.564 85.7867C124.569 83.7494 124.544 93.1512 124.62 65.9016H124.625ZM125.55 65.9016L125.404 119.933L133.448 115.25L133.594 60.6902C133.594 57.6166 131.426 53.8589 128.765 52.3246L80.1058 24.235C79.3764 23.8175 78.6872 23.6062 78.0735 23.6062C77.661 23.6062 77.2888 23.6967 76.9568 23.8879L69.9092 27.9877C70.4274 28.0782 71.1869 28.4153 71.6094 28.6517C132.512 63.8141 117.974 55.4234 120.258 56.7413C123.08 58.3661 125.545 62.4609 125.545 65.9016H125.55ZM133.413 128.912L133.433 123.243L125.379 127.916L125.369 133.585L133.413 128.912ZM123.528 174.608C122.275 175.333 120.746 174.96 119.489 174.241L5.28898 108.303C2.3613 106.623 -0.00298114 102.508 0.00204924 99.1524C0.00204924 97.3918 -0.0382085 113.7 0.238462 9.25957C0.248523 7.53918 0.85716 6.24133 1.95881 5.60247C2.07451 5.56223 2.67819 5.19 10.9179 0.401077C12.0246 -0.237781 13.4684 -0.112031 14.9775 0.768285L66.076 30.2513C66.3527 29.376 66.8507 28.6969 67.5549 28.2945C67.565 28.2945 67.5751 28.2945 67.5801 28.2945L76.504 23.1082C77.6107 22.4492 79.0544 22.58 80.5635 23.4553L129.222 51.5399C132.14 53.2151 134.509 57.3299 134.509 60.6952L134.228 165.745C134.218 167.46 133.614 168.758 132.517 169.392L123.558 174.603C123.558 174.603 123.538 174.613 123.528 174.613V174.608Z" fill="black"/>
<path d="M111.004 66.0641C110.929 66.0641 110.848 66.044 110.778 66.0038L73.4925 44.4737C73.2762 44.348 73.2008 44.0713 73.3266 43.85C73.4524 43.6337 73.7341 43.5582 73.9504 43.684L111.235 65.214C111.452 65.3397 111.527 65.6164 111.402 65.8377C111.316 65.9836 111.165 66.0641 111.004 66.0641Z" fill="black"/>
<path d="M118.949 68.2056L117.214 69.106L118.904 72.7832C119.01 73.0096 118.909 73.2812 118.678 73.3868C118.617 73.417 118.552 73.4321 118.486 73.4321C118.315 73.4321 118.149 73.3315 118.074 73.1655L116.404 69.5235L114.588 70.4693C114.522 70.4994 114.447 70.5195 114.377 70.5195C114.211 70.5195 114.05 70.429 113.969 70.268C113.853 70.0467 113.939 69.77 114.165 69.6543L116.022 68.6935L114.553 65.4992C114.447 65.2729 114.548 65.0012 114.774 64.8956C115 64.7899 115.277 64.8906 115.383 65.1169L116.831 68.271L118.532 67.3907C118.753 67.275 119.03 67.3655 119.145 67.5918C119.261 67.8132 119.176 68.0899 118.949 68.2056Z" fill="black"/>
<path d="M114.77 140.636C114.694 140.636 114.614 140.616 114.543 140.576L78.7372 119.901C78.5158 119.775 78.4454 119.498 78.5711 119.277C78.6969 119.056 78.9786 118.98 79.1949 119.111L115.001 139.786C115.217 139.912 115.293 140.188 115.167 140.41C115.082 140.556 114.931 140.636 114.77 140.636Z" fill="black"/>
<path d="M114.77 126.713C114.694 126.713 114.614 126.693 114.543 126.653L78.7372 105.983C78.5158 105.852 78.4454 105.575 78.5711 105.354C78.6969 105.138 78.9786 105.062 79.1949 105.188L115.001 125.863C115.217 125.989 115.293 126.265 115.167 126.487C115.082 126.632 114.931 126.713 114.77 126.713Z" fill="black"/>
<path d="M114.77 112.796C114.694 112.796 114.614 112.776 114.543 112.73L78.7372 92.0606C78.5158 91.9349 78.4454 91.6532 78.5711 91.4369C78.6969 91.2155 78.9786 91.1401 79.1949 91.2658L115.001 111.941C115.217 112.066 115.293 112.348 115.167 112.564C115.082 112.71 114.931 112.796 114.77 112.796Z" fill="black"/>
<path d="M114.77 98.8698C114.694 98.8698 114.614 98.8497 114.543 98.8095L78.9333 78.2503C78.712 78.1245 78.6415 77.8428 78.7673 77.6215C78.893 77.4052 79.1747 77.3297 79.391 77.4555L115.001 98.0147C115.217 98.1455 115.293 98.4221 115.167 98.6435C115.082 98.7894 114.931 98.8698 114.77 98.8698Z" fill="black"/>
<path d="M114.77 156.212C114.694 156.212 114.614 156.192 114.543 156.152L14.0515 98.1314C13.8352 98.0057 13.7597 97.724 13.8854 97.5077C14.0112 97.2863 14.2929 97.2108 14.5092 97.3416L115.001 155.357C115.217 155.483 115.293 155.764 115.167 155.981C115.082 156.132 114.931 156.212 114.77 156.212Z" fill="black"/>
<path d="M63.1993 62.7038L12.6943 33.5074C10.7677 32.3857 9.30382 33.1956 9.30382 35.4391L9.17303 78.9117C9.17303 81.3413 10.8833 84.3244 13.0011 85.5468L63.4961 114.733C65.4932 115.885 66.8966 114.974 66.8966 112.801L67.0224 69.3389C67.0325 66.8991 65.312 63.9161 63.1892 62.7038H63.1993ZM63.0433 115.528L12.5484 86.3365C10.1791 84.9632 8.25244 81.6382 8.2625 78.9016L8.38826 35.4391C8.38826 32.5366 10.5563 31.2136 13.152 32.7127L63.657 61.904C66.0263 63.2773 67.9529 66.6124 67.9429 69.3389L67.8171 112.801C67.8171 115.618 65.7195 117.052 63.0433 115.528Z" fill="black"/>
<path d="M36.8545 76.9L43.2884 75.401C44.9736 75.0186 44.6516 72.4984 43.5601 70.9943L37.1514 62.0704C35.5064 59.7816 33.2176 60.2142 33.2176 62.3924L33.1924 72.8153C33.1924 74.7872 35.109 77.2924 36.8495 76.9H36.8545ZM38.3636 55.1235C45.3559 59.1629 51.0352 69.0023 51.0101 77.0459C50.99 85.2404 45.0993 88.7667 37.8354 84.5713C30.8432 80.5319 25.1639 70.6925 25.1891 62.649C25.2092 54.4343 31.1199 50.9332 38.3636 55.1235Z" fill="black"/>
<path d="M61.8792 106.798C61.8037 106.798 61.7232 106.778 61.6527 106.738L13.9547 79.1665C13.7384 79.0408 13.6629 78.7591 13.7887 78.5428C13.9145 78.3214 14.1962 78.246 14.4125 78.3768L62.1106 105.948C62.3269 106.074 62.4023 106.351 62.2765 106.572C62.191 106.718 62.0402 106.798 61.8792 106.798Z" fill="black"/>
</svg>
