<svg width="74" height="177" viewBox="0 0 74 177" fill="none" xmlns="http://www.w3.org/2000/svg">
<path d="M2.57708 125.18L2.59717 125.184C2.59717 125.184 2.60898 125.234 2.60544 125.254C2.6405 125.329 2.64407 125.427 2.70947 125.487C2.80678 125.601 2.91904 125.669 3.02934 125.709L3.07622 125.717C3.16998 125.734 3.27201 125.703 3.36733 125.672L3.39097 125.655L3.41106 125.659L4.96689 125.097L4.54768 127.357C4.44141 127.96 4.73498 128.606 5.33497 129.119C5.73561 129.431 6.241 129.658 6.78383 129.83L5.8593 135.073C5.80616 135.375 6.01222 135.694 6.33365 135.751C6.65509 135.808 6.95797 135.578 7.0111 135.276L7.93564 130.033C8.50326 130.064 9.05711 130.017 9.54395 129.84C10.2585 129.586 10.7496 129.072 10.8547 128.476L11.9221 122.54L13.8561 121.832C13.9818 121.785 14.0968 121.681 14.1637 121.575L42.9363 74.5037L50.7333 165.578C50.7416 165.649 50.7837 165.684 50.8023 165.736C50.8141 165.786 50.8291 165.858 50.8677 165.913L50.8878 165.916C50.9697 166 51.0706 166.094 51.1844 166.114L51.2313 166.122C51.325 166.138 51.4223 166.135 51.5177 166.103L53.4 165.413L52.9312 167.954C52.8214 168.577 53.115 169.223 53.7185 169.716C54.1156 170.048 54.6246 170.255 55.1674 170.427L54.2428 175.671C54.1862 175.992 54.3958 176.291 54.7172 176.348C55.0386 176.405 55.338 176.195 55.3946 175.874L56.3192 170.63C56.8868 170.661 57.4371 170.634 57.924 170.457C58.6385 170.204 59.1296 169.69 59.2347 169.094L60.3553 162.856L62.01 162.243C62.1356 162.196 62.2459 162.119 62.3129 162.013L73.5138 143.757C73.5807 143.652 73.6055 143.511 73.5988 143.393L66.2449 57.6371C68.7617 55.9335 70.4858 52.9299 71.2037 48.8584C73.021 38.6698 68.055 24.9721 60.0984 18.3284C59.5993 17.909 59.1151 17.5613 58.6006 17.2289L59.2241 13.8104C59.4234 13.7765 59.6207 13.7147 59.8248 13.654C61.2786 13.1232 62.203 12.1883 62.4025 11.0565L63.4602 5.45L63.4684 5.40308C63.668 4.27136 63.1191 3.07678 61.9345 2.08075C59.6307 0.148574 55.6328 -0.556351 52.8071 0.471348C51.4001 1.01041 50.5006 1.9221 50.3046 3.03372L50.281 3.05013L49.2198 8.67693C49.0155 9.83544 49.5655 11.0234 50.7722 12.0509C50.9597 12.2013 51.1508 12.3317 51.3418 12.462L50.951 14.6786C50.1077 14.7233 49.3262 14.8479 48.5364 15.1367L38.0866 18.9906L38.0666 18.987C34.6035 20.2614 32.1787 23.7142 31.2695 28.7532C30.5445 32.8649 30.8768 37.598 32.24 42.437L0.0897101 95.0372C0.0227609 95.1428 -0.0185844 95.2598 0.00821816 95.3819L2.57158 125.172L2.56803 125.192L2.57708 125.18ZM13.2856 120.799L4.54566 124.001L41.9314 62.8163L42.7915 72.5448L13.2856 120.799ZM51.7604 163.709L42.9564 60.9187L42.8546 59.6164C43.1276 59.8303 43.4243 60.0276 43.6973 60.2414C43.8884 60.3718 44.0759 60.5223 44.2717 60.6259C44.7826 60.9784 45.3018 61.2839 45.8293 61.5426C45.8458 61.5663 45.8927 61.5746 45.9148 61.6061C46.4844 61.8999 47.0403 62.1151 47.5795 62.3069C47.7367 62.3553 47.8773 62.3802 48.0132 62.4318C48.4166 62.5719 48.8271 62.6719 49.2186 62.7616L49.3793 62.79C49.52 62.8148 49.6574 62.8184 49.778 62.8397C50.1297 62.881 50.4559 62.9108 50.7856 62.9206C50.9766 62.9336 51.1657 62.9186 51.3615 62.9048C51.6711 62.9111 51.9842 62.8972 52.2753 62.8519C52.4746 62.818 52.6685 62.7761 52.8678 62.7422C53.1624 62.6768 53.4416 62.5812 53.7162 62.5122C53.8418 62.4653 53.9706 62.4397 54.0975 62.3861C54.1176 62.3896 54.1211 62.3695 54.1479 62.3742L54.6548 62.2012L61.9358 147.157L54.6423 159.073L51.7726 163.718L51.7604 163.709ZM61.4485 161.198L52.7086 164.401L62.9104 147.778L71.6539 144.555L61.4485 161.198ZM52.4429 13.0705C53.2753 13.4797 54.1746 13.7831 55.1255 13.9508C56.0764 14.1185 57.0691 14.1279 58.018 14.0328L56.9222 20.1298C56.8691 20.4311 56.5579 20.7077 56.0463 20.9075C54.8201 21.3611 52.9049 21.0233 51.9113 20.1577C51.4941 19.8217 51.2963 19.4554 51.3495 19.154L52.4417 13.0772L52.4429 13.0705ZM53.2327 1.5821C54.4588 1.12855 55.9486 1.05983 57.3816 1.31252C58.8147 1.56521 60.2112 2.14284 61.2083 2.98842C62.0592 3.68393 62.4721 4.47477 62.3458 5.19131C62.3257 5.30515 62.2576 5.41741 62.2221 5.50092C62.2056 5.59467 62.1938 5.6617 62.1339 5.7271C62.0973 5.81731 62.0036 5.91813 61.9201 6.00007C61.8614 6.05877 61.8283 6.12893 61.7696 6.18763C61.6593 6.26485 61.5455 6.36213 61.4152 6.43581C61.36 6.47442 61.3013 6.53314 61.2214 6.59499C61.0091 6.70256 60.7732 6.82661 60.4939 6.92237C59.3193 7.35741 57.8331 7.40615 56.4 7.15346C54.967 6.90077 53.5871 6.34665 52.612 5.53259C52.4024 5.35063 52.2031 5.14981 52.0439 4.95603C52.0053 4.90089 51.9667 4.84575 51.9316 4.77052C51.8343 4.6567 51.7339 4.52161 51.6669 4.39242C51.6318 4.31719 51.5979 4.23536 51.5944 4.13807C51.5439 4.03251 51.4868 3.92566 51.4821 3.83506C51.4517 3.73305 51.4682 3.63938 51.4801 3.57241C51.4765 3.47512 51.4462 3.37297 51.4662 3.25912C51.589 2.56268 52.2196 1.96277 53.237 1.59669L53.2327 1.5821ZM48.9588 16.2262C49.541 16.0181 50.1334 15.9085 50.7408 15.8706L50.1989 18.9442C50.0725 19.6608 50.4118 20.4388 51.1571 21.0673C51.8205 21.6124 52.7301 22.0144 53.7011 22.1856C54.6721 22.3569 55.6376 22.2854 56.4474 22.0001C57.3628 21.6644 57.9441 21.0695 58.0705 20.353L58.4011 18.4779C58.721 18.7 59.0609 18.9257 59.3726 19.1947C67.0396 25.6009 71.8357 38.8131 70.0814 48.6054L70.0779 48.6255C69.393 52.5095 67.7709 55.3651 65.366 56.826L57.8207 59.5971C58.1566 59.1799 58.4705 58.7311 58.7734 58.2667C58.845 58.1343 58.8934 57.9772 58.9651 57.8448C59.279 57.2787 59.5531 56.6641 59.8118 56.0193C59.9 55.7932 59.9905 55.5537 60.0602 55.276C60.3004 54.5795 60.5087 53.829 60.6468 53.0455C60.6669 52.9317 60.7082 52.8148 60.7319 52.6809C61.3105 49.517 61.2241 45.9734 60.5855 42.4291C59.8511 38.4882 58.4352 34.4961 56.5077 30.9386C54.6689 27.4658 52.322 24.4074 49.6211 22.1429C49.0798 21.6884 48.557 21.2856 47.9992 20.9248C47.7848 20.7697 47.5903 20.6593 47.3779 20.5321C47.0344 20.3265 46.7098 20.1313 46.3828 19.9494C46.1449 19.8107 45.9022 19.6988 45.6875 19.585C45.3779 19.4614 45.0663 19.3097 44.7532 19.2062C44.507 19.1144 44.2808 19.0263 44.0567 18.966C43.7435 18.8625 43.4189 18.7845 43.0975 18.7278C42.9604 18.6829 42.8044 18.6279 42.6638 18.6031L42.5231 18.5783L48.9478 16.2104L48.9588 16.2262ZM32.4438 28.9464C33.2751 24.3494 35.4005 21.2236 38.4586 20.0919L38.4823 20.0753C39.0396 19.8905 39.6321 19.7809 40.2375 19.715C40.3395 19.6847 40.4569 19.6846 40.5754 19.6779C41.1561 19.6353 41.7706 19.6745 42.3666 19.7796L42.7818 19.8528C43.1264 19.9343 43.4699 20.0226 43.83 20.1344C43.9871 20.1828 44.1431 20.238 44.3003 20.2865C44.6568 20.4184 45.0086 20.577 45.3836 20.7605C45.516 20.8322 45.6416 20.9026 45.8008 20.979C46.218 21.1976 46.6517 21.4398 47.0771 21.7289C47.1406 21.7608 47.2261 21.8241 47.3151 21.8674C47.826 22.2199 48.3488 22.6228 48.868 23.0458C52.6681 26.243 55.772 31.0782 57.7001 36.355C59.6865 41.732 60.4704 47.546 59.5722 52.4833C59.3608 53.682 59.0277 54.7487 58.6406 55.73C57.7665 57.9856 56.5129 59.691 54.8287 60.7059C54.4238 60.9659 54.0106 61.1554 53.601 61.3249L53.5809 61.3213C52.3347 61.7713 50.9552 61.8802 49.549 61.6323C47.4931 61.2698 45.3091 60.1459 43.1495 58.3359C42.9352 58.1807 42.7323 57.9998 42.5263 57.7978C38.5367 54.1874 35.2176 48.5755 33.4525 42.3745C32.0775 37.6025 31.7322 32.9431 32.4371 28.9452L32.4438 28.9464ZM1.19702 95.4535L32.7043 43.9551C32.7649 44.1591 32.8469 44.3599 32.9076 44.5639C33.042 44.8983 33.1495 45.2281 33.2772 45.5613C33.4199 45.9662 33.5893 46.3758 33.7509 46.791C33.8852 47.1254 34.0176 47.4318 34.1556 47.7461C34.3451 48.1593 34.5346 48.5726 34.7277 48.9657C34.8868 49.2768 35.0295 49.5643 35.1654 49.8507C35.375 50.2674 35.615 50.6688 35.8348 51.0666C35.981 51.3341 36.1181 51.6136 36.2879 51.8645C36.5444 52.2895 36.8076 52.7157 37.0677 53.1206C37.2221 53.3412 37.3509 53.5504 37.4987 53.7698C37.8406 54.2581 38.1862 54.7263 38.5597 55.1926C38.6369 55.3029 38.7141 55.4133 38.8126 55.5204C39.2566 56.0959 39.7345 56.6359 40.2124 57.1759C40.2557 57.2042 40.2979 57.2392 40.3365 57.2943C40.7371 57.724 41.1626 58.1305 41.5747 58.5346L41.7901 60.8373L36.9705 68.7083L3.60885 123.284L1.19702 95.4535Z" fill="black"/>
</svg>
