<svg width="153" height="170" viewBox="0 0 153 170" fill="none" xmlns="http://www.w3.org/2000/svg">
<path d="M99.1014 169.932C98.9867 170.013 98.8194 170.032 98.6903 169.932L71.4024 154.077C71.2686 154.01 71.1873 153.881 71.1873 153.733V149.837C71.1873 149.837 71.173 149.804 71.173 149.79C71.173 149.641 71.2542 149.508 71.3881 149.426C83.0173 142.677 82.1618 143.322 82.9504 142.629L73.6632 137.233C72.1433 136.344 71.302 134.542 71.2877 132.138L71.2733 122.138L37.5852 102.689C33.8427 100.529 31.1373 95.3951 31.1373 91.5378L31.1516 83.6033L31.166 83.5698L31.381 8.60787C31.381 6.57644 32.0885 5.06124 33.3599 4.2869C33.3742 4.2869 33.3742 4.27257 33.3934 4.25345L39.9082 0.477385V0.463045C41.2609 -0.277827 42.9769 -0.129653 44.7741 0.907569L145.838 59.2501C149.418 61.3102 152.305 66.3099 152.286 70.4014L152.038 153.331C152.038 155.363 151.33 156.911 150.025 157.671L143.525 161.448L143.511 161.462C143.511 161.462 143.504 161.467 143.491 161.476C142.072 162.236 140.604 161.988 139.151 161.295C138.525 160.979 138.492 160.917 117.145 148.609C117.293 149.235 117.408 149.895 117.408 150.64C117.408 155.439 114.024 161.314 109.837 163.723L99.0966 169.927L99.1014 169.932ZM72.0142 150.516V153.484L98.4752 168.861V165.874C79.1218 154.655 73.6632 151.472 72.3775 150.731C72.3297 150.698 72.0142 150.516 72.0142 150.516ZM72.1146 132.138C72.1337 134.231 72.822 135.785 74.0791 136.511L83.8634 142.204H83.8777L99.1874 151.114C98.9054 150.502 98.7572 149.775 98.676 148.987C98.6425 148.671 98.5756 148.36 98.5756 147.997L98.5613 138.906V137.897L72.1003 122.621L72.1146 132.138ZM144.945 74.1823C144.945 70.1911 141.991 65.4878 139.003 63.8196L138.989 63.8053H138.975C138.975 63.8053 137.804 63.1265 37.8434 5.40538C34.7938 3.65597 32.2032 4.86048 32.2032 8.60787L31.9881 83.3739L144.729 148.47L144.945 74.1823ZM139.056 160.329C142.258 162.145 144.663 160.726 144.696 157.127C144.696 157.112 144.715 157.112 144.715 157.093V149.421L31.9881 84.3251L31.9546 91.533C31.9546 95.2613 34.5787 99.9981 37.9915 101.958V101.972L139.056 160.324V160.329ZM103.193 147.543C103.69 148.384 104.445 148.58 105.435 148.25C105.597 148.203 105.631 148.284 109.392 146.056C110.038 145.679 110.678 145.43 111.304 145.249L102.825 140.364C102.94 145.559 102.61 146.468 103.188 147.538L103.193 147.543ZM111.773 156.749C111.773 156.749 111.787 156.735 111.787 156.715C112.05 156.453 112.944 154.684 113.092 153.384C113.436 150.631 111.907 149.522 109.808 150.726L109.66 150.808L106.591 152.591C104.679 153.695 102.93 154.077 100.951 153.088H100.937L83.7295 143.074C82.6732 144.03 82.8405 143.719 72.4109 149.79C72.6069 149.904 72.7264 149.971 72.7742 150.005C74.06 150.745 79.5233 153.929 98.8911 165.166L109.368 159.11L109.416 159.077L109.45 159.062C110.009 158.766 110.998 157.925 111.777 156.754L111.773 156.749Z" fill="black"/>
<path d="M88.3503 119.344C90.4104 120.534 92.0881 123.431 92.0833 125.811C92.0785 128.191 90.3865 129.142 88.3264 127.952C86.2567 126.757 84.5886 123.865 84.5933 121.485C84.5981 119.105 86.2806 118.149 88.3503 119.344Z" fill="black"/>
<path d="M2.25247e-06 165.384C2.25247e-06 165.384 0.0156114 165.394 0.020813 165.394C0.0104098 165.389 0.00520383 165.384 2.25247e-06 165.384Z" fill="black"/>
<path d="M62.9318 62.5499C60.8622 61.3549 59.194 58.4632 59.1988 56.0828C59.2036 53.7024 60.8861 52.7465 62.9557 53.9414C65.0158 55.1316 66.6936 58.0282 66.6888 60.4085C66.684 62.7889 64.9919 63.7401 62.9318 62.5499Z" fill="black"/>
<path d="M50.6213 34.4479C49.9664 32.555 50.9319 31.2167 52.4902 32.1153C53.5322 32.7176 54.3925 34.1133 54.5264 35.3608C55.9029 35.1361 57.4373 37.1628 57.6619 38.7258C59.1198 38.7497 60.635 40.9006 60.6302 42.5544L48.2122 35.3847C48.2122 33.8934 49.4072 33.4967 50.6213 34.4431V34.4479Z" fill="black"/>
<path d="M72.9021 51.7627C72.9977 51.8153 73.079 51.8726 73.1698 51.9396C73.0647 51.6384 73.0073 51.3325 73.0073 51.0457C73.0073 50.0228 73.7338 49.6166 74.6181 50.128C75.4307 50.5964 76.0998 51.6814 76.2002 52.6517C76.4535 52.6087 76.7403 52.6661 77.0606 52.8525C77.8445 53.3066 78.5041 54.339 78.6379 55.2711C78.853 55.2711 79.092 55.3428 79.3501 55.491C80.2344 56.0024 80.9514 57.2404 80.9466 58.2489L71.2914 52.6756C71.2914 51.6671 72.0131 51.256 72.8974 51.7675L72.9021 51.7627Z" fill="black"/>
<path d="M37.9532 69.6256L41.0218 71.3893L41.1557 25.6607L37.676 23.6484C37.5421 23.5815 37.4609 23.4333 37.4609 23.2852L37.4943 14.8536C37.4943 14.5381 37.8385 14.3421 38.1062 14.5094L45.4623 18.7491C45.5961 18.8304 45.6774 18.9642 45.6774 19.1124L45.663 23.0892L85.455 46.0515L85.4693 42.5526C85.4693 42.2372 85.8135 42.0412 86.0811 42.1894L93.4229 46.4291C93.5567 46.5103 93.638 46.6442 93.638 46.7923L93.6045 55.224C93.6045 55.5538 93.2604 55.7354 92.9927 55.5872L89.9384 53.8235L89.8046 99.5712L93.27 101.569C93.3847 101.636 93.4659 101.765 93.4659 101.913L93.4516 110.359C93.4516 110.675 93.0883 110.871 92.8254 110.703L85.4836 106.464C85.3689 106.397 85.2877 106.268 85.2877 106.12L85.302 102.143L45.5101 79.1613L45.4957 82.6601C45.4957 82.9899 45.1516 83.1716 44.8696 83.0234L37.5278 78.7837C37.394 78.7024 37.3127 78.5686 37.3127 78.4204L37.3271 69.9745C37.3414 69.659 37.6712 69.463 37.9532 69.6303V69.6256ZM85.6462 51.3475C85.6127 51.3332 85.5984 51.2997 85.5649 51.2663C85.4836 51.1993 85.4311 51.099 85.4311 50.9842L85.4454 47.2225V47.0074L45.6535 24.0452L45.6391 27.544C45.6391 27.8595 45.295 28.0411 45.0273 27.9073L41.973 26.1435L41.8392 71.8721L43.536 72.8472C43.9805 72.3357 54.5726 60.0277 54.869 59.6835C55.0649 59.4684 55.4473 59.5162 55.562 59.7982L63.0998 77.3689C64.9639 75.2084 72.3057 66.6477 72.8841 65.9881C73.08 65.7587 73.4624 65.8065 73.5771 66.0885L87.0897 97.6306L87.3048 98.1276L88.9729 99.1027L89.1067 53.355L85.6414 51.3571L85.6462 51.3475ZM85.302 101.139V97.6592C85.3163 97.3629 85.6653 97.1812 85.9282 97.3294L86.1241 97.4441L73.0896 67.0253C71.2398 69.1524 64.6246 76.8574 63.4535 78.2101L69.3422 91.9187L85.2972 101.139H85.302ZM45.3141 73.87C45.4479 73.9513 45.5101 74.0995 45.5101 74.2333V78.1767L68.1425 91.2447C65.6331 85.3894 57.5839 66.5808 55.0745 60.7255C54.5296 61.3708 44.8314 72.6177 44.2673 73.2821L45.3046 73.8748L45.3141 73.87Z" fill="black"/>
<path d="M103.695 88.794L135.223 107.005C136.69 107.856 137.837 109.84 137.837 111.517C137.818 113.348 136.427 114.204 134.792 113.262L103.265 95.046C101.797 94.1952 100.65 92.2068 100.65 90.51C100.669 88.6793 102.079 87.8524 103.695 88.7892V88.794ZM103.676 94.3338L135.204 112.55C136.25 113.157 136.996 112.75 137.01 111.517C137.01 110.15 136.002 108.41 134.807 107.722L103.279 89.511C102.218 88.8944 101.487 89.3293 101.472 90.5243C101.472 91.9248 102.462 93.636 103.676 94.3386V94.3338Z" fill="black"/>
<path d="M103.695 104.285L135.223 122.501C136.69 123.352 137.837 125.34 137.837 127.037C137.818 128.877 136.418 129.699 134.792 128.758L103.27 110.546C101.802 109.71 100.65 107.726 100.65 106.03C100.669 104.189 102.065 103.362 103.695 104.285ZM103.676 109.829L135.204 128.041C136.269 128.657 136.996 128.241 137.01 127.027C137.01 125.627 136.021 123.916 134.807 123.213L103.284 105.002C102.252 104.409 101.487 104.787 101.472 106.03C101.472 107.411 102.481 109.151 103.676 109.825V109.829Z" fill="black"/>
</svg>
